<svg xmlns="http://www.w3.org/2000/svg" xmlns:xlink="http://www.w3.org/1999/xlink" width="1563" zoomAndPan="magnify" viewBox="0 0 1172.25 1172.249948" height="1563" preserveAspectRatio="xMidYMid meet" version="1.0"><defs><clipPath id="493dd05990"><path d="M 250.410156 0 L 920 0 L 920 1171 L 250.410156 1171 Z M 250.410156 0 " clip-rule="nonzero"/></clipPath></defs><g clip-path="url(#493dd05990)"><path fill="#366baa" d="M 605.242188 1170.007812 C 605.074219 1169.835938 589.960938 1168.878906 571.664062 1167.878906 C 553.367188 1166.878906 534.1875 1165.519531 529.050781 1164.855469 C 523.910156 1164.191406 512.019531 1162.667969 502.625 1161.464844 C 491.101562 1159.992188 484.5 1158.597656 482.316406 1157.167969 C 478.25 1154.503906 480.570312 1153.5625 485.582031 1155.84375 C 489.867188 1157.796875 521.90625 1159.867188 582.199219 1162.082031 C 594.085938 1162.519531 606.699219 1163.027344 610.234375 1163.207031 C 629.160156 1164.175781 673.5625 1157.933594 689.898438 1152.007812 C 698.101562 1149.03125 700.660156 1147.414062 706.535156 1141.496094 C 712.230469 1135.757812 714.171875 1134.5 717.339844 1134.5 C 720.945312 1134.5 721.203125 1134.765625 721.203125 1138.414062 C 721.203125 1144.84375 718.992188 1149.292969 714.234375 1152.445312 C 708.273438 1156.386719 687.722656 1163.179688 676.8125 1164.808594 C 671.996094 1165.527344 665.203125 1166.609375 661.710938 1167.210938 C 649.960938 1169.234375 606.617188 1171.378906 605.242188 1170.007812 Z M 463 1147.441406 C 458.210938 1144.367188 453.390625 1140.835938 452.289062 1139.59375 C 449.949219 1136.953125 446.855469 1129.761719 447.332031 1128.078125 C 447.511719 1127.433594 447.976562 1125.480469 448.359375 1123.730469 C 448.746094 1121.980469 450.066406 1120.011719 451.296875 1119.351562 C 454.0625 1117.875 457.707031 1119.027344 456.234375 1120.910156 C 454.589844 1123.019531 453.753906 1129.21875 454.496094 1133.796875 C 455.074219 1137.371094 456.445312 1138.929688 463.496094 1144.058594 C 474.089844 1151.761719 473.957031 1151.640625 472.742188 1152.394531 C 472.175781 1152.742188 467.792969 1150.511719 463 1147.4375 Z M 521.457031 1131.402344 C 518.566406 1131.207031 512.78125 1130.511719 508.605469 1129.855469 C 504.429688 1129.199219 495.496094 1128.148438 488.75 1127.523438 C 474.246094 1126.179688 459.128906 1121.15625 462.78125 1118.898438 C 463.386719 1118.523438 467.453125 1119.238281 471.816406 1120.488281 C 476.179688 1121.734375 483.746094 1123.074219 488.628906 1123.464844 C 507.015625 1124.933594 535.246094 1129.40625 537.167969 1131.15625 C 538.230469 1132.125 533.28125 1132.203125 521.457031 1131.402344 Z M 587.691406 1129.046875 C 587.316406 1128.4375 594.90625 1127.351562 605.347656 1126.523438 C 638.59375 1123.890625 676.761719 1114.972656 702.257812 1103.875 L 706.089844 1102.207031 L 699.628906 1096.292969 C 693.113281 1090.320312 691.707031 1087.777344 694.921875 1087.777344 C 695.886719 1087.777344 696.675781 1088.253906 696.675781 1088.839844 C 696.675781 1090.179688 710.261719 1100.910156 715.179688 1103.449219 C 719.054688 1105.453125 720.191406 1108.804688 716.996094 1108.804688 C 715.382812 1108.804688 715.238281 1109.917969 715.949219 1116.980469 C 716.730469 1124.769531 716.652344 1125.15625 714.3125 1125.15625 C 712.347656 1125.15625 711.835938 1124.402344 711.742188 1121.359375 C 711.5625 1115.554688 710.097656 1111.675781 708.25 1112.121094 C 707.34375 1112.335938 701.871094 1113.789062 696.089844 1115.34375 C 673.523438 1121.417969 656.644531 1124.789062 635.347656 1127.480469 C 622.265625 1129.132812 588.433594 1130.246094 587.691406 1129.046875 Z M 463.890625 1115.09375 C 463.195312 1114.398438 467.957031 1106.828125 474.832031 1097.707031 C 477.253906 1094.492188 482.222656 1085.558594 485.875 1077.847656 C 489.527344 1070.140625 494.503906 1059.871094 496.933594 1055.03125 C 503.851562 1041.246094 508.046875 1025.113281 509.226562 1007.761719 C 509.578125 1002.621094 510.257812 993.421875 510.742188 987.320312 C 511.851562 973.324219 511.800781 950.417969 510.664062 949.277344 C 509.816406 948.425781 489.488281 945.84375 456.167969 942.351562 C 446.921875 941.382812 436.144531 940.082031 432.222656 939.460938 C 428.296875 938.839844 419.632812 937.75 412.964844 937.042969 C 406.300781 936.332031 399.589844 935.277344 398.058594 934.695312 C 396.523438 934.109375 390.148438 932.855469 383.894531 931.90625 C 373.390625 930.308594 349.082031 922.671875 337.476562 917.320312 C 326.949219 912.46875 318.164062 909.117188 306.90625 905.65625 C 289.476562 900.300781 278.207031 894.222656 268.265625 884.816406 C 260.300781 877.28125 258.125 874.011719 261.074219 874.011719 C 261.773438 874.011719 265.761719 876.847656 269.933594 880.308594 C 279.605469 888.339844 296.128906 896.394531 314.699219 902.128906 C 322.730469 904.609375 334.03125 908.683594 339.816406 911.179688 C 345.597656 913.679688 352.429688 916.378906 355 917.179688 C 357.570312 917.976562 363.617188 920.125 368.433594 921.945312 C 373.25 923.769531 380.875 925.839844 385.371094 926.550781 C 389.867188 927.261719 397.367188 928.871094 402.035156 930.132812 C 406.707031 931.390625 415.90625 933.226562 422.480469 934.210938 C 429.054688 935.199219 436.273438 936.492188 438.519531 937.089844 C 442.640625 938.1875 459.175781 940.285156 489.335938 943.53125 C 498.328125 944.5 508.054688 945.589844 510.945312 945.953125 C 522.023438 947.347656 573.8125 946.613281 593.296875 944.785156 C 604.21875 943.761719 615.78125 942.679688 618.996094 942.386719 C 622.207031 942.089844 639.027344 940.78125 656.375 939.476562 C 690.410156 936.917969 714.820312 934.554688 736.976562 931.679688 C 752.605469 929.648438 796.003906 923.3125 804.140625 921.871094 C 807.035156 921.359375 812.550781 920.390625 816.40625 919.71875 C 839.035156 915.777344 849.648438 913.421875 858.753906 910.320312 C 864.375 908.402344 871.035156 906.472656 873.550781 906.027344 C 879.574219 904.964844 889.820312 899.511719 893.523438 895.398438 C 895.144531 893.59375 898.566406 889.929688 901.121094 887.253906 C 903.675781 884.574219 905.8125 881.683594 905.863281 880.828125 C 906.03125 878.144531 906.695312 874.820312 908.441406 867.882812 C 909.371094 864.1875 909.875 861.164062 909.5625 861.164062 C 909.25 861.164062 904.191406 863.464844 898.328125 866.273438 C 885.945312 872.199219 878.550781 874.679688 843.859375 884.515625 C 832.683594 887.683594 794.132812 893.148438 773.769531 894.449219 C 767.667969 894.835938 758.46875 895.636719 753.328125 896.21875 C 748.1875 896.804688 730.578125 897.582031 714.195312 897.941406 C 684.449219 898.597656 655.0625 899.917969 623.082031 902.035156 C 571.902344 905.421875 505.921875 904.238281 465.96875 899.222656 C 453.121094 897.609375 437.613281 895.671875 431.511719 894.914062 C 425.410156 894.160156 419.101562 893.035156 417.492188 892.417969 C 415.886719 891.800781 407.476562 890.078125 398.804688 888.585938 C 390.132812 887.097656 380.933594 885.28125 378.363281 884.550781 C 375.792969 883.820312 367.121094 881.707031 359.089844 879.851562 C 340.59375 875.578125 312.269531 866.078125 299.949219 860.019531 C 294.726562 857.453125 287.890625 853.085938 284.761719 850.320312 C 281.632812 847.550781 277.496094 844.097656 275.570312 842.644531 C 273.640625 841.191406 269.558594 837.59375 266.492188 834.644531 C 263.425781 831.695312 260.535156 829.667969 260.066406 830.136719 C 259.597656 830.605469 259.144531 837.382812 259.058594 845.199219 C 258.832031 865.359375 258.925781 864.667969 256.457031 864.667969 C 252.78125 864.667969 250.445312 849.917969 251.035156 830.390625 C 251.550781 813.289062 252.273438 810.933594 257.023438 810.933594 C 259.667969 810.933594 260.417969 812.378906 259.890625 816.46875 C 259.554688 819.082031 275.136719 833.203125 286.859375 840.90625 C 293.175781 845.058594 298.347656 848.863281 298.347656 849.359375 C 298.347656 851.132812 317.882812 860.050781 332.804688 865.089844 C 359.808594 874.207031 424.066406 888.59375 450.785156 891.503906 C 457.851562 892.273438 470.628906 893.910156 479.175781 895.140625 C 487.726562 896.371094 500.078125 897.390625 506.628906 897.410156 C 513.175781 897.425781 523.53125 897.949219 529.632812 898.570312 C 540.980469 899.730469 592.820312 900.109375 604.394531 899.121094 C 627.207031 897.167969 640.636719 896.21875 653.453125 895.652344 C 661.484375 895.296875 671.472656 894.761719 675.648438 894.464844 C 679.824219 894.164062 697.582031 893.625 715.109375 893.261719 C 732.636719 892.898438 747.617188 892.371094 748.398438 892.089844 C 749.183594 891.808594 759.351562 890.789062 771 889.824219 C 782.648438 888.855469 794.738281 887.574219 797.867188 886.972656 C 800.996094 886.371094 807.761719 885.269531 812.902344 884.523438 C 827.964844 882.335938 833.898438 881.050781 840.53125 878.546875 C 843.964844 877.246094 850.457031 875.148438 854.953125 873.882812 C 879.316406 867.027344 891.851562 861.019531 899.679688 852.453125 C 903.027344 848.789062 905.765625 845.109375 905.765625 844.277344 C 905.765625 843.441406 906.554688 842.109375 907.519531 841.308594 C 909.855469 839.367188 909.742188 833.175781 907.304688 829.59375 C 903.875 824.546875 887.742188 809.824219 885.617188 809.796875 C 882.445312 809.75 883.207031 806.398438 886.578125 805.554688 C 888.234375 805.136719 890.835938 805.367188 892.363281 806.0625 C 896.191406 807.808594 912.597656 823.550781 914.578125 827.382812 C 919.960938 837.796875 921.15625 847.53125 917.589844 851.933594 C 916.058594 853.824219 915.554688 855.882812 915.914062 858.777344 C 916.199219 861.054688 915.632812 865.503906 914.65625 868.664062 C 913.683594 871.824219 913.1875 874.902344 913.558594 875.503906 C 914.722656 877.386719 911.390625 894.285156 909.09375 898.128906 C 906.605469 902.292969 901.511719 906.453125 894.671875 909.914062 C 889.25 912.660156 864.660156 920.902344 856.121094 922.839844 C 835.226562 927.582031 800.546875 933.21875 775.300781 935.972656 C 770.683594 936.476562 765.953125 937.1875 764.789062 937.550781 C 763.625 937.914062 751.371094 939.023438 737.558594 940.019531 C 723.746094 941.015625 704.820312 942.375 695.507812 943.042969 C 686.191406 943.710938 671.996094 944.617188 663.964844 945.054688 L 649.363281 945.851562 L 648.492188 952.859375 C 646.4375 969.367188 647.878906 994.542969 651.601562 1007.179688 C 652.453125 1010.070312 653.78125 1015.324219 654.554688 1018.859375 C 655.328125 1022.390625 656.433594 1026.597656 657.011719 1028.203125 C 657.589844 1029.8125 658.300781 1032.535156 658.585938 1034.257812 C 660.207031 1043.972656 668 1059.957031 674.761719 1067.445312 C 676.554688 1069.429688 680.136719 1073.886719 682.71875 1077.351562 C 685.304688 1080.8125 688.183594 1084.074219 689.125 1084.601562 C 691.339844 1085.84375 691.324219 1087.777344 689.097656 1087.777344 C 686.136719 1087.777344 661.824219 1064.269531 655.882812 1055.65625 C 649.289062 1046.09375 646.613281 1039.878906 642.554688 1024.699219 C 637.730469 1006.648438 636.859375 1000.613281 636.941406 985.703125 C 637 974.757812 637.65625 969.035156 639.84375 960.453125 C 641.398438 954.351562 642.570312 949.238281 642.445312 949.09375 C 642.019531 948.59375 601.410156 951.210938 591.542969 952.375 C 586.082031 953.019531 567.871094 953.867188 551.074219 954.253906 L 520.53125 954.960938 L 521.832031 958.582031 C 523.339844 962.785156 523.617188 996.113281 522.230469 1006.59375 C 520.125 1022.476562 513.273438 1042.074219 505.90625 1053.273438 C 503.777344 1056.507812 498.980469 1065.203125 495.246094 1072.59375 C 486.8125 1089.285156 484.582031 1093.089844 480.066406 1098.480469 C 478.097656 1100.835938 474.769531 1105.15625 472.675781 1108.082031 C 468.933594 1113.316406 465.140625 1116.34375 463.890625 1115.09375 Z M 530.429688 981.1875 C 530.039062 976.527344 529.367188 970.746094 528.9375 968.335938 C 528.203125 964.199219 528.328125 963.957031 531.191406 963.957031 C 536.160156 963.957031 537.292969 967.886719 536.824219 983.523438 C 536.65625 989.132812 536.40625 989.65625 533.890625 989.65625 C 531.316406 989.65625 531.089844 989.101562 530.429688 981.1875 Z M 544.285156 977.410156 C 543.4375 970.617188 543.957031 968.628906 546.570312 968.628906 C 548.804688 968.628906 549.140625 969.433594 550.09375 977.097656 C 550.914062 983.707031 550.878906 983.8125 548.007812 983.8125 C 545.34375 983.8125 545.015625 983.25 544.289062 977.410156 Z M 626.585938 864.023438 C 620.507812 863.441406 575.058594 861.289062 552.996094 860.542969 C 542.394531 860.179688 525.046875 859.347656 514.445312 858.6875 C 503.84375 858.023438 492.019531 857.316406 488.164062 857.113281 C 451.152344 855.15625 440.675781 854.148438 419.828125 850.546875 C 376.597656 843.074219 352.425781 837.175781 343.078125 831.808594 C 334.042969 826.621094 337.640625 825.992188 348.667969 830.832031 C 359.59375 835.628906 382.660156 840.164062 413.90625 843.664062 C 418.769531 844.207031 429.320312 845.445312 437.351562 846.410156 C 445.382812 847.378906 464.828125 849.015625 480.570312 850.050781 C 496.3125 851.089844 513.65625 852.386719 519.117188 852.9375 C 524.578125 853.484375 535.617188 854.011719 543.648438 854.105469 C 564.203125 854.34375 585.535156 855.078125 616.65625 856.617188 C 663.382812 858.929688 706.363281 856.382812 735.804688 849.554688 C 740.945312 848.363281 747.515625 847.03125 750.40625 846.59375 C 753.296875 846.15625 759.605469 844.835938 764.421875 843.65625 C 769.242188 842.476562 776.339844 840.882812 780.191406 840.113281 C 792.253906 837.699219 826.644531 825.855469 832.757812 822.007812 C 835.972656 819.988281 839.339844 816.941406 840.246094 815.238281 C 842.355469 811.273438 846.117188 809.988281 848.011719 812.582031 C 849.316406 814.367188 849.742188 814.332031 853.46875 812.132812 C 858.9375 808.90625 860.261719 803.835938 860.089844 786.8125 C 859.992188 777.171875 860.5625 770.53125 861.964844 764.941406 C 863.167969 760.140625 863.539062 756.621094 862.886719 756.183594 C 861.582031 755.304688 861.832031 745.707031 863.691406 725.078125 C 865.523438 704.816406 866.542969 670.363281 865.292969 670.96875 C 853.859375 676.542969 849.964844 677.917969 842.453125 679.03125 C 835.894531 680.007812 831.015625 680.019531 824 679.078125 C 808.382812 676.976562 800.652344 672.246094 794.183594 660.832031 C 792.363281 657.621094 790.6875 654.753906 790.457031 654.464844 C 789.605469 653.386719 784.632812 659.851562 783.730469 663.203125 C 781.703125 670.75 779.929688 684.4375 780.417969 688.792969 C 780.703125 691.320312 781.90625 695.265625 783.09375 697.554688 C 784.28125 699.84375 787.09375 705.246094 789.347656 709.5625 C 791.601562 713.875 794.042969 720.28125 794.769531 723.796875 C 795.996094 729.6875 795.855469 730.804688 792.957031 738.144531 C 789.609375 746.628906 787.183594 750.195312 784.753906 750.195312 C 782.066406 750.195312 781.96875 748.292969 784.3125 741.625 C 787.074219 733.773438 787.117188 732.375 784.902344 723.859375 C 783.175781 717.238281 779.992188 709.996094 774.257812 699.660156 C 770.949219 693.695312 770.0625 685.339844 771.707031 675.589844 L 772.570312 670.484375 L 768.789062 673.59375 C 762.050781 679.136719 753.300781 682.484375 739.078125 684.953125 C 727.3125 687 722.039062 687.265625 703.097656 686.761719 C 684.140625 686.257812 679.285156 685.734375 669.804688 683.175781 C 637.644531 674.492188 633.054688 672.855469 624.832031 667.140625 C 619.164062 663.203125 618.855469 663.128906 614.367188 664.636719 C 608.179688 666.714844 607.476562 667.652344 612.859375 666.648438 C 616.40625 665.984375 617.242188 666.179688 617.242188 667.65625 C 617.242188 668.660156 615.53125 670.300781 613.445312 671.296875 C 605.070312 675.292969 599.523438 690.738281 599.371094 710.476562 C 599.257812 725.671875 601.054688 731.996094 608.757812 743.46875 C 617.75 756.859375 618.996094 759.25 620.703125 766.367188 C 622.460938 773.710938 621.871094 779.140625 618.019531 791.078125 C 612.585938 807.914062 611.558594 809.765625 607.632812 809.765625 C 604.523438 809.765625 604.210938 809.464844 604.941406 807.140625 C 605.394531 805.695312 607.019531 799.253906 608.558594 792.828125 C 613.453125 772.351562 612.117188 764.476562 601.160156 749.257812 C 590.625 734.628906 588.792969 729.632812 588.445312 714.566406 C 588.253906 706.1875 588.734375 699.507812 589.832031 695.375 C 590.757812 691.890625 591.363281 688.882812 591.175781 688.695312 C 590.988281 688.507812 585.867188 689.429688 579.796875 690.742188 C 558.796875 695.285156 523.804688 694.945312 499.683594 689.964844 C 490.4375 688.054688 471.828125 682.285156 467.394531 679.957031 C 462.996094 677.644531 446.160156 665.164062 443.222656 662.035156 C 441.695312 660.410156 439.738281 659.078125 438.871094 659.078125 C 438.003906 659.078125 435.691406 661.574219 433.730469 664.628906 C 430.730469 669.292969 430.246094 671.050781 430.660156 675.667969 C 431.253906 682.246094 436.132812 690.757812 445.585938 701.6875 C 452.839844 710.078125 456.875 719.710938 455.519531 725.402344 C 454.753906 728.601562 449.140625 742.835938 445.855469 749.898438 C 444.777344 752.21875 443.234375 753.695312 441.886719 753.695312 C 439.378906 753.695312 439.242188 753.296875 440.800781 750.46875 C 441.417969 749.351562 442.777344 745.300781 443.828125 741.46875 C 444.878906 737.632812 446.824219 732.375 448.144531 729.785156 C 452.601562 721.058594 450.28125 713.558594 439.3125 701.265625 C 424.5 684.664062 422.308594 671.996094 432.238281 660.390625 C 436.121094 655.855469 436.34375 655.238281 434.671875 653.566406 C 433.003906 651.898438 432.523438 652.046875 429.378906 655.1875 C 424.746094 659.820312 421.632812 673.210938 421.6875 688.28125 C 421.730469 701.292969 424.214844 708.960938 432.117188 720.503906 C 438.292969 729.527344 440.425781 739.191406 438.007812 747.222656 C 436.195312 753.242188 429.707031 765.183594 423.191406 774.480469 C 419.839844 779.265625 418.660156 782.117188 418.660156 785.429688 C 418.660156 790.078125 416.117188 791.765625 414.695312 788.0625 C 412.96875 783.5625 414.289062 779.46875 420.519531 770.027344 C 429.640625 756.203125 433.84375 747.101562 433.84375 741.183594 C 433.84375 734.441406 429.863281 724.367188 424.828125 718.378906 C 415.96875 707.839844 412.851562 695.476562 415.082031 679.722656 C 415.914062 673.839844 417.074219 667.773438 417.65625 666.238281 C 418.644531 663.640625 418.496094 663.496094 415.476562 664.140625 C 411.542969 664.980469 381.371094 671.644531 374.855469 673.109375 C 368.542969 674.53125 350.351562 674.484375 344.039062 673.03125 C 335.425781 671.042969 329.175781 667.558594 324.296875 662.015625 C 319.382812 656.429688 317.304688 650.902344 320.117188 650.902344 C 320.996094 650.902344 325.035156 654.210938 329.097656 658.253906 C 338.085938 667.195312 344.289062 669.601562 358.34375 669.582031 C 365.597656 669.570312 370.476562 668.746094 378.945312 666.089844 C 385.046875 664.175781 391.09375 662.558594 392.378906 662.496094 C 393.664062 662.433594 387.867188 660.917969 379.496094 659.128906 C 364.183594 655.859375 352.960938 651.382812 351.675781 648.039062 C 350.691406 645.476562 351.957031 645.757812 359.316406 649.746094 C 363.035156 651.757812 370.472656 654.222656 376.753906 655.519531 C 395.496094 659.394531 396.425781 659.367188 406.367188 654.667969 C 412.144531 651.9375 415.039062 649.941406 414.65625 648.949219 C 414.292969 648 415.269531 647.171875 417.242188 646.757812 C 422.832031 645.582031 423.851562 645.289062 427.507812 643.816406 C 433.363281 641.457031 436.492188 643.113281 442.96875 651.988281 C 446.445312 656.753906 453.527344 663.945312 460.09375 669.386719 C 472.453125 679.621094 479.734375 682.914062 499.582031 687.246094 C 528.21875 693.496094 570.625 691.992188 585.710938 684.191406 C 589.710938 682.121094 596.730469 675.558594 595.863281 674.695312 C 595.542969 674.371094 592.464844 674.960938 589.03125 676.003906 C 585.59375 677.046875 574.460938 678.492188 564.292969 679.214844 C 543.492188 680.695312 534.425781 679.777344 519.121094 674.628906 C 502.429688 669.019531 483.53125 656.953125 485.769531 653.335938 C 486.972656 651.386719 488.203125 651.792969 492.070312 655.40625 C 497.085938 660.089844 515.636719 669.007812 526.535156 671.972656 C 537.398438 674.929688 547.082031 675.300781 562.78125 673.347656 C 578.605469 671.382812 587.363281 668.933594 595.40625 664.21875 C 600.726562 661.101562 604.21875 660 611.199219 659.234375 C 621.496094 658.109375 622.421875 658.300781 627.171875 662.5625 C 633.183594 667.957031 638.914062 670.519531 650.609375 673.054688 C 656.824219 674.402344 665.648438 676.539062 670.214844 677.804688 C 681.117188 680.828125 717.292969 681.085938 734.140625 678.261719 C 747.242188 676.066406 752.523438 673.726562 760.335938 666.671875 C 773.730469 654.574219 788.160156 647.171875 794.863281 648.960938 C 796.464844 649.386719 798.996094 651.820312 800.636719 654.503906 C 804.3125 660.527344 811.539062 667.960938 815.914062 670.222656 C 823.804688 674.304688 842.320312 673.386719 852.003906 668.433594 C 857.199219 665.777344 865.148438 657.003906 865.203125 653.863281 C 865.277344 649.679688 863.488281 614.539062 863.101562 612.535156 C 862.894531 611.472656 862.675781 609.023438 862.617188 607.097656 C 862.429688 600.90625 861.5 600.515625 853.160156 603.121094 C 842.21875 606.542969 832.136719 608.511719 815.101562 610.566406 C 806.824219 611.5625 794.007812 613.15625 786.621094 614.109375 C 779.230469 615.058594 766.351562 615.847656 758 615.855469 C 749.570312 615.863281 735.148438 616.902344 725.582031 618.1875 C 716.105469 619.457031 700.859375 620.800781 691.707031 621.175781 C 682.554688 621.546875 669.28125 622.585938 662.214844 623.480469 C 644.472656 625.726562 600.148438 626.96875 541.3125 626.875 C 501.355469 626.8125 489.046875 626.414062 478.238281 624.839844 C 470.847656 623.765625 457.707031 622.574219 449.035156 622.1875 C 419.859375 620.898438 347.863281 607.109375 342.210938 601.730469 C 340.496094 600.101562 345.691406 600.449219 352.484375 602.417969 C 359.039062 604.320312 375.097656 607.472656 397.050781 611.171875 C 404.761719 612.46875 415.011719 614.355469 419.832031 615.363281 C 424.648438 616.371094 437.527344 617.65625 448.449219 618.214844 C 459.371094 618.777344 474.351562 619.820312 481.742188 620.539062 C 491.695312 621.507812 508.628906 621.492188 547.15625 620.484375 C 627.535156 618.375 649.621094 617.398438 661.628906 615.40625 C 667.734375 614.394531 677.457031 613.554688 683.238281 613.542969 C 695.753906 613.515625 715.839844 611.71875 728.796875 609.464844 C 733.9375 608.570312 745.144531 607.804688 753.699219 607.761719 C 762.257812 607.714844 771.191406 607.425781 773.558594 607.109375 C 775.921875 606.792969 786.792969 605.472656 797.714844 604.179688 C 826.101562 600.8125 838.011719 598.667969 845.394531 595.582031 C 849.996094 593.660156 854.359375 587.71875 854.363281 583.367188 C 854.367188 581.878906 854.941406 579.589844 855.640625 578.28125 C 856.699219 576.304688 856.375 575.339844 853.714844 572.566406 C 849.230469 567.882812 842.429688 564.964844 825.554688 560.476562 C 815.785156 557.878906 810.097656 555.738281 808.414062 554.027344 L 805.890625 551.46875 L 808.648438 549.203125 C 811.535156 546.832031 816.382812 546.179688 817.511719 548.007812 C 817.875 548.59375 817.511719 549.351562 816.703125 549.6875 C 814.398438 550.644531 818.742188 553.585938 823.769531 554.46875 C 832.285156 555.960938 849.234375 561.324219 855.726562 564.578125 C 859.359375 566.398438 863.433594 569.433594 864.777344 571.320312 C 867.410156 575.019531 867.953125 580.765625 866.011719 584.394531 C 864.972656 586.328125 865.195312 586.652344 867.539062 586.652344 C 869.042969 586.652344 871.21875 587.339844 872.367188 588.179688 C 874.335938 589.621094 874.28125 589.914062 871.371094 593.375 L 868.289062 597.039062 L 870.136719 606.902344 C 872.785156 621.042969 872.9375 692.695312 870.355469 711.058594 C 867.773438 729.402344 866.773438 749.847656 868.425781 750.398438 C 869.257812 750.675781 869.738281 754.382812 869.738281 760.53125 C 869.738281 769.132812 869.960938 770.136719 871.691406 769.421875 C 876.285156 767.53125 877.058594 768.121094 876.71875 773.246094 C 876.523438 776.164062 877.386719 780.867188 878.8125 784.679688 C 880.148438 788.246094 881.230469 792.585938 881.222656 794.328125 C 881.199219 798.703125 872.511719 813.988281 868.640625 816.460938 C 866.894531 817.578125 864.941406 819.117188 864.300781 819.882812 C 862.308594 822.253906 854.335938 825.855469 840.351562 830.699219 C 832.964844 833.261719 822.714844 837.007812 817.574219 839.027344 C 801.320312 845.417969 799.53125 845.976562 787.988281 848.300781 C 762.210938 853.484375 752.9375 855.394531 745.734375 857.003906 C 741.558594 857.9375 734.726562 859.242188 730.550781 859.902344 C 726.371094 860.5625 719.277344 861.679688 714.78125 862.386719 C 707.191406 863.578125 635.765625 864.90625 626.585938 864.023438 Z M 428.496094 651.359375 C 431.175781 650.332031 430.765625 648.671875 428.003906 649.394531 C 426.722656 649.730469 425.667969 650.46875 425.667969 651.035156 C 425.667969 652.257812 426.042969 652.300781 428.492188 651.359375 Z M 558.1875 845.007812 C 544.136719 838.234375 533.515625 834.632812 523.453125 833.230469 C 509.25 831.246094 504.835938 831.554688 500.308594 834.839844 C 498.128906 836.425781 495.136719 838.601562 493.664062 839.679688 C 489.867188 842.453125 482.089844 843.625 475.585938 842.402344 C 470.449219 841.4375 467.078125 839.878906 456.042969 833.371094 C 447.847656 828.542969 425.9375 825.1875 423.917969 828.453125 C 423.519531 829.097656 419.914062 829.621094 415.902344 829.621094 C 406.601562 829.621094 399.757812 826.285156 389.574219 816.78125 C 377.332031 805.355469 369.230469 802.632812 362.972656 807.839844 C 356.886719 812.902344 352.53125 813.941406 339.5625 813.421875 C 334.664062 813.222656 328.113281 807.480469 326.328125 801.820312 C 325.582031 799.445312 323.722656 795.558594 322.199219 793.1875 C 319.828125 789.496094 318.722656 788.824219 314.527344 788.515625 C 308.054688 788.039062 307.394531 785.6875 313.445312 784.664062 C 323.050781 783.042969 328.789062 786.8125 335.324219 799.035156 C 337.152344 802.449219 340.074219 806.109375 341.824219 807.171875 C 345.230469 809.234375 347.289062 808.917969 359.085938 804.503906 C 369.898438 800.464844 379.792969 803.785156 397.632812 817.441406 C 407.894531 825.296875 411.101562 826.554688 417.992188 825.417969 C 421.25 824.878906 428.910156 824.449219 435.015625 824.460938 C 448.015625 824.488281 458.371094 826.902344 470.851562 832.828125 L 479.464844 836.921875 L 488.351562 832.410156 C 495.679688 828.691406 498.699219 827.828125 505.601562 827.476562 C 520.34375 826.734375 537.65625 830.929688 559.417969 840.511719 C 568.925781 844.699219 576.371094 845 581.761719 841.410156 C 596.949219 831.269531 617.351562 830.367188 646.082031 838.570312 C 654.308594 840.917969 655.308594 840.621094 666.886719 832.371094 C 672.570312 828.320312 672.960938 828.222656 681.488281 828.726562 C 688.355469 829.132812 691.828125 830.046875 697.558594 832.960938 C 704.316406 836.394531 705.070312 836.542969 707.542969 834.921875 C 709.015625 833.957031 711.300781 831.707031 712.621094 829.921875 C 713.941406 828.136719 717.855469 825.105469 721.324219 823.1875 C 727.035156 820.023438 728.617188 819.699219 738.140625 819.730469 C 744.203125 819.753906 749.738281 820.371094 751.222656 821.199219 C 752.632812 821.988281 758.414062 822.9375 764.070312 823.308594 L 774.351562 823.988281 L 778.441406 818.9375 C 780.6875 816.160156 783.894531 812.472656 785.566406 810.742188 C 789.601562 806.566406 800.425781 803.457031 809.394531 803.902344 C 813.25 804.09375 817.75 804.257812 819.394531 804.265625 C 822.273438 804.285156 828.335938 801.066406 836.726562 795.078125 C 841.152344 791.917969 848.582031 791.25 850.714844 793.820312 C 852.496094 795.964844 849.949219 798.125 838.898438 803.84375 C 828.117188 809.421875 822.175781 810.4375 812.898438 808.28125 C 807.15625 806.941406 804.875 806.914062 800.25 808.109375 C 793.609375 809.828125 791.46875 811.585938 786.058594 819.730469 C 780.070312 828.757812 774.683594 830.332031 758.5625 827.777344 C 736.4375 824.269531 734.613281 824.089844 731.851562 825.132812 C 730.320312 825.707031 725.214844 829.917969 720.503906 834.488281 C 709.6875 844.972656 707.59375 845.191406 693.03125 837.367188 C 687.496094 834.394531 681.851562 831.960938 680.488281 831.960938 C 679.125 831.960938 675.078125 834.613281 671.496094 837.859375 C 663.828125 844.800781 661.171875 845.976562 653.167969 845.976562 C 647.144531 845.976562 644.636719 845.375 631.84375 840.859375 C 626.25 838.882812 622.117188 838.386719 611.398438 838.394531 C 597.023438 838.410156 597.828125 838.164062 583.949219 846.601562 C 576.773438 850.964844 569.636719 850.523438 558.1875 845.007812 Z M 315.28125 814.339844 C 301.78125 802.9375 298.828125 798.082031 305.382812 798.082031 C 308.117188 798.082031 309.175781 798.773438 310.078125 801.140625 C 310.71875 802.824219 314.734375 807.816406 319.003906 812.238281 C 328.5 822.074219 326.070312 823.445312 315.28125 814.339844 Z M 256.292969 809.105469 C 256.292969 805.808594 266.535156 797.816406 287.855469 784.488281 C 294.453125 780.363281 302.269531 778.722656 306.914062 780.488281 C 311 782.042969 310.914062 784.335938 306.785156 783.902344 C 302.4375 783.445312 297.046875 785.757812 287.246094 792.28125 C 282.75 795.273438 275.914062 799.445312 272.0625 801.554688 C 268.207031 803.660156 263.96875 806.371094 262.640625 807.574219 C 260.398438 809.613281 256.292969 810.601562 256.292969 809.105469 Z M 628.71875 758.578125 C 629.25 741.464844 628.867188 740.285156 618.4375 727.109375 C 615.253906 723.085938 612.058594 717.589844 611.332031 714.894531 C 608.742188 705.273438 612.496094 689.578125 617.882812 687.511719 C 620.765625 686.40625 620.867188 687.558594 618.304688 692.449219 C 616.328125 696.226562 615.988281 698.59375 616.390625 705.800781 C 616.933594 715.597656 619.1875 720.652344 626.621094 728.738281 C 633.042969 735.726562 634.933594 740.128906 635.785156 750.097656 C 637.039062 764.714844 634.933594 773.554688 630.195312 773.554688 C 628.460938 773.554688 628.300781 771.953125 628.71875 758.578125 Z M 307.539062 759.324219 C 308.9375 755.527344 312.679688 754.90625 312.164062 758.554688 C 311.910156 760.34375 310.875 761.417969 309.15625 761.660156 C 306.863281 761.984375 306.664062 761.695312 307.539062 759.324219 Z M 307.679688 735.296875 C 307.675781 730.316406 307.09375 721.511719 306.394531 715.730469 C 305.691406 709.949219 305.265625 698.910156 305.449219 691.199219 C 305.632812 683.492188 305.558594 669.5625 305.285156 660.246094 C 304.511719 634.085938 304.679688 606.65625 305.652344 598.917969 C 306.71875 590.476562 310.523438 578.789062 313.277344 575.5 C 314.382812 574.183594 317.117188 572.082031 319.355469 570.828125 C 321.597656 569.574219 326.847656 565.976562 331.027344 562.835938 C 339.433594 556.515625 343.566406 554.570312 357.335938 550.449219 C 362.472656 548.910156 366.816406 547.574219 366.984375 547.476562 C 368.46875 546.621094 358.003906 524.734375 353.992188 520.300781 C 351.914062 518.007812 351.808594 517.453125 353.277344 516.53125 C 357.882812 513.644531 364.351562 520.007812 372.472656 535.410156 C 377.695312 545.316406 377.875 545.503906 380.816406 544.191406 C 383.714844 542.894531 383.796875 542.585938 383.113281 535.257812 C 382 523.269531 379.023438 505.117188 376.546875 495.21875 C 375.296875 490.222656 374.265625 483.914062 374.253906 481.199219 C 374.242188 478.484375 373.265625 471.535156 372.082031 465.753906 C 369.390625 452.589844 369.101562 442.222656 370.761719 418.160156 C 372.117188 398.457031 373.074219 393.914062 375.875 393.914062 C 378.5 393.914062 378.839844 396.253906 379.070312 415.789062 C 379.335938 438.425781 380.523438 452.476562 383.640625 469.886719 C 384.277344 473.445312 384.664062 485.011719 384.5 495.585938 C 384.203125 514.738281 384.945312 521.609375 390.125 547.765625 C 391.042969 552.394531 391.796875 558.703125 391.796875 561.78125 C 391.800781 566.6875 392.230469 567.667969 395.273438 569.707031 C 402.085938 574.269531 400.957031 586.585938 393.027344 594.183594 C 389.96875 597.117188 384.042969 599.503906 379.828125 599.503906 C 376.816406 599.503906 377.332031 597.277344 380.636719 596.023438 C 385.042969 594.347656 387.433594 589.695312 387.539062 582.601562 C 387.605469 577.992188 387.042969 575.652344 385.441406 573.886719 C 382.6875 570.839844 381.28125 570.8125 381.28125 573.804688 C 381.28125 575.089844 381.839844 576.140625 382.519531 576.140625 C 383.199219 576.140625 383.429688 576.667969 383.03125 577.308594 C 382.636719 577.953125 380.476562 578.476562 378.230469 578.476562 C 374.746094 578.476562 373.972656 577.964844 372.929688 574.972656 C 371.40625 570.601562 370.300781 570.585938 366.007812 574.882812 C 363.742188 577.148438 362.589844 579.484375 362.589844 581.824219 C 362.589844 586.175781 360.65625 587.558594 358.121094 585.019531 C 356.902344 583.804688 356.253906 581.328125 356.335938 578.226562 C 356.476562 572.789062 359.933594 569.046875 366.972656 566.707031 C 370.898438 565.40625 371.5625 563.457031 370.03125 557.742188 C 369.308594 555.039062 365.3125 554.113281 363.117188 556.144531 C 362.507812 556.707031 359.90625 557.832031 357.335938 558.640625 C 352.4375 560.179688 344.578125 564.105469 338.644531 567.980469 C 336.71875 569.238281 333.828125 570.8125 332.222656 571.480469 C 324.851562 574.539062 319.117188 577.9375 318.097656 579.847656 C 315.953125 583.851562 318.144531 587.882812 323.78125 590.296875 C 330.566406 593.207031 329.363281 594.503906 322.15625 592.046875 C 319.125 591.011719 316.511719 590.296875 316.355469 590.457031 C 314.839844 591.980469 313.738281 623.8125 313.859375 662.582031 C 314.042969 722.203125 312.832031 744.351562 309.390625 744.351562 C 308.050781 744.351562 307.6875 742.4375 307.683594 735.300781 Z M 384.902344 564.75 C 385.101562 563.253906 385.125 558.246094 384.949219 553.058594 C 384.792969 548.367188 384.648438 548.167969 382.402344 549.554688 C 380.011719 551.03125 379.972656 551.917969 381.882812 561.863281 C 382.097656 562.96875 382.3125 564.269531 382.359375 564.75 C 382.410156 565.234375 382.976562 565.628906 383.617188 565.628906 C 384.257812 565.628906 384.839844 565.234375 384.902344 564.75 Z M 797.542969 717.773438 C 797.855469 716.652344 798.460938 712.152344 798.890625 707.777344 C 799.601562 700.484375 799.878906 699.855469 802.195312 700.183594 C 804.519531 700.515625 804.6875 701.105469 804.308594 707.511719 C 803.765625 716.589844 802.480469 719.820312 799.417969 719.820312 C 797.652344 719.820312 797.132812 719.253906 797.542969 717.773438 Z M 675.644531 655.507812 C 668.972656 654.523438 657.632812 650.054688 649.078125 645.042969 C 639.738281 639.570312 644.542969 638.46875 654.621094 643.773438 C 666.816406 650.195312 674.722656 652.070312 689.5625 652.058594 C 714.46875 652.039062 749.082031 646.113281 755.167969 640.820312 C 758.738281 637.722656 765.589844 639.492188 765.589844 643.511719 C 765.589844 651.332031 703.480469 659.617188 675.644531 655.507812 Z M 472.859375 614.226562 C 464.488281 610.328125 461.460938 605.726562 462.113281 597.878906 C 462.40625 594.367188 463.585938 590.429688 464.878906 588.664062 C 466.867188 585.945312 476.421875 581.074219 483.679688 579.078125 C 485.066406 578.699219 487.570312 576.589844 489.246094 574.398438 C 493.214844 569.191406 504.851562 560.285156 511.542969 557.324219 C 517.253906 554.796875 526.191406 554.675781 526.992188 557.109375 C 527.25 557.886719 525.605469 559.292969 523.347656 560.238281 C 521.085938 561.179688 515.191406 566.042969 510.242188 571.039062 C 502.101562 579.257812 501.457031 580.238281 503.457031 581.34375 C 504.671875 582.015625 507.441406 584.378906 509.609375 586.59375 C 513.371094 590.429688 513.523438 590.925781 512.890625 597.082031 C 512.457031 601.28125 511.511719 604.058594 510.191406 605.027344 C 507.765625 606.800781 503.191406 606.980469 502.179688 605.34375 C 501.785156 604.699219 502.015625 604.175781 502.695312 604.175781 C 505.78125 604.175781 502.753906 592.371094 498.835938 589.121094 C 497.148438 587.722656 496.566406 587.78125 494.609375 589.554688 C 493.363281 590.683594 491.753906 593.382812 491.039062 595.554688 C 489.4375 600.410156 485.746094 600.847656 481.800781 596.648438 C 479.84375 594.566406 479.261719 592.828125 479.640625 590.222656 C 480.261719 585.996094 480.152344 585.960938 475.839844 589.03125 C 473.808594 590.476562 472.757812 592.078125 473.15625 593.121094 C 473.515625 594.0625 473.246094 594.832031 472.554688 594.832031 C 471.863281 594.832031 471.601562 595.617188 471.972656 596.582031 C 472.398438 597.691406 471.953125 598.335938 470.765625 598.335938 C 468.476562 598.335938 468.46875 598.570312 470.550781 603.550781 C 473.242188 609.992188 480.1875 613.773438 490.5625 614.4375 C 503.132812 615.246094 502.53125 617.027344 489.691406 617.011719 C 480.714844 617.003906 477.78125 616.519531 472.863281 614.226562 Z M 608.378906 601.410156 C 598.824219 597.859375 594.5625 594.617188 593.074219 589.765625 C 591.300781 583.984375 593.925781 579.265625 601.679688 574.304688 C 609.21875 569.480469 616.300781 567.738281 626.953125 568.085938 C 634.371094 568.324219 635.15625 568.105469 638.273438 564.941406 C 640.117188 563.070312 643.683594 558.125 646.199219 553.945312 C 650.097656 547.476562 651.316406 546.300781 654.449219 545.988281 C 657.863281 545.648438 658.125 545.882812 658.125 549.257812 C 658.125 553.445312 656.148438 557.6875 649.890625 566.953125 L 645.445312 573.53125 L 648.863281 576.804688 C 651.308594 579.148438 652.28125 581.195312 652.28125 583.988281 C 652.28125 588.640625 649.070312 590.664062 647.101562 587.257812 C 646.417969 586.074219 644.515625 583.550781 642.875 581.648438 L 639.894531 578.195312 L 634.90625 580.738281 C 631.667969 582.390625 629.511719 584.457031 628.753906 586.628906 C 627.347656 590.660156 624.949219 591.785156 621.863281 589.859375 C 620.382812 588.933594 619.574219 587.140625 619.574219 584.777344 C 619.574219 581.785156 620.476562 580.511719 624.539062 577.757812 L 629.503906 574.390625 L 624.605469 574.035156 C 614.835938 573.324219 603.269531 582.710938 605.132812 589.839844 C 605.785156 592.332031 615.960938 598.824219 621.023438 599.980469 C 622.785156 600.382812 626.527344 600.132812 629.339844 599.421875 C 632.15625 598.714844 635.710938 598.347656 637.238281 598.609375 C 639.636719 599.015625 639.242188 599.429688 634.371094 601.628906 C 626.972656 604.964844 617.730469 604.890625 608.378906 601.414062 Z M 740.355469 593.566406 C 731.09375 590.882812 727.636719 581.625 733.757812 575.917969 C 737.558594 572.375 748.929688 567.964844 754.257812 567.964844 C 756.753906 567.964844 758.511719 567.179688 759.480469 565.628906 C 761.5 562.394531 765.589844 562.53125 765.589844 565.835938 C 765.589844 567.269531 767.246094 569.773438 769.386719 571.578125 C 772.441406 574.152344 772.898438 575.074219 771.722656 576.277344 C 770.921875 577.101562 770.261719 578.929688 770.261719 580.335938 C 770.261719 583.359375 769.101562 583.851562 762.085938 583.78125 C 756.867188 583.730469 756.820312 583.699219 755.730469 578.769531 C 754.496094 573.199219 754.136719 573.039062 748.886719 575.695312 C 740.753906 579.816406 739.03125 583.890625 743.234375 589.078125 C 744.832031 591.054688 746.753906 591.816406 750.535156 591.96875 C 756.953125 592.230469 757.390625 592.414062 754.492188 593.660156 C 751.488281 594.953125 744.980469 594.910156 740.355469 593.566406 Z M 797.339844 543.53125 C 796.6875 541.660156 796.328125 539.953125 796.539062 539.734375 C 796.753906 539.519531 797.234375 534.085938 797.613281 527.664062 C 799.21875 500.363281 799.675781 494.652344 800.714844 489.113281 C 801.316406 485.902344 801.9375 471.75 802.097656 457.664062 L 802.386719 432.054688 L 796.546875 430.714844 C 793.335938 429.972656 788.492188 428.226562 785.789062 426.828125 C 778.046875 422.828125 777.078125 423.253906 770.417969 433.609375 C 762.101562 446.546875 762.476562 453.050781 772.273438 465.902344 C 781.316406 477.757812 783.132812 484.464844 780.066406 494.664062 C 778.660156 499.335938 770.539062 500.25 771.753906 495.597656 C 772.503906 492.734375 770.007812 479.46875 768.03125 475.835938 C 767.207031 474.3125 764.285156 470.109375 761.546875 466.492188 C 758.804688 462.871094 756.191406 458.730469 755.742188 457.285156 C 754.710938 453.984375 753.972656 454.003906 747.171875 457.492188 C 731.140625 465.710938 727.199219 466.804688 712.84375 467.023438 C 690.300781 467.363281 671.96875 463.675781 660.640625 456.523438 C 656.046875 453.625 649.820312 446.515625 648.359375 442.503906 C 647.5625 440.324219 647.515625 440.324219 645.929688 442.492188 C 645.042969 443.707031 644.492188 444.988281 644.707031 445.339844 C 644.925781 445.6875 644.089844 449.625 642.851562 454.085938 C 641.617188 458.546875 640.605469 463.667969 640.605469 465.460938 C 640.605469 469.535156 645.21875 476.511719 650.457031 480.355469 C 659.714844 487.148438 662.226562 498.929688 657.050781 511.308594 C 650.332031 527.390625 644.914062 534.191406 641.523438 530.800781 C 640.496094 529.773438 641.210938 525.988281 644.480469 515.121094 C 650.554688 494.945312 650.183594 491.292969 641.210938 482.691406 C 635.367188 477.089844 632.390625 471.96875 632.214844 467.203125 L 632.0625 463.191406 L 627.726562 467.398438 C 616.945312 477.863281 586.515625 482.21875 562.035156 476.796875 C 543.910156 472.785156 535.476562 469.875 520.988281 462.636719 C 505.875 455.089844 498.816406 450.609375 492.765625 444.734375 L 488.859375 440.941406 L 485.753906 445.421875 C 479.867188 453.914062 480.621094 467.539062 487.351562 474.292969 C 491.796875 478.75 496.710938 487.679688 497.457031 492.660156 C 498.277344 498.132812 496.910156 504.160156 493.628906 509.558594 C 484.09375 525.234375 477.628906 534.089844 475.722656 534.089844 C 474.535156 534.089844 473.5625 533.308594 473.5625 532.359375 C 473.5625 529.367188 477.320312 520.921875 481.921875 513.566406 C 491.539062 498.191406 491.914062 492.472656 484.03125 481.523438 C 473.183594 466.460938 473.292969 466.707031 474.15625 459.246094 L 474.949219 452.425781 L 465.203125 456.441406 C 459.84375 458.648438 454.78125 460.464844 453.957031 460.476562 C 453.132812 460.488281 449.886719 461.800781 446.746094 463.394531 C 437.636719 468.007812 431.480469 468.929688 419.003906 467.539062 C 405.339844 466.015625 396.03125 462.816406 390.867188 457.878906 C 386.742188 453.929688 380.808594 442.351562 381.957031 440.496094 C 383.011719 438.785156 384.640625 440.4375 387.648438 446.269531 C 393.070312 456.789062 398.539062 460.742188 411.460938 463.480469 C 423.535156 466.039062 430.613281 465.664062 437.65625 462.09375 C 440.992188 460.402344 446.617188 458.023438 450.15625 456.808594 C 462.867188 452.433594 477.066406 441.820312 477.066406 436.695312 C 477.066406 436.28125 474.570312 437.226562 471.519531 438.789062 C 468.46875 440.355469 460.050781 443.296875 452.816406 445.332031 L 439.660156 449.03125 L 420.109375 447.171875 C 397.160156 444.992188 393.171875 443.929688 386.867188 438.335938 C 382.628906 434.574219 382.234375 433.769531 382.976562 430.386719 C 384.015625 425.667969 386.515625 425.53125 388.109375 430.109375 C 389.792969 434.941406 398.40625 440.1875 406.125 441.085938 C 409.488281 441.480469 418.28125 441.859375 425.671875 441.933594 C 438.296875 442.058594 439.839844 441.8125 451.371094 437.792969 C 458.117188 435.441406 465.558594 432.964844 467.914062 432.289062 C 470.265625 431.613281 475.082031 428.488281 478.613281 425.339844 C 486.742188 418.09375 490.535156 417.734375 495.492188 423.746094 C 500.386719 429.6875 509.75 435.324219 520.703125 438.929688 C 525.9375 440.652344 532.847656 443.25 536.058594 444.699219 C 544.25 448.402344 552.5625 449.960938 564.785156 450.09375 C 577.902344 450.234375 578.53125 452.546875 565.753906 453.660156 C 553.96875 454.683594 543.253906 453.789062 536.777344 451.234375 C 521.652344 445.269531 505.183594 437.613281 501.097656 434.652344 C 498.574219 432.824219 496.253906 431.578125 495.945312 431.890625 C 495.632812 432.199219 496.089844 434.597656 496.957031 437.222656 C 500.980469 449.410156 530.703125 466.335938 559.421875 472.792969 C 571.445312 475.492188 575.019531 475.839844 584.539062 475.21875 C 597.773438 474.355469 609.246094 471.816406 614.464844 468.589844 C 616.554688 467.296875 621.058594 462.453125 624.472656 457.824219 C 637.226562 440.527344 643.839844 433.632812 648.613281 432.65625 C 652.359375 431.890625 652.425781 431.78125 650.335938 429.890625 C 648.285156 428.035156 647.800781 428.117188 641.757812 431.351562 C 618.03125 444.03125 611.808594 446.347656 596.597656 448.15625 C 588.257812 449.148438 587.800781 447.152344 595.96875 445.40625 C 604.628906 443.550781 612.375 440.761719 616.257812 438.09375 C 617.960938 436.925781 619.890625 435.96875 620.539062 435.96875 C 621.191406 435.96875 621.898438 435.574219 622.109375 435.09375 C 622.730469 433.703125 630.097656 428.542969 637.246094 424.5 C 642.464844 421.542969 645.152344 420.78125 650.371094 420.78125 C 656.746094 420.78125 657.015625 420.914062 659.859375 425.421875 C 661.46875 427.972656 664.457031 430.925781 666.496094 431.976562 C 675.808594 436.792969 711.121094 438.839844 723.542969 435.28125 C 734.65625 432.097656 735.582031 431.972656 734.996094 433.757812 C 734.703125 434.652344 731.613281 436.582031 728.128906 438.050781 C 722.054688 440.601562 720.726562 440.695312 696.09375 440.28125 C 673.472656 439.902344 669.523438 439.546875 663.128906 437.324219 C 659.132812 435.9375 655.636719 434.800781 655.359375 434.800781 C 655.078125 434.800781 655.773438 437.234375 656.902344 440.210938 C 663.054688 456.410156 677.121094 462.800781 707.503906 463.199219 L 724.128906 463.417969 L 735.226562 458.066406 C 750.175781 450.855469 753.390625 447.996094 754.339844 441.085938 C 755.230469 434.578125 756.738281 432.464844 760.496094 432.464844 C 762.582031 432.464844 764.183594 430.996094 766.875 426.625 C 769.585938 422.222656 771.164062 420.785156 773.289062 420.785156 C 776.484375 420.785156 776.792969 419.824219 774.574219 416.792969 C 773.136719 414.824219 772.824219 414.921875 769.613281 418.324219 C 767.730469 420.320312 765.265625 421.953125 764.140625 421.953125 C 760.757812 421.953125 761.742188 417.394531 766.0625 413.074219 C 769.335938 409.804688 770.910156 409.101562 775 409.101562 C 779.503906 409.101562 780.507812 409.6875 785.921875 415.496094 C 791.34375 421.320312 799.511719 426.289062 801.566406 425.023438 C 802.582031 424.398438 801.3125 392.230469 800.097656 387.785156 L 799.222656 384.578125 L 795.855469 387.40625 C 790.851562 391.621094 782.5 393.5 759.171875 395.667969 C 747.609375 396.742188 732.890625 398.582031 726.464844 399.757812 C 707.1875 403.28125 689.429688 405.46875 659.746094 407.964844 C 633.785156 410.152344 628.285156 410.242188 589.65625 409.089844 C 566.605469 408.402344 542.261719 407.070312 535.566406 406.132812 C 528.867188 405.199219 521.507812 404.421875 519.210938 404.414062 C 516.914062 404.402344 514.425781 404.007812 513.683594 403.535156 C 512.941406 403.066406 540.800781 402.679688 575.59375 402.679688 C 621.511719 402.679688 641.257812 402.269531 647.617188 401.1875 C 652.433594 400.371094 663.472656 399.21875 672.148438 398.632812 C 680.820312 398.046875 694.75 396.234375 703.101562 394.605469 C 711.453125 392.976562 722.140625 391.050781 726.847656 390.324219 L 735.40625 389.003906 L 733.066406 386.496094 C 727.601562 380.640625 728.441406 371.777344 735.09375 365.109375 L 739.566406 360.625 L 740.355469 337.851562 C 740.800781 325.082031 741.894531 311.863281 742.84375 307.761719 C 744.101562 302.332031 744.507812 293.082031 744.414062 271.78125 L 744.289062 243.109375 L 739.464844 243.460938 C 736.148438 243.703125 734.746094 244.308594 734.972656 245.394531 C 735.726562 248.976562 733.902344 251.40625 730.460938 251.40625 C 727.085938 251.40625 727.027344 251.300781 727.382812 245.875 C 727.699219 240.988281 727.34375 240.011719 724.371094 237.503906 C 720.417969 234.183594 719.597656 234.902344 717.832031 243.230469 C 716.589844 249.078125 716.925781 251.984375 720.148438 263.183594 C 724.035156 276.710938 723.519531 290.496094 718.949219 295.0625 C 715.710938 298.304688 712.894531 296.835938 714.125 292.546875 C 715.460938 287.882812 714.652344 273.007812 712.492188 262.554688 C 711.503906 257.761719 710.691406 252.523438 710.691406 250.910156 C 710.691406 246.460938 714.132812 237.128906 716.871094 234.160156 C 718.601562 232.28125 718.945312 231.15625 718.054688 230.265625 C 717.164062 229.375 715.890625 230.210938 713.648438 233.152344 C 711.914062 235.425781 710.808594 237.796875 711.195312 238.421875 C 711.578125 239.046875 710.722656 239.929688 709.292969 240.382812 C 707.863281 240.835938 703.386719 243.742188 699.347656 246.835938 C 695.304688 249.933594 690.125 252.820312 687.832031 253.25 C 672.429688 256.140625 641.210938 247.339844 630.230469 237.015625 L 626.28125 233.300781 L 627.007812 236.378906 C 627.5625 238.734375 627.242188 239.585938 625.644531 240.003906 C 623.222656 240.636719 620.746094 247.855469 620.746094 254.28125 C 620.746094 256.675781 621.804688 262.132812 623.097656 266.410156 C 627.730469 281.71875 627.855469 295.566406 623.449219 304.851562 C 622.421875 307.019531 617.1875 313.191406 611.820312 318.574219 C 606.449219 323.953125 602.058594 328.914062 602.058594 329.597656 C 602.058594 330.28125 600.742188 330.835938 599.136719 330.835938 C 593.613281 330.835938 595.695312 326.800781 607.9375 313.78125 C 617.375 303.742188 619.59375 298.199219 619.542969 284.78125 C 619.515625 278.183594 618.777344 273.421875 617.089844 268.925781 C 615.765625 265.394531 614.414062 260.53125 614.085938 258.121094 C 613.761719 255.710938 613.417969 253.742188 613.324219 253.746094 C 613.230469 253.75 609.476562 255.613281 604.976562 257.894531 C 595.859375 262.515625 585.417969 265.378906 577.597656 265.40625 C 561.992188 265.457031 532.652344 255.589844 521.308594 246.472656 C 515.867188 242.097656 512.113281 242.761719 512.113281 248.097656 C 512.113281 253.53125 515.316406 259.082031 520.902344 263.324219 C 527.507812 268.339844 530.371094 273.667969 531.289062 282.652344 C 532.027344 289.847656 531.996094 289.953125 529.136719 289.953125 C 526.691406 289.953125 526.125 289.265625 525.519531 285.574219 C 523.597656 273.816406 523.824219 274.152344 509.777344 262.109375 C 505.933594 258.820312 505.6875 258.175781 505.6875 251.5 C 505.6875 243.371094 503.898438 242.617188 502.300781 250.074219 C 501.339844 254.566406 501.667969 255.777344 506.171875 264.472656 C 510.710938 273.238281 511.070312 274.582031 510.828125 282.046875 C 510.65625 287.355469 509.757812 291.765625 508.207031 294.894531 C 505.160156 301.054688 489.050781 317.988281 486.242188 317.988281 C 483.109375 317.988281 483.550781 316.203125 488.191406 310.125 C 490.457031 307.160156 494.003906 301.289062 496.078125 297.078125 C 499.25 290.628906 499.847656 288.109375 499.847656 281.128906 C 499.847656 273.589844 499.449219 272.199219 495.46875 265.742188 C 493.058594 261.839844 491.085938 257.542969 491.085938 256.195312 C 491.085938 253.390625 490.671875 253.257812 487.421875 254.996094 C 484.058594 256.796875 469.464844 256.4375 461.566406 254.363281 C 457.855469 253.386719 451.027344 250.785156 446.394531 248.578125 C 441.757812 246.371094 437.890625 244.65625 437.800781 244.773438 C 437.605469 245.015625 439.203125 264.421875 440.75 280.609375 C 441.332031 286.714844 441.617188 305.902344 441.378906 323.25 C 441.125 341.882812 441.402344 355.507812 442.054688 356.542969 C 442.839844 357.785156 443.164062 357.851562 443.175781 356.78125 C 443.203125 354.386719 456.097656 342.570312 461.882812 339.636719 C 468.644531 336.207031 474.109375 335.046875 476.691406 336.492188 C 478.417969 337.457031 477.671875 338.148438 472.023438 340.824219 C 465.375 343.972656 459.375 349.757812 454.894531 357.351562 C 452.660156 361.144531 452.660156 361.195312 454.917969 362.402344 C 457.46875 363.769531 461.050781 370.1875 462.722656 376.398438 C 464.292969 382.214844 462.566406 387.863281 458.933594 388.773438 C 455.191406 389.710938 451.300781 388.394531 453.609375 386.96875 C 454.925781 386.15625 454.824219 384.953125 453.027344 379.953125 C 450.234375 372.191406 447.863281 369.972656 447.863281 375.121094 C 447.863281 380.382812 444.726562 381.222656 441.257812 376.886719 C 439.757812 375.007812 438.527344 372.292969 438.523438 370.847656 C 438.523438 369.402344 438.125 368.238281 437.644531 368.257812 C 435.96875 368.332031 431.679688 372.558594 429.269531 376.507812 C 426.210938 381.527344 426.175781 385.308594 429.175781 387.179688 C 432.972656 389.550781 431.859375 390.769531 426.546875 390.054688 C 416.320312 388.683594 413.433594 379.226562 420.441406 370.039062 C 422.25 367.667969 425.804688 364.667969 428.34375 363.375 C 431.609375 361.710938 432.59375 360.65625 431.710938 359.777344 C 430.832031 358.894531 428.484375 359.0625 423.6875 360.34375 C 419.960938 361.339844 414.625 362.484375 411.835938 362.882812 C 405.691406 363.761719 399.109375 366.996094 393.578125 371.851562 C 388.222656 376.554688 387.839844 381.96875 392.671875 384.753906 C 399.101562 388.464844 412.675781 391.546875 432.558594 393.816406 C 443.738281 395.089844 453.464844 396.722656 454.171875 397.4375 C 456.988281 400.292969 419.421875 395.964844 401.722656 391.394531 C 392.765625 389.082031 384.386719 385.601562 383.226562 383.714844 C 382.925781 383.222656 382.367188 380.835938 381.980469 378.410156 C 381.339844 374.34375 381.699219 373.582031 386.558594 368.722656 C 393.070312 362.210938 400.265625 359.03125 411.652344 357.628906 C 431.46875 355.191406 430.617188 355.480469 429.890625 351.40625 C 429.152344 347.277344 428.363281 334.328125 427.363281 309.867188 C 426.984375 300.582031 426.175781 289.015625 425.566406 284.167969 C 423.464844 267.453125 421.796875 240.261719 421.800781 222.789062 C 421.804688 208.613281 422.289062 203.367188 424.347656 195.335938 C 428.488281 179.175781 430.804688 175.527344 439.6875 171.183594 C 449.417969 166.425781 457.289062 163.796875 461.808594 163.796875 C 464.738281 163.796875 465.386719 163.324219 465.390625 161.167969 C 465.40625 154.09375 474.425781 145.21875 485.917969 140.980469 C 491.921875 138.765625 494.714844 137.035156 496.121094 134.652344 C 499.242188 129.371094 507.515625 121.316406 514.570312 116.691406 C 524.359375 110.273438 532.886719 111.1875 524.074219 117.710938 C 518.660156 121.71875 509.800781 131.09375 507.085938 135.6875 L 505.050781 139.132812 L 510.042969 141.367188 C 512.785156 142.59375 516.871094 145.507812 519.121094 147.847656 C 523.199219 152.085938 523.230469 152.09375 530.800781 151.367188 C 534.976562 150.964844 538.964844 150.1875 539.664062 149.640625 C 540.972656 148.613281 542.726562 136.152344 545.554688 107.730469 C 546.035156 102.910156 546.484375 98.707031 546.558594 98.382812 C 547.234375 95.324219 548.917969 91.59375 550.378906 89.933594 C 551.445312 88.71875 552.253906 85.238281 552.398438 81.242188 L 552.640625 74.578125 L 549.914062 80.757812 C 548.410156 84.15625 546.996094 88.640625 546.765625 90.726562 C 546.21875 95.6875 545.554688 96.628906 541.359375 98.367188 C 536.125 100.53125 529.835938 99.019531 528.921875 95.371094 C 527.535156 89.84375 529.027344 79.257812 531.707031 75.585938 C 533.109375 73.671875 535.058594 68.234375 536.042969 63.511719 C 537.023438 58.789062 539.324219 51.164062 541.148438 46.574219 C 542.972656 41.984375 544.808594 36.816406 545.226562 35.09375 C 546.613281 29.414062 549.027344 28.070312 556.25 28.972656 C 562.285156 29.726562 562.648438 29.636719 561.765625 27.578125 C 559.769531 22.925781 558.605469 10.242188 559.878906 6.957031 C 561.402344 3.019531 563.964844 1.992188 574.828125 0.941406 C 583.09375 0.148438 583.261719 0.1875 585.34375 3.363281 C 586.855469 5.675781 587.347656 8.261719 587.070312 12.480469 C 586.613281 19.441406 586.617188 22.59375 587.101562 28.882812 C 587.457031 33.535156 587.480469 33.554688 593.085938 34.203125 C 598.988281 34.878906 601.265625 36.789062 600.410156 40.351562 C 600.128906 41.519531 601.25 45.164062 602.902344 48.453125 C 605.601562 53.828125 612.570312 78.507812 612.570312 82.6875 C 612.570312 85.953125 607.757812 84.535156 606.375 80.863281 C 605.125 77.5625 603.226562 76.085938 603.226562 78.421875 C 603.226562 79.566406 607.050781 91.792969 608.460938 95.171875 C 609.105469 96.710938 608.757812 97.21875 607.035156 97.21875 C 603.734375 97.21875 601.542969 94.195312 598.125 84.953125 L 595.105469 76.773438 L 595.144531 89.625 C 595.242188 120.257812 595.152344 121.746094 593.265625 121.746094 C 591.765625 121.746094 591.601562 123.011719 592.234375 129.632812 C 592.648438 133.96875 593.355469 139.355469 593.804688 141.605469 C 594.710938 146.136719 595.164062 146.222656 608.773438 144.535156 C 614.453125 143.832031 615.113281 143.410156 617.6875 138.894531 C 619.214844 136.207031 621.628906 129.019531 623.050781 122.914062 C 624.472656 116.8125 628.261719 104.859375 631.472656 96.351562 L 637.308594 80.882812 L 635.734375 73.59375 L 634.164062 66.308594 L 630.667969 73.773438 C 624.105469 87.777344 622.21875 90.785156 619.746094 91.160156 C 617.472656 91.507812 617.570312 90.976562 621.40625 82.398438 C 628.53125 66.472656 630.480469 63.292969 633.597656 62.511719 C 635.203125 62.109375 638.09375 60.816406 640.019531 59.644531 C 644.617188 56.847656 651.910156 56.925781 656.667969 59.824219 C 660.90625 62.410156 661.722656 65.679688 658.125 65.679688 C 656.84375 65.679688 655.789062 65.167969 655.789062 64.542969 C 655.789062 63.183594 649.632812 59.839844 647.132812 59.839844 C 646.160156 59.839844 644.359375 60.921875 643.125 62.246094 C 641.210938 64.300781 641.050781 65.367188 642.007812 69.546875 C 643.898438 77.78125 643.328125 80.902344 637.097656 96.503906 C 631.78125 109.820312 627.789062 124.507812 629.121094 125.84375 C 629.378906 126.101562 632.320312 124.960938 635.65625 123.3125 C 640.300781 121.011719 642.679688 120.492188 645.832031 121.082031 C 651.050781 122.0625 651.074219 123.535156 645.898438 125.242188 C 641.976562 126.535156 634.453125 134.167969 629.703125 141.671875 L 627.523438 145.113281 L 634.648438 145.113281 C 640.253906 145.113281 641.773438 144.730469 641.773438 143.332031 C 641.773438 140.820312 646.957031 139.078125 650.460938 140.414062 C 652.027344 141.007812 653.886719 142.574219 654.589844 143.886719 C 656.535156 147.523438 661.402344 147.042969 662.886719 143.066406 C 663.546875 141.300781 665.140625 139.042969 666.425781 138.050781 C 668.394531 136.53125 668.570312 135.742188 667.539062 133.023438 C 666.863281 131.25 665.253906 123.652344 663.957031 116.140625 C 661.320312 100.871094 658.171875 89.042969 656.738281 89.042969 C 655.636719 89.042969 655.480469 73.382812 656.542969 69.414062 C 657.054688 67.503906 657.980469 66.828125 659.738281 67.078125 C 661.929688 67.390625 662.167969 68.066406 661.816406 72.980469 C 661.570312 76.449219 661.898438 78.527344 662.695312 78.527344 C 663.394531 78.527344 663.96875 79.984375 663.96875 81.765625 C 663.96875 83.546875 665.046875 88.671875 666.367188 93.15625 C 668.871094 101.65625 670.453125 107.6875 675.140625 126.6875 C 677.21875 135.097656 677.65625 138.816406 676.828125 140.996094 C 676.210938 142.617188 675.167969 143.941406 674.511719 143.941406 C 673.851562 143.941406 673.3125 144.882812 673.3125 146.035156 C 673.3125 147.8125 675.632812 148.503906 688.757812 150.644531 C 697.25 152.027344 704.386719 152.972656 704.617188 152.746094 C 704.84375 152.519531 705.070312 148.210938 705.117188 143.171875 C 705.21875 132.453125 702.351562 121.226562 698.976562 119.117188 C 695.722656 117.089844 696.121094 115.90625 700.058594 115.90625 C 708.550781 115.90625 715.875 130.929688 715.152344 146.863281 L 714.78125 155.039062 L 722.957031 157.6875 C 741.015625 163.53125 746.703125 166.214844 750.925781 170.890625 C 755.460938 175.90625 756.300781 180.496094 753.039062 182.398438 C 751.097656 183.527344 751.101562 183.589844 753.070312 183.625 C 757.816406 183.707031 758.578125 192.949219 758.59375 250.554688 C 758.605469 287.101562 758.28125 296.117188 756.707031 303.117188 C 755.660156 307.765625 754.324219 312.488281 753.738281 313.609375 C 753.148438 314.730469 752.394531 318.9375 752.0625 322.953125 C 751.726562 326.972656 750.960938 333.414062 750.355469 337.265625 C 749.753906 341.121094 749.257812 345.90625 749.253906 347.902344 L 749.242188 351.53125 L 760.636719 352.15625 C 777.214844 353.070312 791.019531 359.191406 801.625 370.328125 C 804.929688 373.800781 806.066406 376.605469 809.003906 388.558594 C 811.378906 398.210938 812.585938 406.347656 812.816406 414.257812 C 813.105469 424.011719 813.507812 426.089844 815.363281 427.445312 C 817.265625 428.835938 817.328125 429.207031 815.820312 430.160156 C 814.859375 430.769531 813.679688 431.273438 813.199219 431.285156 C 812.71875 431.292969 812.308594 434.585938 812.292969 438.601562 C 812.277344 442.617188 811.796875 448.003906 811.222656 450.574219 C 810.648438 453.144531 809.878906 461.371094 809.515625 468.855469 C 809.148438 476.339844 808.347656 483.777344 807.738281 485.386719 C 807.125 486.996094 805.476562 496.117188 804.070312 505.65625 C 802.078125 519.203125 801.683594 525.617188 802.285156 534.972656 C 803.007812 546.292969 802.929688 546.945312 800.792969 546.945312 C 799.347656 546.945312 798.105469 545.71875 797.347656 543.539062 Z M 493.394531 428.082031 C 493.378906 427.601562 492.371094 425.910156 491.152344 424.328125 L 488.941406 421.449219 L 486.546875 424.328125 C 483.175781 428.378906 483.449219 428.957031 488.746094 428.957031 C 491.316406 428.957031 493.40625 428.5625 493.394531 428.082031 Z M 765.523438 386.128906 C 768.507812 383.515625 761.558594 373.304688 753.339844 368.222656 C 748.90625 365.484375 746.886719 365.96875 742.8125 370.738281 C 738.402344 375.902344 737.359375 378.773438 738.164062 383.53125 L 738.933594 388.101562 L 751.96875 387.34375 C 759.140625 386.925781 765.238281 386.378906 765.523438 386.128906 Z M 782.929688 381.359375 C 788.257812 377.902344 790.164062 373.878906 787.609375 371.464844 C 783.921875 367.96875 776.382812 362.8125 772.1875 360.914062 C 766.699219 358.433594 766.332031 358.40625 767.167969 360.59375 C 767.535156 361.546875 766.941406 362.8125 765.835938 363.433594 C 764.042969 364.4375 764.195312 364.941406 767.34375 368.410156 C 769.269531 370.53125 771.167969 372.539062 771.558594 372.871094 C 773.339844 374.375 776.210938 381.441406 775.640625 382.921875 C 774.65625 385.484375 777.503906 384.875 782.929688 381.359375 Z M 758.582031 358.285156 C 759.839844 356.773438 759.304688 356.535156 754.636719 356.535156 C 749.324219 356.535156 747.273438 358.1875 751.28125 359.234375 C 755.238281 360.269531 757.140625 360.023438 758.582031 358.285156 Z M 591.472656 258.332031 C 595.644531 256.535156 598.03125 254.460938 600.734375 250.292969 C 602.738281 247.203125 605.71875 243.792969 607.355469 242.722656 C 610.023438 240.976562 613.269531 235.367188 612.222656 234.320312 C 612 234.09375 610.039062 235.21875 607.871094 236.820312 C 597.324219 244.601562 578.949219 247.632812 558.597656 244.949219 C 545.039062 243.160156 539.941406 241.050781 535.488281 235.394531 C 532.3125 231.355469 532.300781 225.707031 535.472656 225.707031 C 536.832031 225.707031 537.808594 226.484375 537.808594 227.570312 C 537.808594 231.039062 542.824219 236.503906 548.1875 238.875 C 552.511719 240.789062 556.195312 241.261719 567.570312 241.355469 C 581.003906 241.46875 581.941406 241.316406 589.203125 237.835938 C 594.757812 235.175781 599.671875 231.328125 607.484375 223.527344 C 613.363281 217.660156 618.445312 212.855469 618.777344 212.855469 C 620.945312 212.855469 622.835938 214.476562 622.296875 215.875 C 621.949219 216.785156 622.34375 217.527344 623.171875 217.527344 C 624 217.527344 625.875 218.648438 627.332031 220.019531 C 629.414062 221.972656 632.328125 222.742188 640.84375 223.582031 C 663.441406 225.816406 670.429688 225.078125 680.320312 219.410156 C 689.394531 214.207031 692.878906 212.820312 694.90625 213.597656 C 696.792969 214.320312 697.347656 216.359375 695.65625 216.359375 C 695.097656 216.359375 692.019531 218.445312 688.816406 220.996094 C 685.613281 223.546875 681.609375 226.160156 679.917969 226.804688 C 673.832031 229.117188 657.226562 230.488281 649.652344 229.300781 C 637.820312 227.449219 631.257812 227.082031 631.257812 228.273438 C 631.257812 228.882812 633.753906 231.980469 636.804688 235.15625 C 642.484375 241.0625 647.875 243.695312 661.703125 247.316406 C 670.890625 249.722656 681.472656 250.222656 684.992188 248.414062 C 690.382812 245.644531 704.484375 231.027344 708.300781 224.246094 C 711.742188 218.128906 712.4375 217.527344 716.046875 217.527344 C 718.75 217.527344 720.480469 218.273438 721.476562 219.867188 C 722.277344 221.148438 723.546875 222.203125 724.296875 222.203125 C 725.042969 222.203125 725.410156 223.140625 725.109375 224.289062 C 724.011719 228.496094 735.988281 237.941406 741.433594 237.164062 C 743.953125 236.808594 743.984375 236.535156 744.058594 213.441406 C 744.105469 200.589844 743.933594 189.253906 743.6875 188.242188 C 743.285156 186.605469 742.527344 186.648438 736.683594 188.621094 C 724.917969 192.589844 706.257812 194.359375 684.992188 193.519531 C 669.867188 192.917969 663.582031 193.152344 655.789062 194.59375 C 650.328125 195.605469 639.289062 197.003906 631.257812 197.707031 C 623.226562 198.410156 613.503906 199.410156 609.648438 199.929688 C 596.34375 201.722656 580.25 201.945312 507.4375 201.339844 C 485.355469 201.15625 478.683594 200.339844 480.917969 198.101562 C 482.085938 196.9375 521.847656 196.71875 540.730469 197.769531 C 565.082031 199.128906 616.882812 195.753906 652.867188 190.457031 C 665.496094 188.601562 671.75 188.242188 680.320312 188.882812 C 706.273438 190.824219 724.449219 189.140625 739.601562 183.386719 C 750.761719 179.144531 751.421875 177.710938 745.0625 171.535156 C 741.492188 168.070312 727.230469 160.949219 726.074219 162.058594 C 725.859375 162.261719 726.253906 163.488281 726.949219 164.789062 C 729.238281 169.066406 728.5 173.089844 725.191406 174.347656 C 721.542969 175.734375 719.710938 174.832031 720.585938 172.070312 C 720.949219 170.9375 720.035156 168.261719 718.527344 166.039062 C 716.160156 162.546875 715.285156 162.089844 711.585938 162.417969 C 708.273438 162.710938 707.074219 162.265625 706.0625 160.375 C 704.585938 157.621094 702.746094 157.367188 698.453125 159.324219 C 692.894531 161.855469 693.503906 169.757812 699.710938 175.585938 C 702.269531 177.992188 702.953125 178.125 706.417969 176.871094 C 712.25 174.761719 714.078125 175.164062 710.851562 177.851562 C 706.566406 181.425781 697.867188 181.003906 693.097656 176.992188 C 689.023438 173.5625 686.160156 167.90625 686.160156 163.292969 C 686.160156 161.253906 687.417969 159.519531 690.335938 157.539062 C 692.632812 155.976562 694.082031 154.445312 693.550781 154.132812 C 693.019531 153.820312 688 152.921875 682.394531 152.140625 C 672.425781 150.746094 672.132812 150.773438 668.734375 153.457031 C 665.695312 155.863281 665.253906 156.964844 665.199219 162.335938 C 665.136719 168.058594 664.941406 168.46875 662.253906 168.46875 C 658.71875 168.46875 656.957031 165.457031 656.957031 159.417969 C 656.957031 155.753906 656.296875 154.402344 653.5 152.335938 C 646.558594 147.203125 645.242188 149.003906 645.757812 162.917969 C 646.054688 170.851562 645.847656 171.972656 644.078125 171.972656 C 640.726562 171.972656 639.390625 169.117188 639.285156 161.714844 C 639.195312 155.253906 638.957031 154.632812 636.390625 154.140625 C 633.210938 153.535156 633.117188 153.710938 634.859375 156.96875 C 636.257812 159.585938 636.550781 168.179688 635.367188 171.914062 C 634.835938 173.585938 633.605469 174.308594 631.296875 174.308594 C 628.332031 174.308594 627.988281 173.910156 627.988281 170.464844 C 627.988281 166.554688 625.273438 158.847656 622.882812 155.964844 C 621.835938 154.699219 620.882812 155.582031 618.171875 160.328125 C 615.113281 165.6875 614.421875 166.238281 611.164062 165.910156 C 609.175781 165.710938 606.980469 164.644531 606.285156 163.535156 C 605.058594 161.570312 605.230469 160.742188 608.460938 152.992188 C 609.648438 150.152344 606.429688 150.308594 601.007812 153.359375 C 592.03125 158.402344 587.503906 170.992188 592.296875 177.570312 C 597.953125 185.335938 614.484375 188.832031 621.066406 183.65625 C 624.070312 181.292969 627.753906 180.527344 627.753906 182.265625 C 627.753906 184.515625 622.746094 188.289062 618.707031 189.082031 C 603.609375 192.042969 586.617188 186.339844 581.648438 176.648438 C 580.824219 175.039062 579.917969 169.132812 579.632812 163.519531 C 579.347656 157.90625 578.863281 153.066406 578.558594 152.757812 C 578.25 152.453125 574.488281 152.785156 570.191406 153.496094 C 562.4375 154.78125 562.378906 154.820312 561.710938 159 C 560.339844 167.574219 559.96875 168.46875 557.769531 168.46875 C 555.125 168.46875 554.164062 166.269531 554.164062 160.199219 C 554.164062 156.449219 553.753906 155.621094 551.898438 155.621094 C 550.101562 155.621094 549.453125 156.765625 548.746094 161.167969 C 548.253906 164.222656 547.761719 167.113281 547.652344 167.59375 C 547.539062 168.074219 547.382812 169.523438 547.300781 170.804688 C 547.183594 172.6875 546.328125 173.144531 542.898438 173.144531 L 538.640625 173.144531 L 539.289062 164.585938 L 539.9375 156.03125 L 533.324219 156.492188 C 524.21875 157.132812 523.792969 157.367188 523.792969 161.75 C 523.792969 163.875 522.886719 166.914062 521.777344 168.503906 C 515.117188 178.054688 508.003906 182.207031 496.535156 183.242188 C 484.820312 184.300781 471.511719 178.09375 467.066406 169.5 C 464.890625 165.289062 461.074219 165.160156 453.707031 169.039062 C 450.816406 170.558594 446.332031 172.851562 443.75 174.132812 C 439.433594 176.273438 438.773438 177.257812 435.710938 186.085938 C 432.589844 195.078125 432.421875 196.484375 433.144531 207.496094 C 434.796875 232.585938 437.707031 239.742188 448.3125 244.765625 C 457.4375 249.085938 464.203125 251.15625 472.125 252.050781 C 484.15625 253.414062 488.898438 249.089844 501.203125 225.558594 C 505.898438 216.578125 513.515625 216.457031 516.667969 225.308594 C 522.167969 240.785156 530.421875 247.628906 553.878906 256.160156 C 568.117188 261.335938 582.550781 262.171875 591.476562 258.332031 Z M 454.6875 235.082031 C 446.367188 232.566406 441.449219 227.445312 442.207031 222.082031 C 442.746094 218.289062 447.121094 218.195312 447.65625 221.964844 C 448.25 226.128906 456.570312 231.546875 462.34375 231.53125 C 469.691406 231.511719 479.039062 228.59375 486.472656 224.007812 C 492.828125 220.085938 497.605469 219.4375 496.609375 222.636719 C 495.785156 225.277344 483.085938 232.695312 476.414062 234.433594 C 469.105469 236.335938 459.765625 236.613281 454.683594 235.078125 Z M 502.46875 176.441406 C 504.558594 175.8125 506.265625 174.546875 506.265625 173.632812 C 506.265625 172.71875 506.78125 171.972656 507.40625 171.972656 C 509.945312 171.972656 512.257812 166.367188 511.464844 162.140625 C 510.714844 158.136719 510.46875 157.953125 505.84375 157.960938 C 502.824219 157.960938 498.382812 159.273438 494.003906 161.460938 C 490.148438 163.382812 485.285156 165.28125 483.195312 165.675781 C 481.109375 166.070312 479.402344 166.832031 479.402344 167.367188 C 479.402344 169.355469 484.804688 174.375 489.222656 176.488281 C 493.753906 178.652344 495.179688 178.648438 502.472656 176.445312 Z M 485.070312 160.144531 C 489.574219 156.835938 489.960938 156.15625 489.253906 152.84375 C 488.824219 150.835938 488.285156 148.988281 488.054688 148.734375 C 487.21875 147.824219 480.699219 155.113281 479.480469 158.324219 C 476.960938 164.957031 478.046875 165.3125 485.074219 160.144531 Z M 589.203125 152.699219 C 590.417969 151.234375 590.25 150.945312 588.179688 150.945312 C 586.753906 150.945312 585.699219 151.691406 585.699219 152.699219 C 585.699219 153.660156 586.160156 154.449219 586.722656 154.449219 C 587.289062 154.449219 588.402344 153.664062 589.203125 152.699219 Z M 507.433594 151.953125 C 507.433594 150.40625 503.957031 147.535156 502.023438 147.480469 C 500.589844 147.441406 499.097656 151.566406 500.164062 152.632812 C 501.386719 153.851562 507.4375 153.289062 507.4375 151.953125 Z M 639.433594 149.070312 C 639.433594 148.816406 637.988281 148.617188 636.21875 148.628906 C 633.882812 148.640625 633.457031 148.929688 634.652344 149.6875 C 636.140625 150.628906 639.429688 150.203125 639.429688 149.070312 Z M 555.792969 144.8125 C 556.214844 142.082031 556.867188 138.140625 557.242188 136.050781 C 557.777344 133.074219 557.523438 132.257812 556.066406 132.257812 C 555.042969 132.257812 553.9375 133.4375 553.609375 134.886719 C 550.109375 150.296875 550.132812 149.777344 552.84375 149.777344 C 554.515625 149.777344 555.207031 148.613281 555.792969 144.816406 Z M 572.492188 147.441406 C 577.1875 147.441406 577.109375 148.847656 573.375 131.277344 C 572.175781 125.617188 570.953125 122.191406 570.460938 123.097656 C 569.347656 125.160156 564.671875 144.378906 564.671875 146.898438 C 564.671875 148.207031 565.285156 148.625 566.519531 148.152344 C 567.535156 147.761719 570.222656 147.441406 572.492188 147.441406 Z M 586.449219 143.0625 C 586.121094 141.296875 585.519531 137.351562 585.117188 134.300781 C 584.628906 130.589844 583.832031 128.753906 582.707031 128.753906 C 580.277344 128.753906 580.78125 135.183594 583.972656 144.816406 C 584.949219 147.753906 587.050781 146.265625 586.453125 143.0625 Z M 539.199219 91.277344 C 539.648438 89.082031 540.367188 85.839844 540.796875 84.070312 C 541.410156 81.570312 541.164062 80.859375 539.695312 80.859375 C 538.457031 80.859375 537.804688 81.871094 537.804688 83.78125 C 537.804688 85.597656 537.144531 86.699219 536.054688 86.699219 C 534.84375 86.699219 534.300781 87.910156 534.300781 90.59375 C 534.300781 97.433594 537.835938 97.925781 539.195312 91.277344 Z M 576.214844 48.214844 C 576.855469 45.359375 577.101562 42.574219 576.765625 42.03125 C 576.429688 41.484375 576.855469 40.175781 577.714844 39.121094 C 579.085938 37.429688 578.996094 37.316406 576.9375 38.160156 C 573.125 39.726562 570.371094 39.105469 567.070312 35.945312 C 565.359375 34.308594 563.496094 32.964844 562.925781 32.964844 C 562.355469 32.964844 562.777344 33.625 563.867188 34.425781 C 564.953125 35.230469 566.84375 38.628906 568.0625 41.984375 C 573.367188 56.542969 574.207031 57.183594 576.214844 48.214844 Z M 577.796875 32.894531 C 580.214844 31.792969 580.542969 30.777344 580.746094 23.839844 C 581.007812 14.773438 580.503906 13.652344 575.769531 12.695312 C 573.25 12.183594 571.511719 12.621094 569.574219 14.246094 C 567.292969 16.160156 567.003906 17.183594 567.6875 20.941406 C 568.640625 26.179688 572.4375 34.136719 573.988281 34.136719 C 574.585938 34.136719 576.300781 33.578125 577.796875 32.894531 Z M 508.3125 510.046875 C 507.941406 509.675781 508.902344 507.5 510.453125 505.210938 C 515.453125 497.84375 513.574219 487.761719 505.734375 479.886719 C 497.265625 471.378906 492.425781 461.953125 493.996094 457.011719 C 495.132812 453.429688 497.804688 454.199219 498.71875 458.375 C 499.808594 463.328125 503.183594 469.273438 508.59375 475.753906 C 515.960938 484.582031 517.9375 488.59375 517.941406 494.742188 C 517.949219 500.738281 516.765625 503.878906 512.925781 508.097656 C 510.457031 510.808594 509.484375 511.21875 508.3125 510.046875 Z M 672.671875 496.613281 C 671.648438 494.628906 667.992188 489.945312 664.546875 486.199219 C 657.621094 478.664062 655.800781 473.988281 655.792969 463.710938 C 655.785156 457.9375 656.089844 456.996094 657.957031 456.996094 C 659.671875 456.996094 660.28125 458.164062 660.839844 462.542969 C 662.035156 471.9375 663.886719 476.625 668.507812 481.960938 C 673.53125 487.765625 677.335938 493.707031 678.507812 497.585938 C 679.800781 501.855469 674.964844 501.046875 672.671875 496.613281 Z M 779.765625 459.429688 C 777.460938 458.003906 781.847656 450.050781 784.960938 450.011719 C 788.550781 449.96875 789.054688 451.066406 787.140625 454.769531 C 785.136719 458.644531 781.855469 460.71875 779.765625 459.429688 Z M 546.265625 398.007812 C 541.832031 396.082031 539.710938 391.578125 540.804688 386.410156 C 542.308594 379.296875 551.910156 368.980469 561.167969 364.527344 C 564.058594 363.136719 566.578125 361.882812 566.765625 361.746094 C 566.953125 361.609375 566.121094 358.894531 564.910156 355.710938 C 562.09375 348.296875 555.484375 339.382812 552.15625 338.503906 C 548.398438 337.511719 550.078125 334.339844 554.359375 334.339844 C 556.261719 334.339844 558.8125 334.871094 560.023438 335.523438 C 564.113281 337.710938 572.75 347.722656 576.386719 354.492188 C 578.371094 358.183594 580.753906 361.207031 581.679688 361.207031 C 584.714844 361.207031 592.523438 370.199219 593.890625 375.273438 C 595.378906 380.808594 595.667969 387.773438 594.550781 391.285156 C 593.152344 395.699219 581.027344 399.625 581.027344 395.667969 C 581.027344 394.703125 581.515625 393.914062 582.117188 393.914062 C 584.535156 393.914062 584.566406 388.777344 582.191406 381.636719 C 580.808594 377.480469 579.269531 373.828125 578.769531 373.519531 C 578.269531 373.210938 577.273438 374.257812 576.550781 375.84375 C 574.574219 380.175781 570.972656 379.570312 569.34375 374.628906 L 567.988281 370.53125 L 564.449219 372.585938 C 559.519531 375.445312 552.195312 383.996094 550.644531 388.699219 C 549.136719 393.261719 550.660156 397.367188 553.910156 397.5 C 555.574219 397.566406 555.519531 397.75 553.578125 398.585938 C 550.507812 399.90625 550.660156 399.917969 546.265625 398.007812 Z M 683.441406 395.429688 C 682.152344 395.09375 681.570312 394.207031 681.96875 393.171875 C 682.785156 391.039062 676.765625 377.574219 673.960938 375.269531 C 672.125 373.757812 671.71875 373.792969 670.425781 375.5625 C 668.835938 377.734375 664.40625 378.175781 661.65625 376.4375 C 660.207031 375.519531 660.375 374.878906 662.738281 372.367188 C 666.335938 368.535156 664.714844 368.53125 659.691406 372.363281 C 653.152344 377.351562 650.542969 384.980469 653.492188 390.488281 C 654.507812 392.386719 654.308594 392.746094 652.246094 392.746094 C 647.070312 392.746094 643.054688 388.675781 642.40625 382.769531 C 641.933594 378.476562 646.632812 370.601562 651.972656 366.734375 C 656.296875 363.601562 658.109375 363.09375 666.570312 362.617188 C 673.300781 362.234375 677.136719 361.433594 679.222656 359.964844 C 683.253906 357.125 688.035156 356.015625 689.0625 357.679688 C 689.539062 358.449219 688.074219 360.582031 685.585938 362.738281 L 681.28125 366.464844 L 683.875 369.382812 C 687.613281 373.59375 690.835938 381.347656 691.628906 388.042969 C 692.28125 393.550781 692.152344 393.914062 689.164062 395.050781 C 687.425781 395.710938 685.910156 396.191406 685.792969 396.117188 C 685.671875 396.039062 684.617188 395.730469 683.445312 395.429688 Z M 628.609375 311.445312 C 628.222656 311.0625 629.054688 308.566406 630.457031 305.898438 C 634.066406 299.035156 633.738281 287.59375 629.597656 275.933594 C 622.367188 255.566406 622.597656 256.546875 624.136719 252.835938 C 625.578125 249.355469 630.503906 246.128906 632.5 247.363281 C 633.085938 247.726562 632.464844 249.519531 631.109375 251.351562 L 628.648438 254.675781 L 633.40625 266.839844 C 641.15625 286.667969 641.679688 297.433594 635.371094 307.425781 C 632.613281 311.796875 630.320312 313.160156 628.605469 311.445312 Z M 613.027344 86.007812 C 613.421875 84.984375 614.078125 82.75 614.488281 81.042969 C 614.898438 79.335938 616.925781 75.574219 619 72.683594 C 621.070312 69.792969 623.140625 65.363281 623.597656 62.839844 C 625.277344 53.585938 627.644531 49.535156 632.234375 48.0625 C 634.585938 47.308594 637.4375 45.882812 638.566406 44.894531 C 640.378906 43.308594 640.417969 42.878906 638.902344 41.203125 C 637.957031 40.160156 636.066406 36.777344 634.699219 33.6875 L 632.214844 28.070312 L 630.273438 30.808594 C 628.988281 32.628906 628.335938 35.90625 628.335938 40.558594 C 628.335938 47.5 628.289062 47.589844 623.953125 49.707031 C 620.621094 51.335938 619.574219 52.550781 619.574219 54.785156 C 619.574219 58.90625 615.992188 64.503906 613.355469 64.503906 C 611.6875 64.503906 611.367188 64.007812 612.054688 62.460938 C 612.554688 61.335938 613.191406 58.164062 613.46875 55.414062 C 613.917969 50.992188 614.496094 50.144531 618.472656 48.117188 C 622.953125 45.832031 622.96875 45.804688 622.289062 40.078125 C 621.730469 35.34375 622.0625 33.703125 624.175781 30.734375 C 625.585938 28.75 628.019531 26.8125 629.582031 26.417969 C 631.71875 25.882812 632.425781 24.917969 632.425781 22.546875 C 632.425781 19.320312 636.457031 14.625 641.410156 12.078125 C 644.242188 10.625 658.824219 12.152344 662.890625 14.328125 C 666.171875 16.082031 665.601562 23.621094 662.1875 23.621094 C 661 23.621094 660.9375 24.347656 661.910156 26.921875 C 664.539062 33.882812 658.289062 43.480469 651.121094 43.480469 L 647.445312 43.480469 L 651.617188 39.546875 C 655.324219 36.050781 655.789062 34.960938 655.789062 29.742188 C 655.789062 26.070312 656.34375 23.660156 657.273438 23.300781 C 658.09375 22.988281 658.871094 21.410156 659.003906 19.792969 C 659.195312 17.496094 658.550781 16.660156 656.058594 15.953125 C 647.601562 13.5625 640.625 16.394531 638.996094 22.871094 C 637.941406 27.082031 640.867188 37.398438 644.105469 40.871094 C 645.984375 42.890625 646.261719 43.972656 645.34375 45.691406 C 644.148438 47.921875 638.476562 50.488281 634.746094 50.488281 C 633.304688 50.488281 631.816406 53.039062 629.460938 59.542969 C 627.65625 64.523438 624.433594 70.90625 622.296875 73.730469 C 620.15625 76.550781 618.410156 79.871094 618.410156 81.105469 C 618.410156 82.339844 617.863281 84.367188 617.199219 85.609375 C 615.71875 88.382812 611.984375 88.738281 613.03125 86.011719 Z M 665.128906 70.925781 C 664.488281 69.238281 663.925781 67.234375 663.882812 66.472656 C 663.839844 65.710938 662.898438 62.3125 661.789062 58.914062 C 660.304688 54.371094 658.78125 52.140625 656.027344 50.464844 C 651.980469 48.003906 651.171875 45.324219 654.128906 44.1875 C 657.285156 42.976562 659.289062 43.402344 659.289062 45.289062 C 659.289062 46.28125 660.539062 48.253906 662.070312 49.667969 C 664.875 52.261719 668.632812 63.605469 668.632812 69.476562 C 668.632812 73.746094 666.53125 74.613281 665.128906 70.925781 Z M 674.472656 68.671875 C 674.472656 67.664062 674.886719 66.839844 675.394531 66.839844 C 676.589844 66.839844 677.082031 60.222656 676.1875 56.152344 C 675.664062 53.761719 674.570312 52.777344 671.769531 52.167969 C 666.597656 51.046875 666.164062 49.75 668.757812 43.167969 L 671.019531 37.421875 L 667.492188 33.402344 C 663.890625 29.300781 662.789062 24.746094 665.421875 24.84375 C 666.226562 24.871094 669.214844 27.5625 672.070312 30.828125 L 677.257812 36.757812 L 675.144531 42.703125 C 673.984375 45.972656 673.488281 48.804688 674.046875 49.003906 C 680.480469 51.265625 680.898438 51.996094 680.898438 61.035156 C 680.898438 69.6875 680.871094 69.765625 677.6875 70.132812 C 675.390625 70.394531 674.472656 69.980469 674.472656 68.671875 Z M 644.910156 22.804688 C 640.257812 22.066406 641.691406 19.550781 646.820312 19.449219 C 649.167969 19.402344 651.441406 19.007812 651.878906 18.570312 C 652.3125 18.136719 653.667969 17.78125 654.890625 17.78125 C 656.527344 17.78125 657.015625 18.472656 656.742188 20.410156 C 656.441406 22.527344 655.578125 23.066406 652.28125 23.179688 C 650.03125 23.257812 646.714844 23.089844 644.910156 22.804688 Z M 644.910156 22.804688 " fill-opacity="1" fill-rule="nonzero"/></g></svg>