<svg xmlns="http://www.w3.org/2000/svg" xmlns:xlink="http://www.w3.org/1999/xlink" width="1563" zoomAndPan="magnify" viewBox="0 0 1172.25 1172.249948" height="1563" preserveAspectRatio="xMidYMid meet" version="1.0"><defs><clipPath id="b3c2e193fe"><path d="M 0 243.085938 L 1171 243.085938 L 1171 928 L 0 928 Z M 0 243.085938 " clip-rule="nonzero"/></clipPath></defs><g clip-path="url(#b3c2e193fe)"><path fill="#366baa" d="M 630.792969 926.453125 C 630.039062 925.683594 546.621094 924.621094 445.414062 924.09375 C 344.210938 923.5625 246.457031 922.15625 228.183594 920.960938 C 209.917969 919.769531 182.347656 918.363281 166.921875 917.839844 C 129.605469 916.574219 81.296875 912.621094 70.667969 909.96875 C 64.300781 908.378906 58.59375 904.148438 48.472656 893.519531 C 29.941406 874.050781 26.488281 866.496094 19.402344 829.921875 C 10.925781 786.148438 8.972656 758.921875 10.636719 707.765625 C 13.78125 611.265625 13.570312 580.78125 9.453125 537.386719 C 7.273438 514.402344 4.914062 484.507812 4.214844 470.953125 C 3.515625 457.398438 2.261719 437.09375 1.425781 425.835938 C 0.0546875 407.410156 0.742188 394.667969 6.183594 337.460938 C 8.042969 317.890625 14.578125 301.210938 23.421875 293.445312 C 32.378906 285.582031 57.824219 277.304688 83.4375 273.925781 C 93.996094 272.53125 116.175781 267.980469 132.726562 263.8125 C 181.988281 251.40625 256.269531 244.789062 337.484375 245.574219 C 365.183594 245.839844 437.511719 246.40625 498.21875 246.832031 C 621.785156 247.699219 663.238281 250.464844 663.238281 257.839844 C 663.238281 261.449219 659.171875 262.382812 635.375 264.214844 C 617.160156 265.617188 595.917969 265.589844 581.796875 264.140625 C 574.398438 263.382812 462.675781 263 418.921875 263.582031 C 406.546875 263.746094 374.910156 263.273438 348.617188 262.523438 C 322.328125 261.777344 292.433594 262.007812 282.183594 263.035156 C 271.933594 264.066406 247.152344 266.015625 227.113281 267.371094 C 196.757812 269.425781 185.152344 271.261719 157.539062 278.398438 C 139.308594 283.105469 123.84375 287.296875 123.171875 287.714844 C 122.5 288.128906 111.96875 289.566406 99.765625 290.910156 C 71.636719 294.003906 55.699219 299.71875 51.261719 308.300781 C 49.460938 311.78125 48.566406 315.5625 49.273438 316.707031 C 49.980469 317.851562 49.703125 318.789062 48.652344 318.789062 C 47.601562 318.789062 45.539062 321.039062 44.066406 323.792969 C 41.867188 327.90625 41.976562 330.21875 44.683594 336.699219 C 48.996094 347.015625 71.214844 376.210938 84.417969 388.902344 C 91.359375 395.570312 122.375 416.074219 131.746094 420.183594 C 150.558594 428.4375 172.886719 439.714844 189.609375 449.40625 C 199.628906 455.214844 215.058594 463.117188 223.898438 466.96875 C 232.738281 470.824219 246.015625 477.636719 253.402344 482.105469 C 260.792969 486.574219 267.875 490.234375 269.144531 490.234375 C 270.414062 490.234375 274.015625 491.640625 277.144531 493.363281 C 280.273438 495.085938 289.582031 499.09375 297.835938 502.277344 C 306.085938 505.453125 316.566406 510.398438 321.121094 513.261719 C 342.003906 526.371094 392.890625 549.136719 418.046875 556.617188 C 425.230469 558.75 434.292969 562.144531 438.183594 564.160156 C 444.988281 567.675781 445.203125 567.667969 443.6875 563.851562 C 442.820312 561.667969 439.75 547.347656 436.867188 532.023438 C 432.640625 509.5625 431.78125 499.179688 432.429688 478.445312 C 433.582031 441.574219 435.511719 435.03125 451.011719 415.503906 C 458.214844 406.429688 463.457031 402.46875 475.824219 396.753906 C 490.363281 390.035156 493.078125 389.507812 513.140625 389.507812 C 554.71875 389.507812 579.066406 403.570312 599.820312 439.574219 L 605.828125 449.988281 L 610.417969 441.714844 C 612.945312 437.164062 616.402344 430.742188 618.105469 427.445312 C 624.015625 416 635.546875 404.738281 647.179688 399.046875 C 657.367188 394.066406 660.898438 393.433594 674.449219 394.183594 C 693.410156 395.234375 712.832031 403.019531 733.121094 417.707031 C 744.515625 425.957031 759.660156 442.171875 759.683594 446.152344 C 759.691406 447.414062 761.308594 451.339844 763.277344 454.875 C 766.089844 459.917969 766.835938 466.835938 766.75 487.019531 C 766.691406 501.164062 765.609375 517.078125 764.351562 522.382812 C 763.09375 527.6875 761.046875 536.746094 759.800781 542.511719 C 758.558594 548.28125 756.457031 554.308594 755.128906 555.90625 C 749.359375 562.859375 763.636719 555.738281 795.621094 535.707031 C 808.261719 527.785156 822.222656 519.46875 826.644531 517.222656 C 831.066406 514.972656 834.679688 512.320312 834.679688 511.328125 C 834.679688 510.335938 835.976562 509.523438 837.5625 509.523438 C 839.144531 509.523438 842.105469 507.683594 844.136719 505.441406 C 846.171875 503.195312 855.242188 497.03125 864.292969 491.742188 C 873.347656 486.457031 886.089844 476.960938 892.601562 470.644531 C 906.097656 457.5625 913.277344 451.660156 915.691406 451.660156 C 916.605469 451.660156 924.101562 445.503906 932.34375 437.984375 C 940.582031 430.464844 955.546875 419.003906 965.597656 412.523438 C 975.644531 406.039062 987.1875 397.144531 991.246094 392.757812 C 995.304688 388.375 1005.375 379.363281 1013.628906 372.734375 C 1028.585938 360.71875 1035.925781 353.421875 1036.058594 350.421875 C 1036.164062 348.105469 1041.878906 341.199219 1057.722656 324.230469 C 1065.472656 315.933594 1072.917969 307.699219 1074.265625 305.929688 C 1089.171875 286.375 1097.066406 277.914062 1106.667969 271.199219 L 1118.023438 263.261719 L 1111.902344 261.582031 C 1095.25 257.011719 849.8125 261.191406 818.605469 266.574219 C 803.460938 269.1875 790.804688 269.601562 759.671875 268.511719 C 698.375 266.367188 688.945312 265.390625 688.945312 261.195312 C 688.945312 260.09375 699.316406 258.601562 711.984375 257.882812 C 724.65625 257.164062 741.292969 255.609375 748.953125 254.425781 C 781.515625 249.402344 933.996094 243.667969 1035.421875 243.65625 C 1124.742188 243.648438 1138.933594 246.25 1154.484375 265.492188 C 1157.945312 269.773438 1161.597656 276.523438 1162.605469 280.496094 C 1163.613281 284.464844 1166.050781 293.5 1168.023438 300.574219 C 1171.1875 311.921875 1171.480469 323.125 1170.503906 395.941406 C 1169.488281 471.542969 1168.925781 483.519531 1165.65625 498.425781 C 1165.058594 501.160156 1163.191406 515.144531 1161.507812 529.503906 C 1158.332031 556.59375 1156.292969 573.207031 1155.015625 582.390625 C 1153.367188 594.226562 1148.789062 648.632812 1145.535156 695.015625 C 1143.578125 722.851562 1141.550781 742.550781 1135.710938 790.273438 C 1134.617188 799.214844 1129.421875 821.410156 1126.683594 828.851562 C 1126.03125 830.617188 1125.28125 833.050781 1125.011719 834.257812 C 1123.925781 839.160156 1111.503906 856.683594 1105.632812 861.597656 C 1097.710938 868.230469 1081.371094 876.425781 1066.140625 881.398438 C 1059.65625 883.519531 1048.085938 888.089844 1040.421875 891.554688 C 1017.710938 901.832031 994.792969 907.789062 963.660156 911.507812 C 947.535156 913.429688 928.070312 915.832031 920.410156 916.839844 C 893.382812 920.398438 856.746094 923.003906 817.542969 924.15625 C 737.464844 926.515625 632.125 927.8125 630.792969 926.453125 Z M 811.109375 908.457031 C 848.757812 906.847656 889.652344 903.828125 907.550781 901.339844 C 924.640625 898.964844 947.789062 896.132812 958.984375 895.042969 C 979.34375 893.066406 1004.179688 886.152344 1024.351562 876.847656 C 1030.242188 874.128906 1042.78125 869.304688 1052.210938 866.128906 C 1061.640625 862.953125 1071.863281 858.605469 1074.933594 856.46875 C 1085.003906 849.457031 1095.71875 830.996094 1100.296875 812.78125 C 1105.261719 793.023438 1114.582031 732.449219 1116.289062 708.839844 C 1116.925781 700 1118.046875 686.386719 1118.777344 678.59375 L 1120.101562 664.421875 L 1104.195312 651.425781 C 1088.671875 638.742188 1074.714844 624.527344 1074.714844 621.410156 C 1074.714844 619.128906 1066.308594 610.617188 1052.054688 598.46875 C 1045.136719 592.574219 1034.148438 582.4375 1027.628906 575.941406 C 1017.621094 565.964844 987.285156 543.820312 983.625 543.820312 C 981.972656 543.820312 953.117188 522.84375 941.539062 513.226562 C 936.066406 508.683594 924.714844 502.167969 916.3125 498.746094 C 899.710938 491.992188 897.355469 492.175781 883.632812 501.289062 C 852.414062 522.027344 816.636719 542.53125 770.394531 566.199219 C 748.300781 577.507812 742.996094 581.160156 740.128906 587.046875 C 725.421875 617.261719 717.109375 632.234375 709.394531 642.402344 C 704.476562 648.886719 696.179688 659.96875 690.953125 667.027344 C 685.730469 674.089844 672.84375 688.382812 662.324219 698.789062 C 645.34375 715.585938 640.460938 719.019531 618.894531 729.351562 C 594.617188 740.976562 582.636719 743.582031 575.371094 738.808594 C 572.511719 736.933594 572.511719 736.464844 575.371094 734.589844 C 577.136719 733.429688 579.734375 732.464844 581.136719 732.449219 C 587.523438 732.367188 585.355469 727.992188 577.027344 724.152344 C 571.992188 721.832031 563.542969 715.816406 558.253906 710.789062 C 552.964844 705.761719 542.015625 696.5625 533.917969 690.351562 C 520.0625 679.722656 502.121094 663.53125 496.996094 657.03125 C 495.734375 655.433594 492.019531 649.550781 488.742188 643.960938 C 483.671875 635.304688 469.375 615.449219 461.84375 606.597656 C 460.632812 605.175781 459.640625 603.472656 459.640625 602.816406 C 459.640625 600.53125 449.984375 586.738281 448.367188 586.710938 C 447.46875 586.695312 436.816406 581.859375 424.6875 575.96875 C 412.5625 570.074219 401.101562 565.253906 399.21875 565.253906 C 397.335938 565.253906 383.496094 559.949219 368.464844 553.464844 C 353.429688 546.984375 340.414062 541.679688 339.539062 541.679688 C 338.664062 541.679688 326.03125 535.007812 311.464844 526.855469 C 296.894531 518.707031 280.941406 510.855469 276.011719 509.417969 C 267.40625 506.902344 266.316406 507.160156 248.9375 515.769531 C 238.976562 520.703125 227.476562 528.308594 223.378906 532.671875 C 215.257812 541.328125 212.492188 543.738281 191.742188 560.265625 C 184.085938 566.363281 172.617188 576.75 166.253906 583.347656 C 159.890625 589.945312 147.355469 600.527344 138.394531 606.859375 C 129.433594 613.195312 120.425781 620.402344 118.378906 622.882812 C 116.332031 625.359375 103.3125 635.804688 89.445312 646.085938 C 75.582031 656.371094 62.460938 666.414062 60.289062 668.40625 C 58.121094 670.394531 52.089844 674.277344 46.894531 677.035156 C 39.378906 681.023438 37.164062 683.519531 36.097656 689.214844 C 34.597656 697.21875 36.542969 783.8125 38.5625 798.855469 C 40.550781 813.679688 44.25 832.488281 46.917969 841.351562 C 47.511719 843.320312 48.421875 847.433594 48.949219 850.496094 C 51.171875 863.46875 59.734375 878.3125 71.417969 889.457031 L 83.539062 901.019531 L 101.746094 902.613281 C 123.40625 904.511719 206.347656 908.113281 272.117188 910.007812 C 359.554688 912.53125 741.679688 911.433594 811.109375 908.464844 Z M 599.433594 716.328125 C 612.304688 709.136719 645.878906 675.328125 660.8125 654.523438 C 676.269531 632.988281 693.238281 606.265625 693.238281 603.453125 C 693.238281 601.25 695.269531 596.953125 703.703125 581.320312 C 718.191406 554.472656 725.929688 532.519531 729.539062 508.046875 C 732.699219 486.644531 732.402344 477.105469 728.0625 460.585938 C 724.789062 448.117188 722.664062 444.648438 711.289062 433.242188 C 699.339844 421.253906 678.921875 408.800781 671.226562 408.800781 C 665.886719 408.800781 652.558594 424.300781 644.589844 439.773438 C 640.308594 448.082031 633.832031 460.644531 630.195312 467.6875 C 620.835938 485.828125 608.863281 490.457031 592.65625 482.199219 C 585.425781 478.515625 583.398438 475.554688 566.605469 444.160156 C 553.210938 419.121094 549.890625 415.101562 538.253906 409.835938 C 515.757812 399.65625 501.4375 400.886719 485.703125 414.355469 C 471.714844 426.328125 462.628906 448.046875 461.433594 472.347656 C 460.839844 484.484375 463.722656 528.902344 465.269531 531.402344 C 465.851562 532.34375 467.144531 537.691406 468.144531 543.285156 C 473.996094 576.003906 481.027344 594.027344 497.710938 619.078125 C 503.503906 627.777344 510.960938 639.953125 514.277344 646.136719 C 517.734375 652.578125 527.714844 664.378906 537.660156 673.789062 C 547.199219 682.816406 562.390625 697.289062 571.417969 705.949219 C 580.445312 714.609375 588.277344 721.691406 588.828125 721.691406 C 589.378906 721.691406 594.148438 719.277344 599.429688 716.324219 Z M 55.03125 653.652344 C 63.195312 646.875 72.710938 639.304688 76.175781 636.828125 C 79.636719 634.351562 89.941406 625.511719 99.070312 617.183594 C 108.203125 608.855469 118.566406 599.863281 122.101562 597.203125 C 125.636719 594.539062 137.695312 583.535156 148.890625 572.742188 C 160.085938 561.953125 174.726562 549.039062 181.417969 544.042969 C 188.109375 539.050781 195.089844 532.671875 196.921875 529.875 C 200.613281 524.238281 217.847656 511.671875 221.882812 511.671875 C 223.292969 511.671875 229.671875 508.683594 236.050781 505.035156 L 247.652344 498.398438 L 237.742188 492.109375 C 232.289062 488.652344 215.128906 479.550781 199.609375 471.882812 C 184.089844 464.21875 163.570312 453.316406 154.007812 447.65625 C 144.445312 441.996094 132.390625 435.695312 127.21875 433.648438 C 95.914062 421.277344 63.71875 395.761719 44.15625 367.820312 C 40.132812 362.074219 36.121094 357.371094 35.238281 357.371094 C 32.042969 357.371094 26.734375 374.839844 26.734375 385.339844 C 26.734375 392.960938 25.789062 396.445312 23.484375 397.328125 C 20.039062 398.648438 20.402344 410.535156 24.679688 436.664062 C 26.566406 448.175781 27.515625 456.574219 29.886719 482.742188 C 30.527344 489.8125 31.546875 498.976562 32.152344 503.101562 C 34.277344 517.605469 36.328125 536.507812 39.113281 567.394531 C 41.085938 589.234375 40.742188 647.402344 38.574219 658.957031 C 37.847656 662.820312 37.914062 665.976562 38.722656 665.976562 C 39.53125 665.976562 46.867188 660.433594 55.035156 653.65625 Z M 1124.828125 612.894531 C 1125.519531 603.148438 1126.535156 593.023438 1127.085938 590.390625 C 1127.632812 587.761719 1128.65625 579.417969 1129.359375 571.847656 C 1130.058594 564.277344 1131.046875 557.417969 1131.546875 556.609375 C 1132.050781 555.796875 1132.9375 550.414062 1133.523438 544.652344 C 1135.210938 528.007812 1136.800781 516.332031 1140.355469 494.527344 C 1144.371094 469.871094 1145.125 315.507812 1141.261719 308.289062 C 1140.019531 305.972656 1139.003906 302.121094 1139.003906 299.734375 C 1139.003906 293.121094 1131.921875 280.328125 1128.226562 280.269531 C 1126.425781 280.238281 1120.527344 284.800781 1115.121094 290.398438 C 1106.863281 298.953125 1068.796875 336.84375 1063.402344 341.882812 C 1062.484375 342.738281 1057.171875 348.316406 1051.59375 354.28125 C 1046.015625 360.242188 1035.195312 369.269531 1027.542969 374.339844 C 1019.894531 379.410156 1011.707031 386.027344 1009.347656 389.042969 C 998.730469 402.628906 991.746094 409.730469 980.472656 418.40625 C 973.8125 423.53125 966.125 430.941406 963.386719 434.875 C 960.652344 438.804688 952.605469 446.84375 945.503906 452.738281 C 924.582031 470.105469 913.976562 479.945312 913.976562 481.992188 C 913.976562 483.042969 916.148438 484.808594 918.800781 485.90625 C 921.453125 487.007812 931.148438 490.957031 940.347656 494.683594 C 949.546875 498.40625 961.746094 505.441406 967.453125 510.316406 C 973.164062 515.1875 985.890625 523.886719 995.734375 529.644531 C 1024.28125 546.339844 1048.273438 562.796875 1054.84375 570.195312 C 1058.1875 573.957031 1067.792969 582.550781 1076.1875 589.289062 C 1084.585938 596.03125 1095.164062 606.136719 1099.691406 611.753906 C 1110.695312 625.386719 1120.285156 634.140625 1122.09375 632.199219 C 1122.90625 631.328125 1124.136719 622.640625 1124.828125 612.894531 Z M 1074.714844 483.605469 C 1074.714844 476.988281 1082.9375 466.589844 1090.769531 463.320312 C 1097.234375 460.617188 1106.859375 461.203125 1106.859375 464.300781 C 1106.859375 465.082031 1101.511719 470.753906 1094.972656 476.90625 C 1082.339844 488.800781 1074.714844 491.320312 1074.714844 483.605469 Z M 969.703125 462.5 C 969.703125 461.386719 971.660156 459.109375 974.050781 457.433594 C 976.441406 455.757812 996.699219 436.710938 1019.0625 415.105469 C 1041.429688 393.503906 1060.929688 375.0625 1062.398438 374.128906 C 1066.875 371.289062 1074.773438 372.171875 1076.113281 375.660156 C 1077.691406 379.769531 1075.191406 382.554688 1044.683594 410.691406 C 1003.78125 448.414062 994.707031 456.15625 986.398438 460.429688 C 977.902344 464.800781 969.703125 465.816406 969.703125 462.5 Z M 1036.136719 458.589844 C 1036.136719 454.363281 1051.132812 435.308594 1058.300781 430.425781 C 1060.847656 428.695312 1063.675781 426.050781 1064.589844 424.554688 C 1066.574219 421.316406 1079.71875 418.511719 1084.433594 420.320312 C 1089.527344 422.273438 1084.726562 429.410156 1074.96875 434.386719 C 1070.476562 436.679688 1061.898438 443.917969 1055.910156 450.46875 C 1044.863281 462.554688 1036.136719 466.140625 1036.136719 458.589844 Z M 1036.136719 458.589844 " fill-opacity="1" fill-rule="nonzero"/></g></svg>