<svg xmlns="http://www.w3.org/2000/svg" xmlns:xlink="http://www.w3.org/1999/xlink" width="1563" zoomAndPan="magnify" viewBox="0 0 1172.25 1172.249948" height="1563" preserveAspectRatio="xMidYMid meet" version="1.0"><path fill="#366baa" d="M 577.066406 346.539062 C 540.570312 343.65625 511.519531 331.53125 488.753906 302.960938 C 473.328125 282.492188 462.730469 278.882812 437.183594 285.023438 C 423.839844 287.867188 410.582031 291.445312 397.039062 292.90625 C 381.734375 295.34375 367.210938 290.214844 352.230469 289.699219 C 341.085938 289.613281 331.75 297.496094 321.082031 298.777344 C 302.925781 297.449219 301.496094 287.398438 300.667969 271.609375 C 299.507812 266.007812 298.820312 260.050781 295.996094 255.058594 C 292.164062 250.554688 287.550781 246.53125 285.699219 240.664062 C 281.636719 227.5 290.761719 207.414062 305.863281 206.0625 C 310.457031 205.855469 314.707031 207.867188 318.167969 210.601562 C 323.578125 213.816406 329.496094 216.1875 335.386719 218.398438 C 350.558594 223.566406 365.671875 225.5625 381.675781 224.667969 C 406.605469 222.019531 431.425781 212.011719 451.9375 197.050781 C 460.472656 189.136719 467.367188 179.609375 476.136719 171.917969 C 487.472656 161.117188 501.285156 152.785156 509.992188 139.496094 C 518.121094 128.082031 524.480469 115.222656 534.695312 105.390625 C 537.234375 103.335938 539.894531 101.457031 542.648438 99.734375 C 542.621094 98.160156 542.460938 96.613281 541.824219 95.183594 C 535.308594 80.492188 521.609375 70.335938 512.039062 57.699219 C 512.203125 57.851562 512.367188 58 512.535156 58.152344 C 512.542969 58.152344 512.550781 58.152344 512.558594 58.15625 C 506.308594 52.40625 512.59375 43.753906 520.582031 45.753906 C 533.292969 47.789062 546.042969 51.136719 559.140625 48.578125 C 574.171875 46.085938 586.71875 36.75 598.628906 27.550781 C 608.371094 19.957031 619.164062 12.503906 626.382812 2.519531 C 626.390625 2.546875 626.402344 2.570312 626.410156 2.59375 C 629.292969 0 632.019531 2.355469 632.367188 5.601562 C 638.828125 20.464844 653.769531 29.464844 667.160156 37.519531 C 695.71875 52.09375 731.601562 51.519531 762.335938 41.105469 C 765.1875 40.300781 768.117188 41.144531 769.796875 43.542969 C 772.246094 47.058594 770.375 51.578125 769.375 55.457031 C 768.417969 59.65625 767.691406 63.90625 767.738281 68.1875 C 768.644531 80.273438 772.363281 92.558594 779.742188 102.066406 C 789.695312 112.925781 799.8125 123.664062 810.597656 133.710938 C 816.691406 137.707031 820.730469 145.871094 815.160156 152.460938 C 811.261719 157.246094 803.675781 158.488281 799.070312 154.515625 C 784.929688 141.273438 769.925781 128.253906 758.480469 112.535156 C 749.277344 95.949219 746.253906 74.230469 753.375 55.738281 C 729.519531 61.335938 704.402344 63.90625 681.082031 56.820312 C 658.839844 49.550781 636.230469 35.429688 626.335938 13.617188 C 601.742188 39.722656 576.40625 70.820312 537.460938 64.835938 C 544.640625 72.945312 552.847656 82.585938 553.976562 93.691406 C 565.117188 88.640625 577.171875 85.441406 588.914062 83.117188 C 636.492188 74.011719 690.863281 97.578125 718.90625 134.863281 C 720.714844 137.496094 723.578125 141.226562 723.40625 144.6875 C 724.300781 145.292969 725.132812 146.015625 725.886719 146.554688 C 750.78125 166.148438 759.992188 197.1875 761.144531 228.101562 C 761.859375 252.144531 760.339844 276.523438 755.320312 300.296875 C 748.164062 332.148438 736.515625 362.882812 726.277344 393.933594 C 722.664062 404.84375 719.949219 416.105469 720.425781 427.515625 C 721.40625 443.105469 724.585938 458.363281 726.332031 473.847656 C 727.03125 480.160156 727.484375 486.503906 727.738281 492.859375 C 736.726562 479.265625 748.535156 467.75 760.828125 457.074219 C 775.796875 443.664062 790.925781 430.367188 807.554688 419.050781 C 819.582031 412.410156 838.089844 393.851562 851.453125 402.902344 C 855.820312 406.023438 857.515625 411.386719 858.828125 416.394531 C 860.851562 423.699219 863.707031 430.792969 864.492188 438.425781 C 865.957031 451.113281 863.460938 463.976562 859.675781 476.269531 C 857.824219 484.753906 849.496094 494.921875 857.597656 502 C 869.832031 514.578125 880.925781 528.769531 885.003906 546.371094 C 889.855469 561.976562 885.355469 580.1875 871.652344 590.625 C 865.085938 595.914062 857.738281 599.652344 850.167969 603.160156 C 846.136719 604.902344 842.410156 608.21875 843.015625 612.917969 C 845.039062 631.742188 852.367188 650.988281 844.304688 669.835938 C 838.066406 685.8125 823.921875 697.496094 809.902344 706.746094 C 806.199219 709.066406 803.058594 712.296875 801.5625 716.449219 C 799.675781 721.242188 799.789062 726.398438 799.109375 731.398438 C 798.253906 738.6875 794.929688 745.679688 790.128906 751.324219 C 782.875 758.953125 774.480469 774.457031 762.820312 765.898438 C 758.140625 762.171875 757.148438 754.550781 761.367188 749.726562 C 765.4375 745.0625 769.171875 740.089844 772.429688 734.84375 C 775.535156 729.058594 773.773438 722.386719 774.992188 716.222656 C 775.96875 709.8125 778.023438 703.878906 781.359375 698.199219 C 789.011719 685.859375 803.125 680.027344 812.761719 669.46875 C 810.691406 670.285156 808.335938 670.34375 806.25 669.464844 C 775.066406 658.796875 743.4375 649.136719 711.679688 640.296875 L 710.648438 644.910156 C 708.707031 656.078125 691.589844 655.257812 692.0625 643.632812 C 692.746094 630.613281 695.871094 617.875 698.617188 605.085938 C 703.960938 581.5 706.257812 557.546875 707.4375 533.59375 C 708.667969 511.453125 708.898438 489.128906 705.269531 467.375 C 702.675781 452.191406 698.90625 437.242188 697.390625 421.847656 C 694.925781 390.160156 710.742188 360.320312 720.410156 330.542969 C 735.359375 286.714844 748.421875 239.152344 742.300781 193.421875 C 739.714844 176.433594 730.109375 162.421875 720.785156 148.65625 C 719.867188 148.863281 718.910156 148.601562 718.054688 148.160156 C 718.03125 148.160156 718.015625 148.164062 717.992188 148.164062 C 717.3125 148.230469 716.910156 147.863281 716.765625 147.402344 C 667.277344 104.597656 614.945312 82.1875 551.707031 120.402344 C 538.3125 131.140625 527.441406 144.824219 515.167969 156.816406 C 504.125 167.890625 490.464844 176.003906 479.992188 187.726562 C 474.660156 193.613281 470.109375 200.203125 464.4375 205.792969 C 445.503906 222.429688 420.105469 230.457031 395.96875 234.777344 C 380.535156 237.1875 365.058594 235.730469 349.90625 233.363281 C 334.921875 231.214844 319.722656 229.410156 305.863281 223.304688 C 295.746094 236.648438 303.664062 237.988281 310.578125 247.824219 C 315.792969 257.789062 318.253906 269.277344 319.332031 280.542969 C 319.554688 280.636719 319.777344 280.726562 320.007812 280.816406 C 320.527344 280.980469 321.050781 281.128906 321.582031 281.261719 C 333.207031 276.207031 345.339844 271.515625 357.976562 270.621094 C 372.140625 270.421875 386.28125 272.570312 400.398438 269.117188 C 424.621094 264.425781 449.257812 252.546875 473.933594 257.945312 C 489.171875 261.125 500.132812 272.398438 509.875 283.601562 C 520.578125 295.96875 533.625 306.484375 549.386719 311.777344 C 560.066406 314.953125 570.570312 318.84375 581.621094 320.667969 C 593.242188 322.753906 594.78125 335.160156 588.96875 342.035156 C 590.855469 345.429688 591.332031 349.960938 590.648438 353.574219 C 586.824219 369.683594 568.519531 374.730469 555.230469 380.796875 C 538.722656 387.527344 522.972656 396.011719 507.957031 405.757812 C 485.597656 420.066406 468.761719 440.785156 452.679688 461.542969 C 444.148438 472.425781 435.796875 483.433594 427.722656 494.640625 C 424.167969 500.019531 419.960938 506.574219 412.890625 502.667969 C 405.9375 497.695312 409.960938 491.503906 414.300781 486.089844 C 421.578125 475.875 429.078125 465.832031 436.492188 455.710938 C 450.265625 436.9375 463.222656 416.847656 481.609375 402.152344 C 501.484375 385.757812 524.421875 373.191406 548.300781 364.078125 C 558.015625 359.796875 569.90625 358.042969 577.328125 349.851562 C 578.050781 348.824219 578.511719 347.738281 578.859375 346.621094 C 578.277344 346.625 577.683594 346.601562 577.066406 346.539062 Z M 603.914062 733.960938 C 595.574219 719.199219 619.386719 709.636719 623.632812 725.972656 C 625.890625 737.429688 610.25 743.957031 603.914062 733.960938 Z M 458.199219 614.007812 C 445.394531 589.828125 490.789062 581.921875 487.414062 608.773438 C 484.761719 621.746094 465.066406 624.699219 458.199219 614.007812 Z M 484.933594 508.738281 C 477.140625 496.648438 492.128906 483.40625 504.015625 489.582031 C 524.15625 502.179688 498.171875 526.40625 484.933594 508.738281 Z M 535.949219 707.777344 C 532.441406 700.847656 537.808594 691.644531 545.648438 691.542969 C 551.976562 691.070312 559.234375 695.628906 558.550781 702.621094 C 557.726562 714.238281 541.367188 719.042969 535.945312 707.777344 Z M 566.996094 473.792969 C 558.660156 459.03125 582.472656 449.46875 586.71875 465.804688 C 588.976562 477.261719 573.335938 483.789062 566.996094 473.792969 Z M 553.316406 621.253906 C 548.195312 604.464844 576.304688 600.285156 579.558594 615.773438 C 580.945312 622.363281 574.191406 625.78125 569.335938 628.234375 C 563.210938 631.136719 555.421875 627.894531 553.316406 621.253906 Z M 645.363281 1105.054688 C 641.523438 1103.398438 640.011719 1098.902344 641.695312 1095.035156 C 644.21875 1089.148438 646.339844 1083.820312 648.597656 1078.046875 C 660.117188 1047.527344 673.476562 1016.230469 667.6875 983.621094 C 667.257812 982.292969 667.425781 980.855469 668.039062 979.644531 C 648.222656 889.667969 627.613281 825.753906 530.339844 794.882812 C 476.746094 774.390625 432.769531 762.09375 421.40625 698.21875 C 422.039062 693.46875 428.273438 694.148438 428.167969 698.882812 C 436.414062 722.792969 451.84375 744.492188 474.761719 755.859375 C 503.425781 769.957031 535.753906 776.914062 564.722656 789.636719 C 606.363281 807.386719 638.371094 842.5625 653.714844 885.058594 C 665.460938 915.121094 670.050781 946.769531 677.101562 978.160156 C 677.363281 981.210938 679.34375 985.421875 678.980469 988.664062 C 682.109375 1001.664062 683.414062 1014.511719 681.34375 1028.039062 C 679.417969 1040.539062 674.769531 1052.957031 670.105469 1064.648438 C 665.441406 1076.808594 660.730469 1089 655.542969 1100.984375 C 653.871094 1104.863281 649.039062 1106.636719 645.363281 1105.054688 Z M 589.316406 1094.105469 C 556.398438 1094.9375 528.554688 1060.644531 539.261719 1028.359375 C 544.871094 1011.882812 564.800781 996.929688 581.835938 1004.261719 C 585.992188 1006.390625 589.75 1009.160156 593.769531 1011.523438 C 600.160156 1015.582031 594.007812 1025.378906 587.425781 1021.683594 C 582.660156 1019.460938 577.753906 1015.738281 572.195312 1016.332031 C 545.113281 1025.847656 554.613281 1055.234375 574.421875 1065.589844 C 609.46875 1082.9375 634.757812 1038.1875 628.664062 1007.644531 C 627.972656 1004.078125 628.957031 998.894531 633.363281 998.386719 C 641.707031 998.640625 644.285156 1009.011719 646.328125 1015.59375 C 654.5 1050.4375 628.117188 1095.011719 589.316406 1094.105469 Z M 567.226562 1166.582031 C 509.609375 1153.828125 478.691406 1096.433594 477.3125 1040.167969 C 473.660156 974.976562 519.097656 927.960938 585.015625 936.523438 C 597.199219 937.957031 608.183594 943.46875 619.492188 947.628906 C 628.984375 952.511719 650.851562 954.304688 645.039062 969.722656 C 638.386719 982.589844 625.410156 972.160156 616.144531 969.582031 C 587.792969 958.714844 552.417969 954.167969 525.792969 974.296875 C 481.863281 1013.210938 505.492188 1102.867188 547.859375 1131.5 C 562.355469 1141.117188 578.988281 1147.460938 596.074219 1151.339844 C 602.761719 1153.328125 627.492188 1153.109375 617.148438 1165.109375 C 614.707031 1167.464844 610.9375 1168.234375 607.703125 1168.839844 C 594.121094 1171.5 580.300781 1170.046875 567.226562 1166.582031 Z M 658.546875 1156.144531 C 655.28125 1152.761719 655.191406 1146.535156 659.050781 1143.203125 C 672.421875 1131.660156 684.964844 1119.207031 696.949219 1106.242188 C 741.582031 1056.417969 738.328125 959.683594 738.605469 897.03125 C 737.277344 853.550781 730.8125 810.582031 721.074219 768.539062 C 715.519531 743.464844 708.46875 717.921875 710.714844 691.738281 C 711.605469 686.128906 711.566406 679.484375 715.238281 674.839844 C 716.855469 673.589844 719.398438 674.804688 718.894531 676.917969 C 718.90625 676.890625 718.914062 676.867188 718.925781 676.84375 C 718.925781 676.84375 718.925781 676.84375 718.925781 676.855469 C 718.929688 676.761719 718.945312 676.664062 718.949219 676.570312 C 718.953125 676.472656 718.945312 676.378906 718.949219 676.269531 C 720.578125 708.300781 733.738281 736.328125 743.625 765.746094 C 753.625 796.402344 760.527344 828.210938 763.867188 860.53125 C 767.632812 893.105469 767.75 925.496094 766.699219 958.277344 C 764.824219 1018.496094 755.75 1088.640625 703.152344 1128.410156 C 692.433594 1137.464844 682.121094 1146.992188 671.488281 1156.144531 C 667.875 1159.609375 661.851562 1159.742188 658.546875 1156.144531 Z M 598.667969 224.820312 C 584.914062 222.449219 581.242188 206.679688 585.082031 194.644531 C 587.285156 188.027344 589.378906 176.339844 598.246094 176.558594 C 600.429688 176.839844 602.507812 178.5625 602.90625 180.769531 C 602.976562 187.269531 600.550781 193.800781 601.042969 200.4375 C 600.441406 210.292969 606.691406 206.265625 611.839844 202.226562 C 619.140625 195.367188 625.875 187.832031 632.117188 180.007812 C 636.242188 174.535156 645.523438 177.0625 645.921875 183.730469 C 646.132812 185.875 645.417969 187.828125 644.136719 189.578125 C 640.121094 195.054688 636.128906 200.554688 631.875 205.851562 C 624.105469 216.273438 612.371094 227.230469 598.667969 224.820312 Z M 744.980469 427.53125 C 738.558594 425.859375 735.039062 418.820312 736.992188 412.429688 C 739.839844 400.867188 743.070312 389.390625 746.199219 377.894531 C 754.78125 340.644531 769.757812 302.859375 807.832031 286.769531 C 776.050781 263.878906 773.28125 211.355469 804.066406 184.160156 C 811.289062 178.429688 821.691406 169.792969 831.007812 173.871094 C 835.699219 175.398438 835.703125 182.550781 830.96875 184.371094 C 794.605469 212.203125 805.320312 250.617188 825.054688 282.6875 C 834.003906 288.371094 829.933594 297.25 821.523438 301.535156 C 803.085938 312.601562 788.371094 328.933594 781.339844 349.316406 C 773.191406 372.183594 766.398438 395.515625 760.414062 418.964844 C 758.695312 425.335938 751.117188 429.40625 744.980469 427.53125 Z M 818.300781 662.019531 C 826.722656 645.71875 814.65625 625.894531 817.214844 608.316406 C 821.5625 570.253906 871.652344 583.558594 859.328125 550.050781 C 854.714844 531.589844 835.925781 522.441406 829.238281 505.347656 C 821.390625 477.175781 849.507812 458.0625 836.695312 425.113281 C 817.914062 435.550781 800.058594 447.582031 782.878906 460.46875 C 761.851562 475.089844 742.519531 492.097656 727.957031 513.214844 C 727.808594 522.632812 727.363281 532.058594 726.785156 541.46875 C 728.507812 537.800781 737.515625 537.875 740.78125 536.460938 C 754.304688 533.09375 767.929688 530.265625 781.65625 528.152344 C 794.292969 526.148438 806.988281 524.375 819.707031 523.175781 C 822.5 522.90625 825.035156 524.707031 825.308594 527.554688 C 825.574219 530.234375 823.496094 533.066406 820.703125 533.335938 C 811.363281 534.214844 802.0625 535.453125 792.75 536.667969 C 772.25 539.25 751.796875 541.96875 731.410156 545.585938 C 729.613281 546.359375 727.390625 545.890625 726.667969 543.953125 L 726.636719 543.835938 L 726.527344 545.542969 C 726.003906 557.746094 724.730469 569.882812 722.96875 581.964844 C 724.652344 581.042969 726.648438 580.75 728.496094 580.445312 C 756.347656 576.832031 784.328125 574.292969 812.296875 574.128906 C 816.574219 574.089844 820.015625 577.753906 819.851562 581.992188 C 819.683594 586.316406 815.960938 589.800781 811.683594 589.851562 C 782.554688 591.125 753.0625 590.320312 724.15625 592.636719 C 723.089844 592.519531 722.191406 592.105469 721.480469 591.496094 C 719.4375 603.816406 716.953125 616.089844 714.308594 628.332031 C 715.761719 628.710938 717.207031 629.152344 718.625 629.332031 C 748.507812 633.808594 777.628906 641.410156 806.003906 651.210938 C 812.199219 653.070312 819.160156 655.132812 818.300781 662.019531 Z M 393.78125 629.621094 C 395.183594 600.234375 396.101562 569.234375 409.640625 542.117188 C 412.796875 536.90625 419.640625 542.929688 414.632812 546.625 C 407.566406 563.375 405.109375 580.921875 403.734375 598.605469 C 402.898438 608.941406 402.132812 619.269531 401.863281 629.621094 C 401.621094 634.851562 393.652344 634.90625 393.78125 629.621094 Z M 393.78125 629.621094 " fill-opacity="1" fill-rule="nonzero"/></svg>