<svg xmlns="http://www.w3.org/2000/svg" xmlns:xlink="http://www.w3.org/1999/xlink" width="1563" zoomAndPan="magnify" viewBox="0 0 1172.25 1172.249948" height="1563" preserveAspectRatio="xMidYMid meet" version="1.0"><path fill="#366baa" d="M 293.261719 550.425781 L 292.726562 551.035156 C 310.511719 532.3125 328.285156 513.582031 345.667969 495.265625 C 354.496094 496.773438 360.980469 497.355469 367.1875 499.007812 C 406.007812 509.390625 444.496094 521.242188 483.636719 530.214844 C 523.828125 539.421875 564.625 545.984375 605.191406 553.539062 C 618.492188 556.019531 631.5625 557.167969 639.011719 537.984375 C 626.042969 505.589844 596.519531 483.320312 574.878906 455.4375 C 552.394531 426.472656 527.296875 399.53125 503.304688 371.660156 C 514.804688 346.210938 542.394531 333.722656 553.507812 304.535156 C 539.671875 305.703125 525.421875 312.105469 522.472656 294.128906 C 524.757812 292.289062 527.042969 290.449219 529.320312 288.609375 L 566.320312 288.609375 C 578.460938 263.03125 601.363281 245.738281 598.570312 215.636719 C 576.96875 209.101562 558.667969 217.621094 540.320312 223.011719 C 522.570312 228.230469 503.410156 232.203125 488.351562 242.050781 C 473.472656 251.773438 462.960938 268.171875 447.230469 285.214844 C 445.171875 272.621094 444.050781 265.789062 442.851562 258.4375 C 429.84375 261.9375 418.472656 264.992188 404.726562 268.6875 C 398.277344 259.613281 391.628906 251.222656 386.03125 242.179688 C 376.273438 226.414062 366.726562 210.488281 357.882812 194.199219 C 348.75 177.390625 337.773438 163.359375 317.902344 158.707031 C 315.234375 158.082031 313.226562 154.65625 310.152344 151.835938 C 313.28125 147.34375 316.117188 143.277344 320.203125 137.425781 C 314.621094 132.230469 308.816406 126.832031 301.207031 119.757812 C 281.066406 156.128906 268.996094 192.074219 259.808594 229.152344 C 255.867188 245.015625 251.589844 260.804688 247.78125 276.695312 C 243.976562 292.507812 234.527344 299.625 218.050781 301.855469 C 196.679688 304.753906 175.746094 310.90625 155.492188 315.453125 C 152.863281 342.296875 152.863281 342.296875 127.820312 339.460938 C 130.058594 334.273438 132.035156 329.695312 134.273438 324.507812 C 117.867188 326.492188 101.828125 329.28125 85.691406 330.210938 C 56.9375 331.867188 32.996094 350.636719 22.660156 383.363281 C 54.539062 396.648438 89.074219 401.484375 124.441406 413.390625 C 134.3125 400.308594 144.144531 387.277344 155.597656 372.113281 C 192.941406 372.113281 233.28125 372.089844 273.609375 372.121094 C 283.699219 372.128906 294.542969 370.929688 300.121094 387.109375 L 187.429688 387.109375 C 181.109375 395.867188 176.09375 402.804688 171.714844 408.867188 C 162.582031 409.980469 154.777344 410.925781 146.972656 411.875 C 146.65625 413.570312 146.339844 415.261719 146.023438 416.949219 C 162.191406 424.316406 178.363281 431.691406 196.960938 440.160156 C 194.726562 451.628906 193.90625 462.449219 190.4375 472.328125 C 182.480469 494.941406 172.808594 516.929688 164.617188 539.460938 C 153.804688 569.164062 143.796875 599.152344 133.332031 628.984375 C 128.550781 642.609375 129.449219 655.171875 141.5 664.417969 C 154.234375 674.1875 166.320312 668.105469 177.730469 660.871094 C 183.242188 657.375 188.929688 653.835938 193.542969 649.296875 C 226.925781 616.488281 260.058594 583.414062 293.261719 550.425781 Z M 180.710938 449.101562 C 123.613281 418.578125 56.457031 417.953125 0.601562 388.113281 C 13.050781 340.796875 59.101562 307.292969 102.324219 311.148438 C 108.644531 311.71875 115.363281 311.539062 121.492188 310.046875 C 152.175781 302.582031 182.648438 294.226562 213.359375 286.890625 C 228.863281 283.1875 233.101562 271.371094 236.722656 258.476562 C 244.382812 231.230469 250.996094 203.632812 260.050781 176.855469 C 269.304688 149.453125 277.328125 120.949219 299.84375 98.222656 C 327.5625 117.550781 343.601562 144.597656 360.242188 171.027344 C 376.402344 196.6875 392.125 222.613281 409.738281 251.191406 C 434.660156 243.378906 458.355469 236.148438 481.925781 228.53125 C 509.894531 219.484375 537.554688 209.460938 565.71875 201.09375 C 585.84375 195.121094 586.113281 196.03125 610.816406 203.007812 C 620.492188 221.429688 614.042969 238.214844 603.449219 254.191406 C 578.273438 292.113281 552.84375 329.863281 524.773438 371.773438 C 529.007812 377.203125 535.757812 386.597656 543.238281 395.367188 C 575.039062 432.640625 607.09375 469.695312 638.921875 506.953125 C 642.433594 511.054688 645.65625 515.609375 648.058594 520.429688 C 660.683594 545.855469 646.808594 569.738281 618.140625 570.90625 C 608.523438 571.296875 598.585938 569.269531 589.109375 567 C 519.320312 550.289062 449.261719 534.460938 380.050781 515.585938 C 357.273438 509.375 343.859375 514.910156 328.820312 531.054688 C 290.984375 571.667969 251.800781 611.035156 212.441406 650.1875 C 202.53125 660.042969 189.992188 667.289062 178.546875 675.578125 C 162.890625 686.925781 147.230469 683.699219 133.046875 673.480469 C 118.347656 662.886719 113.289062 647.449219 118.761719 630.105469 C 128.914062 597.929688 139.539062 565.875 150.839844 534.078125 C 158.125 513.566406 167.226562 493.710938 174.949219 473.34375 C 177.566406 466.429688 178.460938 458.859375 180.710938 449.101562 Z M 180.710938 449.101562 " fill-opacity="1" fill-rule="nonzero"/><path fill="#366baa" d="M 731.625 314.5625 C 687.179688 345.402344 679.40625 376.605469 704.464844 423.359375 C 719.402344 451.214844 734.972656 478.757812 748.992188 507.066406 C 763.9375 537.230469 772.359375 567.445312 752.25 600.117188 C 741.269531 617.964844 744.300781 631.5 762.113281 642.488281 C 809.867188 671.941406 855.351562 708.363281 917.140625 702.820312 C 928.917969 701.757812 941.035156 704.992188 952.988281 704.953125 C 991.050781 704.804688 1009.5625 686.539062 1007.503906 648.453125 C 1006.34375 627.058594 1013.695312 611.132812 1026.765625 595.082031 C 1048.480469 568.417969 1073.417969 546.128906 1104.136719 530.917969 C 1131.074219 517.570312 1147.050781 495.078125 1160.421875 462.855469 C 1164.484375 472.929688 1169.515625 479.5 1167.902344 482.453125 C 1160.707031 495.65625 1153.226562 509.425781 1142.761719 519.921875 C 1132.210938 530.503906 1118.773438 538.949219 1105.277344 545.703125 C 1077.128906 559.804688 1056.453125 581.855469 1036.679688 605.238281 C 1026.128906 617.710938 1024.667969 632.460938 1024.742188 648.210938 C 1024.925781 690.90625 1003.101562 716.921875 960.21875 718.1875 C 908.195312 719.726562 855.253906 721.648438 809.550781 687.648438 C 793.949219 676.042969 774.914062 669.167969 758.664062 658.300781 C 728.316406 638 723.59375 621.058594 740.363281 589.6875 C 749.902344 571.839844 752.460938 554.574219 743.976562 536.609375 C 728.195312 503.191406 713.203125 469.214844 694.765625 437.269531 C 677.386719 407.160156 669.144531 378.332031 683.125 344.386719 C 689.316406 329.371094 697.957031 318.429688 710.542969 309.164062 C 742.070312 285.945312 778.300781 275.300781 815.9375 267.179688 C 902.328125 248.53125 985.667969 255.007812 1062.199219 301.140625 C 1090.65625 318.296875 1115.585938 342.167969 1139.609375 365.566406 C 1161.582031 386.96875 1167.554688 416.625 1170.457031 446.394531 C 1170.632812 448.21875 1169.09375 450.316406 1168.042969 452.109375 C 1167.621094 452.828125 1166.355469 453.046875 1162.472656 455.023438 C 1159.886719 448.621094 1155.8125 442.601562 1155.128906 436.214844 C 1150.46875 392.683594 1125.5 362.324219 1092.246094 337.140625 C 1030.859375 290.652344 961.710938 268.1875 884.683594 271.386719 C 872.015625 271.914062 859.476562 275.617188 844.191406 278.324219 C 840.398438 364.707031 836.695312 449.078125 832.859375 536.484375 C 817.421875 529.242188 821.175781 518.175781 821.457031 510.015625 C 823.410156 453.363281 826.464844 396.746094 828.453125 340.09375 C 829.085938 321.929688 833.265625 303.191406 822.917969 282.371094 C 790.433594 287.546875 756.953125 289.390625 731.03125 315.113281 Z M 731.625 314.5625 " fill-opacity="1" fill-rule="nonzero"/><path fill="#366baa" d="M 677.761719 880.597656 C 688.09375 911.832031 687.898438 911.800781 685.839844 923.34375 C 681.820312 945.847656 676.949219 968.28125 674.519531 990.96875 C 672.703125 1007.859375 674.152344 1025.105469 674.152344 1042.375 C 685.695312 1044.296875 693.996094 1045.675781 702.269531 1047.050781 C 720.367188 1024.949219 728.609375 998.222656 727.605469 973.355469 C 726.84375 954.578125 732.898438 941.441406 737.761719 925.578125 C 756.886719 926.699219 766.476562 940.167969 775.78125 951.148438 C 787.832031 965.355469 805.597656 953.863281 818.476562 963.800781 C 815.726562 968.421875 813.296875 972.503906 810.871094 976.574219 C 840.496094 996.585938 865.621094 1002.785156 873.050781 990.132812 C 869.105469 986.484375 864.851562 982.554688 860.472656 978.503906 C 862.242188 973.625 864.03125 968.726562 866.835938 961.019531 C 854.296875 948.789062 841.121094 936 828.015625 923.140625 C 815.46875 910.820312 793.851562 908.355469 787.417969 886.78125 C 817.496094 869.429688 855.320312 871.1875 879.992188 841.566406 C 881.171875 830.746094 882.609375 817.519531 884.449219 800.605469 C 868.960938 802.003906 856.03125 802.015625 843.632812 804.558594 C 822.285156 808.960938 800.902344 813.832031 780.222656 820.582031 C 761.644531 826.652344 746.148438 823.546875 731.558594 811.5625 C 709.644531 793.570312 687.664062 775.65625 665.757812 757.65625 C 660.699219 753.5 656.289062 748.386719 650.796875 744.988281 C 641.847656 739.46875 630.527344 737.160156 624.382812 746.5625 C 620.726562 752.167969 621.1875 764.207031 624.917969 770.136719 C 634.714844 785.738281 647.285156 799.589844 658.8125 814.097656 C 665.253906 822.203125 671.804688 830.226562 679.453125 839.699219 C 621.101562 848.550781 566.96875 877.007812 551.382812 905.664062 C 557.503906 916.128906 566.886719 914.238281 577.074219 913.988281 C 614.1875 913.066406 643.484375 889.449219 677.761719 880.597656 Z M 927.875 805.703125 C 905.511719 857.578125 862.984375 877.769531 810.960938 891.59375 C 821.578125 900.601562 827.625 906.175781 834.125 911.160156 C 856.882812 928.59375 876.628906 948.816406 890.460938 974.078125 C 901.015625 993.375 895.421875 1005.054688 873.96875 1009.664062 C 853.570312 1014.042969 834.621094 1008.019531 817.679688 997.695312 C 796.4375 984.734375 776.4375 969.734375 754.117188 954.382812 C 743.261719 969.902344 743.320312 988.859375 737.296875 1005.589844 C 731.453125 1021.796875 725.417969 1038.355469 716.453125 1052.90625 C 708.941406 1065.09375 696.394531 1073.816406 680.214844 1068.425781 C 665.839844 1063.636719 660.359375 1050.8125 659.777344 1037.585938 C 658.917969 1018.117188 659.953125 998.441406 661.851562 979.011719 C 664.03125 956.699219 668.035156 934.558594 671.820312 908.347656 C 659.703125 910.390625 651.566406 911.417969 643.582031 913.171875 C 622.332031 917.839844 601.269531 923.421875 579.886719 927.363281 C 571.6875 928.871094 562.164062 928.835938 554.40625 926.152344 C 532.394531 918.535156 527.621094 897.308594 546.527344 883.863281 C 568.523438 868.230469 593.382812 856.503906 617.40625 843.859375 C 626.863281 838.875 637.429688 836.003906 651.191406 830.761719 C 644.320312 821.515625 638.785156 814.285156 633.484375 806.882812 C 625.242188 795.375 616.003906 784.378906 609.300781 772.019531 C 600.789062 756.328125 604.589844 741.113281 617.144531 730.707031 C 627.804688 721.882812 642.957031 721.460938 656.65625 730.617188 C 662.9375 734.816406 668.074219 740.703125 673.894531 745.621094 C 693.023438 761.824219 712.5625 777.5625 731.300781 794.191406 C 745.765625 807.039062 761.644531 809.671875 779.863281 805.132812 C 804.179688 799.089844 828.566406 793.277344 853.082031 788.171875 C 872.648438 784.101562 892.308594 784.667969 910.871094 792.921875 C 916.421875 795.390625 920.886719 800.335938 927.875 805.703125 Z M 927.875 805.703125 " fill-opacity="1" fill-rule="nonzero"/><path fill="#366baa" d="M 544.972656 688.953125 C 542.121094 669.929688 539.476562 650.375 517.019531 638.832031 C 525.480469 673.089844 525.480469 673.089844 544.972656 688.953125 Z M 547.558594 638.644531 C 553.808594 656.414062 558.75 670.375 563.628906 684.367188 C 566.796875 693.457031 566.175781 702.910156 557.265625 707.097656 C 551.539062 709.796875 543.320312 708 536.382812 707 C 532.90625 706.507812 529.816406 703.304688 526.550781 701.328125 C 525.222656 702.925781 523.890625 704.515625 522.5625 706.101562 C 530.789062 714.214844 539.023438 722.328125 546.714844 729.921875 C 583.914062 704.011719 583.957031 667.09375 547.558594 638.644531 Z M 252.148438 775.648438 C 261.523438 780.910156 265.074219 784.589844 268.664062 784.628906 C 292.574219 784.878906 316.515625 784.9375 340.402344 783.90625 C 363.140625 782.925781 385.867188 778.550781 408.503906 779.214844 C 447.089844 780.351562 484.550781 774.886719 521.566406 765.292969 C 531.332031 762.753906 540.34375 757.308594 551.449219 752.429688 C 497.332031 711.152344 486.480469 681.011719 501.847656 621.488281 C 499.957031 620.558594 498.128906 619.03125 496.148438 618.824219 C 492.949219 618.480469 489.585938 618.601562 486.414062 619.21875 C 434.976562 629.230469 397.457031 658.777344 372.128906 703.605469 C 351.519531 740.101562 324.636719 765.445312 280.132812 766.816406 C 272.53125 767.050781 265.058594 771.425781 252.148438 775.648438 Z M 245.566406 796.835938 C 242.210938 789.574219 239.585938 784.824219 237.828125 779.765625 C 236.472656 775.867188 236.207031 771.582031 234.789062 763.785156 C 251.230469 759.699219 266.46875 753.886719 282.101562 752.445312 C 317.117188 749.203125 341.292969 730.714844 356.585938 701.035156 C 375.414062 664.492188 404.695312 639.417969 439.359375 619.828125 C 484.851562 594.128906 535.003906 601.097656 571.773438 637.027344 C 611.019531 675.386719 597.027344 749.859375 544.753906 771.898438 C 521.929688 781.515625 496.832031 788.910156 472.289062 790.652344 C 403.964844 795.496094 335.40625 796.941406 266.929688 799.445312 C 260.585938 799.679688 254.164062 797.9375 245.566406 796.835938 Z M 245.566406 796.835938 " fill-opacity="1" fill-rule="nonzero"/><path fill="#366baa" d="M 910.746094 576.3125 C 901.558594 581.152344 892.472656 585.941406 880.816406 592.078125 C 880.492188 585.382812 878.960938 579.296875 880.113281 573.769531 C 896.53125 494.882812 913.105469 416.023438 930.3125 337.3125 C 932.417969 327.683594 932.695312 315.566406 947.195312 308.660156 C 951.636719 333.105469 937.445312 351.527344 934.890625 371.960938 C 932.183594 393.535156 927.078125 414.816406 922.734375 436.15625 C 918.601562 456.433594 913.996094 476.617188 909.75 496.871094 C 905.316406 518 901.070312 539.175781 901.28125 562.074219 C 907.804688 547.679688 914.988281 533.542969 920.734375 518.84375 C 940.96875 467.109375 960.371094 415.054688 980.863281 363.417969 C 985.839844 350.878906 989.558594 336.605469 1002.300781 329.109375 C 1004.578125 330.480469 1005.582031 330.84375 1006.238281 331.542969 C 1006.933594 332.277344 1007.769531 333.347656 1007.730469 334.242188 C 1007.632812 336.371094 1007.429688 338.632812 1006.644531 340.585938 C 974.703125 419.234375 942.6875 497.84375 910.746094 576.3125 Z M 910.746094 576.3125 " fill-opacity="1" fill-rule="nonzero"/><path fill="#366baa" d="M 1119.859375 419.933594 C 1067.582031 475.269531 1015.308594 530.609375 962.964844 586.015625 C 952.390625 585.4375 943.035156 584.929688 931.007812 584.273438 C 933.839844 576.539062 935.183594 570.429688 938.132812 565.199219 C 973.390625 502.496094 1008.824219 439.886719 1044.371094 377.339844 C 1049.46875 368.386719 1052.046875 357.03125 1066.382812 351.261719 C 1068.734375 375.121094 1051.671875 388.386719 1044.777344 405.277344 C 1036.980469 424.390625 1026.417969 442.421875 1016.464844 460.59375 C 1007.039062 477.816406 996.875 494.625 986.996094 511.597656 C 977.359375 528.136719 967.675781 544.664062 961.597656 563.945312 C 978.738281 547.71875 996.324219 531.9375 1012.890625 515.144531 C 1030.496094 497.292969 1046.574219 477.914062 1064.355469 460.246094 C 1080.550781 444.140625 1090.257812 420.363281 1114.574219 413.503906 C 1116.332031 415.652344 1118.097656 417.792969 1119.859375 419.933594 Z M 1119.859375 419.933594 " fill-opacity="1" fill-rule="nonzero"/><path fill="#366baa" d="M 857.726562 575.695312 C 853.535156 569.886719 851.054688 568.011719 851.25 566.488281 C 863.425781 474.769531 875.792969 383.070312 888.386719 291.398438 C 888.558594 290.183594 891.765625 289.378906 893.558594 288.382812 C 895.421875 289.273438 897.746094 289.761719 899.050781 291.179688 C 900.398438 292.628906 901.664062 295.117188 901.417969 296.941406 C 889.511719 385.46875 877.503906 473.992188 865.214844 562.460938 C 864.703125 566.164062 861.347656 569.464844 857.726562 575.695312 Z M 857.726562 575.695312 " fill-opacity="1" fill-rule="nonzero"/><path fill="#366baa" d="M 731.03125 315.113281 C 744.195312 319.132812 748.183594 329.953125 752.144531 341.703125 C 770.585938 396.429688 782.570312 452.527344 789.769531 509.757812 C 792.070312 528.015625 795.613281 546.113281 798.089844 564.351562 C 798.570312 567.890625 796.785156 571.734375 794.386719 583.703125 C 787.945312 570.816406 783.367188 565.21875 782.375 559.050781 C 778.089844 532.289062 776.53125 504.992188 770.867188 478.5625 C 760.882812 432.007812 748.605469 385.949219 737.339844 339.671875 C 735.304688 331.332031 733.519531 322.933594 731.625 314.5625 Z M 731.03125 315.113281 " fill-opacity="1" fill-rule="nonzero"/><path fill="#366baa" d="M 764.222656 313.265625 C 783.242188 328.996094 785.714844 332.789062 801.585938 401.070312 C 813.238281 451.207031 822.445312 501.910156 814.820312 553.410156 C 812.535156 553.910156 810.257812 554.421875 807.972656 554.933594 C 806.15625 550.71875 802.605469 546.429688 802.785156 542.304688 C 806.019531 464.824219 790.15625 390.917969 762.074219 319.191406 C 761.789062 318.476562 762.714844 317.292969 764.222656 313.265625 Z M 764.222656 313.265625 " fill-opacity="1" fill-rule="nonzero"/><path fill="#366baa" d="M 1124.84375 454.5 C 1115.125 484.601562 1013.832031 590.132812 969.175781 623.78125 C 970.066406 616.796875 969.039062 611 971.460938 608.253906 C 985.847656 591.90625 1000.75 575.988281 1016.011719 560.445312 C 1047.296875 528.574219 1078.855469 496.960938 1110.488281 465.433594 C 1114.710938 461.226562 1120.027344 458.113281 1124.84375 454.5 Z M 1124.84375 454.5 " fill-opacity="1" fill-rule="nonzero"/><path fill="#366baa" d="M 522.472656 294.128906 C 487.054688 314.625 451.636719 335.117188 413.320312 357.289062 C 415.703125 350.953125 416.164062 344.589844 419.582031 341.617188 C 429.359375 333.097656 439.984375 325.414062 450.910156 318.378906 C 473.699219 303.695312 496.789062 289.460938 520 275.457031 C 525.117188 272.375 531.277344 271.054688 540.71875 273.269531 C 536.925781 278.382812 533.125 283.496094 529.320312 288.609375 C 527.042969 290.449219 524.757812 292.289062 522.472656 294.128906 Z M 522.472656 294.128906 " fill-opacity="1" fill-rule="nonzero"/><path fill="#366baa" d="M 426.082031 426.140625 C 456.613281 427.339844 544.074219 469.347656 561.488281 490.773438 C 560.015625 492.152344 557.859375 495.015625 557.171875 494.691406 C 514.222656 474.945312 471.375 455.007812 428.695312 434.699219 C 426.941406 433.863281 426.976562 429.285156 426.082031 426.140625 Z M 426.082031 426.140625 " fill-opacity="1" fill-rule="nonzero"/><path fill="#366baa" d="M 285.109375 442.664062 C 266.054688 481.738281 249.699219 522.199219 220.054688 555.011719 C 219.40625 530.757812 237.269531 514.945312 246.183594 495.191406 C 255.195312 475.230469 264.304688 454.449219 285.109375 442.664062 Z M 285.109375 442.664062 " fill-opacity="1" fill-rule="nonzero"/><path fill="#366baa" d="M 320.421875 298.335938 C 305.6875 263.089844 295.9375 227.152344 293.847656 182.421875 C 310.703125 207.554688 326.460938 276.210938 320.421875 298.335938 Z M 320.421875 298.335938 " fill-opacity="1" fill-rule="nonzero"/><path fill="#366baa" d="M 231.601562 326.339844 C 219.332031 334.125 210.667969 339.628906 201.914062 345.183594 C 196.113281 322.964844 202.042969 318.574219 231.601562 326.339844 Z M 231.601562 326.339844 " fill-opacity="1" fill-rule="nonzero"/><path fill="#366baa" d="M 566.011719 516.992188 C 592.960938 515.617188 592.960938 515.617188 596.113281 543.722656 C 586.023438 534.769531 578.105469 527.742188 566.011719 516.992188 Z M 566.011719 516.992188 " fill-opacity="1" fill-rule="nonzero"/><path fill="#366baa" d="M 490.816406 509.449219 C 503.304688 507.226562 514.148438 505.308594 527.386719 502.957031 C 512.230469 523.421875 508.355469 524.0625 490.816406 509.449219 Z M 490.816406 509.449219 " fill-opacity="1" fill-rule="nonzero"/><path fill="#366baa" d="M 223.410156 494.15625 C 217.742188 511.363281 208.550781 513.734375 189.328125 503.492188 C 205.214844 499.140625 214.316406 496.652344 223.410156 494.15625 Z M 223.410156 494.15625 " fill-opacity="1" fill-rule="nonzero"/><path fill="#366baa" d="M 187.828125 579.9375 C 196.53125 583.695312 205.246094 587.464844 219.292969 593.542969 C 200.601562 599.621094 190.996094 597.742188 184.230469 587.238281 C 185.429688 584.804688 186.628906 582.367188 187.828125 579.9375 Z M 187.828125 579.9375 " fill-opacity="1" fill-rule="nonzero"/><path fill="#366baa" d="M 293.261719 550.425781 C 282.550781 550.078125 270.214844 557.476562 259.71875 543.109375 C 274.679688 536.574219 285.515625 536.03125 292.726562 551.035156 Z M 293.261719 550.425781 " fill-opacity="1" fill-rule="nonzero"/><path fill="#366baa" d="M 554.511719 226.957031 L 581.355469 226.957031 C 580.527344 230.726562 580.691406 233.839844 579.585938 234.390625 C 571.011719 238.644531 562.164062 242.511719 554.511719 226.957031 Z M 554.511719 226.957031 " fill-opacity="1" fill-rule="nonzero"/><path fill="#366baa" d="M 66.90625 358.191406 C 73.679688 359.542969 80.457031 360.90625 88.359375 362.484375 C 77.570312 374.15625 77.570312 374.15625 66.90625 358.191406 Z M 66.90625 358.191406 " fill-opacity="1" fill-rule="nonzero"/><path fill="#366baa" d="M 323.476562 230.078125 C 328.445312 224.851562 330.609375 221.195312 333.820312 219.558594 C 337.214844 217.824219 341.59375 218.011719 348.375 216.882812 C 344.25 230.71875 337.351562 232.746094 323.476562 230.078125 Z M 323.476562 230.078125 " fill-opacity="1" fill-rule="nonzero"/><path fill="#366baa" d="M 652.636719 780.324219 C 657.042969 785.753906 661.460938 791.179688 665.871094 796.601562 C 664.191406 798.1875 662.507812 799.769531 660.828125 801.355469 C 655.835938 796.382812 650.835938 791.398438 645.835938 786.421875 C 648.105469 784.386719 650.367188 782.359375 652.636719 780.324219 Z M 652.636719 780.324219 " fill-opacity="1" fill-rule="nonzero"/><path fill="#366baa" d="M 807.324219 857.53125 C 803.894531 861.617188 800.464844 865.707031 797.039062 869.792969 C 795.410156 868.652344 793.78125 867.5 792.152344 866.359375 C 795.050781 861.792969 797.945312 857.230469 800.847656 852.667969 C 803.003906 854.289062 805.167969 855.910156 807.324219 857.53125 Z M 807.324219 857.53125 " fill-opacity="1" fill-rule="nonzero"/><path fill="#366baa" d="M 784.558594 951.238281 C 781.753906 946.125 778.957031 941.011719 776.152344 935.886719 C 777.058594 934.980469 777.960938 934.074219 778.867188 933.164062 C 782.824219 937.136719 786.777344 941.117188 790.722656 945.085938 C 788.675781 947.136719 786.617188 949.1875 784.558594 951.238281 Z M 784.558594 951.238281 " fill-opacity="1" fill-rule="nonzero"/></svg>