<svg xmlns="http://www.w3.org/2000/svg" xmlns:xlink="http://www.w3.org/1999/xlink" width="1563" zoomAndPan="magnify" viewBox="0 0 1172.25 1172.249948" height="1563" preserveAspectRatio="xMidYMid meet" version="1.0"><path fill="#366baa" d="M 840.625 657.667969 C 854.976562 666.832031 873.09375 671.867188 889.824219 667.96875 C 914.652344 662.199219 943.550781 641.675781 944.464844 613.914062 C 944.96875 598.980469 944.84375 584.554688 935.402344 572.230469 C 927.203125 561.550781 908.199219 552.820312 894.859375 551.375 C 894.328125 551.328125 893.695312 551.402344 893.0625 551.578125 C 892.457031 551.046875 891.976562 551.023438 891.644531 551.148438 C 890.632812 551.351562 889.597656 551.984375 888.609375 551.375 C 888.128906 551.074219 887.597656 551.300781 887.015625 551.199219 C 885.496094 550.414062 884.054688 550.515625 882.5625 550.746094 C 881.953125 550.871094 881.320312 550.996094 880.6875 551.097656 C 880.105469 551.175781 879.472656 551.175781 878.789062 550.996094 C 878.054688 550.921875 877.222656 551.960938 876.4375 552.464844 C 875.90625 552.589844 875.425781 551.933594 874.992188 551.882812 C 874.335938 551.808594 873.652344 552.136719 872.996094 552.617188 C 873.652344 552.464844 874.183594 552.210938 874.917969 552.136719 C 875.398438 552.136719 874.386719 553.628906 874.03125 553.933594 C 873.855469 554.1875 873.828125 552.820312 873.652344 553.074219 C 873.347656 553.046875 873.019531 553.554688 872.664062 553.855469 C 872.488281 554.109375 872.640625 552.894531 872.5625 553.023438 C 872.082031 553.25 871.601562 554.769531 871.347656 554.414062 L 870.792969 553.804688 C 870.664062 553.730469 870.566406 553.679688 870.4375 553.707031 L 870.183594 554.007812 C 869.550781 554.691406 868.867188 555.324219 868.261719 555.855469 L 868.261719 555.957031 C 868.617188 555.832031 868.96875 555.933594 869.300781 556.691406 C 869.148438 556.414062 869.171875 556.085938 869.351562 556.007812 L 869.476562 556.617188 C 869.148438 556.945312 868.867188 557.273438 868.566406 556.414062 C 868.566406 556.414062 868.4375 556.691406 868.363281 556.816406 C 868.261719 556.640625 868.261719 556.261719 868.238281 555.957031 C 868.160156 555.984375 868.109375 556.007812 868.035156 556.058594 C 868.210938 556.667969 868.640625 557.425781 868.640625 557.425781 C 869.476562 557.375 870.285156 557.476562 871.046875 557.652344 C 871.121094 557.425781 871.199219 557.148438 871.25 557.300781 C 871.296875 557.5 871.347656 557.652344 871.398438 557.753906 L 871.730469 557.855469 C 871.78125 557.832031 871.804688 557.804688 871.855469 557.78125 C 871.929688 557.652344 871.929688 557.449219 871.90625 557.273438 C 871.929688 557.425781 871.980469 557.550781 872.058594 557.628906 C 872.109375 557.601562 872.160156 557.578125 872.210938 557.578125 C 872.183594 557.601562 872.132812 557.628906 872.109375 557.652344 C 872.109375 557.652344 872.082031 557.652344 872.082031 557.628906 C 872.03125 557.652344 871.980469 557.703125 871.929688 557.753906 C 871.90625 557.753906 871.90625 557.78125 871.878906 557.78125 L 871.804688 557.882812 L 872.539062 558.132812 C 872.589844 558.109375 872.664062 558.082031 872.714844 558.058594 C 872.917969 557.929688 873.121094 557.78125 873.171875 558.386719 L 873.296875 558.4375 C 873.296875 558.386719 873.296875 558.363281 873.296875 558.335938 L 873.324219 558.464844 L 873.878906 558.691406 C 874.257812 558.84375 874.613281 558.996094 874.992188 559.171875 C 877.347656 560.308594 880.03125 560.488281 882.761719 560.992188 C 884.105469 561.324219 885.394531 561.804688 886.660156 562.460938 C 887.953125 564.839844 888.761719 564.789062 892.050781 565.371094 C 892.785156 565.5 893.542969 565.5 894.304688 565.449219 C 894.304688 565.75 894.277344 565.902344 894.253906 565.953125 C 894.253906 565.929688 894.277344 565.902344 894.304688 565.851562 C 894.304688 565.828125 894.328125 565.800781 894.378906 565.800781 C 894.457031 565.828125 894.707031 565.953125 894.910156 566.03125 C 895.519531 565.929688 896 565.625 896.453125 565.21875 C 898.226562 565.019531 899.996094 564.789062 901.769531 565.320312 C 904.832031 566.207031 907.792969 568.738281 910.601562 570.257812 C 922.699219 576.835938 930.972656 583.289062 933.175781 597.941406 C 934.898438 609.507812 933.582031 621.25 928.242188 631.652344 C 923.203125 641.449219 914.195312 646.382812 904.554688 651.214844 C 881.015625 663.058594 849.027344 650.027344 833.515625 630.285156 C 826.429688 621.277344 825.746094 607.6875 826.429688 596.398438 C 827.414062 579.570312 836.777344 570.507812 851.761719 564.257812 C 855.40625 562.738281 861.148438 552.007812 854.214844 554.464844 C 842.5 558.589844 827.566406 565.800781 821.492188 577.242188 C 814.558594 590.300781 813.367188 609.355469 815.546875 623.78125 C 818.101562 640.132812 826.78125 648.8125 840.625 657.667969 Z M 874.816406 558.109375 C 875.019531 557.929688 875.246094 558.160156 875.347656 558.792969 C 875.019531 559.246094 874.890625 558.742188 874.816406 558.109375 Z M 866.414062 558.515625 C 866.492188 558.714844 866.566406 558.84375 866.640625 558.917969 L 866.3125 558.894531 C 866.3125 558.664062 866.3125 558.386719 866.414062 558.515625 Z M 866.945312 558.945312 C 866.972656 558.917969 866.996094 558.867188 867.046875 558.84375 L 866.996094 558.945312 Z M 867.199219 558.664062 C 867.300781 558.589844 867.375 558.539062 867.503906 558.589844 C 867.375 558.742188 867.300781 558.742188 867.199219 558.664062 Z M 867.046875 558.84375 C 867.097656 558.691406 867.074219 558.515625 866.996094 558.335938 C 867.074219 558.488281 867.121094 558.613281 867.199219 558.664062 C 867.148438 558.714844 867.097656 558.765625 867.046875 558.84375 Z M 865.832031 555.652344 L 865.125 555.199219 C 865.300781 555.25 865.453125 555.300781 865.605469 555.25 C 866.109375 554.742188 866.589844 554.085938 867.148438 553.554688 C 867.855469 553.273438 868.363281 552.945312 869.199219 552.769531 C 869.730469 552.71875 868.792969 554.3125 868.488281 554.667969 C 868.363281 554.945312 868.109375 553.605469 867.957031 553.855469 C 867.628906 553.855469 867.351562 554.4375 867.046875 554.792969 C 866.921875 555.070312 866.84375 553.855469 866.769531 554.007812 C 866.3125 554.363281 866.160156 555.957031 865.832031 555.652344 Z M 863.554688 557.855469 C 863.554688 557.882812 863.527344 557.882812 863.554688 557.855469 Z M 863.78125 558.335938 C 863.808594 558.386719 863.832031 558.386719 863.859375 558.414062 L 863.757812 558.515625 Z M 864.085938 558.132812 L 863.859375 558.414062 C 864.339844 558.996094 864.464844 558.664062 864.644531 558.261719 L 864.363281 557.703125 C 864.289062 557.753906 864.289062 557.882812 864.3125 558.007812 L 864.238281 557.957031 L 864.160156 558.058594 C 863.933594 557.90625 863.730469 557.804688 863.578125 557.855469 C 863.578125 557.929688 863.578125 557.980469 863.578125 558.058594 C 863.730469 558.109375 863.910156 558.132812 864.085938 558.132812 Z M 864.363281 558.132812 C 864.390625 558.234375 864.441406 558.3125 864.515625 558.386719 C 864.414062 558.261719 864.3125 558.210938 864.210938 558.132812 C 864.261719 558.132812 864.3125 558.132812 864.363281 558.132812 Z M 863.453125 558.058594 L 863.554688 558.058594 C 863.578125 558.132812 863.578125 558.210938 863.605469 558.261719 L 863.578125 558.261719 Z M 894.355469 565.953125 Z M 1161.707031 962.527344 C 1149.382812 961.972656 1141.207031 954.734375 1129.996094 951.0625 C 1118.910156 947.445312 1110.253906 944.761719 1100.6875 937.777344 C 1084.316406 925.832031 1067.082031 923.023438 1047.113281 926.820312 C 1036.203125 928.894531 1026.5625 933.855469 1017.25 939.523438 C 1016.742188 938.867188 1016.058594 938.308594 1015.125 937.878906 C 1008.441406 934.867188 1003.988281 928.917969 998.320312 924.542969 C 993.082031 920.515625 987.183594 917.175781 981.335938 914.164062 C 967.242188 906.875 951.070312 899.054688 935.582031 895.691406 C 902.527344 888.554688 870.566406 879.59375 838.855469 867.523438 C 824.882812 862.207031 811.117188 856.007812 798.335938 848.261719 C 785.074219 840.214844 773.308594 829.410156 759.539062 822.246094 C 745.921875 815.160156 729.121094 813.339844 714.515625 808.882812 C 697.890625 803.824219 681.589844 798.101562 664.734375 793.777344 C 650.082031 790.003906 637.378906 788.484375 622.292969 787.855469 C 606.273438 787.171875 589.824219 783.929688 573.855469 785.550781 C 557.960938 787.171875 544.675781 785.144531 529.035156 783.121094 C 512.964844 781.019531 497.832031 783.398438 481.914062 783.550781 C 466.777344 783.675781 454.097656 786.058594 439.421875 789.09375 C 437.625 789.472656 435.828125 789.726562 434.03125 789.953125 C 435.066406 787.726562 435.675781 785.398438 435.648438 783.144531 C 435.445312 766.011719 427.652344 749.6875 426.867188 732.808594 C 426.488281 724.886719 427.195312 716.636719 427.652344 708.714844 C 428.132812 700.515625 430.917969 694.1875 432.867188 686.320312 C 436.28125 672.625 438.207031 653.644531 435.929688 639.625 C 434.664062 631.90625 434.484375 625.960938 435.394531 618.089844 C 436.28125 610.519531 437.421875 602.296875 436.964844 594.679688 C 436.535156 587.59375 434.410156 580.835938 434.839844 573.648438 C 435.144531 568.664062 435.726562 557.90625 437.925781 554.289062 C 440.988281 549.277344 445.925781 545.988281 448.175781 540.015625 C 449.214844 537.253906 449.441406 534.445312 450.050781 531.636719 C 451.011719 527.132812 452.351562 523.917969 454.476562 519.742188 C 461.742188 505.542969 464.476562 490.257812 471.914062 476.3125 C 476.421875 467.886719 488.847656 450.929688 485.226562 441.007812 C 483.808594 437.113281 478.445312 443.289062 477.6875 444.652344 C 469.585938 459.128906 459.867188 472.871094 452.707031 487.929688 C 446.40625 501.167969 435.597656 515.160156 433.015625 529.765625 C 431.675781 537.433594 431.929688 544.367188 429.804688 552.007812 C 428.257812 557.527344 426.691406 562.941406 424.082031 568.484375 C 417.453125 582.632812 415.503906 596.070312 414.1875 611.660156 C 413.503906 619.734375 412.796875 627.707031 411.886719 635.753906 C 411.074219 642.839844 412.519531 647.621094 413.351562 654.40625 C 414.316406 662.175781 412.011719 670.828125 411.378906 678.675781 C 410.773438 685.988281 412.0625 693.429688 411.683594 700.464844 C 411.53125 703.527344 409.507812 706.945312 409 710.132812 C 408.34375 714.234375 408.089844 718.28125 407.328125 722.382812 C 405.8125 730.53125 403.636719 738.578125 403.230469 746.878906 C 402.472656 762.699219 409.277344 778.058594 410.164062 793.851562 C 402.722656 795.902344 395.433594 798.355469 387.792969 799.773438 C 374.050781 802.304688 362.105469 809.492188 349.019531 814.171875 C 335.65625 818.980469 322.878906 822.703125 310.703125 830.09375 C 279.09375 849.277344 250.117188 871.039062 220.863281 893.640625 C 194.414062 914.0625 163.664062 926.871094 140.507812 951.542969 C 137.246094 950.632812 133.980469 949.847656 130.386719 949.597656 C 118.996094 948.734375 110.417969 945.140625 100.09375 940.484375 C 88.578125 935.273438 81.871094 934.691406 69.875 938.054688 C 60.105469 940.8125 49.652344 942.410156 40.796875 947.621094 C 30.902344 953.441406 21.03125 959.261719 11.742188 966.097656 C 7.3125 969.363281 0.101562 978.648438 3.011719 984.621094 C 6.175781 991.125 14.398438 986.164062 18.195312 983.304688 C 32.773438 972.324219 52.058594 960.832031 70.203125 957.289062 C 80.300781 955.316406 90.878906 962.402344 100.167969 965.816406 C 110.445312 969.613281 121.125 968.5 131.625 971.234375 C 140.660156 973.585938 150.023438 975.5625 159.109375 977.511719 C 169.613281 979.789062 182.117188 977.8125 192.746094 977.6875 C 213.242188 977.433594 233.210938 977.308594 252.191406 968.703125 C 267.175781 961.921875 281.246094 955.265625 296.203125 948.535156 C 316.222656 939.523438 339.480469 951.695312 358.460938 957.667969 C 369.0625 961.011719 378.78125 961.136719 388.476562 966.933594 C 395.816406 971.335938 403.128906 974.042969 411.734375 974.121094 C 422.640625 974.21875 431.09375 977.964844 441.671875 979.382812 C 452.480469 980.851562 464.324219 978.878906 474.546875 975.359375 C 482.519531 972.625 490.796875 969.386719 497.730469 964.527344 C 506.105469 958.632812 511.167969 949.570312 519.292969 943.496094 C 527.492188 937.347656 537.742188 933.121094 546.699219 928.136719 C 557.179688 922.289062 567.097656 921.328125 578.890625 921.148438 C 583.828125 921.074219 589.902344 920.71875 593.796875 924.492188 C 596.65625 927.25 597.542969 932.007812 600.25 935.042969 C 606.707031 942.28125 618.777344 945.75 626.925781 951.089844 C 635.605469 956.785156 644.363281 958.199219 653.324219 963.035156 C 661.925781 967.664062 670.226562 970.855469 680.023438 972.121094 C 698.472656 974.472656 715.074219 978.09375 732.410156 968.652344 C 737.269531 965.996094 741.796875 960.933594 747.214844 959.566406 C 751.414062 958.503906 756.070312 959.617188 760.449219 958.453125 C 769.5625 956.074219 778.949219 951.46875 786.847656 946.355469 C 796.363281 940.179688 802.539062 936.003906 814.457031 936.664062 C 827.289062 937.347656 840.070312 939.625 851.179688 946.28125 C 859.378906 951.191406 867.453125 954.910156 876.386719 958.351562 C 887.167969 962.503906 895.492188 969.5625 905.71875 974.472656 C 923.40625 982.976562 950.511719 982.371094 968.757812 976.296875 C 978.527344 973.03125 988.195312 970.296875 997.433594 965.589844 C 1006.671875 960.882812 1015.175781 954.808594 1024.460938 950.230469 C 1035.269531 944.863281 1045.621094 944.105469 1057.4375 943.851562 C 1071.964844 943.523438 1080.367188 950.507812 1091.90625 958 C 1100.96875 963.894531 1110.332031 965.414062 1120.351562 968.878906 C 1125.820312 970.777344 1130.425781 974.347656 1135.691406 976.574219 C 1141.613281 979.078125 1147.585938 979.433594 1153.910156 979.636719 C 1160.644531 979.839844 1171.726562 962.984375 1161.707031 962.527344 Z M 935.351562 960.148438 C 923.8125 958.429688 916.347656 953.59375 906.527344 947.722656 C 898 942.636719 888.507812 940.03125 879.421875 936.207031 C 869.550781 932.082031 861.25 925.199219 850.875 922.289062 C 840.550781 919.378906 828.605469 918.921875 817.925781 919.859375 C 797.398438 921.679688 785.632812 939.546875 767.054688 946.660156 C 760.121094 949.316406 752.476562 951.140625 745.113281 950.785156 C 741.773438 950.609375 739.089844 950.203125 735.75 951.089844 C 730.964844 952.378906 727.070312 954.835938 721.980469 955.46875 C 715.476562 956.277344 710.492188 954.988281 704.164062 954.175781 C 694.398438 952.960938 685.058594 953.367188 675.644531 949.875 C 671.316406 948.253906 667.496094 945.722656 663.292969 943.851562 C 656.863281 941.015625 650.640625 940.914062 644.515625 937.144531 C 636.71875 932.335938 629.332031 927.753906 621.230469 923.527344 C 612.449219 918.921875 611.464844 908.066406 601.847656 904.625 C 587.75 899.613281 564.898438 903.308594 552.140625 910.066406 C 534.171875 919.582031 515.902344 928.691406 502.183594 944.027344 C 493.757812 953.46875 482.214844 958.730469 469.613281 960.832031 C 456.757812 962.957031 446.910156 959.261719 434.664062 956.757812 C 424.414062 954.65625 414.972656 957.289062 405.230469 952.101562 C 401.914062 950.328125 399.027344 947.800781 395.636719 946.203125 C 390.195312 943.648438 384.121094 943.496094 378.328125 942.359375 C 368.078125 940.308594 358.941406 935.523438 349.070312 932.410156 C 339.882812 929.527344 330.773438 929.199219 321.257812 928.816406 C 312.375 928.464844 305.84375 929.046875 297.898438 933.09375 C 290.207031 936.992188 281.929688 938.765625 274.617188 943.167969 C 251.8125 956.835938 229.414062 960.402344 203.070312 960.097656 C 190.0625 959.945312 177.40625 960.757812 165.03125 956.960938 C 162.070312 956.050781 159.058594 955.59375 156.023438 955.164062 C 163.917969 948.382812 172.269531 943.574219 181.507812 937.574219 C 194.617188 929.019531 206.410156 917.175781 218.988281 907.710938 C 244.703125 888.375 269.097656 866.308594 296.9375 849.960938 C 303.441406 846.136719 309.945312 841.707031 316.652344 838.316406 C 321.890625 835.660156 327.789062 835.128906 333.152344 832.902344 C 347.273438 827.03125 364.535156 819.742188 379.695312 817.363281 C 394.21875 815.085938 407.859375 810.226562 422.515625 808.632812 C 437.675781 806.988281 451.695312 801.367188 467.132812 801.597656 C 482.445312 801.824219 497.097656 799.34375 512.558594 800.53125 C 526.910156 801.644531 540.273438 804.757812 554.824219 803.570312 C 569.578125 802.378906 583.828125 798.964844 598.683594 799.191406 C 615.082031 799.417969 631.910156 799.214844 647.753906 803.695312 C 678.476562 812.375 709.304688 822.5 739.597656 832.574219 C 752.859375 836.976562 763.460938 846.996094 774.621094 855.070312 C 786.644531 863.75 799.449219 871.117188 812.964844 877.242188 C 845.054688 891.769531 881.523438 904.929688 916.269531 910.699219 C 934.265625 913.683594 951.246094 920.644531 966.582031 930.613281 C 976.402344 936.992188 984.296875 946.9375 993.664062 953.875 C 975.617188 962.707031 955.246094 963.109375 935.351562 960.148438 Z M 508.765625 365.820312 C 508.132812 361.113281 513.167969 354.910156 516.484375 352.355469 C 525.871094 345.167969 533.566406 338.160156 541.96875 329.855469 C 547.839844 324.0625 554.394531 320.46875 562.164062 317.886719 C 572.3125 314.519531 582.207031 313.609375 590.332031 306.144531 C 595.972656 300.980469 600.859375 295.234375 608.019531 292.046875 C 623.6875 285.085938 642.820312 277.519531 660.28125 277.597656 C 670.152344 277.648438 678.832031 279.570312 688.828125 278.050781 C 697.054688 276.8125 707.683594 274.660156 715.402344 278.457031 C 719.351562 280.40625 713.808594 286.328125 711.378906 287.113281 C 703.203125 289.796875 694.980469 288.554688 686.527344 289.695312 C 677.035156 290.984375 667.695312 291.109375 658.15625 291.742188 C 638.769531 293.058594 616.246094 297.464844 602.480469 312.089844 C 596.507812 318.445312 591.214844 325.277344 583.699219 329.933594 C 576.285156 334.515625 567.882812 337.070312 559.734375 339.957031 C 550.34375 343.269531 546.320312 349.269531 538.828125 355.796875 C 532.023438 361.746094 524.707031 366.074219 516.582031 369.96875 C 512.609375 371.945312 509.320312 369.792969 508.765625 365.820312 Z M 510.738281 398.417969 C 524.707031 380.246094 547.105469 368.453125 570.238281 371.816406 C 583.472656 373.742188 598.480469 367.617188 612.222656 367.363281 C 624.191406 367.160156 632.898438 368.855469 644.289062 371.917969 C 657.09375 375.335938 670.304688 372.878906 683.363281 375.816406 C 694.902344 378.421875 708.0625 382.269531 718.464844 388.089844 C 726.207031 392.417969 731.980469 402.035156 738.179688 408.464844 C 742.304688 412.742188 743.113281 415.953125 745.621094 420.609375 C 748.480469 425.875 753.515625 428.734375 756.046875 434.304688 C 757.539062 437.59375 750.023438 446.222656 747.136719 442.882812 C 741.039062 435.820312 733.117188 430.558594 726.460938 424.179688 C 720.589844 418.535156 714.1875 411.703125 707.101562 408.3125 C 698.292969 404.085938 689.285156 400.113281 680.199219 396.492188 C 670.101562 392.46875 659.851562 392.191406 649.628906 389.558594 C 629.332031 384.34375 607.640625 378.574219 586.457031 383.128906 C 575.171875 385.558594 562.769531 389.382812 551.988281 393.40625 C 543.535156 396.542969 530.90625 398.746094 525.1875 405.984375 C 522.53125 409.324219 514.761719 415.347656 510.027344 412.386719 C 505.269531 409.425781 507.980469 401.984375 510.738281 398.417969 Z M 388.90625 186.664062 C 387.007812 184.867188 391.386719 180.289062 393.511719 181.554688 C 409.582031 191.09375 427.90625 202.128906 438.15625 218.171875 C 442.152344 224.425781 446.480469 230.144531 450.707031 236.191406 C 456.148438 244.039062 457.972656 253.375 461.617188 262.058594 C 465.132812 270.410156 472.648438 274.230469 475.355469 282.757812 C 478.367188 292.25 477.988281 303.207031 479.558594 313.027344 C 481.328125 324.085938 485.226562 334.640625 487.960938 345.472656 C 490.566406 355.847656 490.617188 365.542969 490.542969 376.222656 C 490.492188 384.042969 472.167969 398.367188 472.015625 387.253906 C 471.863281 375.488281 470.648438 365.792969 467.082031 354.582031 C 463.996094 344.964844 460.703125 335.527344 458.855469 325.582031 C 457.414062 317.835938 457.464844 305.003906 453.136719 298.296875 C 450.984375 294.984375 447.671875 294.121094 445.089844 291.109375 C 442.484375 288.074219 441.292969 283.695312 440.003906 280 C 436.710938 270.460938 436.914062 259.832031 433.5 250.492188 C 432.308594 247.253906 430.03125 244.542969 428.839844 241.304688 C 427.195312 236.800781 427.777344 231.941406 426.109375 227.410156 C 419.679688 209.898438 401.863281 198.890625 388.90625 186.664062 Z M 243.007812 355.417969 C 252.699219 354.558594 261.734375 351.621094 271.148438 349.472656 C 281.320312 347.140625 291.21875 347.675781 301.519531 347.242188 C 310.804688 346.863281 318.703125 347.851562 327.636719 350.40625 C 336.214844 352.835938 343.859375 358.40625 352.613281 359.367188 C 372.988281 361.644531 392.929688 365.3125 412.265625 372.019531 C 420.210938 374.777344 427.425781 375.132812 434.761719 379.839844 C 441.496094 384.144531 446.632812 390.164062 453.289062 394.46875 C 457.007812 396.871094 453.492188 404.589844 451.71875 406.867188 C 451.316406 407.375 450.933594 407.882812 450.53125 408.386719 C 447.695312 412.058594 442.734375 417.574219 437.34375 416.386719 C 430.003906 414.738281 425.90625 408.082031 420.339844 403.605469 C 413.203125 397.886719 405.53125 396.289062 397.433594 392.542969 C 380.097656 384.496094 358.382812 375.160156 339.25 375.5625 C 330.21875 375.765625 322.066406 377.636719 313.007812 375.613281 C 304.300781 373.664062 295.292969 371.792969 286.738281 369.566406 C 276.3125 366.855469 266.847656 364.074219 255.9375 366.679688 C 248.980469 368.324219 242.398438 370.5 235.210938 369.234375 C 228.378906 368.070312 238.929688 355.773438 243.007812 355.417969 Z M 565.605469 589.972656 C 570.3125 577.898438 573.476562 566.082031 573.578125 553.273438 C 573.628906 545.328125 573.425781 537.585938 572.945312 529.664062 C 572.386719 520.5 569.25 514.328125 566.996094 505.773438 C 565.25 499.117188 565.605469 493.523438 562.136719 487.347656 C 557.988281 479.957031 554.089844 471.910156 549.359375 464.875 C 544.21875 457.207031 536.527344 455.207031 528.730469 451.183594 C 522.328125 447.867188 518.785156 443.035156 511.21875 441.894531 C 509.347656 441.617188 512.128906 437.746094 513.523438 437.796875 C 531.515625 438.402344 546.980469 440.808594 562.820312 449.917969 C 568.945312 453.433594 576.410156 461.988281 579.777344 467.960938 C 584.992188 477.175781 580.714844 481.832031 581.195312 491.625 C 581.625 500.683594 587.671875 509.011719 589.570312 517.820312 C 591.316406 525.96875 590.886719 534.21875 591.847656 542.394531 C 592.683594 549.480469 593.34375 553.984375 591.875 561.296875 C 590.203125 569.546875 588.078125 577.367188 585.269531 585.265625 C 583.195312 591.058594 577.878906 599.183594 570.96875 600.042969 C 563.859375 600.90625 563.453125 595.464844 565.605469 589.972656 Z M 372.050781 464.367188 C 372.988281 463.078125 373.796875 461.6875 374.988281 460.523438 C 378.910156 456.699219 384.046875 453.789062 388.804688 451.132812 C 406.316406 441.390625 420.667969 432.988281 441.417969 432.507812 C 454.476562 432.203125 440.128906 454.929688 430.992188 455.105469 C 418.414062 455.359375 404.394531 457.636719 392.625 461.484375 C 388.476562 462.824219 382.679688 465.128906 380.277344 467.734375 C 378.378906 469.808594 376.226562 474.136719 373.59375 476.820312 C 364.863281 485.675781 353.726562 490.003906 344.414062 497.800781 C 338.695312 502.582031 337.175781 508.328125 333.582031 514.453125 C 331.988281 517.1875 328.34375 519.765625 327.585938 522.878906 C 326.851562 525.839844 316.777344 534.421875 317.183594 527.890625 C 317.460938 523.5625 319.5625 520.25 321.6875 516.605469 C 325.609375 509.898438 328.75 502.683594 332.644531 495.902344 C 339.757812 483.578125 353.726562 474.996094 365.824219 468.089844 C 367.75 466.976562 372.960938 462.824219 372.050781 464.367188 Z M 372.050781 464.367188 " fill-opacity="1" fill-rule="nonzero"/></svg>