<svg xmlns="http://www.w3.org/2000/svg" xmlns:xlink="http://www.w3.org/1999/xlink" width="1563" zoomAndPan="magnify" viewBox="0 0 1172.25 1172.249948" height="1563" preserveAspectRatio="xMidYMid meet" version="1.0"><defs><clipPath id="1b9d7aef2c"><path d="M 139 309.058594 L 1166 309.058594 L 1166 679 L 139 679 Z M 139 309.058594 " clip-rule="nonzero"/></clipPath><clipPath id="353b2793d3"><path d="M 874 810 L 1171.5 810 L 1171.5 862 L 874 862 Z M 874 810 " clip-rule="nonzero"/></clipPath></defs><g clip-path="url(#1b9d7aef2c)"><path fill="#8ab4d5" d="M 1161.480469 658.183594 C 1145.300781 654.792969 1128.652344 651.554688 1112.007812 653.25 C 1103.53125 654.023438 1095.824219 656.332031 1087.8125 659.261719 C 1080.875 661.882812 1072.707031 665.582031 1065.308594 663.113281 C 1051.898438 658.644531 1047.429688 642.769531 1051.589844 630.59375 C 1053.902344 623.96875 1058.066406 616.722656 1063.460938 612.253906 C 1070.085938 606.859375 1077.945312 611.636719 1085.34375 612.40625 C 1095.363281 613.488281 1102.296875 606.707031 1103.53125 596.996094 C 1104.765625 586.667969 1100.601562 576.34375 1093.359375 569.097656 C 1074.402344 550.296875 1046.042969 547.214844 1020.765625 546.441406 C 1006.742188 545.980469 992.5625 545.671875 978.691406 546.597656 C 964.820312 547.523438 950.640625 549.0625 937.695312 554.457031 C 923.207031 560.46875 912.417969 570.332031 901.9375 581.890625 C 892.6875 592.0625 883.132812 601.3125 871.265625 608.246094 C 848.765625 621.5 822.410156 626.28125 796.515625 624.890625 C 771.238281 623.503906 742.878906 616.878906 722.382812 601.3125 C 710.976562 592.527344 704.503906 580.503906 702.039062 566.480469 C 700.648438 558.464844 700.34375 550.296875 699.726562 542.28125 C 699.109375 534.265625 698.492188 526.253906 698.492188 518.238281 C 698.648438 490.804688 710.976562 453.042969 741.957031 446.878906 C 758.753906 443.488281 774.785156 450.578125 790.351562 455.816406 C 803.453125 460.289062 818.710938 465.988281 829.804688 454.277344 C 852.617188 429.769531 823.640625 400.640625 806.996094 383.070312 C 796.667969 372.128906 785.574219 361.492188 772.78125 353.324219 C 759.527344 344.695312 744.421875 339.300781 729.164062 335.601562 C 712.519531 331.4375 695.410156 328.664062 678.609375 325.429688 C 661.195312 322.039062 643.933594 318.648438 626.515625 315.410156 C 609.714844 312.171875 592.609375 309.398438 575.5 309.707031 C 561.011719 309.863281 546.527344 312.019531 532.5 315.71875 C 504.140625 323.425781 477.476562 337.605469 454.207031 355.484375 C 403.652344 394.320312 368.050781 447.339844 327.359375 495.734375 C 289.292969 541.046875 243.515625 584.511719 185.105469 600.847656 C 171.386719 604.703125 157.515625 607.476562 143.335938 607.785156 C 137.632812 607.9375 137.941406 615.644531 143.335938 616.261719 C 203.289062 623.503906 260.164062 591.601562 302.546875 551.375 C 349.09375 507.296875 383.308594 452.117188 427.542969 405.882812 C 466.074219 365.5 517.703125 327.585938 575.65625 325.738281 C 592.761719 325.121094 609.714844 327.738281 626.515625 330.667969 C 643.933594 333.75 661.503906 336.832031 678.917969 339.914062 C 710.515625 345.464844 744.265625 348.699219 771.085938 368.121094 C 783.570312 377.214844 794.203125 388.621094 804.683594 400.023438 C 813.160156 409.273438 826.414062 421.449219 824.566406 435.320312 C 823.949219 439.941406 821.636719 445.335938 817.167969 447.496094 C 811.003906 450.578125 801.757812 445.644531 795.746094 443.640625 C 780.949219 438.863281 763.996094 435.164062 748.429688 437.785156 C 721.765625 442.410156 703.269531 466.296875 696.644531 491.113281 C 692.636719 506.523438 691.09375 522.707031 689.863281 538.582031 C 688.628906 554.304688 687.242188 571.101562 692.636719 586.359375 C 701.882812 613.332031 730.242188 627.667969 755.828125 635.527344 C 781.71875 643.542969 809.617188 644.773438 836.125 639.535156 C 862.019531 634.449219 887.140625 622.117188 905.171875 602.542969 C 915.652344 591.292969 924.128906 578.191406 937.695312 570.332031 C 949.5625 563.398438 963.433594 559.390625 976.996094 557.695312 C 991.019531 556 1005.046875 555.691406 1019.226562 555.84375 C 1032.789062 556 1046.503906 556.613281 1059.605469 560.003906 C 1071.320312 563.089844 1085.035156 568.945312 1092.125 579.425781 C 1096.289062 585.746094 1100.449219 601.15625 1091.046875 605.472656 C 1084.574219 608.402344 1077.175781 602.851562 1070.550781 602.542969 C 1064.074219 602.390625 1058.835938 605.933594 1054.675781 610.558594 C 1045.582031 620.578125 1038.953125 634.601562 1040.1875 648.472656 C 1041.265625 661.574219 1049.742188 674.210938 1062.996094 677.449219 C 1079.179688 681.457031 1094.128906 671.128906 1109.542969 668.355469 C 1125.570312 665.425781 1142.371094 668.046875 1158.246094 670.203125 C 1165.796875 671.128906 1169.496094 659.878906 1161.480469 658.183594 Z M 1161.480469 658.183594 " fill-opacity="1" fill-rule="nonzero"/></g><path fill="#8ab4d5" d="M 787.421875 414.359375 L 787.269531 414.050781 C 787.113281 413.585938 787.113281 413.585938 787.269531 414.050781 C 787.269531 414.050781 787.269531 413.742188 787.113281 413.742188 C 787.113281 413.433594 786.960938 413.277344 786.960938 412.972656 C 786.652344 412.199219 786.496094 411.121094 786.035156 410.042969 C 785.574219 408.964844 783.878906 408.964844 783.722656 410.351562 C 783.722656 411.582031 783.414062 412.199219 782.953125 413.125 C 782.644531 413.433594 782.488281 413.585938 782.335938 413.894531 C 782.335938 414.050781 782.183594 414.050781 782.183594 414.203125 C 782.027344 414.511719 781.71875 414.820312 781.566406 415.128906 C 781.410156 415.28125 781.410156 415.4375 781.257812 415.4375 C 781.101562 415.128906 780.949219 414.976562 780.949219 414.667969 C 780.792969 414.203125 780.640625 413.894531 780.488281 413.433594 C 779.714844 411.277344 778.945312 409.425781 777.402344 407.730469 C 774.476562 404.1875 769.542969 403.414062 765.226562 403.722656 C 760.757812 404.03125 756.289062 404.648438 751.820312 405.109375 C 747.195312 405.574219 742.417969 406.191406 737.792969 406.652344 C 735.019531 406.960938 732.246094 407.269531 729.625 407.886719 C 726.542969 408.65625 724.078125 410.195312 721.609375 412.199219 L 722.84375 411.277344 C 720.222656 413.125 718.066406 415.589844 715.601562 417.59375 C 712.210938 420.0625 708.664062 422.21875 704.964844 423.914062 C 701.574219 425.300781 698.03125 426.226562 694.332031 426.84375 C 689.859375 427.304688 685.390625 426.996094 680.921875 427.304688 C 677.839844 427.457031 674.757812 427.765625 671.828125 428.539062 C 669.054688 429.152344 666.433594 430.386719 663.96875 431.621094 C 659.652344 433.933594 655.644531 437.324219 652.253906 440.867188 C 648.863281 444.566406 645.628906 448.574219 643.007812 452.890625 C 640.386719 457.050781 638.230469 461.675781 637.304688 466.453125 C 636.378906 471.074219 636.070312 475.699219 636.226562 480.324219 C 636.378906 484.945312 636.84375 489.417969 637.613281 494.039062 C 637.765625 495.121094 637.921875 496.199219 638.074219 497.429688 C 638.074219 497.894531 638.230469 498.355469 638.230469 498.820312 C 638.230469 499.125 638.382812 499.742188 638.382812 499.742188 C 638.382812 500.050781 638.539062 500.359375 638.539062 500.667969 C 638.691406 501.746094 639 502.824219 639.152344 503.75 C 639.308594 504.210938 639.308594 504.828125 639.460938 505.292969 C 639.460938 505.601562 639.460938 505.753906 639.617188 506.0625 C 639.617188 506.0625 639.617188 506.0625 639.617188 506.214844 C 639.617188 506.371094 639.617188 506.371094 639.617188 506.523438 C 640.078125 510.6875 640.234375 515 640.078125 519.316406 C 640.078125 520.394531 639.925781 521.476562 639.769531 522.554688 C 639.769531 522.863281 639.769531 523.015625 639.617188 523.324219 C 639.617188 522.863281 639.617188 523.476562 639.617188 523.632812 C 639.460938 524.25 639.460938 525.019531 639.308594 525.636719 C 639.308594 525.945312 639.308594 526.097656 639.152344 526.40625 C 639.152344 526.5625 639.152344 526.5625 639.152344 526.714844 C 639 527.175781 639 527.792969 638.847656 528.257812 C 638.691406 529.335938 638.382812 530.257812 638.074219 531.339844 C 637.765625 532.417969 637.457031 533.34375 637.152344 534.265625 C 636.535156 536.117188 639.152344 537.042969 640.234375 535.5 C 641.3125 533.804688 642.238281 532.109375 643.007812 530.414062 C 643.625 528.71875 644.394531 527.023438 644.703125 525.328125 C 645.472656 521.628906 645.628906 517.777344 645.628906 514.078125 C 645.628906 512.226562 645.628906 510.53125 645.472656 508.683594 C 645.472656 507.757812 645.320312 506.832031 645.320312 505.90625 C 645.320312 504.984375 645.472656 504.058594 645.472656 503.132812 C 645.472656 501.285156 645.628906 499.433594 645.472656 497.585938 C 645.320312 495.734375 645.320312 493.886719 645.320312 492.035156 C 645.164062 488.03125 645.164062 484.023438 645.628906 480.015625 C 646.089844 476.46875 647.015625 472.925781 648.402344 469.6875 C 649.941406 466.144531 651.945312 462.90625 654.257812 459.824219 C 657.804688 455.355469 662.117188 451.195312 666.589844 447.648438 C 668.4375 446.261719 670.441406 445.027344 672.445312 444.105469 C 674.140625 443.488281 675.835938 443.023438 677.53125 442.71875 C 681.382812 442.253906 685.238281 442.410156 689.089844 442.101562 C 693.40625 441.945312 697.722656 441.328125 701.882812 440.097656 C 709.742188 437.9375 717.449219 433.933594 723.460938 428.382812 C 725 426.996094 726.234375 425.609375 727.621094 424.066406 C 728.855469 422.679688 730.085938 421.140625 731.476562 419.90625 C 731.9375 419.597656 732.554688 419.289062 733.015625 418.980469 C 735.171875 418.210938 737.640625 418.058594 739.953125 417.75 C 742.726562 417.285156 745.5 416.976562 748.429688 416.515625 C 753.667969 415.746094 758.910156 414.972656 764.148438 414.203125 C 765.535156 414.050781 767.078125 413.894531 768.464844 414.050781 C 768.925781 414.203125 769.234375 414.203125 769.699219 414.359375 C 769.699219 414.359375 769.851562 414.359375 769.851562 414.359375 C 769.851562 414.359375 769.851562 414.359375 770.003906 414.359375 C 770.003906 414.359375 770.003906 414.359375 769.851562 414.203125 C 769.851562 414.203125 770.003906 414.203125 770.003906 414.359375 C 770.003906 414.359375 770.003906 414.359375 770.160156 414.511719 C 770.160156 414.511719 770.160156 414.511719 770.003906 414.359375 C 770.160156 414.667969 770.46875 415.128906 770.621094 415.28125 C 770.929688 415.746094 771.085938 416.207031 771.238281 416.671875 C 771.699219 417.441406 772.007812 418.367188 772.625 419.136719 C 773.089844 419.753906 773.398438 420.367188 774.011719 420.832031 C 774.167969 420.984375 774.320312 421.140625 774.476562 421.292969 C 774.628906 421.449219 774.785156 421.601562 775.09375 421.757812 C 775.398438 422.0625 775.707031 422.21875 776.015625 422.371094 C 776.632812 422.679688 776.789062 422.679688 776.171875 422.371094 C 775.398438 422.0625 776.015625 422.371094 776.324219 422.527344 C 776.789062 422.679688 777.25 422.988281 777.710938 423.144531 C 778.328125 423.296875 779.097656 423.453125 779.871094 423.453125 C 781.101562 423.453125 782.488281 423.144531 783.570312 422.371094 C 783.722656 422.21875 783.875 422.0625 784.183594 421.910156 C 784.339844 421.757812 784.648438 421.601562 784.648438 421.601562 C 784.800781 421.449219 784.800781 421.449219 784.957031 421.292969 C 785.417969 420.832031 785.726562 420.367188 786.035156 419.753906 C 786.496094 418.828125 786.960938 417.902344 787.113281 416.824219 C 787.113281 416.363281 787.269531 416.054688 787.269531 415.589844 C 787.269531 415.4375 787.269531 415.4375 787.269531 415.4375 C 787.421875 415.128906 787.421875 414.667969 787.421875 414.359375 Z M 787.421875 414.359375 " fill-opacity="1" fill-rule="nonzero"/><path fill="#8ab4d5" d="M 770.160156 414.511719 C 770.160156 414.359375 770.160156 414.359375 770.160156 414.511719 C 770.3125 414.511719 770.3125 414.511719 770.160156 414.511719 C 770.3125 414.511719 770.3125 414.511719 770.160156 414.511719 C 770.3125 414.511719 770.3125 414.511719 770.160156 414.511719 Z M 770.160156 414.511719 " fill-opacity="1" fill-rule="nonzero"/><path fill="#8ab4d5" d="M 1045.425781 588.828125 C 1045.273438 587.902344 1044.808594 587.132812 1044.195312 586.359375 C 1043.113281 585.128906 1041.265625 584.511719 1039.570312 584.820312 C 1038.027344 585.28125 1036.488281 586.359375 1036.179688 588.054688 C 1035.871094 588.671875 1035.5625 589.289062 1035.714844 590.058594 C 1035.714844 590.675781 1036.179688 590.984375 1036.488281 591.140625 C 1036.332031 591.445312 1036.332031 591.753906 1036.179688 592.0625 C 1036.179688 592.0625 1036.179688 592.21875 1036.179688 592.21875 C 1036.023438 592.527344 1035.871094 592.835938 1035.714844 593.296875 C 1035.410156 593.914062 1034.945312 594.53125 1034.636719 595.144531 C 1034.484375 595.453125 1034.328125 595.761719 1034.019531 595.917969 C 1034.019531 595.761719 1034.175781 595.761719 1034.328125 595.609375 C 1034.175781 595.761719 1034.175781 595.917969 1034.019531 595.917969 C 1033.867188 596.226562 1033.558594 596.535156 1034.019531 595.917969 C 1033.558594 596.378906 1033.097656 596.996094 1032.632812 597.457031 C 1031.710938 598.382812 1030.785156 599.308594 1029.859375 600.078125 C 1028.628906 601.003906 1027.238281 601.773438 1025.851562 602.390625 C 1024.464844 602.851562 1023.234375 603.316406 1021.691406 603.46875 C 1017.839844 603.777344 1013.984375 603.007812 1010.285156 603.621094 C 1006.894531 604.238281 1003.503906 606.089844 1001.347656 608.710938 C 1000.269531 610.097656 999.1875 611.636719 998.726562 613.488281 C 998.265625 614.875 998.109375 616.414062 997.957031 617.957031 C 997.648438 620.578125 997.800781 623.351562 998.109375 625.972656 C 998.265625 627.667969 998.574219 629.671875 999.035156 631.367188 C 999.652344 633.0625 1000.113281 634.910156 1001.347656 636.144531 C 1002.425781 637.222656 1004.429688 636.761719 1004.890625 635.21875 C 1005.199219 634.140625 1005.046875 633.214844 1005.046875 632.289062 C 1005.046875 631.367188 1005.046875 630.441406 1004.890625 629.515625 C 1004.738281 627.667969 1004.582031 625.816406 1004.582031 623.96875 C 1004.582031 623.503906 1004.582031 623.195312 1004.582031 622.734375 C 1004.582031 622.582031 1004.582031 622.425781 1004.582031 622.273438 C 1004.582031 622.117188 1004.582031 622.117188 1004.582031 621.964844 C 1004.738281 621.039062 1004.890625 620.269531 1005.199219 619.34375 C 1005.355469 618.882812 1005.507812 618.574219 1005.507812 618.109375 C 1005.507812 617.957031 1005.507812 617.957031 1005.664062 617.800781 C 1005.664062 617.800781 1005.816406 617.648438 1005.816406 617.648438 C 1006.125 617.03125 1006.585938 616.261719 1007.050781 615.644531 C 1007.203125 615.492188 1007.203125 615.335938 1007.359375 615.335938 C 1007.664062 615.027344 1007.972656 614.71875 1008.28125 614.566406 C 1008.4375 614.410156 1008.589844 614.410156 1008.589844 614.257812 C 1008.898438 614.101562 1009.054688 613.949219 1009.359375 613.796875 C 1009.824219 613.640625 1010.441406 613.488281 1011.054688 613.332031 C 1014.753906 613.023438 1018.453125 613.640625 1022.152344 613.179688 C 1026.160156 612.714844 1030.015625 611.484375 1033.40625 609.324219 C 1039.878906 605.320312 1044.65625 598.84375 1045.886719 591.292969 C 1046.042969 590.832031 1046.042969 590.058594 1046.042969 589.597656 C 1045.734375 589.75 1045.582031 589.289062 1045.425781 588.828125 Z M 1045.425781 588.828125 " fill-opacity="1" fill-rule="nonzero"/><path fill="#8ab4d5" d="M 423.6875 479.246094 C 423.6875 479.246094 423.6875 479.398438 423.6875 479.246094 C 424.304688 478.628906 423.84375 479.089844 423.6875 479.246094 Z M 423.6875 479.246094 " fill-opacity="1" fill-rule="nonzero"/><path fill="#8ab4d5" d="M 450.507812 443.796875 C 447.730469 445.335938 445.113281 446.878906 442.644531 448.882812 C 441.566406 449.808594 440.488281 450.730469 439.253906 451.503906 C 439.253906 451.503906 438.636719 451.808594 438.636719 451.964844 C 438.332031 452.117188 438.023438 452.425781 437.714844 452.582031 C 436.941406 453.199219 436.171875 453.8125 435.554688 454.429688 C 431.085938 458.4375 426.769531 462.445312 422.761719 466.914062 C 418.757812 471.382812 415.058594 476.007812 411.359375 480.632812 C 409.507812 482.945312 407.660156 485.410156 405.65625 487.722656 C 403.804688 490.035156 401.800781 492.191406 399.800781 494.503906 C 395.636719 499.28125 391.320312 503.90625 386.851562 508.527344 C 382.230469 513.304688 377.757812 518.238281 373.136719 523.171875 C 363.886719 532.878906 354.640625 542.742188 345.238281 552.453125 C 341.078125 556.769531 336.761719 561.238281 332.445312 565.398438 C 328.285156 569.40625 324.277344 573.570312 319.808594 577.269531 C 318.730469 578.191406 317.652344 579.117188 316.417969 579.886719 C 316.878906 579.578125 317.1875 579.269531 317.652344 578.964844 C 316.261719 580.042969 314.875 581.273438 313.335938 582.355469 C 310.253906 584.664062 306.863281 586.824219 303.472656 588.519531 C 302.546875 588.980469 301.777344 589.445312 300.851562 589.90625 C 300.390625 590.058594 299.925781 590.367188 299.464844 590.523438 C 299.464844 590.523438 299.308594 590.675781 299.15625 590.675781 C 299 590.832031 298.847656 590.832031 298.847656 590.832031 C 298.847656 590.832031 298.847656 590.832031 298.695312 590.832031 C 297.613281 591.292969 296.535156 591.753906 295.457031 592.21875 C 295.300781 592.371094 294.996094 592.371094 294.839844 592.527344 C 294.839844 592.527344 294.839844 592.527344 294.6875 592.527344 C 294.6875 592.527344 294.53125 592.527344 294.53125 592.527344 C 294.070312 592.679688 293.453125 592.988281 292.992188 593.140625 C 292.375 593.296875 291.757812 593.757812 291.449219 594.222656 C 291.140625 594.53125 290.988281 594.683594 290.679688 594.835938 C 290.0625 595.300781 290.214844 596.378906 290.988281 596.839844 C 291.296875 596.996094 291.757812 597.148438 292.066406 597.304688 C 292.527344 597.765625 293.144531 597.921875 293.605469 597.921875 C 295.457031 597.765625 297.304688 597.921875 299.308594 597.613281 C 300.851562 597.304688 302.546875 597.148438 304.085938 596.6875 C 307.632812 595.917969 311.023438 594.53125 314.261719 593.140625 C 317.34375 591.753906 320.425781 590.367188 323.199219 588.671875 C 326.128906 586.824219 328.746094 584.820312 331.523438 582.816406 C 334.605469 580.503906 337.6875 578.039062 340.460938 575.574219 C 342.925781 573.261719 345.394531 570.949219 347.859375 568.484375 C 353.40625 563.089844 358.957031 557.695312 364.351562 552.144531 C 375.753906 540.738281 387.316406 529.179688 396.871094 516.082031 C 401.1875 510.222656 405.347656 504.058594 409.355469 498.046875 C 413.207031 492.191406 417.523438 486.488281 421.839844 480.941406 C 422.300781 480.324219 422.761719 479.707031 423.378906 478.9375 C 423.535156 478.78125 423.535156 478.628906 423.6875 478.472656 C 423.996094 478.011719 424.304688 477.703125 424.613281 477.242188 C 425.691406 475.855469 426.769531 474.464844 427.851562 473.078125 C 430.160156 470.152344 432.78125 467.375 434.941406 464.292969 C 435.09375 463.984375 435.402344 463.679688 435.554688 463.523438 C 435.554688 463.523438 435.554688 463.523438 435.710938 463.371094 C 435.863281 463.214844 436.019531 463.0625 436.019531 462.90625 C 436.636719 462.136719 437.25 461.519531 437.867188 460.75 C 439.101562 459.515625 440.332031 458.285156 441.414062 456.894531 C 441.722656 456.589844 441.875 456.28125 442.183594 455.972656 C 442.335938 455.816406 442.492188 455.664062 442.644531 455.507812 C 442.800781 455.355469 442.953125 455.046875 443.109375 454.894531 C 443.109375 454.894531 442.953125 455.046875 442.953125 455.046875 C 443.570312 454.429688 444.1875 453.8125 444.804688 453.199219 C 446.035156 451.964844 447.421875 450.730469 448.65625 449.5 C 449.890625 448.265625 451.121094 447.1875 452.355469 445.953125 C 454.359375 445.183594 452.355469 442.71875 450.507812 443.796875 Z M 450.507812 443.796875 " fill-opacity="1" fill-rule="nonzero"/><path fill="#8ab4d5" d="M 299.464844 590.984375 C 299.308594 590.984375 299.15625 591.140625 299.15625 591.140625 C 299.15625 590.984375 299.308594 590.984375 299.464844 590.984375 Z M 299.464844 590.984375 " fill-opacity="1" fill-rule="nonzero"/><path fill="#8ab4d5" d="M 425.382812 520.703125 C 424.765625 521.320312 424.152344 521.9375 423.6875 522.554688 C 423.226562 523.324219 422.609375 523.941406 422.148438 524.710938 C 421.992188 524.867188 421.992188 525.019531 421.839844 525.171875 C 421.839844 525.171875 421.839844 525.171875 421.839844 525.328125 C 421.53125 525.636719 421.375 525.945312 421.066406 526.253906 C 420.605469 526.867188 419.988281 527.484375 419.527344 528.101562 C 418.292969 529.488281 417.0625 531.03125 415.980469 532.570312 C 415.058594 533.957031 414.132812 535.191406 413.207031 536.578125 C 411.359375 539.199219 409.355469 541.820312 407.503906 544.59375 C 405.65625 547.214844 403.804688 549.988281 401.957031 552.609375 C 399.800781 555.535156 397.640625 558.617188 395.328125 561.546875 C 395.636719 561.238281 395.792969 560.929688 396.101562 560.46875 C 393.171875 564.167969 390.398438 568.175781 387.46875 571.875 C 387.160156 572.335938 386.851562 572.644531 386.542969 573.105469 C 386.390625 573.261719 386.234375 573.570312 386.082031 573.722656 C 386.082031 573.722656 386.082031 573.878906 385.929688 573.878906 C 385.15625 574.957031 384.230469 575.878906 383.460938 577.113281 C 383 578.039062 382.535156 578.964844 381.921875 579.886719 C 381.304688 580.8125 380.6875 581.738281 380.070312 582.816406 C 379.300781 584.050781 379.761719 585.898438 380.839844 586.667969 C 382.074219 587.59375 383.617188 587.441406 384.847656 586.359375 C 385.3125 586.054688 385.773438 585.589844 386.234375 585.28125 C 386.542969 585.128906 386.699219 584.820312 387.007812 584.664062 C 387.160156 584.511719 387.160156 584.511719 387.316406 584.359375 C 387.46875 584.203125 387.46875 584.203125 387.46875 584.203125 C 387.777344 583.894531 388.238281 583.585938 388.703125 583.433594 C 389.472656 582.816406 390.242188 582.355469 390.859375 581.738281 C 392.554688 579.886719 394.25 578.191406 395.945312 576.34375 C 399.492188 572.335938 402.882812 568.328125 406.117188 564.011719 C 409.046875 560.003906 411.976562 556 414.75 551.835938 C 416.136719 549.832031 417.523438 547.828125 418.757812 545.671875 C 419.988281 543.515625 421.222656 541.355469 422.457031 539.042969 C 423.070312 537.8125 423.84375 536.578125 424.457031 535.347656 C 425.230469 533.957031 425.691406 532.417969 426.152344 530.875 C 426.617188 529.644531 427.078125 528.257812 427.542969 527.023438 C 427.851562 526.40625 428.003906 525.636719 428.3125 525.019531 C 428.621094 524.402344 428.621094 523.785156 428.773438 523.015625 C 429.082031 520.703125 426.925781 519.316406 425.382812 520.703125 Z M 425.382812 520.703125 " fill-opacity="1" fill-rule="nonzero"/><path fill="#8ab4d5" d="M 1001.347656 768.382812 C 993.023438 780.558594 973.449219 780.09375 960.351562 780.09375 C 936.460938 779.941406 912.570312 780.09375 888.835938 780.09375 C 871.421875 780.09375 853.542969 780.710938 836.585938 776.703125 C 829.191406 775.007812 821.636719 772.234375 815.011719 768.226562 C 808.691406 764.375 802.21875 758.671875 800.214844 751.429688 C 799.136719 747.421875 798.671875 742.488281 800.984375 738.789062 C 803.914062 734.011719 810.386719 734.011719 815.320312 733.550781 C 821.636719 732.933594 828.109375 732.164062 834.429688 731.546875 C 841.367188 730.929688 848.300781 731.238281 855.238281 730.929688 C 858.320312 730.777344 861.710938 728.15625 861.402344 724.765625 C 860.632812 715.515625 856.625 705.960938 849.996094 699.488281 C 842.90625 692.398438 833.8125 687.773438 824.566406 684.074219 C 815.628906 680.53125 806.226562 678.375 796.824219 676.679688 C 783.105469 674.210938 769.082031 671.746094 755.210938 671.128906 C 731.167969 670.050781 708.664062 676.679688 687.242188 687.3125 C 667.667969 697.023438 649.328125 709.199219 629.90625 719.214844 C 610.023438 729.386719 588.449219 737.710938 565.792969 737.710938 C 540.667969 737.867188 516.472656 730.777344 491.8125 726.304688 C 467.613281 721.835938 442.183594 719.214844 417.984375 725.226562 C 394.25 731.082031 373.597656 745.570312 352.484375 757.285156 C 331.058594 769.152344 308.09375 777.785156 283.742188 780.558594 C 271.414062 781.945312 258.929688 782.253906 246.597656 781.484375 C 234.269531 780.710938 222.402344 778.398438 210.226562 775.933594 C 204.0625 774.703125 197.894531 773.3125 191.886719 771.773438 C 188.957031 771.003906 187.414062 775.007812 189.882812 776.550781 C 231.339844 802.75 288.058594 802.445312 332.910156 785.183594 C 355.71875 776.398438 376.21875 762.988281 397.640625 751.582031 C 407.8125 746.1875 418.292969 741.410156 429.082031 737.558594 C 440.488281 733.550781 452.972656 732.472656 464.992188 732.933594 C 512.773438 734.78125 560.398438 756.515625 608.019531 742.488281 C 649.480469 730.3125 682.464844 698.71875 724.695312 688.699219 C 749.046875 682.996094 774.628906 687.464844 798.519531 692.859375 C 815.320312 696.558594 833.8125 702.261719 844.910156 716.441406 C 845.835938 717.675781 846.761719 719.0625 847.375 720.449219 C 842.90625 721.375 838.589844 722.453125 834.121094 723.222656 C 827.496094 724.300781 820.714844 725.074219 813.929688 725.84375 C 804.066406 727.078125 794.359375 729.851562 791.890625 740.792969 C 787.882812 758.363281 802.679688 777.167969 817.476562 784.71875 C 834.890625 793.8125 855.546875 795.664062 874.964844 795.96875 C 901.472656 796.433594 927.828125 796.277344 954.339844 796.277344 C 975.144531 796.277344 1003.351562 796.125 1011.519531 772.542969 C 1012.90625 766.53125 1004.582031 763.757812 1001.347656 768.382812 Z M 1001.347656 768.382812 " fill-opacity="1" fill-rule="nonzero"/><path fill="#8ab4d5" d="M 795.746094 708.890625 C 795.746094 708.273438 795.28125 707.65625 794.820312 707.195312 C 794.050781 706.425781 793.125 706.117188 792.046875 706.425781 C 791.273438 706.578125 790.351562 706.730469 789.425781 706.886719 C 789.578125 706.886719 789.578125 706.886719 789.273438 706.886719 C 788.808594 706.886719 788.347656 707.039062 787.882812 707.039062 C 787.421875 707.195312 786.960938 707.347656 786.496094 707.347656 C 785.574219 707.503906 784.648438 707.8125 783.722656 707.964844 C 782.796875 708.121094 781.875 708.582031 780.949219 708.890625 C 777.25 710.125 773.550781 711.203125 769.851562 712.28125 C 762.761719 714.4375 753.976562 715.363281 749.96875 722.453125 C 748.121094 725.691406 747.65625 729.234375 747.042969 732.78125 C 746.425781 736.324219 745.960938 739.871094 746.117188 743.414062 C 746.269531 747.265625 747.042969 750.964844 748.582031 754.355469 C 750.125 757.59375 752.589844 760.214844 755.363281 762.371094 C 757.675781 764.066406 760.449219 765.300781 763.070312 766.53125 C 764.304688 767.148438 765.535156 767.917969 766.769531 768.535156 C 768.003906 769.152344 769.234375 769.921875 770.777344 769.921875 C 770.929688 769.921875 771.085938 769.921875 771.238281 769.921875 C 771.394531 770.078125 771.546875 770.230469 771.703125 770.386719 C 771.703125 770.386719 771.703125 770.386719 771.855469 770.539062 C 772.011719 770.695312 772.011719 770.847656 772.164062 770.847656 C 772.472656 771.3125 772.933594 771.773438 773.242188 772.082031 C 773.859375 772.699219 774.9375 772.851562 775.554688 772.542969 C 776.480469 772.234375 776.789062 771.464844 776.941406 770.539062 C 777.097656 768.84375 776.480469 766.996094 775.554688 765.453125 C 775.554688 765.300781 775.554688 765.144531 775.554688 764.992188 C 775.554688 763.140625 774.476562 761.753906 773.089844 760.523438 C 771.703125 759.289062 770.160156 758.363281 768.464844 757.59375 C 766 756.359375 763.53125 755.128906 761.375 753.585938 C 760.757812 752.96875 759.988281 752.351562 759.527344 751.738281 C 759.0625 751.121094 758.601562 750.351562 758.292969 749.578125 C 757.832031 748.5 757.675781 747.421875 757.367188 746.1875 C 756.90625 742.644531 757.214844 738.945312 757.675781 735.398438 C 757.984375 733.085938 758.292969 730.621094 759.21875 728.308594 C 759.371094 727.847656 759.679688 727.539062 759.832031 727.230469 C 759.988281 727.078125 760.140625 726.921875 760.449219 726.613281 C 761.066406 726.152344 761.683594 725.84375 762.300781 725.535156 C 764.457031 724.765625 766.921875 724.148438 769.082031 723.53125 C 772.011719 722.761719 774.9375 721.835938 777.710938 720.757812 C 780.792969 719.523438 784.03125 718.292969 786.960938 716.90625 C 788.347656 716.289062 789.578125 715.363281 790.8125 714.59375 C 791.738281 713.976562 792.507812 713.359375 793.277344 712.742188 C 793.585938 712.433594 793.894531 712.28125 794.203125 711.972656 C 794.203125 711.972656 795.128906 711.203125 794.664062 711.511719 C 795.28125 711.355469 796.054688 710.277344 795.746094 708.890625 Z M 795.746094 708.890625 " fill-opacity="1" fill-rule="nonzero"/><path fill="#8ab4d5" d="M 440.949219 791.347656 C 440.179688 790.730469 439.5625 789.960938 438.792969 789.496094 C 437.867188 788.878906 436.789062 788.726562 435.710938 788.417969 C 434.324219 788.109375 433.089844 787.800781 431.703125 787.492188 C 429.238281 786.878906 426.617188 786.261719 424.152344 785.488281 C 421.683594 784.71875 419.066406 784.410156 416.597656 783.949219 C 414.59375 783.640625 412.746094 783.179688 410.894531 782.871094 C 409.507812 782.714844 408.277344 782.5625 406.890625 782.40625 C 395.945312 781.328125 385.003906 781.789062 374.058594 783.640625 C 364.660156 785.335938 355.410156 788.574219 346.472656 792.117188 C 337.53125 795.664062 328.746094 799.359375 319.808594 802.90625 C 309.480469 806.914062 298.691406 810.304688 287.75 811.691406 C 286.210938 811.84375 284.820312 812.152344 283.28125 812.308594 C 283.742188 812.308594 284.359375 812.152344 284.820312 812.152344 C 281.429688 812.617188 277.886719 812.617188 274.496094 813.078125 C 273.570312 813.230469 272.800781 813.230469 271.875 813.386719 C 271.257812 813.386719 270.644531 813.386719 270.027344 813.539062 C 269.71875 813.695312 269.253906 813.847656 268.949219 813.847656 C 268.949219 813.847656 268.792969 813.847656 268.792969 813.847656 C 268.640625 813.847656 268.332031 813.847656 268.175781 813.847656 C 267.714844 813.847656 267.40625 813.847656 266.945312 813.695312 C 266.019531 813.539062 265.09375 813.539062 264.324219 814.003906 C 264.167969 814.003906 263.859375 814.15625 263.707031 814.15625 C 262.78125 814.464844 262.472656 815.542969 263.089844 816.316406 C 263.246094 816.46875 263.398438 816.625 263.398438 816.777344 C 263.859375 817.855469 264.941406 818.164062 266.019531 818.472656 C 266.480469 818.625 267.097656 818.933594 267.558594 819.089844 C 267.867188 819.242188 268.023438 819.398438 268.484375 819.707031 C 267.714844 819.089844 268.949219 820.015625 268.949219 820.015625 C 269.253906 820.167969 269.871094 820.320312 270.179688 820.476562 C 270.644531 820.628906 271.105469 820.785156 271.566406 820.9375 C 272.492188 821.246094 273.570312 821.710938 274.496094 822.015625 C 276.808594 822.632812 279.273438 822.941406 281.585938 823.097656 C 283.589844 823.40625 285.59375 823.558594 287.597656 823.558594 C 296.226562 823.558594 304.703125 822.171875 313.027344 820.167969 C 320.578125 818.320312 327.824219 815.699219 335.066406 812.925781 C 342.3125 810.148438 349.398438 807.375 356.796875 804.910156 C 364.660156 802.289062 372.828125 800.132812 381.148438 798.898438 C 388.238281 797.972656 395.484375 797.972656 402.574219 798.28125 C 404.421875 798.4375 406.425781 798.4375 408.277344 798.589844 C 409.199219 798.589844 410.125 798.746094 410.894531 798.746094 C 411.820312 798.746094 412.746094 798.746094 413.824219 798.746094 C 415.675781 798.898438 417.523438 799.054688 419.371094 799.207031 C 420.296875 799.359375 421.222656 799.359375 421.992188 799.359375 C 423.070312 799.359375 423.996094 799.359375 425.074219 799.359375 C 427.234375 799.515625 429.390625 799.667969 431.394531 799.976562 C 432.472656 800.132812 433.398438 800.132812 434.476562 800.285156 C 434.632812 800.285156 434.941406 800.285156 435.09375 800.285156 C 436.328125 800.285156 437.25 799.976562 438.484375 799.515625 C 438.945312 799.359375 439.253906 799.207031 439.71875 799.054688 C 441.105469 798.4375 441.875 796.742188 442.183594 795.355469 C 442.492188 794.121094 442.027344 792.425781 440.949219 791.347656 Z M 440.949219 791.347656 " fill-opacity="1" fill-rule="nonzero"/><g clip-path="url(#353b2793d3)"><path fill="#8ab4d5" d="M 1170.574219 812.308594 C 1169.496094 810.457031 1167.492188 809.996094 1165.488281 810.304688 C 1161.789062 810.765625 1158.246094 812.152344 1154.699219 813.230469 C 1151.15625 814.3125 1147.609375 815.699219 1144.066406 816.929688 C 1140.519531 818.164062 1136.976562 819.550781 1133.433594 820.628906 C 1129.886719 821.710938 1126.34375 823.25 1122.796875 824.636719 C 1115.707031 827.257812 1108.617188 829.722656 1101.375 832.191406 C 1094.128906 834.65625 1086.886719 836.8125 1079.488281 838.664062 C 1071.78125 840.667969 1063.921875 842.207031 1056.0625 843.285156 C 1041.574219 845.136719 1027.238281 845.136719 1012.753906 843.285156 C 994.71875 840.667969 977.148438 835.273438 959.578125 830.648438 C 941.855469 826.023438 923.515625 822.171875 905.019531 823.40625 C 899.777344 823.710938 894.539062 824.484375 889.296875 825.5625 C 886.679688 826.179688 883.902344 826.796875 881.59375 828.027344 C 879.433594 829.261719 877.277344 830.496094 875.273438 832.035156 C 873.578125 833.269531 873.886719 836.351562 876.351562 836.351562 C 878.664062 836.195312 880.976562 836.195312 883.441406 836.195312 C 884.828125 836.195312 886.0625 836.042969 887.449219 835.886719 C 887.910156 835.734375 888.527344 835.734375 888.988281 835.582031 C 889.605469 835.425781 889.144531 835.582031 888.988281 835.582031 C 889.453125 835.582031 889.914062 835.425781 890.222656 835.425781 C 895 834.964844 899.777344 834.808594 904.554688 834.964844 C 906.867188 835.117188 909.335938 835.273438 911.644531 835.425781 C 912.726562 835.582031 913.957031 835.582031 915.035156 835.734375 C 915.652344 835.734375 916.269531 835.886719 916.886719 835.886719 C 917.195312 835.886719 917.503906 836.042969 917.8125 836.042969 C 922.589844 836.660156 927.210938 837.582031 931.835938 838.816406 C 941.546875 841.128906 950.949219 843.75 960.503906 846.675781 C 970.058594 849.605469 979.769531 852.6875 989.480469 855.308594 C 999.652344 858.082031 1009.824219 860.242188 1020.304688 861.164062 C 1030.015625 862.089844 1039.722656 861.9375 1049.433594 861.164062 C 1069.46875 859.46875 1089.042969 854.691406 1108 848.21875 C 1110.3125 847.449219 1112.777344 846.523438 1115.089844 845.753906 C 1116.785156 845.136719 1118.328125 844.519531 1119.867188 843.75 C 1120.023438 843.75 1120.023438 843.59375 1120.175781 843.59375 C 1120.792969 843.441406 1121.253906 843.132812 1121.871094 842.976562 C 1126.957031 840.976562 1132.042969 838.816406 1137.128906 836.503906 C 1139.289062 835.425781 1141.445312 834.191406 1143.605469 833.113281 C 1145.914062 832.035156 1148.074219 830.800781 1150.386719 829.722656 C 1154.699219 827.410156 1159.015625 825.101562 1163.332031 822.480469 C 1165.644531 821.09375 1167.648438 819.707031 1169.652344 818.011719 C 1171.347656 816.316406 1171.5 813.847656 1170.574219 812.308594 Z M 1170.574219 812.308594 " fill-opacity="1" fill-rule="nonzero"/></g><path fill="#8ab4d5" d="M 166.144531 654.175781 C 164.605469 653.714844 163.21875 653.25 161.523438 653.25 C 160.289062 653.25 159.054688 653.558594 157.976562 653.558594 C 157.976562 653.558594 157.824219 653.558594 157.824219 653.558594 C 156.746094 653.40625 155.972656 653.40625 154.894531 653.40625 C 153.96875 653.558594 153.046875 653.558594 152.121094 653.714844 C 149.964844 653.867188 147.804688 654.328125 145.648438 654.636719 C 141.332031 655.101562 136.863281 655.871094 132.546875 656.640625 C 128.695312 657.257812 124.996094 657.875 121.140625 658.335938 C 114.050781 659.261719 107.117188 660.03125 100.027344 660.648438 C 92.476562 661.417969 84.921875 661.882812 77.371094 662.035156 C 69.820312 662.191406 62.265625 662.191406 54.714844 662.191406 C 51.015625 662.191406 47.164062 662.035156 43.464844 661.882812 C 42.539062 661.882812 41.613281 661.726562 40.535156 661.726562 C 39.609375 661.726562 38.683594 661.882812 37.605469 661.882812 C 35.757812 662.035156 33.90625 662.035156 32.058594 661.882812 C 27.898438 661.726562 23.734375 661.417969 19.417969 661.113281 C 17.261719 660.957031 15.105469 660.804688 12.945312 660.496094 C 12.484375 660.496094 11.867188 660.339844 11.25 660.339844 C 10.789062 660.339844 10.328125 660.496094 9.710938 660.496094 C 8.632812 660.648438 7.550781 660.648438 6.472656 660.804688 C 5.085938 660.957031 3.851562 661.265625 2.621094 662.191406 C 1.542969 662.960938 0.617188 664.195312 0.308594 665.425781 C 0 666.503906 0 667.738281 0.308594 668.816406 C 0.617188 670.203125 2.003906 672.054688 3.238281 672.671875 C 4.316406 673.132812 5.394531 673.59375 6.472656 674.058594 C 7.550781 674.519531 8.476562 675.136719 9.710938 675.289062 C 10.328125 675.445312 10.941406 675.597656 11.40625 675.597656 C 13.871094 676.0625 16.183594 676.523438 18.648438 676.984375 C 24.199219 677.910156 29.59375 678.835938 35.140625 679.453125 C 34.371094 679.296875 33.597656 679.296875 32.828125 679.144531 C 38.222656 680.53125 43.769531 680.839844 49.320312 681.300781 C 54.097656 681.609375 59.03125 681.917969 63.808594 681.917969 C 73.515625 681.917969 83.074219 681.300781 92.628906 680.53125 C 98.175781 680.070312 103.726562 679.296875 109.121094 678.683594 C 115.902344 677.757812 122.683594 676.371094 129.308594 674.828125 C 132.394531 674.210938 135.320312 673.441406 138.402344 672.671875 C 142.101562 671.59375 145.800781 670.667969 149.191406 669.28125 C 148.574219 669.589844 147.960938 669.742188 147.34375 670.050781 C 149.808594 669.125 152.429688 668.203125 154.894531 667.121094 C 155.820312 666.660156 156.746094 666.351562 157.667969 665.890625 C 158.132812 665.734375 158.59375 665.582031 159.054688 665.273438 C 159.671875 664.964844 160.136719 664.503906 160.75 663.886719 C 161.675781 663.269531 162.753906 662.960938 163.835938 662.34375 C 165.222656 661.574219 166.144531 660.339844 167.226562 659.109375 C 168.921875 657.722656 168.457031 654.945312 166.144531 654.175781 Z M 166.144531 654.175781 " fill-opacity="1" fill-rule="nonzero"/><path fill="#8ab4d5" d="M 111.433594 678.527344 C 110.816406 678.683594 110.199219 678.683594 109.582031 678.835938 C 109.429688 678.835938 109.121094 678.835938 108.964844 678.988281 C 109.738281 678.835938 110.507812 678.683594 111.433594 678.527344 Z M 111.433594 678.527344 " fill-opacity="1" fill-rule="nonzero"/><path fill="#8ab4d5" d="M 866.949219 462.445312 C 866.949219 461.675781 866.796875 460.75 866.332031 459.980469 C 866.332031 459.980469 866.332031 459.824219 866.332031 459.824219 C 866.332031 459.824219 866.332031 459.671875 866.332031 459.671875 C 866.179688 459.363281 866.179688 459.207031 866.027344 458.898438 C 865.410156 457.511719 863.867188 457.203125 862.941406 458.4375 C 862.789062 458.59375 862.636719 458.898438 862.480469 459.054688 C 862.480469 459.054688 862.480469 459.207031 862.328125 459.207031 C 862.328125 459.207031 862.328125 459.207031 862.171875 459.363281 C 861.863281 459.671875 861.554688 459.980469 861.402344 460.441406 C 861.246094 460.75 861.09375 461.058594 861.09375 461.367188 C 861.09375 461.210938 861.246094 461.210938 861.246094 461.058594 C 861.09375 461.519531 860.785156 462.136719 860.476562 462.597656 C 860.167969 463.0625 860.015625 463.523438 859.707031 463.984375 C 859.398438 464.449219 859.089844 464.910156 858.78125 465.21875 C 858.628906 465.375 858.472656 465.679688 858.320312 465.835938 C 858.011719 466.144531 857.855469 466.453125 857.550781 466.761719 C 857.550781 466.761719 857.394531 466.761719 857.394531 466.761719 C 854.3125 466.144531 851.539062 464.449219 848.300781 464.757812 C 846.761719 464.910156 845.21875 465.066406 843.832031 465.527344 C 841.675781 466.296875 840.285156 467.222656 838.4375 468.765625 C 837.820312 469.378906 837.203125 469.996094 836.585938 470.769531 C 835.664062 472 834.738281 473.234375 833.96875 474.464844 C 833.042969 476.160156 832.117188 477.859375 831.195312 479.554688 C 830.269531 481.25 829.5 482.789062 828.417969 484.332031 C 828.109375 484.792969 827.648438 485.101562 827.339844 485.410156 C 827.1875 485.5625 827.03125 485.5625 826.722656 485.71875 C 826.570312 485.71875 826.261719 485.871094 826.105469 485.871094 C 825.800781 485.871094 825.492188 485.871094 825.183594 485.871094 C 824.257812 485.71875 823.488281 485.410156 822.5625 485.101562 C 821.019531 484.332031 819.480469 483.40625 817.9375 482.636719 C 817.015625 482.019531 816.089844 481.554688 815.164062 481.09375 C 814.703125 480.785156 814.238281 480.632812 813.929688 480.324219 C 813.160156 479.859375 812.390625 479.859375 811.621094 479.398438 C 810.386719 478.9375 808.84375 479.554688 807.921875 480.324219 C 806.996094 481.25 806.6875 482.636719 806.996094 484.023438 C 807.148438 484.332031 807.148438 484.792969 807.148438 485.101562 C 807.304688 485.871094 807.613281 486.488281 807.921875 487.105469 C 808.382812 487.875 808.691406 488.800781 809.308594 489.570312 C 810.539062 491.265625 811.929688 493.117188 813.625 494.503906 C 815.320312 495.890625 817.015625 497.121094 819.019531 498.046875 C 821.484375 499.125 823.796875 499.898438 826.570312 499.898438 C 834.585938 500.207031 840.75 494.347656 844.449219 487.875 C 845.679688 485.71875 846.761719 483.40625 848.300781 481.402344 C 848.609375 481.09375 848.917969 480.632812 849.378906 480.324219 C 849.6875 480.167969 849.996094 480.015625 850.304688 479.707031 C 852.308594 479.089844 854.464844 478.9375 856.46875 478.472656 C 859.707031 477.550781 862.328125 475.238281 864.332031 472.617188 C 865.871094 470.460938 866.488281 467.992188 866.796875 465.375 C 867.105469 464.601562 867.105469 463.523438 866.949219 462.445312 Z M 866.949219 462.445312 " fill-opacity="1" fill-rule="nonzero"/><path fill="#8ab4d5" d="M 1114.167969 556 C 1114.167969 556.152344 1114.167969 556.152344 1114.167969 556 C 1113.703125 555.535156 1113.703125 555.535156 1113.859375 555.691406 C 1113.859375 555.84375 1113.859375 555.84375 1114.167969 556 C 1114.011719 556 1114.011719 556 1114.167969 556 Z M 1114.167969 556 " fill-opacity="1" fill-rule="nonzero"/><path fill="#8ab4d5" d="M 1134.664062 575.109375 C 1134.511719 572.644531 1134.046875 570.792969 1132.96875 568.484375 C 1132.351562 566.941406 1131.273438 565.707031 1130.039062 564.476562 C 1128.960938 563.242188 1127.574219 562.164062 1126.1875 561.394531 C 1123.566406 560.003906 1120.792969 558.925781 1118.019531 557.847656 C 1116.941406 557.386719 1115.707031 556.921875 1114.628906 556.308594 C 1115.089844 556.460938 1115.554688 556.613281 1116.015625 556.921875 C 1115.554688 556.769531 1115.089844 556.460938 1114.628906 556.308594 C 1114.472656 556.152344 1114.320312 556.152344 1114.167969 556 C 1114.320312 556 1114.320312 556.152344 1114.472656 556.308594 C 1114.320312 556.152344 1114.167969 556 1114.011719 556 C 1113.859375 556 1113.859375 555.84375 1113.703125 555.84375 C 1113.550781 555.691406 1113.242188 555.535156 1113.085938 555.382812 C 1113.242188 555.382812 1113.242188 555.535156 1113.085938 555.382812 C 1113.085938 555.226562 1112.933594 555.226562 1112.777344 555.226562 C 1112.625 555.074219 1112.472656 554.917969 1112.316406 554.765625 C 1110.46875 552.609375 1106.460938 553.6875 1105.84375 556.460938 C 1105.535156 557.695312 1105.382812 558.925781 1105.6875 560.160156 C 1105.84375 561.085938 1106.304688 561.855469 1106.769531 562.78125 C 1107.230469 563.703125 1107.847656 564.476562 1108.464844 565.246094 C 1108.925781 565.707031 1109.234375 566.324219 1109.851562 566.632812 C 1112.316406 568.636719 1115.089844 570.332031 1117.558594 572.179688 C 1118.328125 572.796875 1119.097656 573.414062 1119.714844 574.183594 C 1119.867188 574.339844 1119.867188 574.492188 1120.023438 574.648438 C 1120.023438 574.800781 1120.023438 574.800781 1120.023438 574.957031 C 1120.023438 575.109375 1120.023438 575.417969 1120.023438 575.574219 C 1119.867188 576.1875 1119.714844 576.652344 1119.5625 577.269531 C 1118.019531 580.660156 1115.863281 583.742188 1114.167969 587.132812 C 1113.550781 588.519531 1112.933594 589.90625 1112.316406 591.445312 C 1111.855469 592.835938 1111.699219 594.375 1111.546875 595.917969 C 1111.390625 599.460938 1113.550781 603.621094 1116.476562 605.472656 C 1119.714844 607.476562 1123.875 605.472656 1124.800781 602.082031 C 1124.953125 601.773438 1124.953125 601.3125 1124.953125 601.003906 C 1124.953125 600.695312 1125.109375 600.386719 1125.261719 600.078125 C 1125.570312 599.460938 1125.726562 598.84375 1125.878906 598.230469 C 1126.035156 597.765625 1126.1875 597.304688 1126.34375 596.839844 C 1126.652344 596.070312 1126.804688 595.453125 1127.113281 594.683594 C 1129.269531 589.90625 1132.507812 585.589844 1133.738281 580.351562 C 1134.511719 578.65625 1134.820312 576.804688 1134.664062 575.109375 Z M 1134.664062 575.109375 " fill-opacity="1" fill-rule="nonzero"/><path fill="#8ab4d5" d="M 811.3125 558.308594 C 811.464844 557.386719 810.847656 556.460938 810.386719 555.691406 C 809.925781 555.074219 809.308594 554.613281 808.691406 554.304688 C 807.765625 553.53125 806.6875 553.070312 805.300781 552.917969 C 804.53125 552.761719 803.757812 552.917969 802.988281 552.917969 C 801.910156 553.070312 800.832031 553.070312 799.90625 553.070312 C 798.980469 553.070312 798.210938 553.070312 797.285156 553.070312 C 796.207031 552.917969 795.28125 552.609375 794.203125 552.300781 C 793.433594 551.992188 792.816406 551.527344 792.199219 551.222656 C 791.429688 550.605469 790.660156 549.832031 790.042969 549.0625 C 789.425781 548.292969 788.964844 547.523438 788.65625 546.597656 C 788.347656 545.671875 788.039062 544.746094 787.882812 543.824219 C 787.882812 542.898438 787.882812 541.972656 787.882812 541.046875 C 787.882812 539.042969 786.960938 537.195312 785.417969 536.117188 C 783.722656 534.882812 781.875 534.574219 779.871094 535.039062 C 778.019531 535.5 776.171875 535.808594 774.320312 536.269531 C 773.398438 536.425781 772.472656 536.734375 771.703125 536.886719 C 771.238281 537.042969 770.777344 537.042969 770.3125 537.195312 C 769.699219 537.347656 769.082031 537.65625 768.464844 537.964844 C 766.308594 539.199219 766.617188 542.128906 768.464844 543.359375 C 768.773438 543.515625 768.617188 543.515625 768.617188 543.359375 C 768.617188 543.359375 768.773438 543.515625 768.925781 543.515625 C 769.390625 543.824219 769.851562 543.976562 770.3125 544.132812 C 770.777344 544.285156 771.238281 544.4375 771.703125 544.59375 C 772.625 544.902344 773.550781 545.210938 774.476562 545.519531 C 774.628906 545.519531 774.785156 545.519531 774.785156 545.671875 C 774.785156 547.058594 775.09375 548.601562 775.246094 549.988281 C 775.398438 551.222656 775.863281 552.453125 776.324219 553.53125 C 777.097656 555.226562 777.710938 556.921875 778.792969 558.464844 C 783.105469 564.628906 790.351562 568.636719 798.058594 568.328125 C 799.445312 568.328125 800.675781 568.019531 802.0625 567.867188 C 803.144531 567.710938 804.066406 567.25 804.992188 566.941406 C 805.917969 566.632812 806.84375 566.171875 807.765625 565.707031 C 809.925781 564.476562 811.464844 562.164062 811.3125 559.699219 C 811.15625 559.234375 811.15625 558.773438 811.3125 558.308594 Z M 811.3125 558.308594 " fill-opacity="1" fill-rule="nonzero"/></svg>