<svg xmlns="http://www.w3.org/2000/svg" xmlns:xlink="http://www.w3.org/1999/xlink" width="1563" zoomAndPan="magnify" viewBox="0 0 1172.25 1172.249948" height="1563" preserveAspectRatio="xMidYMid meet" version="1.0"><defs><clipPath id="8ed68e24d4"><path d="M 0 158 L 1171.5 158 L 1171.5 1010 L 0 1010 Z M 0 158 " clip-rule="nonzero"/></clipPath></defs><g clip-path="url(#8ed68e24d4)"><path fill="#366baa" d="M 528.101562 160.671875 C 469.757812 170.335938 422.105469 182.125 386.097656 195.808594 C 316.042969 222.425781 251.96875 271.605469 183.066406 351.632812 C 166.015625 371.433594 138.195312 415.851562 128.066406 439.453125 C 113.074219 474.375 104.746094 525.722656 103.34375 591.886719 C 101.710938 669.085938 109.238281 712.683594 133.988281 769.371094 C 149.140625 804.074219 151.640625 808.089844 185.050781 851.335938 C 197.964844 868.050781 229.964844 900.160156 249.464844 915.972656 C 269.535156 932.242188 289.183594 944.527344 320.082031 960.113281 C 350.207031 975.308594 368.566406 982.289062 406.820312 993.089844 C 463.464844 1009.085938 512.035156 1013.804688 545.753906 1006.589844 C 560.933594 1003.339844 565.242188 999.855469 558.53125 996.261719 C 555.132812 994.445312 545.964844 994.839844 521.960938 997.832031 C 505.050781 999.941406 475.394531 996.925781 445.214844 990.03125 C 426.265625 985.703125 391.074219 975.367188 376.886719 969.964844 C 357.027344 962.40625 306.878906 935.707031 289.8125 923.609375 C 258.898438 901.691406 229.941406 873.324219 202.875 838.4375 C 181.035156 810.289062 173.878906 798.527344 161.226562 769.96875 C 143.796875 730.640625 136.355469 703.199219 130.417969 656.367188 C 127.457031 633.011719 127.195312 625.265625 127.894531 582.675781 C 128.691406 534.222656 130.296875 516.285156 136.679688 484.425781 C 143.429688 450.753906 152.0625 429.632812 173.445312 394.46875 C 189.722656 367.710938 196.121094 358.96875 216.609375 335.511719 C 291.707031 249.515625 359.683594 204.691406 451.699219 180.484375 C 472.773438 174.941406 537.960938 161.269531 543.324219 161.269531 C 544.984375 161.269531 546.769531 160.578125 547.289062 159.734375 C 548.503906 157.773438 544.390625 157.972656 528.101562 160.671875 Z M 559.957031 164.460938 C 557.085938 166.132812 556.378906 169.746094 558.644531 171.148438 C 559.398438 171.617188 573.046875 174.042969 588.964844 176.542969 C 627.273438 182.558594 636.132812 184.515625 666.941406 193.753906 C 698.316406 203.164062 721.636719 213.53125 742.257812 227.234375 C 750.703125 232.847656 764.519531 241.488281 772.964844 246.441406 C 818.390625 273.085938 857.203125 304.082031 870.878906 324.644531 C 913.867188 389.285156 910.921875 383.800781 928.21875 431.398438 C 947.828125 485.378906 950.9375 501.660156 950.925781 550.4375 C 950.914062 609.601562 947.574219 626.589844 921.664062 699.351562 C 901.902344 754.851562 893.535156 773.238281 868.230469 816.792969 C 853.738281 841.738281 844.851562 852.714844 817.207031 879.804688 C 792.964844 903.554688 775.96875 917.320312 749.121094 934.953125 C 720.71875 953.601562 675.148438 975.769531 644.847656 985.675781 C 626.585938 991.648438 580.382812 1002.550781 573.339844 1002.550781 C 570.851562 1002.550781 569.757812 1003.179688 570.410156 1004.234375 C 571.746094 1006.398438 578.5625 1005.402344 613.304688 997.96875 C 646.617188 990.839844 665.382812 984.988281 690.832031 973.796875 C 750.335938 947.625 789.851562 922.167969 830.570312 883.78125 C 863.878906 852.371094 872.421875 841.410156 897.808594 797.46875 C 918.996094 760.796875 931.21875 732.671875 955.121094 665.578125 C 969.878906 624.160156 975.101562 592.277344 975.242188 542.761719 C 975.328125 512.328125 973.246094 493.664062 967.078125 469.5 C 963.070312 453.8125 945.203125 402.953125 938.847656 389.144531 C 931.851562 373.949219 893.632812 316.707031 882.628906 304.945312 C 867.398438 288.667969 826.414062 258.457031 792.921875 238.820312 C 784.476562 233.871094 771.351562 225.597656 763.753906 220.433594 C 730.226562 197.648438 665.484375 175.984375 602.992188 166.640625 C 575.519531 162.535156 564.246094 161.960938 559.957031 164.460938 Z M 539.078125 227.582031 C 519.929688 229.714844 514.605469 232.554688 522.167969 236.605469 C 524.640625 237.929688 528.882812 237.890625 539.441406 236.453125 C 548.667969 235.195312 563.625 234.824219 583.367188 235.359375 C 611.449219 236.117188 614.550781 236.503906 633.480469 241.589844 C 663.027344 249.527344 683.472656 258.121094 698.722656 269.015625 C 702.644531 271.816406 713.007812 279.070312 721.753906 285.140625 C 741.167969 298.617188 776.523438 333.882812 790.410156 353.625 C 795.632812 361.050781 804.125 372.433594 809.277344 378.917969 C 814.429688 385.40625 822.957031 397.289062 828.226562 405.328125 C 833.496094 413.371094 842.769531 426.164062 848.839844 433.765625 C 855.144531 441.667969 862.496094 453.167969 866.003906 460.628906 C 869.378906 467.808594 872.988281 475.40625 874.027344 477.515625 C 875.371094 480.25 877.386719 481.496094 881.015625 481.847656 C 884.394531 482.175781 885.765625 481.777344 885.082031 480.671875 C 884.515625 479.753906 883.496094 479.34375 882.816406 479.765625 C 882.140625 480.183594 880.027344 476.222656 878.121094 470.964844 C 872.714844 456.042969 866.933594 445.480469 856.460938 431.398438 C 851.148438 424.257812 842.03125 410.847656 836.199219 401.601562 C 830.367188 392.355469 821.648438 379.578125 816.816406 373.203125 C 811.988281 366.828125 804.371094 356.15625 799.894531 349.488281 C 788.421875 332.402344 752.664062 295.007812 737.652344 284.398438 C 730.898438 279.621094 720.5625 272.011719 714.679688 267.484375 C 696.335938 253.367188 672.117188 243.085938 634.605469 233.488281 C 607.359375 226.519531 569.617188 224.1875 539.078125 227.582031 Z M 496.628906 235.996094 C 466.234375 242.761719 440.320312 251.03125 408.355469 264.164062 C 360.800781 283.703125 341.578125 292.65625 324.25 303.339844 C 314.722656 309.214844 300.667969 317.820312 293.019531 322.464844 C 268.113281 337.585938 260.070312 345.261719 241.421875 371.703125 C 237 377.972656 227.15625 390.914062 219.546875 400.464844 C 205.671875 417.878906 202.839844 424.3125 208.15625 426.355469 C 212.335938 427.957031 220.886719 422.597656 226.074219 415.121094 C 228.808594 411.183594 234.640625 403.402344 239.035156 397.835938 C 243.429688 392.265625 252.332031 379.929688 258.816406 370.417969 C 272.449219 350.429688 284.152344 338.933594 302.949219 327.070312 C 310.308594 322.425781 324.710938 313.222656 334.957031 306.617188 C 352.761719 295.144531 389.355469 277.785156 435.917969 258.714844 C 453.820312 251.382812 481.019531 242.84375 499.316406 238.808594 C 505.859375 237.363281 511.214844 235.90625 511.214844 235.570312 C 511.214844 234.789062 500.675781 235.097656 496.628906 235.996094 Z M 503.539062 283.835938 C 498.820312 284.726562 498.105469 285.476562 497.675781 289.949219 C 496.441406 302.796875 511.277344 308.363281 520.953125 298.6875 C 524.0625 295.578125 524.277344 288.179688 521.328125 285.734375 C 518.535156 283.414062 510.371094 282.542969 503.539062 283.835938 Z M 588.085938 286.59375 C 586.335938 288.816406 584.902344 292.617188 584.902344 295.039062 C 584.902344 298.636719 585.5625 299.433594 588.527344 299.433594 C 591.480469 299.433594 592.027344 298.78125 591.480469 295.914062 C 591.074219 293.785156 592.070312 290.898438 593.996094 288.621094 L 597.183594 284.851562 L 600.253906 288.476562 C 601.945312 290.46875 603.324219 292.714844 603.324219 293.464844 C 603.324219 296.496094 596.914062 300.972656 592.578125 300.972656 C 587.222656 300.972656 586.339844 303.574219 591.425781 304.363281 C 596.492188 305.152344 604.941406 303.082031 607.632812 300.390625 C 611.21875 296.804688 610.597656 288.714844 606.480469 285.378906 C 601.09375 281.019531 592 281.617188 588.085938 286.59375 Z M 507.636719 287.53125 C 503.914062 288.8125 503.433594 289.609375 504.28125 293.082031 C 504.828125 295.308594 506.117188 297.992188 507.144531 299.046875 C 509.796875 301.769531 515.820312 297.316406 515.820312 292.628906 C 515.820312 287.546875 512.886719 285.71875 507.636719 287.53125 Z M 428.3125 297.898438 C 428.3125 298.746094 430.003906 299.433594 432.066406 299.433594 C 434.128906 299.433594 437.730469 301.082031 440.070312 303.09375 C 443.878906 306.367188 444.132812 307.167969 442.511719 310.726562 C 440.378906 315.410156 433.320312 317.828125 431.171875 314.609375 C 430.390625 313.441406 429.96875 309.867188 430.230469 306.664062 C 430.652344 301.566406 430.324219 300.902344 427.59375 301.292969 C 423.238281 301.914062 422.15625 314.460938 426.199219 317.417969 C 432.527344 322.046875 449.023438 317.664062 450.722656 310.910156 C 451.894531 306.234375 449.1875 301.523438 443.695312 298.683594 C 438.652344 296.078125 428.3125 295.550781 428.3125 297.898438 Z M 658.574219 313.636719 C 651.222656 325.695312 658.128906 333.984375 672.335938 330.160156 C 684.863281 326.785156 686.144531 315.824219 674.574219 310.992188 C 665.808594 307.328125 662.042969 307.953125 658.574219 313.636719 Z M 664.128906 315.679688 C 662.683594 319.445312 663.03125 326.785156 664.699219 327.816406 C 666.785156 329.105469 672.007812 326.078125 673.945312 322.464844 C 675.210938 320.097656 674.894531 318.808594 672.445312 316.359375 C 668.71875 312.632812 665.402344 312.363281 664.128906 315.679688 Z M 368.816406 326.554688 C 364.773438 328.183594 368.890625 330.105469 374.503906 329.207031 C 379.234375 328.449219 381.019531 328.902344 383.625 331.503906 C 387.863281 335.746094 387.710938 338.640625 383 343.355469 C 380.144531 346.207031 377.839844 347.09375 374.171875 346.738281 C 369.8125 346.316406 369.152344 345.652344 368.730469 341.269531 C 368.367188 337.523438 367.507812 336.28125 365.273438 336.28125 C 361.035156 336.28125 361.03125 346.242188 365.269531 348.507812 C 369.582031 350.816406 378.226562 350.457031 385.15625 347.683594 C 395.882812 343.394531 397.347656 330.761719 387.550781 327.039062 C 383.453125 325.480469 372.199219 325.191406 368.816406 326.554688 Z M 523.496094 336.46875 C 468.25 342.820312 417.773438 364.613281 370.765625 402.414062 C 341.023438 426.335938 303.566406 467.332031 289.4375 491.441406 C 271.464844 522.105469 257.851562 578.378906 259.933594 613.382812 C 260.71875 626.546875 266.347656 651.789062 273.457031 674.019531 C 282.316406 701.722656 307.632812 744.496094 330.667969 770.675781 C 344.566406 786.464844 371.800781 810.960938 386.097656 820.527344 C 411.570312 837.570312 444.371094 851.152344 471.199219 855.757812 C 487.886719 858.625 522.746094 859.046875 546.746094 856.667969 C 578.601562 853.511719 614.496094 842.5625 653.90625 823.96875 C 692.714844 805.65625 709.167969 794.933594 729.367188 774.796875 C 749.839844 754.382812 757.257812 744.664062 767.230469 725.183594 C 783.554688 693.308594 792.039062 657.070312 793.234375 614.148438 C 794.4375 570.78125 790.914062 549.082031 776.515625 511.292969 C 769.738281 493.507812 764.941406 487.523438 756.136719 485.871094 C 748.824219 484.5 742.390625 488.433594 743.933594 493.339844 C 744.519531 495.191406 742.398438 493.253906 739.226562 489.03125 C 736.050781 484.808594 730.511719 478.246094 726.917969 474.445312 C 723.320312 470.648438 716.550781 462.484375 711.871094 456.308594 C 707.195312 450.132812 698.992188 441.632812 693.644531 437.421875 C 688.296875 433.210938 678.453125 425.207031 671.769531 419.632812 C 665.085938 414.058594 654.03125 406.039062 647.207031 401.804688 C 640.378906 397.574219 628.753906 390.039062 621.371094 385.066406 C 605.972656 374.699219 574.222656 358.925781 559.101562 354.128906 C 553.4375 352.332031 548.671875 350.171875 548.511719 349.328125 C 548.351562 348.484375 547.101562 347.5625 545.738281 347.277344 C 543.582031 346.832031 516.675781 352.316406 481.480469 360.382812 C 468.328125 363.394531 444.691406 374.851562 427.121094 386.726562 C 419.753906 391.703125 408.453125 398.703125 402.007812 402.28125 C 383.976562 412.277344 351.996094 439.730469 343.558594 452.445312 C 312.066406 499.910156 303.753906 515.75 297.777344 539.691406 C 289.6875 572.066406 286.734375 593.871094 286.511719 622.851562 C 286.398438 637.347656 285.867188 648.398438 285.324219 647.414062 C 284.78125 646.425781 283.085938 640.09375 281.550781 633.339844 C 274.738281 603.328125 281.507812 549.664062 296.859375 512.011719 C 316.070312 464.890625 375.515625 403.765625 435.222656 369.738281 C 464.167969 353.242188 502.070312 341.679688 537.738281 338.460938 C 544.304688 337.867188 550.046875 336.789062 550.496094 336.066406 C 551.476562 334.476562 539.242188 334.65625 523.496094 336.46875 Z M 583.109375 342.273438 C 599.886719 348.582031 625.015625 364.78125 667.933594 396.960938 C 678.789062 405.097656 701.515625 429.296875 713.589844 445.574219 C 719.574219 453.648438 725.597656 460.683594 726.96875 461.207031 C 731.003906 462.757812 735.351562 462.308594 735.351562 460.339844 C 735.351562 456.351562 712.828125 429.285156 696.425781 413.566406 C 663.890625 382.382812 600.8125 341.96875 581.445312 339.894531 L 574.925781 339.195312 Z M 528.867188 353.289062 C 522.957031 354.890625 511.503906 357.554688 503.417969 359.203125 C 478.097656 364.371094 461.820312 371.554688 439.828125 387.265625 C 432.230469 392.695312 420.621094 400.183594 414.027344 403.90625 C 407.339844 407.683594 393.101562 418.492188 381.789062 428.371094 C 361.65625 445.957031 361.445312 446.210938 347.257812 469.851562 C 328.039062 501.863281 319.652344 518.6875 316.21875 532.125 C 308.140625 563.703125 303.015625 608.859375 304.726562 633.339844 C 306.128906 653.367188 312.492188 688.890625 316.808594 700.773438 C 324.707031 722.539062 341.34375 745.71875 365.371094 768.4375 C 373.394531 776.019531 380.472656 783.035156 381.109375 784.023438 C 382.941406 786.882812 380.695312 790.695312 377.175781 790.695312 C 374.375 790.695312 374.742188 791.496094 379.992188 796.871094 C 399.050781 816.390625 436.691406 836.671875 466.714844 843.597656 C 487.765625 848.453125 537.847656 846.792969 562.570312 840.421875 C 596.179688 831.761719 644.867188 811.007812 673.933594 792.957031 C 699.378906 777.15625 727.542969 747.019531 740.605469 721.625 C 746.925781 709.339844 758.933594 677.546875 754.878906 683.835938 C 753.847656 685.433594 749.160156 692.6875 744.457031 699.953125 C 734.085938 715.976562 707.589844 746.125 697.445312 753.4375 C 686.960938 760.992188 649.558594 785.125 633.441406 794.730469 C 612.296875 807.332031 578.277344 821.128906 557.433594 825.5625 C 542.585938 828.71875 535.007812 829.382812 511.980469 829.546875 C 487.355469 829.722656 482.25 829.292969 465.066406 825.621094 C 454.460938 823.355469 439.503906 819.445312 431.824219 816.9375 C 410.109375 809.839844 383.792969 795.773438 383.792969 791.257812 C 383.792969 788.199219 388.902344 788.691406 390.933594 791.945312 C 393.410156 795.910156 422.097656 809.707031 437.523438 814.347656 C 470.855469 824.375 498.734375 827.554688 527.589844 824.617188 C 551.066406 822.230469 564.316406 818.546875 589.902344 807.304688 C 607.898438 799.398438 618.5625 793.160156 650.148438 772.074219 C 686.304688 747.9375 689.234375 745.621094 700.757812 732.113281 C 729.648438 698.246094 741.402344 676.683594 751.398438 639.207031 C 753.242188 632.300781 755.683594 625.523438 756.828125 624.148438 C 759.203125 621.285156 759.164062 593.691406 756.757812 574.453125 C 752.933594 543.902344 737.84375 505.339844 722.429688 486.726562 C 718.585938 482.085938 709.929688 471.03125 703.195312 462.164062 C 696.464844 453.300781 687.09375 443.042969 682.371094 439.371094 C 677.652344 435.699219 668.125 427.8125 661.203125 421.847656 C 654.277344 415.882812 643.777344 407.910156 637.867188 404.128906 C 631.957031 400.351562 621.59375 393.265625 614.839844 388.382812 C 601.210938 378.527344 572.234375 362.863281 558.035156 357.671875 C 552.972656 355.820312 547.734375 353.359375 546.402344 352.203125 C 543.402344 349.59375 542.214844 349.667969 528.867188 353.289062 Z M 713.296875 353.277344 C 711.074219 355.027344 709.253906 357.101562 709.253906 357.886719 C 709.253906 360.476562 714.371094 359.363281 717.964844 355.984375 C 721.425781 352.734375 721.570312 352.726562 724.664062 355.523438 C 726.820312 357.476562 727.679688 359.871094 727.367188 363.066406 C 726.875 368.066406 726.40625 368.1875 715.582031 366.0625 C 708.195312 364.609375 709.90625 368.660156 717.785156 371.28125 C 728.03125 374.691406 735.351562 371.316406 735.351562 363.183594 C 735.351562 352.046875 722.308594 346.191406 713.296875 353.277344 Z M 1036.953125 354.632812 C 1030.105469 357.40625 1016.664062 374.4375 1008.816406 390.277344 C 997.164062 413.804688 995.113281 423.863281 992.292969 471.375 C 988.042969 542.988281 990.445312 576.757812 1002.699219 617.566406 C 1007.34375 633.03125 1007.417969 633.789062 1006.515625 656.367188 C 1005.222656 688.613281 998.3125 739.488281 986.601562 802.976562 C 978.804688 845.242188 975.472656 889.054688 979.222656 900 C 983.261719 911.789062 996.640625 919.148438 1011.285156 917.636719 C 1026.648438 916.050781 1036.316406 905.660156 1039.171875 887.667969 C 1040.0625 882.039062 1041.515625 864.386719 1042.398438 848.441406 C 1043.277344 832.492188 1045.730469 802.441406 1047.847656 781.660156 C 1050.558594 755.011719 1051.972656 729.828125 1052.644531 696.234375 C 1053.691406 644.230469 1053.507812 642.824219 1045.28125 639.957031 C 1041.3125 638.570312 1041.050781 638.140625 1043.207031 636.5625 C 1045.140625 635.148438 1045.988281 630.097656 1047.105469 613.359375 C 1047.886719 601.59375 1049.210938 586.421875 1050.042969 579.648438 C 1050.878906 572.871094 1052.605469 553.507812 1053.878906 536.621094 C 1055.15625 519.734375 1057.230469 493.484375 1058.484375 478.285156 C 1061.035156 447.449219 1061.511719 386.847656 1059.324219 371.726562 C 1057.734375 360.71875 1055.914062 358.191406 1047.460938 355.246094 C 1040.792969 352.925781 1041.117188 352.941406 1036.953125 354.632812 Z M 1032.78125 365.242188 C 1021.503906 377.722656 1008.890625 405.464844 1005.46875 425.320312 C 1002.613281 441.878906 1002.480469 550.792969 1005.296875 566.558594 C 1007.980469 581.578125 1013.824219 604.894531 1017.765625 616.308594 C 1021.636719 627.523438 1021.710938 631.820312 1018.070312 634.402344 C 1015.601562 636.152344 1015.117188 639.546875 1014.25 660.972656 C 1012.75 698.25 1006.972656 752.132812 999.527344 798.371094 C 995.882812 821.007812 993.808594 841.046875 992.359375 867.597656 C 991.035156 891.882812 992.8125 900.703125 1000.371094 907.339844 C 1003.273438 909.886719 1006.265625 911.976562 1007.015625 911.976562 C 1007.765625 911.976562 1010.492188 910.195312 1013.078125 908.023438 C 1020.734375 901.578125 1022.492188 892.710938 1024.023438 852.871094 C 1024.769531 833.449219 1026.097656 808.234375 1026.976562 796.835938 C 1027.851562 785.4375 1029.246094 767.476562 1030.070312 756.921875 C 1031.90625 733.457031 1032.132812 655.597656 1030.363281 655.597656 C 1028.492188 655.597656 1025.539062 688.3125 1023.855469 727.753906 C 1023.042969 746.75 1021.359375 772.53125 1020.113281 785.046875 C 1018.867188 797.558594 1017.46875 823.8125 1017.007812 843.382812 C 1015.8125 894.152344 1015.390625 897.941406 1010.792969 899.09375 C 1008.75 899.605469 1005.519531 899.636719 1003.609375 899.15625 C 1000.222656 898.304688 1000.167969 897.960938 1001.285156 884.789062 C 1001.914062 877.367188 1003.496094 855.425781 1004.804688 836.035156 C 1006.109375 816.644531 1008.492188 790.394531 1010.101562 777.699219 C 1011.707031 765.003906 1013.800781 742.527344 1014.753906 727.753906 C 1016.375 702.597656 1021.679688 658.054688 1023.382812 655.296875 C 1023.804688 654.621094 1025.542969 654.0625 1027.246094 654.0625 C 1029.890625 654.0625 1030.273438 653.222656 1029.84375 648.371094 C 1029.4375 643.78125 1029.984375 642.355469 1032.679688 640.996094 C 1035.984375 639.328125 1035.988281 639.289062 1032.964844 637.402344 C 1030.171875 635.65625 1029.996094 634.414062 1030.921875 622.902344 C 1031.476562 615.976562 1033.5625 597.875 1035.558594 582.675781 C 1037.550781 567.480469 1040.238281 545.027344 1041.527344 532.785156 C 1042.8125 520.539062 1045.3125 498.78125 1047.082031 484.425781 C 1050.992188 452.695312 1053.152344 368.152344 1050.195312 362.625 C 1047.152344 356.9375 1039.203125 358.132812 1032.78125 365.242188 Z M 307.035156 368.519531 C 307.035156 369.363281 310.351562 370.054688 314.402344 370.054688 C 322.414062 370.054688 325.457031 371.957031 325.457031 376.960938 C 325.457031 378.734375 324.628906 381.015625 323.613281 382.027344 C 318.925781 386.714844 309.160156 381.800781 313.285156 376.832031 C 315.058594 374.695312 314.757812 374.460938 310.796875 374.914062 C 305.375 375.53125 304.039062 379.714844 307.90625 383.984375 C 309.757812 386.03125 312.613281 386.941406 317.179688 386.941406 C 326.039062 386.941406 331.121094 384.375 333.015625 378.941406 C 334.371094 375.050781 334.078125 373.929688 330.859375 370.710938 C 327.671875 367.523438 325.675781 366.984375 317.082031 366.984375 C 311.40625 366.984375 307.035156 367.652344 307.035156 368.519531 Z M 472.050781 394.234375 C 471.585938 396.554688 468.621094 406.371094 465.460938 416.046875 C 460.472656 431.3125 459.210938 433.761719 455.917969 434.539062 C 451.84375 435.5 450.535156 438.785156 451.964844 444.476562 C 453.199219 449.40625 460 451.417969 475.414062 451.417969 C 484.3125 451.417969 488.496094 452.011719 488.984375 453.339844 C 490.785156 458.28125 496 513.066406 496.691406 534.320312 C 497.316406 553.550781 497.109375 557.378906 495.617188 554.277344 C 494.601562 552.164062 490.710938 543.53125 486.972656 535.085938 C 483.234375 526.644531 478.035156 514.984375 475.417969 509.175781 L 470.664062 498.617188 L 474.292969 489.21875 C 476.289062 484.050781 477.988281 477.402344 478.066406 474.445312 C 478.207031 469.105469 478.164062 469.070312 470.53125 468.277344 C 465.703125 467.773438 460.585938 465.921875 456.742188 463.285156 C 450.71875 459.15625 440.59375 457.492188 440.59375 460.628906 C 440.59375 461.472656 442.078125 462.164062 443.890625 462.164062 C 448.960938 462.164062 460.554688 472.386719 460.554688 476.851562 C 460.554688 479.941406 459.792969 480.585938 456.140625 480.585938 C 453.710938 480.585938 449.566406 481.019531 446.929688 481.546875 C 442.917969 482.347656 442.132812 482.035156 442.140625 479.628906 C 442.144531 478.046875 443.183594 474.769531 444.441406 472.351562 C 447.339844 466.792969 447.339844 466.769531 443.699219 466.769531 C 438.523438 466.769531 435.867188 472.925781 436.335938 483.828125 L 436.757812 493.636719 L 446.546875 494.097656 C 454.804688 494.488281 456.992188 495.210938 460.496094 498.71875 C 462.785156 501.003906 465.472656 504.410156 466.480469 506.285156 C 469.757812 512.410156 485.304688 551.621094 490.601562 567.117188 C 493.449219 575.445312 496.382812 583.042969 497.128906 584.003906 C 497.871094 584.964844 499.300781 591.832031 500.308594 599.269531 C 501.316406 606.703125 503.464844 617.039062 505.082031 622.230469 C 508.28125 632.515625 508.117188 634.84375 504.59375 629.25 C 490.691406 607.195312 484.1875 595.574219 472.726562 572.308594 C 459.164062 544.78125 452.875 529.003906 452.875 522.507812 C 452.875 518.847656 451.785156 518.304688 447.628906 519.898438 C 442.367188 521.917969 445.707031 563.585938 452.734375 583.644531 C 463.847656 615.363281 494.5625 661.738281 504.457031 661.738281 C 506.851562 661.738281 508.144531 662.621094 508.144531 664.257812 C 508.144531 665.640625 509.304688 667.621094 510.722656 668.660156 C 513.113281 670.410156 513.046875 671.140625 509.78125 678.726562 C 502.613281 695.394531 499.769531 709.152344 497.371094 738.8125 C 495.738281 758.976562 497.554688 791.46875 500.480469 794.390625 C 502.496094 796.40625 511.273438 796.15625 512.578125 794.046875 C 513.175781 793.074219 512.675781 784.148438 511.457031 774.214844 C 507.730469 743.738281 512.007812 700.582031 520.800781 679.980469 C 522.761719 675.378906 524.1875 674.234375 529.089844 673.324219 C 537.464844 671.761719 559.160156 662.5625 571.613281 655.289062 C 587.855469 645.804688 603.394531 630.191406 609.089844 617.640625 C 611.683594 611.917969 614.277344 603.613281 614.851562 599.179688 L 615.894531 591.121094 L 610.582031 591.121094 C 606.148438 591.121094 604.628906 592.074219 601.417969 596.878906 C 590.21875 613.640625 580.492188 621.402344 552.597656 635.859375 L 536.414062 644.246094 L 539.851562 632.375 C 543.664062 619.214844 551.824219 572.292969 553.46875 554.101562 L 554.523438 542.410156 L 563.792969 539.832031 C 578.289062 535.800781 587.691406 524.464844 581.085938 518.984375 C 579.832031 517.941406 576.375 517.375 573.410156 517.71875 C 570.234375 518.09375 568.058594 517.6875 568.117188 516.738281 C 568.171875 515.855469 570.417969 510.710938 573.105469 505.3125 C 577.847656 495.789062 578.242188 495.433594 586.214844 493.40625 C 595.183594 491.125 603.324219 486.15625 603.324219 482.960938 C 603.324219 479.859375 594.785156 479.289062 581.933594 481.523438 C 564.953125 484.480469 563.613281 484.578125 563.5 482.890625 C 563.441406 482.046875 565.644531 480.785156 568.390625 480.085938 C 571.140625 479.386719 575.492188 476.796875 578.066406 474.328125 C 581.941406 470.613281 584.054688 469.835938 590.351562 469.816406 C 599.234375 469.792969 604.820312 467.332031 606.511719 462.699219 C 610.0625 452.984375 593.730469 450.082031 581.921875 458.328125 C 558.824219 474.453125 558.804688 474.464844 558.804688 470.707031 C 558.804688 469.492188 562.433594 466.558594 566.863281 464.179688 C 572.375 461.230469 575.078125 458.769531 575.414062 456.410156 C 575.828125 453.496094 575.195312 452.953125 571.371094 452.953125 C 566.921875 452.953125 566.816406 452.773438 565.757812 442.882812 C 564.855469 434.433594 564.113281 432.550781 561.167969 431.210938 C 556.679688 429.164062 551.507812 431.726562 550.285156 436.597656 C 549.800781 438.527344 549.617188 443.515625 549.882812 447.683594 C 550.292969 454.195312 550.847656 455.324219 553.816406 455.75 C 557.664062 456.292969 558.148438 457.601562 555.484375 460.265625 C 554.132812 461.617188 552.457031 460.953125 548.523438 457.5 C 545.675781 455 541.472656 452.875 539.175781 452.777344 C 522.820312 452.082031 520.609375 459.558594 533.472656 472.0625 L 540.265625 478.667969 L 530.304688 478.570312 C 518.621094 478.464844 514.328125 481.070312 517.238281 486.511719 C 519.445312 490.632812 523.886719 493.003906 533.472656 495.183594 L 541.148438 496.929688 L 541.597656 508.621094 L 542.042969 520.308594 L 536.234375 520.789062 C 525.957031 521.640625 528.046875 527.078125 543.214844 538.925781 L 548.125 542.761719 L 545.675781 558.8125 C 540.96875 589.664062 530.355469 636.972656 527.496094 639.828125 C 525.90625 641.417969 524.003906 638.542969 519.894531 628.332031 C 507.097656 596.574219 506.113281 553.210938 517.4375 520.5 C 520.683594 511.121094 521.800781 505.910156 520.777344 504.890625 C 517.984375 502.097656 512.136719 504.308594 508.667969 509.46875 L 505.25 514.554688 L 504.414062 509.46875 C 503.957031 506.671875 502.164062 494.019531 500.4375 481.355469 C 498.707031 468.691406 496.949219 456.566406 496.523438 454.414062 C 495.875 451.113281 496.617188 450.09375 501.261719 447.878906 C 509.820312 443.796875 521.730469 431.816406 523.671875 425.335938 C 526.980469 414.289062 518.226562 408.480469 510.925781 416.878906 C 509.09375 418.988281 507.195312 420.710938 506.714844 420.710938 C 506.234375 420.707031 504.601562 417.695312 503.09375 414.019531 C 499.621094 405.578125 482.582031 390.011719 476.8125 390.011719 C 473.765625 390.011719 472.707031 390.949219 472.050781 394.234375 Z M 1031.632812 408.050781 C 1031.628906 414.59375 1030.621094 431.367188 1029.386719 445.328125 C 1028.15625 459.285156 1027.550781 472.238281 1028.039062 474.113281 C 1029.230469 478.664062 1032.269531 478.421875 1034.464844 473.605469 C 1036.417969 469.316406 1040.28125 402.410156 1038.796875 398.546875 C 1038.292969 397.230469 1036.476562 396.152344 1034.761719 396.152344 C 1031.894531 396.152344 1031.640625 397.117188 1031.632812 408.050781 Z M 479.597656 403.191406 C 479.039062 404.808594 476.257812 411.980469 473.40625 419.125 C 467.40625 434.1875 467.050781 436.375 471.359375 431.75 C 475.054688 427.785156 477.488281 427.621094 487.558594 430.675781 C 497.550781 433.710938 497.445312 433.742188 496.480469 428.007812 C 494.859375 418.382812 491.171875 410.488281 485.914062 405.394531 C 481.0625 400.691406 480.519531 400.503906 479.597656 403.191406 Z M 267.171875 414.472656 C 265.34375 417.890625 265.097656 426.789062 266.757812 429.382812 C 267.917969 431.195312 271.476562 431.949219 277.421875 431.636719 C 285.589844 431.214844 290.824219 416.6875 284.109375 413.09375 C 278.914062 410.316406 268.964844 411.125 267.171875 414.472656 Z M 769.125 414.945312 C 759.476562 420.109375 759.074219 424.394531 767.863281 428.382812 C 778.050781 433.007812 790.195312 432.015625 794.050781 426.242188 C 795.929688 423.425781 795.359375 416.597656 793.082031 414.710938 C 791.90625 413.734375 787.589844 412.554688 783.488281 412.09375 C 777.484375 411.414062 774.6875 411.96875 769.125 414.945312 Z M 272.6875 416.929688 C 271.152344 420.925781 271.570312 426.578125 273.492188 427.769531 C 275.996094 429.3125 279.617188 423.753906 279.082031 419.195312 C 278.566406 414.789062 274.113281 413.210938 272.6875 416.929688 Z M 779.105469 417.117188 C 777.414062 417.472656 774.480469 418.097656 772.578125 418.5 C 765.808594 419.945312 769.347656 426.054688 777.957031 427.777344 C 781.828125 428.550781 783.09375 428.050781 785.136719 424.933594 C 787.707031 421.011719 787 415.976562 783.929688 416.289062 C 782.964844 416.386719 780.792969 416.757812 779.105469 417.117188 Z M 24.132812 420.167969 C 22.558594 422.722656 19.625 490.84375 20.207031 511.292969 C 20.792969 531.8125 20.863281 532.167969 27.472656 547.367188 L 34.144531 562.71875 L 33.128906 578.644531 C 32.570312 587.402344 31.136719 599.226562 29.9375 604.917969 C 28.738281 610.613281 26.667969 628.664062 25.335938 645.03125 C 22.71875 677.214844 13.023438 748.578125 6.90625 780.714844 C 1.003906 811.71875 0.0234375 819.523438 0.0078125 835.441406 L -0.00390625 850.25 L 5.117188 854.742188 C 7.929688 857.214844 13.378906 860.117188 17.226562 861.195312 C 23.152344 862.855469 25.011719 862.796875 29.378906 860.832031 C 32.21875 859.558594 37.277344 858.046875 40.625 857.480469 C 56.027344 854.863281 59.871094 849.234375 59.871094 829.273438 C 59.871094 812.3125 57.449219 775.34375 54.535156 747.710938 C 50.71875 711.574219 50.570312 706.390625 52.113281 662.507812 C 53.871094 612.554688 56.019531 584.527344 58.949219 573.304688 C 60.097656 568.917969 64.128906 560.9375 67.910156 555.578125 C 71.691406 550.21875 76 542.378906 77.480469 538.15625 C 81.484375 526.765625 82.304688 499.707031 79.09375 485.191406 C 77.695312 478.859375 74.890625 464.699219 72.871094 453.722656 C 70.847656 442.746094 68.441406 431.160156 67.523438 427.976562 C 65.996094 422.695312 65.636719 422.402344 63.414062 424.628906 C 60.703125 427.339844 60.925781 433.480469 65.121094 471.316406 C 67.347656 491.429688 67.460938 498.15625 65.398438 487.933594 C 64.496094 483.464844 55.261719 424.109375 55.261719 422.777344 C 55.261719 422.488281 53.9375 422.25 52.316406 422.25 C 50.332031 422.25 49.058594 423.660156 48.421875 426.558594 C 47.441406 431.011719 49.320312 455.929688 52.40625 479.46875 C 53.378906 486.875 53.773438 493.335938 53.289062 493.820312 C 51.269531 495.839844 47.480469 477.011719 44.273438 449.011719 C 42.390625 432.605469 40.398438 419.179688 39.84375 419.179688 C 38.339844 419.179688 36.847656 444.246094 36.796875 470.460938 C 36.71875 507.546875 33.398438 493.285156 28.410156 434.457031 C 27.449219 423.148438 25.765625 417.519531 24.132812 420.167969 Z M 511.304688 427.816406 C 509.496094 430.878906 508.3125 433.679688 508.671875 434.039062 C 509.679688 435.042969 515.820312 426.71875 515.820312 424.347656 C 515.820312 421.066406 514.84375 421.816406 511.304688 427.816406 Z M 54.542969 453.722656 C 54.941406 463.007812 56.007812 476.195312 56.910156 483.019531 C 59.507812 502.632812 54.5625 513.902344 49.558594 499.777344 C 46.667969 491.613281 42.988281 472.496094 42.960938 465.484375 C 42.945312 462.394531 42.199219 458.828125 41.300781 457.558594 C 40.132812 455.910156 39.894531 462.34375 40.464844 480.203125 C 41.21875 503.65625 41.097656 505.152344 38.453125 505.152344 C 33.507812 505.152344 30.546875 494.050781 28.25 466.910156 C 27.074219 453.054688 25.84375 441.445312 25.511719 441.113281 C 24.425781 440.027344 22.613281 503.652344 23.414062 514.808594 C 24.070312 523.988281 25.398438 528.027344 32.074219 541.117188 L 39.960938 556.578125 L 39.871094 577.304688 C 39.820312 588.703125 39.125 601.136719 38.328125 604.9375 C 37.53125 608.738281 35.878906 628.425781 34.660156 648.691406 C 32.175781 689.90625 26.402344 743.726562 20.503906 780.714844 C 16.550781 805.507812 14.15625 839.464844 15.878906 846.332031 C 16.738281 849.761719 17.574219 850.0625 26.445312 850.167969 C 38.871094 850.3125 40.617188 849.769531 42.75 845.09375 C 44.921875 840.324219 45.058594 789.144531 42.972656 761.527344 C 42.175781 750.972656 41.050781 735.523438 40.476562 727.199219 C 38.671875 701.15625 44.195312 617.996094 50.179688 581.140625 C 53.023438 563.609375 54.394531 560.375 64.628906 547.019531 C 77.488281 530.238281 81.089844 511.148438 75.789062 487.839844 C 74.410156 481.785156 72 469.558594 70.429688 460.671875 C 67.8125 445.871094 67.636719 445.414062 68.332031 455.257812 C 68.75 461.167969 69.539062 474.121094 70.089844 484.042969 C 71.054688 501.515625 70.988281 502.082031 67.949219 502.082031 C 63.988281 502.082031 63.648438 500.804688 58.183594 465.234375 L 53.820312 436.835938 Z M 66.132812 441.566406 C 66.203125 443.355469 66.570312 443.71875 67.058594 442.496094 C 67.503906 441.386719 67.445312 440.0625 66.9375 439.554688 C 66.425781 439.042969 66.066406 439.949219 66.132812 441.566406 Z M 469.765625 440.515625 C 469.765625 442.976562 475.175781 445.285156 480.792969 445.21875 L 485.882812 445.160156 L 481.179688 443.109375 C 473.140625 439.609375 469.765625 438.839844 469.765625 440.515625 Z M 556.152344 448.347656 C 556.152344 452.148438 556.453125 453.703125 556.816406 451.804688 C 557.183594 449.902344 557.183594 446.796875 556.816406 444.894531 C 556.453125 442.992188 556.152344 444.550781 556.152344 448.347656 Z M 201.835938 461.726562 C 189.757812 490.636719 180 525.804688 175.738281 555.8125 C 174.359375 565.523438 172.855469 588.320312 172.394531 606.472656 C 171.375 646.742188 171.777344 649.21875 189.40625 710.847656 C 201.53125 753.246094 202.542969 756 207.890625 761.296875 C 213.363281 766.710938 213.625 766.800781 215.773438 763.921875 C 216.992188 762.28125 217.992188 759.265625 217.992188 757.21875 C 217.992188 755.171875 213.09375 738.203125 207.101562 719.515625 C 190.09375 666.4375 187.8125 658.6875 185.585938 646.386719 C 182.65625 630.234375 183.136719 574.550781 186.417969 549.671875 C 189.136719 529.0625 197.300781 493.269531 202.707031 478.285156 C 210.199219 457.511719 210.5 456.023438 207.195312 456.023438 C 205.210938 456.023438 203.421875 457.925781 201.835938 461.726562 Z M 533.5 457.515625 C 532.128906 459.738281 536.332031 466.847656 542.554688 472.828125 L 548.058594 478.117188 L 548.058594 471.835938 C 548.058594 466.566406 547.183594 464.785156 542.632812 460.789062 C 536.90625 455.761719 535.007812 455.082031 533.5 457.515625 Z M 237.480469 467.75 C 235.351562 469.882812 238.449219 471.421875 243.109375 470.546875 C 248.972656 469.449219 253.6875 473.578125 253.6875 479.820312 C 253.6875 486.660156 244.113281 494.386719 239.871094 490.96875 C 237.125 488.757812 237.5 480.558594 240.5 477.246094 C 244 473.378906 241.734375 471.726562 236.761719 474.519531 C 231.207031 477.636719 229.039062 485.378906 232.316406 490.386719 C 235.824219 495.734375 242.523438 496.777344 250.539062 493.222656 C 258.609375 489.644531 260.871094 487.054688 262.003906 480.070312 C 262.722656 475.644531 262.167969 473.964844 258.925781 470.722656 C 255.664062 467.457031 253.542969 466.769531 246.71875 466.769531 C 242.179688 466.769531 238.019531 467.214844 237.480469 467.75 Z M 526.949219 481.640625 C 523.757812 482.867188 524.785156 486.496094 529.125 489.339844 C 532.957031 491.851562 548.058594 493.324219 548.058594 491.1875 C 548.058594 487.058594 531.894531 479.746094 526.949219 481.640625 Z M 809.382812 513.410156 C 809.8125 530.613281 810.625 545.4375 811.1875 546.347656 C 811.75 547.257812 813.222656 547.613281 814.460938 547.136719 C 817.1875 546.089844 817.390625 536.527344 815.203125 512.058594 C 813.007812 487.503906 812.121094 482.121094 810.261719 482.121094 C 809.097656 482.121094 808.835938 491.511719 809.382812 513.410156 Z M 825.140625 484.132812 C 831.878906 488.171875 839.742188 497.199219 839.742188 500.894531 C 839.742188 506.671875 834.503906 510.667969 829.335938 508.832031 C 825.714844 507.546875 825.171875 506.542969 825.257812 501.261719 C 825.3125 497.914062 825.902344 493.964844 826.574219 492.484375 C 827.527344 490.378906 827.074219 489.796875 824.476562 489.796875 C 822.101562 489.796875 820.484375 491.421875 818.769531 495.53125 C 814.199219 506.46875 820.539062 513.46875 834.003906 512.347656 C 843.132812 511.585938 847.417969 507.96875 847.417969 501.019531 C 847.417969 491.339844 837.457031 482.035156 827.28125 482.214844 C 822.566406 482.292969 822.371094 482.472656 825.140625 484.132812 Z M 579.53125 485.996094 C 575.308594 487.082031 569.566406 488.035156 566.773438 488.117188 C 563.980469 488.199219 562.039062 488.824219 562.464844 489.511719 C 563.992188 491.980469 585.527344 490.464844 589.933594 487.578125 C 592.234375 486.070312 594.113281 484.574219 594.113281 484.25 C 594.113281 483.175781 587.332031 483.988281 579.53125 485.996094 Z M 450.0625 486.539062 C 447.355469 488.253906 451.226562 489.820312 457.992188 489.746094 L 462.855469 489.691406 L 459.015625 487.496094 C 454.542969 484.9375 452.867188 484.761719 450.0625 486.539062 Z M 889.582031 491.242188 C 882.804688 494.027344 882.53125 495.996094 886.648438 512.1875 C 892.515625 535.238281 894.480469 561.917969 892.265625 588.429688 C 888.453125 634.078125 881.339844 665.171875 868.820312 690.90625 C 865.332031 698.085938 859.71875 710.867188 856.351562 719.308594 C 849.003906 737.730469 837.949219 757.882812 826.027344 774.574219 C 821.203125 781.332031 814.605469 791.277344 811.367188 796.675781 C 803.203125 810.285156 768.128906 845.296875 747.835938 860.097656 C 719.042969 881.101562 707.621094 888.171875 674.222656 905.664062 C 645.457031 920.734375 638.839844 923.546875 619.570312 928.929688 C 556.144531 946.640625 523.371094 949.164062 471.765625 940.3125 C 418.925781 931.246094 405.332031 927.011719 362.300781 906.199219 C 339.628906 895.234375 313.203125 877.605469 299.328125 864.1875 C 281.90625 847.339844 237.949219 796.769531 237.949219 793.570312 C 237.949219 792.832031 236.570312 792.230469 234.878906 792.230469 C 227.605469 792.230469 232.101562 798.84375 267.867188 840.769531 C 298.285156 876.433594 315.894531 890.722656 351.96875 909.027344 C 394.554688 930.636719 413.554688 936.902344 465.160156 946.363281 C 522.140625 956.804688 555.691406 954.875 624.816406 937.175781 C 639.59375 933.390625 656.175781 928.210938 661.664062 925.65625 C 691.566406 911.75 737.820312 886.242188 753.003906 875.28125 C 762.292969 868.578125 773.101562 860.792969 777.023438 857.980469 C 790.828125 848.085938 826.589844 811.832031 835.0625 799.140625 C 839.570312 792.382812 846.886719 782.019531 851.320312 776.109375 C 861.613281 762.382812 875.59375 738 881.167969 724.035156 C 883.554688 718.058594 888.945312 705.914062 893.148438 697.050781 C 911.214844 658.902344 918.667969 621.386719 918.753906 568.09375 C 918.796875 543.550781 918.199219 533.75 916.054688 523.574219 C 912.042969 504.558594 908.972656 496.097656 905.230469 493.730469 C 900.695312 490.863281 893.351562 489.695312 889.582031 491.242188 Z M 1123.460938 492.625 C 1106.035156 501.511719 1086.820312 519.324219 1079.871094 533.039062 C 1071.554688 549.449219 1067.964844 563.355469 1067.839844 579.640625 C 1067.726562 594.015625 1068.042969 595.675781 1072.671875 604.96875 C 1075.398438 610.441406 1082.03125 619.753906 1087.414062 625.664062 C 1095.453125 634.488281 1097.386719 637.65625 1098.242188 643.382812 C 1099.269531 650.273438 1096.003906 686.066406 1093.179688 698.882812 C 1092.378906 702.515625 1090.960938 711.113281 1090.03125 717.980469 C 1088.175781 731.730469 1072.976562 796.179688 1065.632812 821.46875 C 1060.6875 838.480469 1051.597656 888.171875 1051.597656 898.175781 C 1051.597656 902.167969 1052.738281 905.414062 1055.054688 908.035156 C 1059.949219 913.574219 1074.792969 917.019531 1090.855469 916.34375 C 1101.609375 915.894531 1104.132812 915.265625 1107.355469 912.238281 C 1112.414062 907.484375 1112.785156 903.972656 1113.796875 851.335938 C 1114.574219 810.90625 1118.054688 755.007812 1120.148438 749.246094 C 1120.609375 747.980469 1121.5625 723.707031 1122.265625 695.308594 C 1122.96875 666.910156 1124.023438 641.128906 1124.609375 638.015625 C 1125.5 633.273438 1127.488281 630.988281 1136.902344 623.902344 C 1150.246094 613.859375 1160.890625 601.46875 1167.039062 588.816406 C 1171.4375 579.769531 1171.5 579.296875 1170.492188 561.996094 C 1169.242188 540.5625 1167.136719 532.0625 1158.996094 515.5625 C 1151.746094 500.875 1148.339844 496.785156 1139.96875 492.730469 C 1132.460938 489.089844 1130.421875 489.078125 1123.460938 492.625 Z M 553.429688 494.210938 C 549.398438 495.0625 548.765625 495.921875 548.335938 501.128906 C 547.878906 506.710938 548.070312 507.015625 551.507812 506.152344 C 553.613281 505.625 556.492188 506.160156 558.277344 507.410156 C 561.15625 509.425781 561.574219 509.191406 563.933594 504.246094 C 567.335938 497.113281 567.144531 494.941406 563.027344 493.835938 C 561.125 493.328125 559.226562 492.984375 558.804688 493.070312 C 558.382812 493.160156 555.964844 493.671875 553.429688 494.210938 Z M 1118.46875 499.820312 C 1099.066406 513.242188 1089.027344 527.300781 1081.496094 551.597656 C 1077.886719 563.25 1077.421875 566.921875 1078.015625 579.230469 C 1078.851562 596.523438 1081.722656 603.21875 1094.320312 617.238281 C 1103.222656 627.148438 1103.277344 627.265625 1104.832031 640.273438 C 1108.335938 669.578125 1097.34375 747.082031 1079.824219 816.609375 C 1074.664062 837.074219 1066.953125 884.878906 1066.953125 896.378906 C 1066.953125 899.566406 1067.855469 903.414062 1068.960938 904.925781 C 1071.628906 908.570312 1083.089844 910.652344 1090.230469 908.789062 C 1095.199219 907.492188 1095.957031 906.648438 1096.691406 901.585938 C 1098.152344 891.558594 1099.207031 875.316406 1100.75 839.054688 C 1101.585938 819.359375 1103.953125 790.84375 1106.101562 774.574219 C 1111.242188 735.605469 1112.585938 720.785156 1114.542969 681.441406 C 1116.878906 634.433594 1117.445312 631.535156 1125.601562 624.90625 C 1137.273438 615.417969 1151.132812 600.261719 1155.964844 591.703125 C 1161.894531 581.191406 1162.746094 574.582031 1160.890625 553.449219 C 1158.132812 522.035156 1142.914062 494.058594 1128.820312 494.488281 C 1127.300781 494.535156 1122.644531 496.933594 1118.46875 499.820312 Z M 1111.046875 520.800781 C 1106.453125 525.699219 1100.9375 534.242188 1096.769531 542.925781 C 1089.742188 557.570312 1088.832031 561.0625 1091.609375 562.78125 C 1093.359375 563.859375 1099.191406 559.375 1099.191406 556.949219 C 1099.191406 556.152344 1101.960938 549.585938 1105.34375 542.363281 C 1111.9375 528.292969 1120.601562 516.464844 1125.878906 514.335938 C 1128.628906 513.222656 1128.3125 513.007812 1123.832031 512.921875 C 1119.378906 512.84375 1117.347656 514.09375 1111.046875 520.800781 Z M 63.863281 519.351562 C 61.996094 529.128906 55.863281 539.976562 51.59375 541.046875 C 46.078125 542.433594 46.550781 545.066406 52.3125 545.066406 C 58.75 545.066406 64.691406 538.785156 68.902344 527.53125 C 72.59375 517.667969 72.308594 514.363281 67.765625 514.363281 C 65.65625 514.363281 64.546875 515.785156 63.863281 519.351562 Z M 556.121094 519.734375 C 556.136719 523.113281 556.453125 524.3125 556.820312 522.402344 C 557.1875 520.492188 557.171875 517.730469 556.789062 516.261719 C 556.40625 514.792969 556.105469 516.359375 556.121094 519.734375 Z M 224.132812 518.96875 C 224.132812 519.8125 225.8125 520.503906 227.863281 520.503906 C 232.660156 520.503906 236.414062 524.292969 236.414062 529.132812 C 236.414062 539.15625 226.191406 547.453125 221.59375 541.160156 C 218.9375 537.527344 218.988281 533.089844 221.75 527.792969 C 223.851562 523.769531 223.785156 523.574219 220.390625 523.574219 C 216.433594 523.574219 213.003906 529.773438 213.003906 536.925781 C 213.003906 547.679688 231.226562 550.207031 239.777344 540.632812 C 245.460938 534.273438 245.925781 523.496094 240.679688 519.824219 C 236.917969 517.1875 224.132812 516.527344 224.132812 518.96875 Z M 569.550781 524.007812 C 568.285156 525.039062 566 528.125 564.472656 530.871094 C 561.96875 535.371094 561.945312 535.855469 564.207031 535.855469 C 567.414062 535.855469 575.691406 527.640625 575.691406 524.457031 C 575.691406 521.59375 572.78125 521.378906 569.550781 524.007812 Z M 537.3125 525.589844 C 537.3125 525.851562 539.558594 528.097656 542.300781 530.578125 L 547.289062 535.085938 L 542.78125 530.097656 C 538.578125 525.449219 537.3125 524.402344 537.3125 525.589844 Z M 455.105469 559.648438 C 456.808594 571.675781 463.113281 589.039062 471.554688 604.9375 C 479.769531 620.414062 495.453125 642.574219 503.601562 650.226562 C 508.46875 654.796875 508.5 654.800781 507.382812 650.992188 C 506.761719 648.882812 503.691406 643.699219 500.554688 639.480469 C 491.140625 626.804688 475.242188 597.84375 465.15625 575 C 459.9375 563.179688 455.292969 553.164062 454.84375 552.742188 C 454.390625 552.320312 454.507812 555.429688 455.105469 559.648438 Z M 827.921875 578.777344 C 822.351562 582.171875 817.832031 589.765625 818.542969 594.523438 C 819.425781 600.441406 826.601562 604.109375 837.351562 604.140625 C 848.324219 604.171875 852.703125 601.589844 854.347656 594.105469 C 857.332031 580.515625 840.796875 570.925781 827.921875 578.777344 Z M 1089.074219 583.691406 C 1089.636719 587.207031 1092.273438 594.460938 1094.9375 599.8125 C 1098.789062 607.554688 1100.503906 609.542969 1103.324219 609.542969 C 1107.917969 609.542969 1107.789062 608.046875 1102.441406 599.203125 C 1097.296875 590.691406 1093.949219 581.113281 1095.332031 578.871094 C 1095.898438 577.953125 1094.585938 577.304688 1092.175781 577.304688 C 1088.195312 577.304688 1088.085938 577.53125 1089.074219 583.691406 Z M 829.820312 583.660156 C 826.945312 587.074219 825.898438 589.871094 826.230469 593.253906 C 826.628906 597.363281 827.625 598.351562 833.355469 600.332031 C 839.828125 602.570312 840.097656 602.53125 842.949219 599.011719 C 847.035156 593.964844 846.691406 587.183594 842.117188 582.609375 C 837.152344 577.644531 834.707031 577.855469 829.820312 583.660156 Z M 212.203125 589.9375 C 208.253906 591.839844 206.625 596.535156 206.539062 606.222656 C 206.457031 615.304688 211.265625 619.394531 220.757812 618.324219 C 230.195312 617.257812 234.878906 612.433594 234.878906 603.785156 C 234.878906 591.527344 223.425781 584.53125 212.203125 589.9375 Z M 214.320312 595.085938 C 212.480469 599.878906 213.371094 610.84375 215.800781 613.273438 C 218.992188 616.464844 219.917969 616.332031 223.867188 612.132812 C 227.789062 607.953125 228.207031 600.910156 224.8125 596.070312 C 222.050781 592.125 215.683594 591.527344 214.320312 595.085938 Z M 592.820312 618.769531 C 589.15625 622.082031 577.757812 629.0625 567.492188 634.277344 C 557.226562 639.492188 545.832031 645.890625 542.175781 648.492188 C 535.128906 653.511719 525.53125 665.234375 527.84375 666.003906 C 530.414062 666.859375 557.257812 654.304688 567.699219 647.367188 C 579.171875 639.738281 593.808594 625.234375 597.777344 617.558594 C 599.183594 614.839844 600.144531 612.640625 599.910156 612.675781 C 599.675781 612.710938 596.488281 615.453125 592.820312 618.769531 Z M 811.917969 674.863281 C 806.792969 686.453125 810.320312 693.976562 820.878906 693.976562 C 826.878906 693.976562 831.761719 690.183594 833.328125 684.316406 C 835.992188 674.296875 830.632812 667.878906 819.601562 667.878906 C 815.625 667.878906 814.59375 668.820312 811.917969 674.863281 Z M 234.113281 672.484375 C 233.582031 673.34375 234.777344 674.019531 236.824219 674.019531 C 240.628906 674.019531 245.949219 678.804688 247.734375 683.832031 C 249.089844 687.648438 244.878906 693.976562 240.984375 693.976562 C 238.414062 693.976562 237.949219 692.929688 237.949219 687.070312 C 237.949219 681.347656 237.457031 680.160156 235.082031 680.160156 C 231.644531 680.160156 229.503906 689.667969 231.925781 694.195312 C 235.289062 700.476562 253.835938 696.203125 255.71875 688.707031 C 257.117188 683.121094 252.371094 674.53125 246.808594 672.59375 C 240.894531 670.53125 235.351562 670.484375 234.113281 672.484375 Z M 818.304688 675.453125 C 816.03125 679.703125 816.34375 687.152344 818.878906 689.257812 C 823.542969 693.125 828.539062 678.78125 824.085938 674.328125 C 821.511719 671.753906 820.144531 672.019531 818.304688 675.453125 Z M 255.804688 738.882812 C 252.523438 751.132812 257 759.15625 267.121094 759.15625 C 274.722656 759.15625 279.402344 754.703125 279.402344 747.46875 C 279.402344 740.207031 273.40625 735.429688 264.296875 735.429688 C 257.75 735.429688 256.605469 735.894531 255.804688 738.882812 Z M 261.53125 742.339844 C 260.480469 745.085938 262.097656 752.269531 264.394531 755.03125 C 265.699219 756.609375 266.589844 756.488281 268.875 754.417969 C 272.0625 751.535156 272.515625 747.449219 270.136719 743.003906 C 268.253906 739.484375 262.789062 739.0625 261.53125 742.339844 Z M 775.308594 747.648438 C 774.070312 748.4375 773.507812 749.535156 774.066406 750.09375 C 774.625 750.652344 773.742188 752.546875 772.101562 754.304688 C 768.535156 758.136719 768.226562 765.011719 771.476562 768.265625 C 774.734375 771.523438 782.898438 772.796875 788.023438 770.851562 C 793.78125 768.660156 797.160156 760.605469 795.195312 753.753906 C 794.398438 750.972656 792.867188 748.136719 791.796875 747.457031 C 789.132812 745.769531 778.082031 745.898438 775.308594 747.648438 Z M 779.277344 753.925781 C 774.46875 759.636719 774.214844 763.167969 778.335938 766.898438 C 781.300781 769.582031 781.515625 769.582031 784.476562 766.898438 C 788.097656 763.621094 788.6875 753.636719 785.417969 750.925781 C 783.734375 749.527344 782.449219 750.15625 779.277344 753.925781 Z M 296.671875 785.570312 C 293.167969 786.984375 294.683594 789.160156 299.171875 789.160156 C 304.875 789.160156 308.460938 796.320312 305.746094 802.277344 C 302.28125 809.882812 295.105469 805.324219 292.066406 793.582031 C 290.15625 786.210938 286.253906 786.707031 286.496094 794.289062 C 286.789062 803.460938 291.269531 808.253906 300.085938 808.824219 C 305.960938 809.207031 308.128906 808.625 311.058594 805.871094 C 320.761719 796.757812 309.238281 780.5 296.671875 785.570312 Z M 27.523438 791.722656 C 25.742188 796.382812 26.097656 829.601562 27.949219 831.445312 C 28.546875 832.039062 30.117188 832.109375 31.445312 831.597656 C 33.503906 830.808594 33.796875 827.605469 33.429688 809.65625 C 33.125 794.582031 32.464844 788.464844 31.09375 788.011719 C 30.042969 787.660156 28.4375 789.332031 27.523438 791.722656 Z M 729.644531 810.195312 C 727.773438 810.554688 724.457031 812.976562 722.277344 815.566406 C 719.152344 819.28125 718.40625 821.628906 718.769531 826.597656 C 719.203125 832.53125 719.542969 832.941406 724.378906 833.40625 C 727.492188 833.703125 729.15625 833.296875 728.585938 832.378906 C 728.070312 831.542969 729.898438 830.367188 732.644531 829.761719 C 740.429688 828.050781 747.515625 824.191406 748.488281 821.121094 C 750.085938 816.085938 747.683594 812.347656 741.785156 810.710938 C 735.964844 809.089844 735.453125 809.070312 729.644531 810.195312 Z M 730.121094 815.640625 C 727.996094 817.542969 725.800781 821.03125 725.246094 823.394531 C 724.28125 827.484375 724.445312 827.640625 728.640625 826.664062 C 738.757812 824.308594 744.160156 817.933594 739.144531 814.269531 C 735.355469 811.496094 734.640625 811.605469 730.121094 815.640625 Z M 340.328125 826.015625 C 337.949219 826.734375 335.015625 828.152344 333.800781 829.15625 C 332.039062 830.621094 331.597656 830.484375 331.597656 828.496094 C 331.597656 827.027344 330.335938 826.003906 328.527344 826.003906 C 324.960938 826.003906 324.914062 826.386719 327.117188 836.660156 C 329.878906 849.539062 340.246094 854.050781 353.929688 848.332031 C 370.167969 841.550781 357.515625 820.792969 340.328125 826.015625 Z M 342.34375 831.378906 C 341.292969 832.644531 338.742188 833.679688 336.679688 833.679688 C 333.503906 833.679688 333.085938 834.214844 333.957031 837.132812 C 336.925781 847.085938 342.6875 850.003906 349.675781 845.105469 C 353.667969 842.3125 354.070312 837.300781 350.699219 832.488281 C 347.917969 828.515625 345.035156 828.132812 342.34375 831.378906 Z M 671.636719 847.554688 C 665.332031 848.855469 660.945312 851.835938 658.003906 856.820312 C 654.824219 862.195312 654.882812 862.847656 658.503906 862.847656 C 660.183594 862.847656 662.664062 860.855469 664.183594 858.289062 C 665.664062 855.777344 668.984375 852.679688 671.5625 851.40625 C 675.945312 849.234375 676.417969 849.292969 678.933594 852.300781 C 682.589844 856.671875 682.316406 859.222656 677.691406 863.847656 C 674.667969 866.871094 672.804688 867.554688 669.628906 866.816406 C 667.359375 866.289062 662.738281 865.441406 659.359375 864.933594 C 653.398438 864.039062 653.296875 864.09375 655.960938 866.882812 C 658.164062 869.195312 660.964844 869.757812 670.289062 869.757812 C 681.082031 869.757812 682.132812 869.460938 685.585938 865.449219 C 694.496094 855.101562 686.257812 844.539062 671.636719 847.554688 Z M 388.746094 858.628906 C 387.332031 860.363281 382.257812 871.613281 382.257812 873.015625 C 382.257812 873.335938 383.972656 873.59375 386.066406 873.59375 C 388.949219 873.59375 390.125 872.566406 390.902344 869.375 C 391.464844 867.050781 392.800781 863.875 393.867188 862.316406 C 395.738281 859.582031 395.867188 859.589844 397.476562 862.597656 C 402.09375 871.226562 397.925781 878.648438 388.203125 879.113281 C 378.492188 879.578125 378.007812 879.765625 382.253906 881.460938 C 387.5625 883.574219 400.410156 881.542969 403.917969 878.035156 C 407.503906 874.449219 407.777344 864.898438 404.429688 860.121094 C 401.722656 856.253906 391.472656 855.277344 388.746094 858.628906 Z M 588.742188 875.128906 C 588.21875 875.976562 586.527344 876.664062 584.976562 876.664062 C 579.652344 876.664062 578.550781 886.492188 583.300781 891.589844 C 588.992188 897.703125 601.832031 897.90625 607.203125 891.972656 C 610.316406 888.53125 609.414062 880.851562 605.371094 876.382812 C 602.609375 873.328125 590.421875 872.410156 588.742188 875.128906 Z M 511.980469 876.226562 C 506.855469 877.460938 506.09375 879.207031 505.507812 891.121094 C 504.855469 904.378906 506.070312 905.835938 517.8125 905.835938 C 530.589844 905.835938 537.132812 895.769531 532.136719 883.8125 C 529.003906 876.3125 522.222656 873.761719 511.980469 876.226562 Z M 441.144531 878.1875 C 436.964844 879.875 432.917969 885.597656 432.917969 889.820312 C 432.917969 891.609375 434.289062 894.316406 435.964844 895.832031 C 438.46875 898.097656 440.542969 898.40625 447.640625 897.574219 C 457.519531 896.410156 461.355469 894.71875 463.59375 890.535156 C 468.320312 881.703125 453.128906 873.351562 441.144531 878.1875 Z M 591.8125 878.105469 C 586.003906 879.21875 585.097656 883.757812 589.550781 889.421875 C 593.386719 894.296875 595.761719 894.597656 599.324219 890.664062 C 601.097656 888.703125 601.621094 886.496094 600.945312 883.816406 C 599.609375 878.492188 597.304688 877.050781 591.8125 878.105469 Z M 442.824219 883.796875 C 440.753906 886.03125 439.058594 889.574219 439.058594 891.671875 C 439.058594 895.285156 439.390625 895.425781 445.507812 894.449219 C 449.054688 893.882812 452.855469 892.671875 453.953125 891.761719 C 456.933594 889.285156 456.359375 883.136719 452.976562 881.324219 C 448.542969 878.953125 446.960938 879.335938 442.824219 883.796875 Z M 514.875 880.910156 C 513.933594 881.53125 512.691406 885.875 512.117188 890.5625 C 511.21875 897.851562 511.496094 899.476562 514.035156 901.769531 C 516.875 904.339844 517.1875 904.296875 521.273438 900.78125 C 529.855469 893.398438 523.917969 874.953125 514.875 880.910156 Z M 514.875 880.910156 " fill-opacity="1" fill-rule="evenodd"/></g></svg>