<svg xmlns="http://www.w3.org/2000/svg" xmlns:xlink="http://www.w3.org/1999/xlink" width="1563" zoomAndPan="magnify" viewBox="0 0 1172.25 1172.249948" height="1563" preserveAspectRatio="xMidYMid meet" version="1.0"><defs><g/><clipPath id="4119fa9f44"><path d="M 30 452 L 1171.5 452 L 1171.5 744 L 30 744 Z M 30 452 " clip-rule="nonzero"/></clipPath><clipPath id="e6edf8ef7f"><rect x="0" width="1142" y="0" height="292"/></clipPath></defs><path fill="#8ab4d5" d="M 696.828125 502.816406 C 703.082031 506.8125 710.980469 509.003906 718.269531 507.308594 C 729.089844 504.792969 741.6875 495.847656 742.085938 483.746094 C 742.304688 477.238281 742.25 470.953125 738.136719 465.582031 C 734.5625 460.925781 726.277344 457.121094 720.464844 456.492188 C 720.234375 456.46875 719.957031 456.503906 719.683594 456.582031 C 719.417969 456.347656 719.207031 456.335938 719.066406 456.394531 C 718.625 456.480469 718.171875 456.757812 717.742188 456.492188 C 717.53125 456.359375 717.300781 456.460938 717.046875 456.414062 C 716.382812 456.074219 715.753906 456.117188 715.105469 456.214844 C 714.839844 456.273438 714.566406 456.328125 714.289062 456.371094 C 714.035156 456.402344 713.757812 456.402344 713.460938 456.328125 C 713.140625 456.292969 712.777344 456.746094 712.4375 456.964844 C 712.203125 457.023438 711.996094 456.734375 711.808594 456.710938 C 711.519531 456.679688 711.222656 456.824219 710.9375 457.03125 C 711.222656 456.964844 711.453125 456.855469 711.773438 456.824219 C 711.984375 456.824219 711.542969 457.472656 711.386719 457.605469 C 711.3125 457.714844 711.300781 457.121094 711.222656 457.230469 C 711.089844 457.21875 710.945312 457.441406 710.792969 457.574219 C 710.714844 457.683594 710.78125 457.152344 710.75 457.210938 C 710.539062 457.308594 710.328125 457.96875 710.21875 457.816406 L 709.976562 457.550781 C 709.921875 457.519531 709.875 457.496094 709.820312 457.507812 L 709.710938 457.640625 C 709.433594 457.9375 709.136719 458.214844 708.871094 458.445312 L 708.871094 458.488281 C 709.027344 458.433594 709.183594 458.476562 709.324219 458.808594 C 709.257812 458.6875 709.269531 458.542969 709.347656 458.511719 L 709.402344 458.777344 C 709.257812 458.917969 709.136719 459.0625 709.003906 458.6875 C 709.003906 458.6875 708.949219 458.808594 708.917969 458.863281 C 708.871094 458.785156 708.871094 458.621094 708.863281 458.488281 C 708.828125 458.5 708.808594 458.511719 708.773438 458.53125 C 708.851562 458.796875 709.039062 459.128906 709.039062 459.128906 C 709.402344 459.105469 709.753906 459.152344 710.085938 459.226562 C 710.121094 459.128906 710.152344 459.007812 710.175781 459.074219 C 710.195312 459.160156 710.21875 459.226562 710.242188 459.273438 L 710.382812 459.316406 C 710.40625 459.304688 710.417969 459.292969 710.4375 459.28125 C 710.472656 459.226562 710.472656 459.140625 710.460938 459.0625 C 710.472656 459.128906 710.496094 459.183594 710.527344 459.214844 C 710.550781 459.207031 710.570312 459.195312 710.59375 459.195312 C 710.582031 459.207031 710.5625 459.214844 710.550781 459.226562 C 710.550781 459.226562 710.539062 459.226562 710.539062 459.214844 C 710.515625 459.226562 710.496094 459.25 710.472656 459.273438 C 710.460938 459.273438 710.460938 459.28125 710.449219 459.28125 L 710.417969 459.328125 L 710.738281 459.4375 C 710.757812 459.425781 710.792969 459.414062 710.8125 459.402344 C 710.902344 459.347656 710.992188 459.28125 711.011719 459.546875 L 711.066406 459.570312 C 711.066406 459.546875 711.066406 459.535156 711.066406 459.527344 L 711.078125 459.582031 L 711.320312 459.679688 C 711.488281 459.746094 711.640625 459.8125 711.808594 459.890625 C 712.832031 460.386719 714 460.464844 715.191406 460.683594 C 715.777344 460.828125 716.339844 461.035156 716.890625 461.324219 C 717.453125 462.359375 717.808594 462.339844 719.242188 462.589844 C 719.5625 462.648438 719.890625 462.648438 720.222656 462.625 C 720.222656 462.757812 720.210938 462.824219 720.199219 462.84375 C 720.199219 462.835938 720.210938 462.824219 720.222656 462.800781 C 720.222656 462.789062 720.234375 462.777344 720.257812 462.777344 C 720.289062 462.789062 720.398438 462.84375 720.488281 462.878906 C 720.753906 462.835938 720.960938 462.703125 721.160156 462.527344 C 721.933594 462.4375 722.703125 462.339844 723.476562 462.570312 C 724.8125 462.957031 726.101562 464.058594 727.324219 464.71875 C 732.597656 467.589844 736.207031 470.402344 737.164062 476.789062 C 737.914062 481.828125 737.339844 486.945312 735.015625 491.480469 C 732.820312 495.746094 728.890625 497.898438 724.691406 500.003906 C 714.433594 505.167969 700.492188 499.488281 693.730469 490.882812 C 690.640625 486.957031 690.34375 481.035156 690.640625 476.113281 C 691.070312 468.78125 695.152344 464.832031 701.679688 462.105469 C 703.269531 461.445312 705.773438 456.769531 702.75 457.835938 C 697.644531 459.636719 691.136719 462.777344 688.488281 467.765625 C 685.46875 473.457031 684.949219 481.761719 685.898438 488.050781 C 687.011719 495.175781 690.796875 498.957031 696.828125 502.816406 Z M 711.730469 459.425781 C 711.816406 459.347656 711.917969 459.449219 711.960938 459.722656 C 711.816406 459.921875 711.761719 459.703125 711.730469 459.425781 Z M 708.066406 459.601562 C 708.101562 459.691406 708.132812 459.746094 708.167969 459.777344 L 708.023438 459.769531 C 708.023438 459.667969 708.023438 459.546875 708.066406 459.601562 Z M 708.300781 459.789062 C 708.308594 459.777344 708.320312 459.757812 708.34375 459.746094 L 708.320312 459.789062 Z M 708.410156 459.667969 C 708.453125 459.636719 708.488281 459.613281 708.542969 459.636719 C 708.488281 459.703125 708.453125 459.703125 708.410156 459.667969 Z M 708.34375 459.746094 C 708.367188 459.679688 708.355469 459.601562 708.320312 459.527344 C 708.355469 459.589844 708.375 459.648438 708.410156 459.667969 C 708.386719 459.691406 708.367188 459.714844 708.34375 459.746094 Z M 707.8125 458.355469 L 707.503906 458.15625 C 707.582031 458.179688 707.648438 458.203125 707.714844 458.179688 C 707.933594 457.960938 708.144531 457.671875 708.386719 457.441406 C 708.695312 457.320312 708.917969 457.175781 709.28125 457.097656 C 709.511719 457.078125 709.105469 457.773438 708.972656 457.925781 C 708.917969 458.046875 708.808594 457.464844 708.742188 457.574219 C 708.597656 457.574219 708.476562 457.828125 708.34375 457.980469 C 708.289062 458.101562 708.253906 457.574219 708.222656 457.640625 C 708.023438 457.792969 707.957031 458.488281 707.8125 458.355469 Z M 706.820312 459.316406 C 706.820312 459.328125 706.808594 459.328125 706.820312 459.316406 Z M 706.921875 459.527344 C 706.933594 459.546875 706.941406 459.546875 706.953125 459.558594 L 706.910156 459.601562 Z M 707.054688 459.4375 L 706.953125 459.558594 C 707.164062 459.8125 707.21875 459.667969 707.296875 459.492188 L 707.175781 459.25 C 707.140625 459.273438 707.140625 459.328125 707.152344 459.382812 L 707.121094 459.359375 L 707.085938 459.402344 C 706.988281 459.339844 706.898438 459.292969 706.832031 459.316406 C 706.832031 459.347656 706.832031 459.371094 706.832031 459.402344 C 706.898438 459.425781 706.976562 459.4375 707.054688 459.4375 Z M 707.175781 459.4375 C 707.183594 459.480469 707.207031 459.515625 707.242188 459.546875 C 707.195312 459.492188 707.152344 459.46875 707.109375 459.4375 C 707.128906 459.4375 707.152344 459.4375 707.175781 459.4375 Z M 706.777344 459.402344 L 706.820312 459.402344 C 706.832031 459.4375 706.832031 459.46875 706.84375 459.492188 L 706.832031 459.492188 Z M 720.246094 462.84375 Z M 836.765625 635.683594 C 831.394531 635.441406 827.832031 632.289062 822.945312 630.6875 C 818.113281 629.109375 814.339844 627.941406 810.171875 624.898438 C 803.035156 619.691406 795.523438 618.46875 786.820312 620.121094 C 782.066406 621.027344 777.867188 623.1875 773.804688 625.660156 C 773.585938 625.371094 773.289062 625.128906 772.878906 624.941406 C 769.96875 623.628906 768.027344 621.035156 765.554688 619.128906 C 763.273438 617.375 760.703125 615.917969 758.15625 614.605469 C 752.011719 611.429688 744.964844 608.019531 738.210938 606.554688 C 723.808594 603.445312 709.875 599.539062 696.054688 594.277344 C 689.96875 591.960938 683.96875 589.257812 678.398438 585.882812 C 672.617188 582.375 667.488281 577.667969 661.488281 574.546875 C 655.554688 571.457031 648.230469 570.664062 641.867188 568.722656 C 634.621094 566.515625 627.515625 564.023438 620.171875 562.136719 C 613.785156 560.492188 608.246094 559.832031 601.671875 559.554688 C 594.691406 559.257812 587.523438 557.847656 580.5625 558.550781 C 573.636719 559.257812 567.84375 558.375 561.027344 557.492188 C 554.023438 556.578125 547.429688 557.613281 540.488281 557.679688 C 533.894531 557.734375 528.367188 558.773438 521.972656 560.097656 C 521.1875 560.261719 520.40625 560.371094 519.621094 560.472656 C 520.074219 559.5 520.339844 558.484375 520.328125 557.503906 C 520.238281 550.039062 516.84375 542.921875 516.5 535.566406 C 516.335938 532.113281 516.644531 528.519531 516.84375 525.066406 C 517.050781 521.492188 518.265625 518.734375 519.113281 515.304688 C 520.601562 509.335938 521.441406 501.0625 520.449219 494.953125 C 519.898438 491.589844 519.820312 488.996094 520.21875 485.566406 C 520.601562 482.269531 521.097656 478.683594 520.902344 475.363281 C 520.714844 472.277344 519.785156 469.332031 519.972656 466.199219 C 520.105469 464.027344 520.359375 459.339844 521.320312 457.761719 C 522.65625 455.578125 524.804688 454.144531 525.789062 451.539062 C 526.238281 450.335938 526.339844 449.113281 526.601562 447.890625 C 527.023438 445.925781 527.605469 444.523438 528.535156 442.703125 C 531.699219 436.515625 532.890625 429.855469 536.132812 423.777344 C 538.097656 420.105469 543.511719 412.714844 541.933594 408.390625 C 541.316406 406.691406 538.980469 409.382812 538.648438 409.980469 C 535.117188 416.289062 530.882812 422.277344 527.761719 428.839844 C 525.015625 434.609375 520.304688 440.707031 519.179688 447.074219 C 518.59375 450.414062 518.707031 453.4375 517.78125 456.769531 C 517.105469 459.171875 516.421875 461.53125 515.285156 463.949219 C 512.398438 470.113281 511.546875 475.972656 510.972656 482.765625 C 510.675781 486.285156 510.367188 489.757812 509.96875 493.265625 C 509.617188 496.355469 510.246094 498.4375 510.609375 501.394531 C 511.027344 504.78125 510.027344 508.554688 509.75 511.972656 C 509.484375 515.160156 510.046875 518.402344 509.882812 521.46875 C 509.816406 522.804688 508.933594 524.292969 508.710938 525.683594 C 508.425781 527.46875 508.316406 529.234375 507.984375 531.023438 C 507.324219 534.574219 506.375 538.082031 506.199219 541.699219 C 505.867188 548.59375 508.835938 555.289062 509.21875 562.171875 C 505.976562 563.0625 502.800781 564.132812 499.46875 564.75 C 493.480469 565.855469 488.273438 568.988281 482.570312 571.027344 C 476.75 573.121094 471.179688 574.746094 465.871094 577.964844 C 452.097656 586.324219 439.46875 595.8125 426.714844 605.660156 C 415.191406 614.5625 401.789062 620.144531 391.695312 630.898438 C 390.273438 630.5 388.851562 630.160156 387.285156 630.046875 C 382.320312 629.671875 378.582031 628.105469 374.082031 626.078125 C 369.0625 623.804688 366.140625 623.550781 360.910156 625.019531 C 356.652344 626.222656 352.097656 626.914062 348.238281 629.1875 C 343.925781 631.726562 339.625 634.261719 335.574219 637.238281 C 333.644531 638.664062 330.503906 642.710938 331.769531 645.3125 C 333.148438 648.148438 336.734375 645.988281 338.386719 644.738281 C 344.742188 639.953125 353.148438 634.945312 361.054688 633.402344 C 365.457031 632.542969 370.066406 635.628906 374.113281 637.117188 C 378.59375 638.773438 383.246094 638.289062 387.824219 639.480469 C 391.761719 640.503906 395.84375 641.363281 399.804688 642.214844 C 404.378906 643.207031 409.828125 642.347656 414.460938 642.292969 C 423.394531 642.179688 432.097656 642.125 440.371094 638.375 C 446.902344 635.417969 453.035156 632.519531 459.550781 629.585938 C 468.277344 625.660156 478.414062 630.964844 486.6875 633.566406 C 491.308594 635.023438 495.542969 635.078125 499.765625 637.605469 C 502.964844 639.523438 506.152344 640.703125 509.902344 640.734375 C 514.65625 640.78125 518.34375 642.414062 522.953125 643.03125 C 527.664062 643.671875 532.824219 642.808594 537.28125 641.277344 C 540.753906 640.085938 544.363281 638.671875 547.382812 636.554688 C 551.035156 633.984375 553.242188 630.039062 556.78125 627.390625 C 560.355469 624.710938 564.820312 622.867188 568.726562 620.695312 C 573.292969 618.148438 577.617188 617.726562 582.757812 617.652344 C 584.90625 617.617188 587.554688 617.464844 589.253906 619.105469 C 590.5 620.308594 590.886719 622.382812 592.066406 623.707031 C 594.878906 626.859375 600.140625 628.371094 603.691406 630.699219 C 607.476562 633.179688 611.292969 633.796875 615.195312 635.90625 C 618.945312 637.921875 622.5625 639.3125 626.832031 639.863281 C 634.875 640.890625 642.109375 642.46875 649.664062 638.355469 C 651.78125 637.195312 653.757812 634.988281 656.117188 634.394531 C 657.949219 633.929688 659.976562 634.417969 661.886719 633.910156 C 665.855469 632.871094 669.949219 630.863281 673.390625 628.636719 C 677.535156 625.945312 680.226562 624.125 685.421875 624.410156 C 691.015625 624.710938 696.585938 625.703125 701.429688 628.601562 C 705 630.742188 708.519531 632.363281 712.414062 633.863281 C 717.113281 635.671875 720.742188 638.75 725.199219 640.890625 C 732.90625 644.597656 744.71875 644.332031 752.671875 641.683594 C 756.929688 640.261719 761.144531 639.070312 765.167969 637.019531 C 769.195312 634.96875 772.902344 632.320312 776.949219 630.324219 C 781.660156 627.984375 786.171875 627.65625 791.320312 627.542969 C 797.652344 627.402344 801.316406 630.445312 806.34375 633.710938 C 810.292969 636.28125 814.375 636.941406 818.742188 638.453125 C 821.125 639.28125 823.132812 640.835938 825.425781 641.804688 C 828.007812 642.898438 830.609375 643.050781 833.367188 643.140625 C 836.300781 643.230469 841.132812 635.882812 836.765625 635.683594 Z M 738.113281 634.648438 C 733.082031 633.898438 729.828125 631.789062 725.550781 629.230469 C 721.832031 627.015625 717.695312 625.878906 713.738281 624.214844 C 709.4375 622.414062 705.816406 619.414062 701.296875 618.148438 C 696.796875 616.878906 691.589844 616.679688 686.933594 617.089844 C 677.988281 617.882812 672.859375 625.667969 664.765625 628.769531 C 661.742188 629.925781 658.410156 630.722656 655.203125 630.566406 C 653.746094 630.488281 652.578125 630.3125 651.121094 630.699219 C 649.035156 631.261719 647.335938 632.332031 645.121094 632.605469 C 642.285156 632.960938 640.113281 632.398438 637.355469 632.042969 C 633.097656 631.515625 629.027344 631.691406 624.925781 630.167969 C 623.039062 629.464844 621.371094 628.359375 619.542969 627.542969 C 616.738281 626.308594 614.027344 626.265625 611.355469 624.621094 C 607.960938 622.527344 604.738281 620.53125 601.210938 618.6875 C 597.382812 616.679688 596.953125 611.949219 592.761719 610.449219 C 586.617188 608.265625 576.65625 609.875 571.097656 612.820312 C 563.265625 616.964844 555.304688 620.9375 549.324219 627.621094 C 545.652344 631.734375 540.621094 634.03125 535.128906 634.945312 C 529.527344 635.871094 525.234375 634.261719 519.898438 633.167969 C 515.429688 632.253906 511.316406 633.402344 507.070312 631.140625 C 505.625 630.367188 504.367188 629.265625 502.890625 628.570312 C 500.515625 627.457031 497.871094 627.390625 495.34375 626.894531 C 490.878906 626 486.894531 623.914062 482.59375 622.558594 C 478.589844 621.300781 474.621094 621.15625 470.472656 620.992188 C 466.601562 620.839844 463.753906 621.09375 460.292969 622.855469 C 456.9375 624.554688 453.332031 625.328125 450.144531 627.246094 C 440.207031 633.203125 430.445312 634.757812 418.960938 634.625 C 413.292969 634.558594 407.777344 634.914062 402.382812 633.257812 C 401.09375 632.859375 399.78125 632.664062 398.457031 632.476562 C 401.898438 629.519531 405.539062 627.421875 409.566406 624.808594 C 415.277344 621.082031 420.417969 615.917969 425.898438 611.792969 C 437.105469 603.367188 447.738281 593.75 459.871094 586.625 C 462.707031 584.957031 465.542969 583.027344 468.464844 581.550781 C 470.746094 580.390625 473.316406 580.160156 475.65625 579.1875 C 481.8125 576.628906 489.332031 573.453125 495.941406 572.417969 C 502.269531 571.425781 508.214844 569.304688 514.601562 568.613281 C 521.210938 567.894531 527.320312 565.445312 534.046875 565.546875 C 540.722656 565.644531 547.109375 564.5625 553.847656 565.082031 C 560.101562 565.566406 565.925781 566.925781 572.265625 566.40625 C 578.699219 565.886719 584.90625 564.398438 591.382812 564.496094 C 598.53125 564.597656 605.863281 564.507812 612.769531 566.460938 C 626.160156 570.242188 639.59375 574.65625 652.796875 579.046875 C 658.578125 580.964844 663.199219 585.332031 668.0625 588.851562 C 673.300781 592.632812 678.882812 595.84375 684.773438 598.515625 C 698.757812 604.84375 714.652344 610.582031 729.796875 613.09375 C 737.640625 614.398438 745.039062 617.429688 751.722656 621.777344 C 756.003906 624.554688 759.445312 628.890625 763.527344 631.914062 C 755.660156 635.761719 746.78125 635.9375 738.113281 634.648438 Z M 552.191406 375.621094 C 551.917969 373.570312 554.113281 370.867188 555.558594 369.753906 C 559.648438 366.621094 563.003906 363.566406 566.664062 359.945312 C 569.222656 357.421875 572.078125 355.855469 575.464844 354.730469 C 579.890625 353.261719 584.203125 352.867188 587.742188 349.613281 C 590.203125 347.363281 592.332031 344.859375 595.453125 343.46875 C 602.28125 340.433594 610.617188 337.136719 618.230469 337.171875 C 622.53125 337.191406 626.3125 338.03125 630.671875 337.367188 C 634.253906 336.828125 638.886719 335.890625 642.253906 337.546875 C 643.972656 338.394531 641.558594 340.976562 640.5 341.316406 C 636.9375 342.488281 633.351562 341.945312 629.667969 342.441406 C 625.53125 343.003906 621.460938 343.058594 617.300781 343.335938 C 608.855469 343.910156 599.035156 345.828125 593.035156 352.203125 C 590.433594 354.972656 588.128906 357.949219 584.851562 359.980469 C 581.621094 361.976562 577.957031 363.089844 574.40625 364.347656 C 570.316406 365.792969 568.5625 368.40625 565.296875 371.253906 C 562.328125 373.84375 559.140625 375.730469 555.601562 377.429688 C 553.871094 378.289062 552.433594 377.351562 552.191406 375.621094 Z M 553.054688 389.828125 C 559.140625 381.90625 568.902344 376.769531 578.984375 378.234375 C 584.753906 379.074219 591.292969 376.402344 597.28125 376.292969 C 602.5 376.207031 606.292969 376.945312 611.257812 378.277344 C 616.839844 379.769531 622.597656 378.699219 628.289062 379.976562 C 633.316406 381.113281 639.054688 382.789062 643.585938 385.328125 C 646.960938 387.214844 649.476562 391.40625 652.179688 394.207031 C 653.976562 396.070312 654.328125 397.472656 655.421875 399.5 C 656.667969 401.792969 658.863281 403.042969 659.964844 405.46875 C 660.617188 406.902344 657.339844 410.664062 656.082031 409.207031 C 653.425781 406.128906 649.972656 403.835938 647.074219 401.054688 C 644.511719 398.597656 641.722656 395.617188 638.632812 394.140625 C 634.796875 392.296875 630.871094 390.566406 626.910156 388.988281 C 622.507812 387.234375 618.042969 387.113281 613.585938 385.96875 C 604.738281 383.695312 595.285156 381.179688 586.054688 383.164062 C 581.136719 384.222656 575.730469 385.890625 571.03125 387.644531 C 567.347656 389.011719 561.84375 389.972656 559.351562 393.125 C 558.191406 394.582031 554.808594 397.207031 552.746094 395.914062 C 550.671875 394.625 551.851562 391.382812 553.054688 389.828125 Z M 499.953125 297.539062 C 499.128906 296.757812 501.035156 294.761719 501.960938 295.3125 C 508.964844 299.46875 516.953125 304.277344 521.417969 311.273438 C 523.160156 313.996094 525.046875 316.488281 526.890625 319.125 C 529.261719 322.542969 530.054688 326.613281 531.644531 330.398438 C 533.175781 334.039062 536.453125 335.703125 537.632812 339.421875 C 538.945312 343.558594 538.78125 348.332031 539.464844 352.613281 C 540.238281 357.433594 541.933594 362.03125 543.125 366.753906 C 544.261719 371.273438 544.285156 375.5 544.25 380.152344 C 544.230469 383.5625 536.242188 389.804688 536.175781 384.964844 C 536.109375 379.835938 535.582031 375.609375 534.027344 370.722656 C 532.679688 366.53125 531.246094 362.417969 530.441406 358.082031 C 529.8125 354.707031 529.835938 349.117188 527.949219 346.191406 C 527.011719 344.746094 525.566406 344.371094 524.441406 343.058594 C 523.304688 341.738281 522.785156 339.828125 522.222656 338.21875 C 520.789062 334.058594 520.878906 329.425781 519.390625 325.355469 C 518.871094 323.945312 517.878906 322.765625 517.359375 321.351562 C 516.644531 319.390625 516.898438 317.273438 516.167969 315.296875 C 513.367188 307.664062 505.601562 302.867188 499.953125 297.539062 Z M 436.367188 371.085938 C 440.59375 370.710938 444.53125 369.433594 448.632812 368.496094 C 453.066406 367.480469 457.378906 367.710938 461.867188 367.523438 C 465.917969 367.359375 469.359375 367.789062 473.25 368.902344 C 476.992188 369.960938 480.320312 372.390625 484.136719 372.808594 C 493.015625 373.800781 501.707031 375.398438 510.136719 378.324219 C 513.597656 379.523438 516.742188 379.679688 519.941406 381.730469 C 522.875 383.605469 525.113281 386.230469 528.015625 388.105469 C 529.636719 389.15625 528.101562 392.519531 527.332031 393.511719 C 527.15625 393.730469 526.988281 393.953125 526.8125 394.171875 C 525.578125 395.773438 523.414062 398.175781 521.066406 397.660156 C 517.867188 396.941406 516.082031 394.039062 513.652344 392.089844 C 510.542969 389.59375 507.203125 388.902344 503.671875 387.269531 C 496.117188 383.761719 486.652344 379.691406 478.3125 379.867188 C 474.375 379.957031 470.824219 380.773438 466.875 379.890625 C 463.082031 379.039062 459.15625 378.222656 455.425781 377.253906 C 450.882812 376.074219 446.757812 374.859375 442.003906 375.996094 C 438.96875 376.710938 436.101562 377.660156 432.96875 377.109375 C 429.992188 376.601562 434.589844 371.242188 436.367188 371.085938 Z M 576.964844 473.3125 C 579.019531 468.050781 580.394531 462.902344 580.441406 457.320312 C 580.460938 453.855469 580.375 450.480469 580.164062 447.027344 C 579.921875 443.035156 578.554688 440.34375 577.574219 436.617188 C 576.8125 433.714844 576.964844 431.277344 575.453125 428.585938 C 573.644531 425.367188 571.949219 421.859375 569.886719 418.792969 C 567.644531 415.449219 564.292969 414.578125 560.894531 412.824219 C 558.105469 411.378906 556.5625 409.273438 553.261719 408.777344 C 552.445312 408.65625 553.660156 406.96875 554.265625 406.988281 C 562.109375 407.253906 568.847656 408.300781 575.753906 412.273438 C 578.421875 413.804688 581.675781 417.535156 583.144531 420.136719 C 585.414062 424.152344 583.550781 426.183594 583.761719 430.449219 C 583.949219 434.398438 586.585938 438.027344 587.410156 441.867188 C 588.171875 445.417969 587.984375 449.015625 588.402344 452.578125 C 588.769531 455.664062 589.054688 457.628906 588.414062 460.816406 C 587.6875 464.410156 586.761719 467.820312 585.535156 471.261719 C 584.632812 473.789062 582.316406 477.328125 579.304688 477.703125 C 576.203125 478.078125 576.027344 475.707031 576.964844 473.3125 Z M 492.609375 418.570312 C 493.015625 418.007812 493.371094 417.402344 493.886719 416.894531 C 495.597656 415.230469 497.835938 413.960938 499.910156 412.800781 C 507.542969 408.554688 513.796875 404.894531 522.84375 404.683594 C 528.535156 404.550781 522.28125 414.457031 518.296875 414.535156 C 512.816406 414.644531 506.707031 415.636719 501.578125 417.3125 C 499.765625 417.898438 497.242188 418.902344 496.195312 420.039062 C 495.367188 420.941406 494.429688 422.828125 493.28125 424 C 489.476562 427.859375 484.625 429.746094 480.566406 433.140625 C 478.070312 435.226562 477.410156 437.730469 475.84375 440.398438 C 475.148438 441.589844 473.558594 442.714844 473.230469 444.074219 C 472.910156 445.363281 468.519531 449.101562 468.695312 446.257812 C 468.816406 444.371094 469.734375 442.925781 470.660156 441.335938 C 472.371094 438.414062 473.738281 435.269531 475.433594 432.316406 C 478.535156 426.941406 484.625 423.203125 489.894531 420.191406 C 490.734375 419.707031 493.007812 417.898438 492.609375 418.570312 Z M 492.609375 418.570312 " fill-opacity="1" fill-rule="nonzero"/><g clip-path="url(#4119fa9f44)"><g transform="matrix(1, 0, 0, 1, 30, 452)"><g clip-path="url(#e6edf8ef7f)"><g fill="#000000" fill-opacity="1"><g transform="translate(1.205469, 242.133338)"><g><path d="M 83.921875 5.328125 C 81.972656 6.460938 80.113281 5.976562 78.34375 3.875 C 77.851562 3.226562 77.445312 2.539062 77.125 1.8125 C 76.800781 1.09375 76.476562 0.40625 76.15625 -0.25 C 75.019531 -2.34375 73.882812 -4.441406 72.75 -6.546875 C 71.625 -8.648438 70.332031 -10.671875 68.875 -12.609375 C 66.613281 -16.171875 64.675781 -19.847656 63.0625 -23.640625 C 61.445312 -27.441406 59.910156 -31.203125 58.453125 -34.921875 C 56.835938 -39.285156 55.378906 -43.726562 54.078125 -48.25 C 52.785156 -52.78125 51.414062 -57.234375 49.96875 -61.609375 C 49.476562 -63.867188 48.910156 -65.644531 48.265625 -66.9375 C 47.453125 -69.195312 46.238281 -69.359375 44.625 -67.421875 C 42.519531 -64.835938 40.660156 -62.25 39.046875 -59.65625 C 36.460938 -55.132812 33.875 -50.648438 31.28125 -46.203125 C 28.695312 -41.753906 26.113281 -37.265625 23.53125 -32.734375 C 23.039062 -31.765625 22.507812 -30.914062 21.9375 -30.1875 C 21.375 -29.46875 20.445312 -28.945312 19.15625 -28.625 C 16.40625 -28.132812 14.46875 -29.101562 13.34375 -31.53125 C 12.53125 -33.3125 12.125 -35.050781 12.125 -36.75 C 12.125 -38.445312 12.691406 -40.179688 13.828125 -41.953125 C 17.546875 -47.453125 21.222656 -53.03125 24.859375 -58.6875 C 28.492188 -64.351562 32.09375 -70.015625 35.65625 -75.671875 L 38.3125 -80.28125 C 39.445312 -82.21875 39.445312 -84.15625 38.3125 -86.09375 C 37.664062 -87.382812 37.140625 -88.835938 36.734375 -90.453125 C 36.335938 -92.078125 36.054688 -93.695312 35.890625 -95.3125 C 35.410156 -98.0625 36.707031 -99.273438 39.78125 -98.953125 C 40.101562 -98.953125 40.34375 -98.867188 40.5 -98.703125 C 43.570312 -97.410156 46.035156 -97.332031 47.890625 -98.46875 C 49.753906 -99.601562 51.414062 -101.378906 52.875 -103.796875 L 75.671875 -139.453125 C 76.640625 -141.066406 77.566406 -141.992188 78.453125 -142.234375 C 79.347656 -142.484375 80.519531 -142.039062 81.96875 -140.90625 L 84.890625 -138.25 C 86.179688 -136.945312 86.90625 -135.8125 87.0625 -134.84375 C 87.226562 -133.875 86.90625 -132.660156 86.09375 -131.203125 L 84.640625 -129.265625 C 82.054688 -125.222656 79.347656 -121.257812 76.515625 -117.375 C 73.691406 -113.5 70.90625 -109.625 68.15625 -105.75 C 67.988281 -105.425781 67.820312 -105.0625 67.65625 -104.65625 C 67.5 -104.25 67.34375 -103.882812 67.1875 -103.5625 C 66.863281 -101.78125 67.347656 -101.132812 68.640625 -101.625 C 71.390625 -102.425781 74.097656 -103.148438 76.765625 -103.796875 C 79.429688 -104.453125 82.054688 -105.34375 84.640625 -106.46875 C 90.140625 -108.894531 95.472656 -111.644531 100.640625 -114.71875 C 105.816406 -117.789062 110.75 -121.1875 115.4375 -124.90625 C 118.1875 -127.164062 120.816406 -129.507812 123.328125 -131.9375 C 125.835938 -134.363281 128.140625 -137.113281 130.234375 -140.1875 C 130.722656 -140.832031 131.207031 -141.476562 131.6875 -142.125 C 132.175781 -142.769531 132.582031 -143.414062 132.90625 -144.0625 C 134.84375 -147.78125 134.273438 -151.175781 131.203125 -154.25 C 126.359375 -158.613281 120.863281 -161.117188 114.71875 -161.765625 C 108.738281 -162.578125 102.675781 -162.78125 96.53125 -162.375 C 90.382812 -161.96875 84.320312 -160.875 78.34375 -159.09375 C 74.945312 -157.96875 71.507812 -156.878906 68.03125 -155.828125 C 64.550781 -154.773438 61.195312 -153.601562 57.96875 -152.3125 C 53.4375 -150.53125 49.023438 -148.382812 44.734375 -145.875 C 40.453125 -143.375 36.453125 -140.503906 32.734375 -137.265625 C 31.609375 -136.460938 30.519531 -135.695312 29.46875 -134.96875 C 28.414062 -134.238281 27.320312 -133.472656 26.1875 -132.671875 C 26.03125 -132.503906 25.628906 -132.582031 24.984375 -132.90625 C 24.335938 -133.226562 23.929688 -133.550781 23.765625 -133.875 C 21.179688 -139.851562 22.3125 -144.539062 27.15625 -147.9375 C 31.851562 -151.5 36.664062 -154.65625 41.59375 -157.40625 C 46.519531 -160.15625 51.734375 -162.414062 57.234375 -164.1875 C 59.503906 -165 61.8125 -165.769531 64.15625 -166.5 C 66.5 -167.226562 68.71875 -167.914062 70.8125 -168.5625 C 81.644531 -172.28125 92.398438 -174.140625 103.078125 -174.140625 C 105.179688 -173.972656 107.203125 -173.847656 109.140625 -173.765625 C 111.078125 -173.691406 113.015625 -173.492188 114.953125 -173.171875 C 126.765625 -171.222656 135.660156 -165.078125 141.640625 -154.734375 C 144.390625 -150.523438 144.875 -146.238281 143.09375 -141.875 C 141.957031 -138.96875 140.660156 -136.054688 139.203125 -133.140625 C 137.753906 -130.234375 135.578125 -127.890625 132.671875 -126.109375 C 132.335938 -125.953125 132.085938 -125.710938 131.921875 -125.390625 C 131.765625 -125.066406 131.523438 -124.742188 131.203125 -124.421875 C 126.359375 -118.765625 120.90625 -113.910156 114.84375 -109.859375 C 108.78125 -105.816406 102.429688 -102.257812 95.796875 -99.1875 L 86.34375 -94.59375 C 83.425781 -93.457031 80.472656 -92.320312 77.484375 -91.1875 C 74.492188 -90.0625 71.382812 -89.335938 68.15625 -89.015625 C 67.019531 -89.015625 65.925781 -88.929688 64.875 -88.765625 C 63.820312 -88.609375 62.734375 -88.363281 61.609375 -88.03125 C 57.398438 -86.90625 54.929688 -85.367188 54.203125 -83.421875 C 53.472656 -81.484375 53.753906 -78.816406 55.046875 -75.421875 C 56.671875 -71.378906 58.007812 -67.21875 59.0625 -62.9375 C 60.113281 -58.65625 61.203125 -54.410156 62.328125 -50.203125 C 64.429688 -42.273438 67.503906 -34.59375 71.546875 -27.15625 C 74.453125 -21.664062 77.847656 -16.332031 81.734375 -11.15625 C 83.023438 -9.695312 84.070312 -8.117188 84.875 -6.421875 C 85.6875 -4.722656 86.414062 -2.988281 87.0625 -1.21875 C 88.039062 1.375 86.992188 3.554688 83.921875 5.328125 Z M 83.921875 5.328125 "/></g></g></g><g fill="#000000" fill-opacity="1"><g transform="translate(125.865103, 242.133338)"><g><path d="M 1.453125 -27.15625 C -0.160156 -27.8125 -1.613281 -29.226562 -2.90625 -31.40625 C -4.195312 -33.59375 -4.84375 -35.976562 -4.84375 -38.5625 L -4.609375 -40.75 C -4.765625 -43.007812 -4.519531 -45.226562 -3.875 -47.40625 C -3.226562 -49.59375 -2.34375 -51.738281 -1.21875 -53.84375 C 0.5625 -57.070312 2.300781 -60.382812 4 -63.78125 C 5.695312 -67.175781 7.515625 -70.410156 9.453125 -73.484375 C 11.234375 -76.398438 13.132812 -79.3125 15.15625 -82.21875 C 17.175781 -85.125 19.316406 -87.875 21.578125 -90.46875 C 23.359375 -92.238281 25.335938 -93.929688 27.515625 -95.546875 C 29.703125 -97.171875 32.332031 -97.335938 35.40625 -96.046875 C 36.863281 -95.398438 37.957031 -94.953125 38.6875 -94.703125 C 39.414062 -94.460938 40.265625 -93.695312 41.234375 -92.40625 C 41.390625 -92.40625 42.195312 -92.363281 43.65625 -92.28125 C 45.113281 -92.195312 46.691406 -92.15625 48.390625 -92.15625 C 50.085938 -92.15625 51.335938 -92.15625 52.140625 -92.15625 C 54.566406 -92.15625 57.554688 -92.234375 61.109375 -92.390625 C 64.671875 -92.554688 67.945312 -92.679688 70.9375 -92.765625 C 73.925781 -92.847656 75.664062 -92.890625 76.15625 -92.890625 C 78.414062 -92.890625 79.460938 -92.28125 79.296875 -91.0625 C 79.140625 -89.851562 78.414062 -88.679688 77.125 -87.546875 C 75.832031 -86.421875 74.703125 -85.773438 73.734375 -85.609375 C 72.109375 -85.609375 69.757812 -85.488281 66.6875 -85.25 C 63.625 -85.007812 60.554688 -84.804688 57.484375 -84.640625 C 54.410156 -84.484375 52.066406 -84.40625 50.453125 -84.40625 C 47.703125 -84.40625 45.800781 -84.28125 44.75 -84.03125 C 43.695312 -83.789062 43.007812 -83.023438 42.6875 -81.734375 C 42.363281 -80.441406 41.878906 -78.257812 41.234375 -75.1875 C 40.265625 -70.976562 38.726562 -67.015625 36.625 -63.296875 C 34.519531 -59.578125 32.335938 -55.941406 30.078125 -52.390625 C 27.484375 -48.828125 24.648438 -45.347656 21.578125 -41.953125 C 18.515625 -38.554688 15.523438 -35.160156 12.609375 -31.765625 L 12.125 -31.046875 C 10.507812 -29.585938 8.890625 -28.410156 7.265625 -27.515625 C 5.648438 -26.628906 3.710938 -26.507812 1.453125 -27.15625 Z M 8.734375 -44.875 C 9.210938 -45.195312 9.691406 -45.4375 10.171875 -45.59375 C 10.660156 -45.757812 11.070312 -46.003906 11.40625 -46.328125 C 15.28125 -50.046875 18.753906 -54.085938 21.828125 -58.453125 C 24.898438 -62.816406 27.726562 -67.34375 30.3125 -72.03125 C 30.957031 -73.164062 31.441406 -74.378906 31.765625 -75.671875 C 32.085938 -76.960938 32.410156 -78.253906 32.734375 -79.546875 C 32.898438 -79.867188 32.859375 -80.269531 32.609375 -80.75 C 32.367188 -81.238281 32.085938 -81.726562 31.765625 -82.21875 C 30.796875 -81.894531 30.148438 -81.570312 29.828125 -81.25 C 24.984375 -76.71875 20.898438 -71.625 17.578125 -65.96875 C 14.265625 -60.3125 11.15625 -54.570312 8.25 -48.75 C 7.925781 -47.78125 7.765625 -46.972656 7.765625 -46.328125 C 7.765625 -46.328125 8.085938 -45.84375 8.734375 -44.875 Z M 8.734375 -44.875 "/></g></g></g><g fill="#000000" fill-opacity="1"><g transform="translate(176.068489, 242.133338)"><g><path d="M -22.078125 45.84375 C -24.015625 45.519531 -25.265625 44.585938 -25.828125 43.046875 C -26.390625 41.515625 -26.390625 39.816406 -25.828125 37.953125 C -25.265625 36.097656 -24.414062 34.6875 -23.28125 33.71875 C -22.3125 32.90625 -21.179688 32.253906 -19.890625 31.765625 C -18.597656 31.285156 -17.382812 30.722656 -16.25 30.078125 C -12.039062 27.160156 -7.226562 22.832031 -1.8125 17.09375 C 3.601562 11.351562 8.171875 5.570312 11.890625 -0.25 C 14.472656 -4.289062 16.976562 -8.367188 19.40625 -12.484375 C 21.832031 -16.609375 24.335938 -20.691406 26.921875 -24.734375 C 28.210938 -27.003906 29.546875 -29.3125 30.921875 -31.65625 C 32.296875 -34 33.550781 -36.300781 34.6875 -38.5625 C 35.007812 -39.050781 34.925781 -39.535156 34.4375 -40.015625 C 33.957031 -40.503906 33.554688 -40.585938 33.234375 -40.265625 C 31.285156 -39.128906 29.378906 -37.875 27.515625 -36.5 C 25.660156 -35.125 23.847656 -33.789062 22.078125 -32.5 C 20.296875 -31.363281 18.515625 -30.1875 16.734375 -28.96875 C 14.953125 -27.757812 13.09375 -26.753906 11.15625 -25.953125 C 6.625 -23.847656 2.988281 -24.976562 0.25 -29.34375 C -1.375 -31.601562 -2.425781 -33.421875 -2.90625 -34.796875 C -3.394531 -36.171875 -3.640625 -38.394531 -3.640625 -41.46875 C -3.316406 -42.4375 -2.992188 -43.769531 -2.671875 -45.46875 C -2.347656 -47.164062 -1.941406 -48.828125 -1.453125 -50.453125 C 0.328125 -55.785156 2.75 -60.710938 5.8125 -65.234375 C 8.882812 -69.765625 12.28125 -74.050781 16 -78.09375 C 18.75 -81 21.660156 -83.867188 24.734375 -86.703125 C 27.804688 -89.535156 31.203125 -91.835938 34.921875 -93.609375 C 40.578125 -96.359375 45.628906 -97.003906 50.078125 -95.546875 C 54.523438 -94.097656 58.046875 -90.546875 60.640625 -84.890625 C 61.117188 -83.921875 61.722656 -83.191406 62.453125 -82.703125 C 63.179688 -82.210938 63.867188 -81.726562 64.515625 -81.25 C 66.941406 -79.957031 68.351562 -78.625 68.75 -77.25 C 69.15625 -75.875 68.796875 -73.890625 67.671875 -71.296875 C 67.023438 -70.003906 66.375 -68.710938 65.71875 -67.421875 C 65.070312 -66.128906 64.347656 -64.835938 63.546875 -63.546875 C 61.273438 -59.984375 59.046875 -56.421875 56.859375 -52.859375 C 54.679688 -49.304688 52.546875 -45.671875 50.453125 -41.953125 C 47.703125 -36.785156 44.707031 -31.734375 41.46875 -26.796875 C 38.238281 -21.867188 35.085938 -16.898438 32.015625 -11.890625 C 27.484375 -4.609375 23.113281 1.613281 18.90625 6.78125 C 14.707031 11.957031 9.78125 17.863281 4.125 24.5 C 2.019531 27.082031 -0.160156 29.625 -2.421875 32.125 C -4.691406 34.632812 -7.035156 37.101562 -9.453125 39.53125 C -10.910156 40.664062 -12.851562 42.039062 -15.28125 43.65625 C -17.707031 45.269531 -19.972656 46 -22.078125 45.84375 Z M 9.703125 -40.015625 C 10.347656 -40.179688 10.992188 -40.34375 11.640625 -40.5 C 12.285156 -40.664062 12.851562 -40.910156 13.34375 -41.234375 C 15.4375 -42.679688 17.492188 -44.09375 19.515625 -45.46875 C 21.546875 -46.84375 23.609375 -48.34375 25.703125 -49.96875 C 28.941406 -52.707031 32.378906 -55.367188 36.015625 -57.953125 C 39.648438 -60.546875 42.765625 -63.539062 45.359375 -66.9375 C 46.328125 -68.226562 47.296875 -69.882812 48.265625 -71.90625 C 49.234375 -73.925781 49.796875 -75.988281 49.953125 -78.09375 C 50.117188 -80.195312 49.472656 -81.894531 48.015625 -83.1875 L 47.53125 -83.671875 C 46.082031 -84.804688 44.347656 -84.804688 42.328125 -83.671875 C 40.304688 -82.535156 38.644531 -81.566406 37.34375 -80.765625 C 33.300781 -78.171875 29.785156 -75.132812 26.796875 -71.65625 C 23.804688 -68.1875 20.773438 -64.753906 17.703125 -61.359375 C 15.597656 -58.929688 13.859375 -56.257812 12.484375 -53.34375 C 11.109375 -50.4375 9.9375 -47.453125 8.96875 -44.390625 C 8.8125 -43.734375 8.851562 -43.039062 9.09375 -42.3125 C 9.332031 -41.59375 9.535156 -40.828125 9.703125 -40.015625 Z M 9.703125 -40.015625 "/></g></g></g><g fill="#000000" fill-opacity="1"><g transform="translate(247.371862, 242.133338)"><g><path d="M 13.578125 -27.15625 C 6.460938 -25.382812 1.367188 -27.894531 -1.703125 -34.6875 C -3.316406 -38.238281 -4.320312 -41.789062 -4.71875 -45.34375 C -5.125 -48.90625 -4.765625 -52.546875 -3.640625 -56.265625 C -2.179688 -60.472656 0 -64.234375 2.90625 -67.546875 C 5.820312 -70.859375 8.734375 -74.210938 11.640625 -77.609375 C 14.710938 -81.328125 17.863281 -84.722656 21.09375 -87.796875 C 24.332031 -90.867188 27.972656 -93.695312 32.015625 -96.28125 C 33.953125 -97.414062 35.972656 -98.265625 38.078125 -98.828125 C 40.179688 -99.398438 42.363281 -99.195312 44.625 -98.21875 C 48.832031 -96.769531 51.617188 -95.035156 52.984375 -93.015625 C 54.359375 -90.992188 55.128906 -88.285156 55.296875 -84.890625 C 55.460938 -81.171875 54.53125 -77.773438 52.5 -74.703125 C 50.476562 -71.628906 47.851562 -69.445312 44.625 -68.15625 C 41.394531 -67.019531 38.160156 -65.925781 34.921875 -64.875 C 31.691406 -63.820312 28.457031 -62.8125 25.21875 -61.84375 C 23.445312 -61.195312 21.585938 -60.671875 19.640625 -60.265625 C 17.703125 -59.859375 15.84375 -59.414062 14.0625 -58.9375 C 13.414062 -58.769531 12.8125 -58.566406 12.25 -58.328125 C 11.6875 -58.085938 11.238281 -57.722656 10.90625 -57.234375 C 9.457031 -54.648438 8.207031 -51.984375 7.15625 -49.234375 C 6.101562 -46.484375 5.898438 -43.492188 6.546875 -40.265625 C 7.035156 -37.347656 8.453125 -35.96875 10.796875 -36.125 C 13.140625 -36.289062 15.765625 -37.222656 18.671875 -38.921875 C 21.585938 -40.617188 24.175781 -42.359375 26.4375 -44.140625 C 28.695312 -45.921875 29.910156 -46.890625 30.078125 -47.046875 C 30.878906 -47.691406 32.453125 -48.742188 34.796875 -50.203125 C 37.140625 -51.660156 38.800781 -52.710938 39.78125 -53.359375 C 41.550781 -54.648438 43.003906 -55.859375 44.140625 -56.984375 C 45.273438 -58.117188 46.726562 -59.253906 48.5 -60.390625 C 51.738281 -62.816406 55.054688 -65.238281 58.453125 -67.65625 C 61.847656 -70.082031 65.320312 -72.269531 68.875 -74.21875 C 69.84375 -74.695312 70.894531 -75.257812 72.03125 -75.90625 C 73.164062 -76.550781 73.972656 -76.710938 74.453125 -76.390625 C 76.234375 -75.421875 76.71875 -73.804688 75.90625 -71.546875 C 75.101562 -69.285156 73.8125 -67.507812 72.03125 -66.21875 C 64.59375 -60.550781 56.953125 -55.171875 49.109375 -50.078125 C 41.265625 -44.984375 33.625 -39.53125 26.1875 -33.71875 C 24.738281 -32.582031 23.125 -31.40625 21.34375 -30.1875 C 19.5625 -28.976562 17.703125 -28.050781 15.765625 -27.40625 C 15.273438 -27.238281 14.546875 -27.15625 13.578125 -27.15625 Z M 20.859375 -69.359375 C 22.640625 -69.523438 24.335938 -69.804688 25.953125 -70.203125 C 27.566406 -70.609375 29.179688 -71.054688 30.796875 -71.546875 C 32.421875 -72.035156 34 -72.519531 35.53125 -73 C 37.0625 -73.488281 38.554688 -74.054688 40.015625 -74.703125 C 41.304688 -75.179688 42.476562 -75.828125 43.53125 -76.640625 C 44.582031 -77.453125 45.429688 -78.421875 46.078125 -79.546875 C 46.398438 -80.191406 46.441406 -81.363281 46.203125 -83.0625 C 45.960938 -84.757812 45.476562 -86.296875 44.75 -87.671875 C 44.019531 -89.046875 43.007812 -89.492188 41.71875 -89.015625 C 39.613281 -88.035156 37.753906 -86.898438 36.140625 -85.609375 C 34.523438 -84.316406 32.828125 -82.78125 31.046875 -81 C 29.910156 -80.03125 28.816406 -79.140625 27.765625 -78.328125 C 26.710938 -77.523438 25.703125 -76.640625 24.734375 -75.671875 C 23.117188 -74.535156 21.664062 -73.078125 20.375 -71.296875 C 19.726562 -70.648438 19.566406 -70.085938 19.890625 -69.609375 C 20.046875 -69.441406 20.367188 -69.359375 20.859375 -69.359375 Z M 20.859375 -69.359375 "/></g></g></g><g fill="#000000" fill-opacity="1"><g transform="translate(306.063751, 242.133338)"><g><path d="M -1.21875 -28.375 C -2.832031 -26.757812 -4.445312 -26.597656 -6.0625 -27.890625 C -7.675781 -29.179688 -8.644531 -30.796875 -8.96875 -32.734375 C -9.132812 -33.867188 -8.972656 -35.082031 -8.484375 -36.375 C -8.003906 -37.664062 -7.601562 -38.878906 -7.28125 -40.015625 C -6.789062 -41.304688 -6.300781 -42.640625 -5.8125 -44.015625 C -5.332031 -45.390625 -4.769531 -46.644531 -4.125 -47.78125 C -2.832031 -50.6875 -1.378906 -53.515625 0.234375 -56.265625 C 1.859375 -59.015625 3.476562 -61.679688 5.09375 -64.265625 L 16.25 -81.96875 C 17.21875 -83.59375 18.1875 -85.128906 19.15625 -86.578125 C 20.125 -88.035156 21.097656 -89.492188 22.078125 -90.953125 C 22.722656 -91.921875 23.648438 -93.007812 24.859375 -94.21875 C 26.066406 -95.4375 27.238281 -95.960938 28.375 -95.796875 C 28.695312 -95.796875 28.9375 -95.753906 29.09375 -95.671875 C 29.257812 -95.597656 29.425781 -95.5625 29.59375 -95.5625 L 33.234375 -93.859375 L 33.46875 -93.859375 C 33.632812 -93.691406 33.71875 -93.445312 33.71875 -93.125 C 33.71875 -91.675781 33.148438 -90.0625 32.015625 -88.28125 C 31.523438 -87.46875 30.957031 -86.738281 30.3125 -86.09375 C 29.664062 -85.445312 29.179688 -84.722656 28.859375 -83.921875 C 28.535156 -83.109375 28.128906 -82.378906 27.640625 -81.734375 C 27.160156 -81.085938 26.757812 -80.359375 26.4375 -79.546875 C 26.269531 -79.222656 26.023438 -78.738281 25.703125 -78.09375 C 25.378906 -77.445312 25.300781 -76.960938 25.46875 -76.640625 C 25.789062 -76.148438 26.351562 -76.066406 27.15625 -76.390625 C 27.96875 -76.710938 28.535156 -76.957031 28.859375 -77.125 C 34.035156 -79.707031 39.046875 -82.535156 43.890625 -85.609375 C 48.742188 -88.679688 53.921875 -91.1875 59.421875 -93.125 C 61.523438 -93.9375 63.265625 -94.300781 64.640625 -94.21875 C 66.015625 -94.144531 67.507812 -93.457031 69.125 -92.15625 L 69.609375 -91.671875 C 71.066406 -90.546875 72.28125 -89.296875 73.25 -87.921875 C 74.21875 -86.546875 74.296875 -84.890625 73.484375 -82.953125 C 71.222656 -77.929688 67.585938 -76.148438 62.578125 -77.609375 C 61.285156 -77.929688 60.960938 -79.0625 61.609375 -81 C 61.765625 -81.320312 61.84375 -81.765625 61.84375 -82.328125 C 61.84375 -82.898438 61.925781 -83.429688 62.09375 -83.921875 C 62.09375 -84.078125 61.363281 -84.035156 59.90625 -83.796875 C 58.445312 -83.554688 57.640625 -83.351562 57.484375 -83.1875 C 56.347656 -83.03125 55.332031 -82.75 54.4375 -82.34375 C 53.550781 -81.9375 52.546875 -81.570312 51.421875 -81.25 C 49.316406 -80.28125 47.128906 -79.347656 44.859375 -78.453125 C 42.597656 -77.566406 40.414062 -76.476562 38.3125 -75.1875 C 35.40625 -73.40625 33.265625 -72.191406 31.890625 -71.546875 C 30.515625 -70.898438 29.140625 -70.128906 27.765625 -69.234375 C 26.390625 -68.347656 24.003906 -66.613281 20.609375 -64.03125 L 19.15625 -62.578125 C 16.40625 -59.503906 14.179688 -56.507812 12.484375 -53.59375 C 10.785156 -50.6875 9.128906 -47.210938 7.515625 -43.171875 C 6.546875 -41.066406 5.492188 -39.082031 4.359375 -37.21875 C 3.234375 -35.363281 2.101562 -33.382812 0.96875 -31.28125 C 0.644531 -30.800781 0.320312 -30.273438 0 -29.703125 C -0.320312 -29.140625 -0.726562 -28.695312 -1.21875 -28.375 Z M -1.21875 -28.375 "/></g></g></g><g fill="#000000" fill-opacity="1"><g transform="translate(373.244142, 242.133338)"><g/></g></g><g fill="#000000" fill-opacity="1"><g transform="translate(453.278558, 242.133338)"><g><path d="M 13.578125 -27.15625 C 6.460938 -25.382812 1.367188 -27.894531 -1.703125 -34.6875 C -3.316406 -38.238281 -4.320312 -41.789062 -4.71875 -45.34375 C -5.125 -48.90625 -4.765625 -52.546875 -3.640625 -56.265625 C -2.179688 -60.472656 0 -64.234375 2.90625 -67.546875 C 5.820312 -70.859375 8.734375 -74.210938 11.640625 -77.609375 C 14.710938 -81.328125 17.863281 -84.722656 21.09375 -87.796875 C 24.332031 -90.867188 27.972656 -93.695312 32.015625 -96.28125 C 33.953125 -97.414062 35.972656 -98.265625 38.078125 -98.828125 C 40.179688 -99.398438 42.363281 -99.195312 44.625 -98.21875 C 48.832031 -96.769531 51.617188 -95.035156 52.984375 -93.015625 C 54.359375 -90.992188 55.128906 -88.285156 55.296875 -84.890625 C 55.460938 -81.171875 54.53125 -77.773438 52.5 -74.703125 C 50.476562 -71.628906 47.851562 -69.445312 44.625 -68.15625 C 41.394531 -67.019531 38.160156 -65.925781 34.921875 -64.875 C 31.691406 -63.820312 28.457031 -62.8125 25.21875 -61.84375 C 23.445312 -61.195312 21.585938 -60.671875 19.640625 -60.265625 C 17.703125 -59.859375 15.84375 -59.414062 14.0625 -58.9375 C 13.414062 -58.769531 12.8125 -58.566406 12.25 -58.328125 C 11.6875 -58.085938 11.238281 -57.722656 10.90625 -57.234375 C 9.457031 -54.648438 8.207031 -51.984375 7.15625 -49.234375 C 6.101562 -46.484375 5.898438 -43.492188 6.546875 -40.265625 C 7.035156 -37.347656 8.453125 -35.96875 10.796875 -36.125 C 13.140625 -36.289062 15.765625 -37.222656 18.671875 -38.921875 C 21.585938 -40.617188 24.175781 -42.359375 26.4375 -44.140625 C 28.695312 -45.921875 29.910156 -46.890625 30.078125 -47.046875 C 30.878906 -47.691406 32.453125 -48.742188 34.796875 -50.203125 C 37.140625 -51.660156 38.800781 -52.710938 39.78125 -53.359375 C 41.550781 -54.648438 43.003906 -55.859375 44.140625 -56.984375 C 45.273438 -58.117188 46.726562 -59.253906 48.5 -60.390625 C 51.738281 -62.816406 55.054688 -65.238281 58.453125 -67.65625 C 61.847656 -70.082031 65.320312 -72.269531 68.875 -74.21875 C 69.84375 -74.695312 70.894531 -75.257812 72.03125 -75.90625 C 73.164062 -76.550781 73.972656 -76.710938 74.453125 -76.390625 C 76.234375 -75.421875 76.71875 -73.804688 75.90625 -71.546875 C 75.101562 -69.285156 73.8125 -67.507812 72.03125 -66.21875 C 64.59375 -60.550781 56.953125 -55.171875 49.109375 -50.078125 C 41.265625 -44.984375 33.625 -39.53125 26.1875 -33.71875 C 24.738281 -32.582031 23.125 -31.40625 21.34375 -30.1875 C 19.5625 -28.976562 17.703125 -28.050781 15.765625 -27.40625 C 15.273438 -27.238281 14.546875 -27.15625 13.578125 -27.15625 Z M 20.859375 -69.359375 C 22.640625 -69.523438 24.335938 -69.804688 25.953125 -70.203125 C 27.566406 -70.609375 29.179688 -71.054688 30.796875 -71.546875 C 32.421875 -72.035156 34 -72.519531 35.53125 -73 C 37.0625 -73.488281 38.554688 -74.054688 40.015625 -74.703125 C 41.304688 -75.179688 42.476562 -75.828125 43.53125 -76.640625 C 44.582031 -77.453125 45.429688 -78.421875 46.078125 -79.546875 C 46.398438 -80.191406 46.441406 -81.363281 46.203125 -83.0625 C 45.960938 -84.757812 45.476562 -86.296875 44.75 -87.671875 C 44.019531 -89.046875 43.007812 -89.492188 41.71875 -89.015625 C 39.613281 -88.035156 37.753906 -86.898438 36.140625 -85.609375 C 34.523438 -84.316406 32.828125 -82.78125 31.046875 -81 C 29.910156 -80.03125 28.816406 -79.140625 27.765625 -78.328125 C 26.710938 -77.523438 25.703125 -76.640625 24.734375 -75.671875 C 23.117188 -74.535156 21.664062 -73.078125 20.375 -71.296875 C 19.726562 -70.648438 19.566406 -70.085938 19.890625 -69.609375 C 20.046875 -69.441406 20.367188 -69.359375 20.859375 -69.359375 Z M 20.859375 -69.359375 "/></g></g></g><g fill="#000000" fill-opacity="1"><g transform="translate(511.97043, 242.133338)"><g/></g></g><g fill="#000000" fill-opacity="1"><g transform="translate(592.004814, 242.133338)"><g><path d="M 91.921875 26.921875 C 89.816406 27.078125 87.796875 26.347656 85.859375 24.734375 C 83.921875 23.117188 82.785156 21.097656 82.453125 18.671875 C 82.296875 18.191406 82.253906 17.664062 82.328125 17.09375 C 82.410156 16.53125 82.453125 15.679688 82.453125 14.546875 C 82.785156 11.316406 83.273438 7.84375 83.921875 4.125 C 84.566406 0.40625 85.773438 -3.234375 87.546875 -6.796875 C 89.648438 -10.671875 91.46875 -14.671875 93 -18.796875 C 94.539062 -22.921875 96.117188 -27.003906 97.734375 -31.046875 L 100.65625 -37.34375 C 100.976562 -38.15625 101.421875 -39.003906 101.984375 -39.890625 C 102.546875 -40.785156 102.910156 -41.632812 103.078125 -42.4375 C 103.398438 -43.894531 103.960938 -45.226562 104.765625 -46.4375 C 105.578125 -47.65625 106.46875 -48.832031 107.4375 -49.96875 C 108.40625 -51.257812 109.375 -52.59375 110.34375 -53.96875 C 111.320312 -55.34375 111.8125 -57 111.8125 -58.9375 C 111.96875 -59.90625 112.285156 -60.875 112.765625 -61.84375 C 113.253906 -62.8125 114.066406 -63.539062 115.203125 -64.03125 C 115.523438 -64.1875 115.847656 -64.503906 116.171875 -64.984375 C 116.492188 -65.472656 116.578125 -65.800781 116.421875 -65.96875 C 115.609375 -68.226562 115.890625 -70.003906 117.265625 -71.296875 C 118.640625 -72.597656 119.972656 -73.8125 121.265625 -74.9375 C 122.878906 -76.070312 123.039062 -77.367188 121.75 -78.828125 C 121.59375 -78.984375 121.59375 -79.34375 121.75 -79.90625 C 121.914062 -80.476562 122.078125 -81.003906 122.234375 -81.484375 C 124.816406 -87.472656 127.566406 -93.132812 130.484375 -98.46875 C 130.804688 -98.789062 130.96875 -99.191406 130.96875 -99.671875 C 130.96875 -100.160156 131.046875 -100.648438 131.203125 -101.140625 C 131.367188 -101.941406 131.488281 -102.664062 131.5625 -103.3125 C 131.644531 -103.957031 131.847656 -104.523438 132.171875 -105.015625 C 134.921875 -108.410156 136.941406 -112.171875 138.234375 -116.296875 C 139.535156 -120.421875 141.238281 -124.257812 143.34375 -127.8125 C 144.632812 -130.070312 145.882812 -132.289062 147.09375 -134.46875 C 148.3125 -136.65625 149.484375 -138.882812 150.609375 -141.15625 C 150.929688 -141.800781 151.210938 -142.40625 151.453125 -142.96875 C 151.703125 -143.539062 151.90625 -144.148438 152.0625 -144.796875 C 152.0625 -145.597656 151.820312 -146.082031 151.34375 -146.25 C 150.851562 -146.726562 150.367188 -146.726562 149.890625 -146.25 C 148.585938 -145.28125 147.207031 -144.304688 145.75 -143.328125 C 144.300781 -142.359375 142.929688 -141.3125 141.640625 -140.1875 C 137.597656 -136.625 133.59375 -133.0625 129.625 -129.5 C 125.664062 -125.945312 121.828125 -122.3125 118.109375 -118.59375 C 115.035156 -115.519531 112.003906 -112.328125 109.015625 -109.015625 C 106.023438 -105.703125 103.078125 -102.425781 100.171875 -99.1875 C 99.679688 -98.707031 99.234375 -98.179688 98.828125 -97.609375 C 98.421875 -97.046875 98.054688 -96.601562 97.734375 -96.28125 C 92.722656 -91.269531 88.113281 -86.054688 83.90625 -80.640625 C 79.707031 -75.222656 75.503906 -69.6875 71.296875 -64.03125 C 69.679688 -62.09375 68.1875 -60.070312 66.8125 -57.96875 C 65.4375 -55.863281 64.101562 -53.757812 62.8125 -51.65625 C 61.195312 -49.394531 59.335938 -48.140625 57.234375 -47.890625 C 55.128906 -47.648438 53.191406 -48.582031 51.421875 -50.6875 L 48.984375 -53.59375 C 47.691406 -55.050781 47.53125 -56.507812 48.5 -57.96875 L 59.421875 -81.96875 C 60.066406 -83.269531 60.710938 -84.601562 61.359375 -85.96875 C 62.003906 -87.34375 62.488281 -88.679688 62.8125 -89.984375 C 64.59375 -95.148438 66.207031 -100.28125 67.65625 -105.375 C 69.113281 -110.46875 70.65625 -115.519531 72.28125 -120.53125 C 72.4375 -120.851562 72.429688 -121.21875 72.265625 -121.625 C 72.109375 -122.03125 71.953125 -122.394531 71.796875 -122.71875 C 71.628906 -122.5625 71.34375 -122.484375 70.9375 -122.484375 C 70.53125 -122.484375 70.164062 -122.320312 69.84375 -122 C 69.039062 -121.34375 68.234375 -120.648438 67.421875 -119.921875 C 66.617188 -119.203125 65.890625 -118.4375 65.234375 -117.625 C 62.816406 -114.550781 60.351562 -111.519531 57.84375 -108.53125 C 55.332031 -105.539062 52.945312 -102.507812 50.6875 -99.4375 C 46.644531 -94.101562 42.5625 -88.726562 38.4375 -83.3125 C 34.3125 -77.894531 30.226562 -72.4375 26.1875 -66.9375 C 24.09375 -64.351562 21.992188 -61.765625 19.890625 -59.171875 C 17.785156 -56.585938 15.84375 -53.921875 14.0625 -51.171875 C 10.988281 -46.648438 8.566406 -42.203125 6.796875 -37.828125 C 6.148438 -36.054688 5.257812 -34.722656 4.125 -33.828125 C 2.988281 -32.941406 1.695312 -32.175781 0.25 -31.53125 C -2.175781 -30.71875 -4.203125 -31.039062 -5.828125 -32.5 C -7.441406 -34.113281 -7.601562 -36.050781 -6.3125 -38.3125 C -4.6875 -40.90625 -3.144531 -43.492188 -1.6875 -46.078125 C -0.238281 -48.671875 1.289062 -51.097656 2.90625 -53.359375 C 5.820312 -57.398438 8.8125 -61.316406 11.875 -65.109375 C 14.945312 -68.910156 18.019531 -72.753906 21.09375 -76.640625 C 23.84375 -79.867188 26.429688 -83.222656 28.859375 -86.703125 C 31.285156 -90.179688 33.789062 -93.617188 36.375 -97.015625 C 37.34375 -98.304688 38.269531 -99.554688 39.15625 -100.765625 C 40.050781 -101.984375 41.304688 -102.914062 42.921875 -103.5625 C 43.734375 -103.882812 44.300781 -104.734375 44.625 -106.109375 C 44.945312 -107.484375 45.835938 -108.25 47.296875 -108.40625 C 48.097656 -111.96875 49.671875 -114.921875 52.015625 -117.265625 C 54.367188 -119.609375 56.515625 -122.070312 58.453125 -124.65625 C 61.359375 -128.539062 64.46875 -132.179688 67.78125 -135.578125 C 71.101562 -138.972656 74.539062 -142.285156 78.09375 -145.515625 C 80.03125 -147.617188 82.210938 -148.671875 84.640625 -148.671875 C 87.066406 -148.671875 89.332031 -147.703125 91.4375 -145.765625 C 92.5625 -144.628906 92.960938 -143.171875 92.640625 -141.390625 C 92.640625 -140.585938 92.4375 -139.738281 92.03125 -138.84375 C 91.632812 -137.957031 91.273438 -137.109375 90.953125 -136.296875 L 78.578125 -98.21875 C 78.421875 -97.894531 78.257812 -97.53125 78.09375 -97.125 C 77.9375 -96.726562 77.859375 -96.367188 77.859375 -96.046875 C 77.859375 -95.398438 78.019531 -94.914062 78.34375 -94.59375 C 79.144531 -94.59375 79.628906 -94.753906 79.796875 -95.078125 C 82.054688 -97.335938 84.359375 -99.554688 86.703125 -101.734375 C 89.046875 -103.921875 91.1875 -106.304688 93.125 -108.890625 C 96.363281 -112.929688 99.84375 -116.769531 103.5625 -120.40625 C 107.28125 -124.050781 111.160156 -127.488281 115.203125 -130.71875 C 119.734375 -134.601562 124.140625 -138.644531 128.421875 -142.84375 C 132.703125 -147.050781 137.1875 -150.9375 141.875 -154.5 C 146.082031 -157.726562 150.285156 -160.835938 154.484375 -163.828125 C 158.691406 -166.816406 162.816406 -169.847656 166.859375 -172.921875 C 168.472656 -174.054688 170.171875 -174.378906 171.953125 -173.890625 C 175.671875 -172.765625 178.378906 -171.3125 180.078125 -169.53125 C 181.773438 -167.75 180.765625 -164.515625 177.046875 -159.828125 C 173.171875 -155.140625 169.695312 -150.125 166.625 -144.78125 C 163.550781 -139.445312 160.554688 -134.113281 157.640625 -128.78125 C 155.054688 -124.257812 152.550781 -119.734375 150.125 -115.203125 C 147.695312 -110.671875 145.351562 -106.0625 143.09375 -101.375 C 140.019531 -95.394531 137.066406 -89.410156 134.234375 -83.421875 C 131.410156 -77.441406 128.539062 -71.460938 125.625 -65.484375 C 121.90625 -58.046875 118.390625 -50.566406 115.078125 -43.046875 C 111.765625 -35.523438 108.332031 -27.96875 104.78125 -20.375 C 102.507812 -15.363281 100.601562 -10.148438 99.0625 -4.734375 C 97.53125 0.679688 96.117188 6.0625 94.828125 11.40625 C 94.179688 14.46875 94.503906 17.859375 95.796875 21.578125 C 97.085938 24.816406 95.796875 26.597656 91.921875 26.921875 Z M 91.921875 26.921875 "/></g></g></g><g fill="#000000" fill-opacity="1"><g transform="translate(738.006944, 242.133338)"><g><path d="M -19.640625 45.84375 C -23.847656 45.84375 -26.597656 43.984375 -27.890625 40.265625 C -28.054688 39.453125 -28.054688 38.5625 -27.890625 37.59375 C -27.734375 36.625 -27.65625 35.734375 -27.65625 34.921875 C -27.65625 34.273438 -27.410156 33.710938 -26.921875 33.234375 C -26.597656 32.898438 -26.3125 32.734375 -26.0625 32.734375 C -25.820312 32.734375 -25.625 32.65625 -25.46875 32.5 C -23.53125 31.53125 -21.585938 30.679688 -19.640625 29.953125 C -17.703125 29.222656 -15.84375 28.457031 -14.0625 27.65625 C -11.957031 26.675781 -10.097656 25.296875 -8.484375 23.515625 C -6.867188 21.742188 -5.578125 20.085938 -4.609375 18.546875 C -3.640625 17.015625 -3.070312 16.164062 -2.90625 16 C -0.800781 13.257812 0.972656 10.429688 2.421875 7.515625 C 3.878906 4.609375 5.414062 1.78125 7.03125 -0.96875 C 8.8125 -3.71875 10.425781 -6.503906 11.875 -9.328125 C 13.332031 -12.160156 14.867188 -14.953125 16.484375 -17.703125 C 18.753906 -21.421875 21.0625 -25.140625 23.40625 -28.859375 C 25.75 -32.578125 28.132812 -36.21875 30.5625 -39.78125 C 32.34375 -42.519531 34.078125 -45.101562 35.765625 -47.53125 C 37.460938 -49.957031 38.878906 -52.707031 40.015625 -55.78125 C 40.335938 -56.59375 40.898438 -57.28125 41.703125 -57.84375 C 42.515625 -58.40625 42.359375 -59.171875 41.234375 -60.140625 C 41.066406 -60.472656 40.414062 -60.351562 39.28125 -59.78125 C 38.15625 -59.21875 37.1875 -58.691406 36.375 -58.203125 C 33.945312 -56.585938 31.519531 -54.847656 29.09375 -52.984375 C 26.675781 -51.128906 24.09375 -49.394531 21.34375 -47.78125 C 20.207031 -46.96875 18.953125 -46.28125 17.578125 -45.71875 C 16.203125 -45.15625 14.789062 -44.710938 13.34375 -44.390625 C 10.269531 -43.410156 7.597656 -43.566406 5.328125 -44.859375 C 3.066406 -46.160156 1.535156 -48.347656 0.734375 -51.421875 C 0.566406 -52.222656 0.523438 -53.023438 0.609375 -53.828125 C 0.691406 -54.640625 0.648438 -55.453125 0.484375 -56.265625 C 0.328125 -57.554688 0.929688 -59.332031 2.296875 -61.59375 C 3.671875 -63.863281 4.679688 -65.566406 5.328125 -66.703125 C 6.140625 -68.472656 6.910156 -70.125 7.640625 -71.65625 C 8.367188 -73.195312 9.296875 -74.773438 10.421875 -76.390625 C 12.847656 -79.953125 15.394531 -83.390625 18.0625 -86.703125 C 20.738281 -90.015625 23.609375 -93.207031 26.671875 -96.28125 C 27.160156 -96.925781 27.804688 -97.53125 28.609375 -98.09375 C 29.421875 -98.664062 30.234375 -98.789062 31.046875 -98.46875 C 31.523438 -98.300781 31.925781 -98.054688 32.25 -97.734375 C 32.570312 -97.410156 32.898438 -97.085938 33.234375 -96.765625 C 35.003906 -94.660156 35.644531 -92.757812 35.15625 -91.0625 C 34.675781 -89.375 33.664062 -87.800781 32.125 -86.34375 C 30.59375 -84.882812 29.179688 -83.265625 27.890625 -81.484375 C 25.628906 -78.742188 23.523438 -75.875 21.578125 -72.875 C 19.640625 -69.882812 17.78125 -66.773438 16 -63.546875 C 15.351562 -62.410156 14.828125 -61.359375 14.421875 -60.390625 C 14.023438 -59.421875 13.664062 -58.289062 13.34375 -57 C 14.144531 -56.507812 14.953125 -56.425781 15.765625 -56.75 C 16.578125 -57.070312 17.304688 -57.476562 17.953125 -57.96875 C 21.503906 -60.550781 24.9375 -63.21875 28.25 -65.96875 C 31.570312 -68.71875 35.253906 -70.898438 39.296875 -72.515625 C 43.335938 -74.128906 47.21875 -76.390625 50.9375 -79.296875 C 54.65625 -82.210938 58.128906 -85.046875 61.359375 -87.796875 C 62.972656 -89.085938 65.070312 -89.53125 67.65625 -89.125 C 70.25 -88.726562 72.113281 -87.640625 73.25 -85.859375 C 75.019531 -83.429688 74.9375 -81.25 73 -79.3125 C 72.351562 -78.664062 71.664062 -78.097656 70.9375 -77.609375 C 70.207031 -77.117188 69.519531 -76.550781 68.875 -75.90625 C 66.769531 -74.132812 65.070312 -72.359375 63.78125 -70.578125 C 59.257812 -63.617188 54.851562 -56.664062 50.5625 -49.71875 C 46.28125 -42.769531 41.796875 -35.898438 37.109375 -29.109375 C 31.929688 -21.828125 27 -14.226562 22.3125 -6.3125 C 19.082031 -0.644531 15.847656 5.015625 12.609375 10.671875 C 9.378906 16.328125 6.066406 21.988281 2.671875 27.65625 C -0.398438 32.664062 -3.59375 36.988281 -6.90625 40.625 C -10.226562 44.257812 -14.472656 46 -19.640625 45.84375 Z M -19.640625 45.84375 "/></g></g></g><g fill="#000000" fill-opacity="1"><g transform="translate(804.70229, 242.133338)"><g><path d="M 3.875 -26.921875 C 2.257812 -27.242188 0.847656 -27.890625 -0.359375 -28.859375 C -1.578125 -29.828125 -2.671875 -30.878906 -3.640625 -32.015625 C -5.898438 -34.921875 -6.382812 -37.832031 -5.09375 -40.75 C -3.3125 -45.4375 -1.535156 -50.203125 0.234375 -55.046875 C 2.015625 -59.898438 3.957031 -64.59375 6.0625 -69.125 C 9.132812 -75.269531 12.367188 -81.375 15.765625 -87.4375 C 19.160156 -93.5 22.472656 -99.519531 25.703125 -105.5 C 27.003906 -107.757812 28.21875 -110.101562 29.34375 -112.53125 C 30.476562 -114.957031 31.773438 -117.300781 33.234375 -119.5625 C 36.953125 -125.226562 40.425781 -131.050781 43.65625 -137.03125 C 46.882812 -143.007812 50.441406 -148.75 54.328125 -154.25 C 56.753906 -157.800781 58.976562 -161.351562 61 -164.90625 C 63.019531 -168.46875 65.320312 -171.867188 67.90625 -175.109375 C 69.039062 -176.566406 70.335938 -177.296875 71.796875 -177.296875 L 73.484375 -177.046875 L 79.546875 -175.59375 C 80.191406 -175.269531 80.515625 -175.109375 80.515625 -175.109375 C 80.679688 -174.941406 80.28125 -173.890625 79.3125 -171.953125 C 78.34375 -170.015625 77.289062 -168.035156 76.15625 -166.015625 C 75.019531 -163.992188 74.289062 -162.738281 73.96875 -162.25 C 71.707031 -159.019531 69.484375 -155.828125 67.296875 -152.671875 C 65.117188 -149.515625 62.898438 -146.320312 60.640625 -143.09375 C 56.753906 -137.4375 52.988281 -131.65625 49.34375 -125.75 C 45.707031 -119.851562 42.273438 -113.832031 39.046875 -107.6875 C 38.234375 -105.90625 37.257812 -104.164062 36.125 -102.46875 C 35 -100.769531 33.953125 -99.03125 32.984375 -97.25 C 30.078125 -91.914062 27.164062 -86.582031 24.25 -81.25 C 21.34375 -75.914062 18.515625 -70.5 15.765625 -65 C 14.796875 -63.21875 13.945312 -61.359375 13.21875 -59.421875 C 12.488281 -57.484375 11.71875 -55.539062 10.90625 -53.59375 C 10.582031 -52.300781 10.175781 -51.007812 9.6875 -49.71875 C 9.207031 -48.425781 8.804688 -47.132812 8.484375 -45.84375 C 8.328125 -45.351562 8.125 -44.335938 7.875 -42.796875 C 7.632812 -41.265625 8.082031 -40.742188 9.21875 -41.234375 C 9.539062 -41.234375 9.78125 -41.3125 9.9375 -41.46875 C 10.101562 -41.632812 10.265625 -41.796875 10.421875 -41.953125 C 12.523438 -43.734375 14.789062 -45.347656 17.21875 -46.796875 C 19.644531 -48.253906 21.988281 -49.710938 24.25 -51.171875 C 27.164062 -52.953125 30.5625 -55.09375 34.4375 -57.59375 C 38.320312 -60.101562 42.125 -62.609375 45.84375 -65.109375 C 49.5625 -67.617188 52.710938 -69.722656 55.296875 -71.421875 C 57.878906 -73.117188 59.253906 -74.050781 59.421875 -74.21875 C 60.390625 -74.695312 61.4375 -75.257812 62.5625 -75.90625 C 63.695312 -76.550781 64.507812 -76.710938 65 -76.390625 C 66.78125 -75.421875 67.265625 -73.804688 66.453125 -71.546875 C 65.640625 -69.285156 64.347656 -67.507812 62.578125 -66.21875 C 62.410156 -66.050781 60.953125 -64.957031 58.203125 -62.9375 C 55.453125 -60.914062 52.175781 -58.570312 48.375 -55.90625 C 44.582031 -53.238281 40.863281 -50.609375 37.21875 -48.015625 C 33.582031 -45.429688 30.632812 -43.410156 28.375 -41.953125 C 25.46875 -39.859375 22.640625 -37.796875 19.890625 -35.765625 C 17.140625 -33.742188 14.3125 -31.765625 11.40625 -29.828125 C 11.070312 -29.503906 10.703125 -29.257812 10.296875 -29.09375 C 9.898438 -28.9375 9.457031 -28.695312 8.96875 -28.375 C 7.195312 -27.238281 5.5 -26.753906 3.875 -26.921875 Z M 3.875 -26.921875 "/></g></g></g><g fill="#000000" fill-opacity="1"><g transform="translate(852.722939, 242.133338)"><g><path d="M 13.578125 -27.15625 C 6.460938 -25.382812 1.367188 -27.894531 -1.703125 -34.6875 C -3.316406 -38.238281 -4.320312 -41.789062 -4.71875 -45.34375 C -5.125 -48.90625 -4.765625 -52.546875 -3.640625 -56.265625 C -2.179688 -60.472656 0 -64.234375 2.90625 -67.546875 C 5.820312 -70.859375 8.734375 -74.210938 11.640625 -77.609375 C 14.710938 -81.328125 17.863281 -84.722656 21.09375 -87.796875 C 24.332031 -90.867188 27.972656 -93.695312 32.015625 -96.28125 C 33.953125 -97.414062 35.972656 -98.265625 38.078125 -98.828125 C 40.179688 -99.398438 42.363281 -99.195312 44.625 -98.21875 C 48.832031 -96.769531 51.617188 -95.035156 52.984375 -93.015625 C 54.359375 -90.992188 55.128906 -88.285156 55.296875 -84.890625 C 55.460938 -81.171875 54.53125 -77.773438 52.5 -74.703125 C 50.476562 -71.628906 47.851562 -69.445312 44.625 -68.15625 C 41.394531 -67.019531 38.160156 -65.925781 34.921875 -64.875 C 31.691406 -63.820312 28.457031 -62.8125 25.21875 -61.84375 C 23.445312 -61.195312 21.585938 -60.671875 19.640625 -60.265625 C 17.703125 -59.859375 15.84375 -59.414062 14.0625 -58.9375 C 13.414062 -58.769531 12.8125 -58.566406 12.25 -58.328125 C 11.6875 -58.085938 11.238281 -57.722656 10.90625 -57.234375 C 9.457031 -54.648438 8.207031 -51.984375 7.15625 -49.234375 C 6.101562 -46.484375 5.898438 -43.492188 6.546875 -40.265625 C 7.035156 -37.347656 8.453125 -35.96875 10.796875 -36.125 C 13.140625 -36.289062 15.765625 -37.222656 18.671875 -38.921875 C 21.585938 -40.617188 24.175781 -42.359375 26.4375 -44.140625 C 28.695312 -45.921875 29.910156 -46.890625 30.078125 -47.046875 C 30.878906 -47.691406 32.453125 -48.742188 34.796875 -50.203125 C 37.140625 -51.660156 38.800781 -52.710938 39.78125 -53.359375 C 41.550781 -54.648438 43.003906 -55.859375 44.140625 -56.984375 C 45.273438 -58.117188 46.726562 -59.253906 48.5 -60.390625 C 51.738281 -62.816406 55.054688 -65.238281 58.453125 -67.65625 C 61.847656 -70.082031 65.320312 -72.269531 68.875 -74.21875 C 69.84375 -74.695312 70.894531 -75.257812 72.03125 -75.90625 C 73.164062 -76.550781 73.972656 -76.710938 74.453125 -76.390625 C 76.234375 -75.421875 76.71875 -73.804688 75.90625 -71.546875 C 75.101562 -69.285156 73.8125 -67.507812 72.03125 -66.21875 C 64.59375 -60.550781 56.953125 -55.171875 49.109375 -50.078125 C 41.265625 -44.984375 33.625 -39.53125 26.1875 -33.71875 C 24.738281 -32.582031 23.125 -31.40625 21.34375 -30.1875 C 19.5625 -28.976562 17.703125 -28.050781 15.765625 -27.40625 C 15.273438 -27.238281 14.546875 -27.15625 13.578125 -27.15625 Z M 20.859375 -69.359375 C 22.640625 -69.523438 24.335938 -69.804688 25.953125 -70.203125 C 27.566406 -70.609375 29.179688 -71.054688 30.796875 -71.546875 C 32.421875 -72.035156 34 -72.519531 35.53125 -73 C 37.0625 -73.488281 38.554688 -74.054688 40.015625 -74.703125 C 41.304688 -75.179688 42.476562 -75.828125 43.53125 -76.640625 C 44.582031 -77.453125 45.429688 -78.421875 46.078125 -79.546875 C 46.398438 -80.191406 46.441406 -81.363281 46.203125 -83.0625 C 45.960938 -84.757812 45.476562 -86.296875 44.75 -87.671875 C 44.019531 -89.046875 43.007812 -89.492188 41.71875 -89.015625 C 39.613281 -88.035156 37.753906 -86.898438 36.140625 -85.609375 C 34.523438 -84.316406 32.828125 -82.78125 31.046875 -81 C 29.910156 -80.03125 28.816406 -79.140625 27.765625 -78.328125 C 26.710938 -77.523438 25.703125 -76.640625 24.734375 -75.671875 C 23.117188 -74.535156 21.664062 -73.078125 20.375 -71.296875 C 19.726562 -70.648438 19.566406 -70.085938 19.890625 -69.609375 C 20.046875 -69.441406 20.367188 -69.359375 20.859375 -69.359375 Z M 20.859375 -69.359375 "/></g></g></g><g fill="#000000" fill-opacity="1"><g transform="translate(911.41478, 242.133338)"><g><path d="M 44.625 -24.984375 C 43.332031 -25.304688 42.363281 -26.273438 41.71875 -27.890625 C 41.070312 -29.503906 40.707031 -31.28125 40.625 -33.21875 C 40.539062 -35.164062 40.742188 -36.539062 41.234375 -37.34375 C 44.953125 -44.132812 47.617188 -49.226562 49.234375 -52.625 C 50.847656 -56.019531 52.097656 -58.6875 52.984375 -60.625 C 53.878906 -62.570312 54.929688 -64.675781 56.140625 -66.9375 C 57.359375 -69.195312 59.257812 -72.59375 61.84375 -77.125 C 62.488281 -78.09375 62.363281 -78.859375 61.46875 -79.421875 C 60.582031 -79.992188 59.414062 -80.035156 57.96875 -79.546875 C 52.46875 -75.992188 46.6875 -72.234375 40.625 -68.265625 C 34.5625 -64.304688 28.941406 -60.304688 23.765625 -56.265625 C 21.660156 -54.648438 19.515625 -53.070312 17.328125 -51.53125 C 15.148438 -50 13.175781 -48.101562 11.40625 -45.84375 C 9.78125 -43.570312 8.320312 -40.898438 7.03125 -37.828125 C 5.738281 -34.765625 3.960938 -32.34375 1.703125 -30.5625 C -0.078125 -29.269531 -1.9375 -28.945312 -3.875 -29.59375 C -5.820312 -30.238281 -6.957031 -30.882812 -7.28125 -31.53125 C -8.40625 -33.3125 -8.804688 -35.375 -8.484375 -37.71875 C -8.160156 -40.0625 -7.597656 -42.285156 -6.796875 -44.390625 C -5.660156 -46.804688 -4.363281 -49.144531 -2.90625 -51.40625 C -1.457031 -53.675781 -0.164062 -55.941406 0.96875 -58.203125 C 2.90625 -62.085938 5.207031 -65.765625 7.875 -69.234375 C 10.550781 -72.710938 13.179688 -76.234375 15.765625 -79.796875 C 18.515625 -83.347656 21.0625 -87.0625 23.40625 -90.9375 C 25.75 -94.820312 28.050781 -98.707031 30.3125 -102.59375 C 31.601562 -103.882812 32.773438 -104.53125 33.828125 -104.53125 C 34.878906 -104.53125 36.210938 -103.960938 37.828125 -102.828125 C 39.609375 -101.703125 40.296875 -100.128906 39.890625 -98.109375 C 39.492188 -96.085938 38.566406 -94.023438 37.109375 -91.921875 C 34.523438 -88.359375 32.019531 -84.757812 29.59375 -81.125 C 27.164062 -77.488281 24.660156 -73.8125 22.078125 -70.09375 C 20.941406 -68.476562 20.492188 -67.46875 20.734375 -67.0625 C 20.972656 -66.65625 21.09375 -65.882812 21.09375 -64.75 C 21.90625 -64.75 22.394531 -64.832031 22.5625 -65 C 24.007812 -65.96875 25.460938 -66.9375 26.921875 -67.90625 C 28.378906 -68.875 29.753906 -69.925781 31.046875 -71.0625 C 35.734375 -74.9375 40.582031 -78.488281 45.59375 -81.71875 C 50.601562 -84.957031 55.617188 -88.113281 60.640625 -91.1875 C 61.929688 -92 63.425781 -92.847656 65.125 -93.734375 C 66.820312 -94.628906 68.394531 -95.316406 69.84375 -95.796875 C 71.625 -96.285156 73.601562 -96.328125 75.78125 -95.921875 C 77.96875 -95.515625 79.867188 -95.148438 81.484375 -94.828125 C 81.804688 -94.671875 82.210938 -94.507812 82.703125 -94.34375 C 83.191406 -94.1875 83.515625 -93.863281 83.671875 -93.375 C 83.671875 -93.050781 83.59375 -92.726562 83.4375 -92.40625 C 83.269531 -91.757812 83.023438 -91.191406 82.703125 -90.703125 C 82.378906 -90.222656 82.054688 -89.738281 81.734375 -89.25 C 80.765625 -87.789062 79.753906 -86.332031 78.703125 -84.875 C 77.648438 -83.425781 76.71875 -81.894531 75.90625 -80.28125 C 75.257812 -79.3125 74.734375 -78.175781 74.328125 -76.875 C 73.929688 -75.582031 73.410156 -74.289062 72.765625 -73 L 67.421875 -63.296875 L 62.328125 -54.328125 C 61.847656 -53.191406 61.320312 -52.097656 60.75 -51.046875 C 60.1875 -49.992188 59.660156 -48.90625 59.171875 -47.78125 C 58.523438 -46.164062 58.890625 -45.4375 60.265625 -45.59375 C 61.640625 -45.757812 62.648438 -46.003906 63.296875 -46.328125 C 71.054688 -50.203125 78.410156 -54.890625 85.359375 -60.390625 C 92.316406 -65.890625 99.597656 -70.660156 107.203125 -74.703125 C 108.171875 -75.179688 109.21875 -75.785156 110.34375 -76.515625 C 111.476562 -77.242188 112.289062 -77.445312 112.78125 -77.125 C 114.550781 -75.988281 115.03125 -74.289062 114.21875 -72.03125 C 113.414062 -69.769531 112.128906 -67.992188 110.359375 -66.703125 C 110.023438 -66.535156 108.523438 -65.441406 105.859375 -63.421875 C 103.191406 -61.398438 99.957031 -59.054688 96.15625 -56.390625 C 92.363281 -53.722656 88.644531 -51.09375 85 -48.5 C 81.363281 -45.914062 78.414062 -43.894531 76.15625 -42.4375 C 70.976562 -38.882812 66.082031 -35.367188 61.46875 -31.890625 C 56.863281 -28.410156 51.25 -26.109375 44.625 -24.984375 Z M 44.625 -24.984375 "/></g></g></g><g fill="#000000" fill-opacity="1"><g transform="translate(1006.485987, 242.133338)"><g><path d="M 6.0625 -26.1875 C 4.769531 -25.382812 3.394531 -25.546875 1.9375 -26.671875 C -3.5625 -31.203125 -5.421875 -37.023438 -3.640625 -44.140625 C -2.992188 -46.242188 -2.304688 -48.34375 -1.578125 -50.4375 C -0.847656 -52.539062 0.0820312 -54.566406 1.21875 -56.515625 C 5.414062 -63.628906 10.101562 -70.296875 15.28125 -76.515625 C 20.457031 -82.742188 26.273438 -88.363281 32.734375 -93.375 C 34.035156 -94.34375 35.410156 -95.226562 36.859375 -96.03125 C 38.316406 -96.84375 39.773438 -97.570312 41.234375 -98.21875 C 45.921875 -100.320312 50.40625 -100 54.6875 -97.25 C 58.976562 -94.5 61.203125 -90.539062 61.359375 -85.375 C 61.359375 -84.726562 61.359375 -84.117188 61.359375 -83.546875 C 61.359375 -82.984375 61.441406 -82.378906 61.609375 -81.734375 C 61.929688 -80.117188 61.804688 -78.660156 61.234375 -77.359375 C 60.671875 -76.066406 59.90625 -74.773438 58.9375 -73.484375 C 57.476562 -71.222656 56.222656 -68.921875 55.171875 -66.578125 C 54.117188 -64.234375 52.945312 -61.925781 51.65625 -59.65625 L 43.40625 -44.140625 C 43.25 -43.492188 42.882812 -42.644531 42.3125 -41.59375 C 41.75 -40.539062 41.550781 -39.613281 41.71875 -38.8125 C 42.039062 -38 42.644531 -37.992188 43.53125 -38.796875 C 44.425781 -39.609375 45.035156 -40.175781 45.359375 -40.5 C 48.585938 -43.414062 51.941406 -46.082031 55.421875 -48.5 C 58.898438 -50.925781 62.414062 -53.273438 65.96875 -55.546875 L 84.15625 -67.421875 C 85.9375 -68.554688 87.675781 -69.726562 89.375 -70.9375 C 91.070312 -72.15625 92.8125 -73.25 94.59375 -74.21875 C 95.394531 -74.695312 96.359375 -75.257812 97.484375 -75.90625 C 98.617188 -76.550781 99.429688 -76.710938 99.921875 -76.390625 C 101.703125 -75.421875 102.1875 -73.804688 101.375 -71.546875 C 100.570312 -69.285156 99.28125 -67.507812 97.5 -66.21875 C 97.332031 -66.050781 95.875 -64.957031 93.125 -62.9375 C 90.382812 -60.914062 87.113281 -58.570312 83.3125 -55.90625 C 79.507812 -53.238281 75.789062 -50.609375 72.15625 -48.015625 C 68.519531 -45.429688 65.566406 -43.410156 63.296875 -41.953125 C 60.390625 -39.859375 57.5625 -37.796875 54.8125 -35.765625 C 52.0625 -33.742188 49.3125 -31.765625 46.5625 -29.828125 C 45.113281 -28.703125 43.414062 -27.894531 41.46875 -27.40625 C 38.394531 -26.4375 36.210938 -27.488281 34.921875 -30.5625 C 34.273438 -32.007812 33.789062 -33.300781 33.46875 -34.4375 C 33.144531 -35.570312 33.226562 -37.515625 33.71875 -40.265625 C 34.039062 -43.171875 34.765625 -45.957031 35.890625 -48.625 C 37.023438 -51.289062 37.429688 -52.625 37.109375 -52.625 C 36.460938 -52.625 35.046875 -51.65625 32.859375 -49.71875 C 30.679688 -47.78125 28.21875 -45.515625 25.46875 -42.921875 C 22.71875 -40.335938 20.046875 -37.832031 17.453125 -35.40625 C 14.867188 -32.976562 12.929688 -31.117188 11.640625 -29.828125 C 10.828125 -29.179688 9.894531 -28.570312 8.84375 -28 C 7.800781 -27.4375 6.875 -26.832031 6.0625 -26.1875 Z M 6.546875 -39.78125 C 7.515625 -39.9375 8.40625 -40.335938 9.21875 -40.984375 C 9.863281 -41.148438 10.425781 -41.632812 10.90625 -42.4375 C 13.175781 -44.382812 15.398438 -46.367188 17.578125 -48.390625 C 19.765625 -50.410156 21.988281 -52.390625 24.25 -54.328125 C 27.96875 -57.234375 31.40625 -60.34375 34.5625 -63.65625 C 37.71875 -66.976562 40.828125 -70.335938 43.890625 -73.734375 C 46.484375 -76.484375 48.832031 -79.3125 50.9375 -82.21875 C 52.226562 -84 52.992188 -85.738281 53.234375 -87.4375 C 53.472656 -89.132812 53.109375 -90.382812 52.140625 -91.1875 C 50.691406 -92.320312 49.28125 -92.644531 47.90625 -92.15625 C 46.53125 -91.675781 45.191406 -91.03125 43.890625 -90.21875 C 41.304688 -88.601562 38.84375 -86.863281 36.5 -85 C 34.15625 -83.144531 31.851562 -81.25 29.59375 -79.3125 C 26.03125 -76.238281 22.753906 -72.757812 19.765625 -68.875 C 16.773438 -65 13.90625 -61.039062 11.15625 -57 C 9.539062 -54.894531 8.328125 -52.546875 7.515625 -49.953125 C 6.710938 -47.367188 6.148438 -44.625 5.828125 -41.71875 Z M 6.546875 -39.78125 "/></g></g></g><g fill="#000000" fill-opacity="1"><g transform="translate(1089.446882, 242.133338)"><g/></g></g></g></g></g></svg>