<svg xmlns="http://www.w3.org/2000/svg" xmlns:xlink="http://www.w3.org/1999/xlink" width="1563" zoomAndPan="magnify" viewBox="0 0 1172.25 1172.249948" height="1563" preserveAspectRatio="xMidYMid meet" version="1.0"><path fill="#366baa" d="M 489.351562 1169.605469 C 437.972656 1168.277344 386.0625 1165.339844 354.714844 1161.988281 C 344.984375 1160.945312 325.527344 1159.597656 311.472656 1158.996094 C 278.910156 1157.59375 265.105469 1155.613281 251.117188 1150.339844 C 231.300781 1142.867188 228.472656 1138.125 237.445312 1127.414062 C 242.183594 1121.765625 264.972656 1109.167969 282.976562 1102.253906 C 291.082031 1099.140625 302.582031 1094.445312 308.527344 1091.824219 C 320.023438 1086.753906 326.335938 1084.578125 349.800781 1077.609375 C 357.910156 1075.203125 374.554688 1068.402344 386.792969 1062.496094 C 411.730469 1050.457031 429.574219 1045.277344 459.945312 1041.265625 C 487.183594 1037.667969 494.796875 1034.441406 503.742188 1022.710938 C 514.480469 1008.632812 528.476562 975.625 531.753906 956.660156 C 532.5 952.335938 533.773438 947.46875 534.585938 945.847656 C 535.394531 944.226562 536.550781 938.921875 537.148438 934.054688 C 537.75 929.191406 539.617188 917.25 541.292969 907.519531 C 543.839844 892.765625 544.269531 872.464844 543.875 785.171875 C 543.617188 727.605469 542.960938 680.523438 542.421875 680.539062 C 539.5625 680.632812 507.9375 698.867188 498.878906 705.644531 C 493.097656 709.96875 481.648438 716.675781 473.4375 720.539062 C 456.261719 728.628906 451.523438 733.292969 422.257812 770.917969 C 415.109375 780.105469 406.457031 793.816406 403.03125 801.382812 C 391.671875 826.449219 385.746094 835.03125 382.21875 831.503906 C 380.097656 829.382812 387.246094 806.003906 394.382812 791.726562 C 401.222656 778.042969 421.976562 747.332031 424.382812 747.332031 C 425.058594 747.332031 427.273438 744.457031 429.304688 740.945312 C 434.539062 731.902344 445.136719 722.832031 458.867188 715.640625 C 465.363281 712.238281 477.179688 704.625 485.121094 698.722656 C 493.058594 692.820312 508.539062 683.375 519.515625 677.730469 C 544 665.148438 553.613281 659.046875 560.515625 651.71875 L 565.835938 646.074219 L 562.726562 632.445312 L 559.621094 618.820312 L 556.019531 625.585938 C 554.039062 629.304688 552.378906 633.898438 552.335938 635.789062 C 552.285156 637.890625 550.722656 639.226562 548.320312 639.226562 C 546.160156 639.226562 544.390625 640.53125 544.390625 642.125 C 544.390625 646.371094 534.554688 650.753906 520.425781 652.804688 C 498.402344 656.003906 453.214844 675.117188 440.953125 686.417969 C 436.472656 690.550781 429.386719 696.214844 425.210938 699.007812 C 411.957031 707.867188 398.125 718.011719 393.046875 722.589844 C 384.996094 729.847656 358.878906 758.054688 355.703125 762.921875 C 354.082031 765.40625 351.203125 769.46875 349.3125 771.945312 C 347.421875 774.421875 345.875 777.304688 345.875 778.347656 C 345.875 779.386719 343.964844 784.554688 341.628906 789.828125 C 339.296875 795.101562 336.617188 802.511719 335.675781 806.292969 C 326.609375 842.800781 317.402344 869.488281 307.867188 886.878906 C 305.789062 890.664062 300.511719 900.390625 296.128906 908.5 C 289.15625 921.40625 280.410156 934.308594 274.132812 940.945312 C 269.265625 946.09375 258.605469 952.21875 246.261719 956.96875 C 234.902344 961.335938 228.8125 962.261719 206.324219 963.0625 C 167.175781 964.445312 148.664062 960.753906 134.769531 948.792969 C 124.46875 939.925781 122.523438 944.023438 130.894531 956.941406 C 134.050781 961.804688 141.300781 968.183594 149.570312 973.375 C 157 978.039062 163.085938 982.902344 163.085938 984.1875 C 163.085938 985.472656 159.542969 988.121094 155.210938 990.070312 C 145.726562 994.347656 141.335938 998.746094 146.71875 998.574219 C 148.695312 998.515625 164.679688 999.625 182.246094 1001.046875 C 228.742188 1004.808594 252.230469 1000.863281 278.757812 984.835938 C 285.625 980.6875 291.835938 977.292969 292.5625 977.292969 C 293.285156 977.292969 297.175781 974.574219 301.207031 971.25 C 306.292969 967.058594 311.878906 958.492188 319.476562 943.242188 C 325.496094 931.160156 332.019531 919.503906 333.976562 917.34375 C 335.9375 915.179688 342.457031 905.894531 348.472656 896.707031 C 354.488281 887.515625 360.664062 878.449219 362.195312 876.558594 C 365.324219 872.695312 373.394531 871.875 373.394531 875.421875 C 373.394531 879.191406 361.464844 902.777344 353.683594 914.394531 C 349.699219 920.339844 342.015625 934.492188 336.605469 945.84375 C 323.726562 972.878906 319.789062 976.578125 284.082031 995.214844 C 260.332031 1007.613281 233.621094 1011.894531 192.726562 1009.867188 C 121.609375 1006.335938 118.558594 1005.710938 123.855469 995.8125 C 125.371094 992.980469 129.820312 988.816406 133.746094 986.558594 L 140.886719 982.449219 L 131.839844 975.242188 C 126.863281 971.277344 121.332031 966.355469 119.546875 964.308594 C 114.882812 958.949219 111.863281 946.40625 113.933594 940.964844 C 114.882812 938.464844 115.128906 935.886719 114.476562 935.234375 C 113.824219 934.582031 114.988281 933.945312 117.058594 933.816406 C 122.457031 933.484375 126.570312 934.238281 127.707031 935.769531 C 128.246094 936.496094 135.320312 941.027344 143.429688 945.839844 L 158.171875 954.585938 L 186.324219 955.277344 C 210.378906 955.867188 216.40625 955.378906 227.71875 951.945312 C 243.746094 947.078125 255.554688 938.882812 262.695312 927.671875 C 277.984375 903.675781 302.636719 849.109375 302.636719 839.257812 C 302.636719 836.035156 311.867188 805.917969 317.863281 789.585938 C 320.640625 782.019531 325.746094 771.40625 329.207031 766 C 339.355469 750.152344 372.230469 718.886719 395.910156 702.5625 C 407.847656 694.332031 418.058594 687.105469 418.597656 686.503906 C 419.140625 685.902344 423.082031 682.402344 427.355469 678.730469 L 435.128906 672.050781 L 427.355469 673.542969 C 373.523438 683.890625 336.378906 676.863281 288.875 647.355469 C 265.4375 632.796875 247.464844 596.386719 247.335938 563.203125 C 247.230469 536.246094 253.621094 518.796875 271.558594 497.039062 C 285.898438 479.648438 315.566406 460.972656 335.65625 456.6875 C 357.445312 452.042969 398.566406 455.136719 420.113281 463.039062 C 445.121094 472.207031 453.46875 478.597656 465.773438 497.980469 C 467.394531 500.535156 474.183594 507.929688 480.859375 514.417969 C 492.53125 525.753906 500.996094 536.488281 517.875 561.351562 C 525.363281 572.382812 537.398438 584.195312 541.15625 584.195312 C 542.125 584.195312 542.328125 581.320312 541.601562 577.804688 C 540.878906 574.292969 538.988281 562.855469 537.40625 552.390625 C 532.300781 518.710938 528.957031 511.207031 508.460938 487.464844 C 486.882812 462.476562 472.144531 449.417969 463.347656 447.5 C 459.816406 446.730469 448.039062 443.195312 437.171875 439.640625 C 419.917969 433.996094 409.105469 429.289062 384.203125 416.574219 C 380.960938 414.917969 371.394531 410.71875 362.945312 407.246094 C 354.496094 403.769531 343.722656 398.160156 339 394.777344 C 334.28125 391.394531 323.503906 383.675781 315.054688 377.625 C 306.601562 371.578125 296.832031 365.152344 293.339844 363.347656 C 281.675781 357.320312 262.519531 337.226562 250.636719 318.566406 C 244.199219 308.453125 238.335938 299.734375 237.605469 299.195312 C 236.878906 298.652344 230.371094 289.367188 223.144531 278.558594 C 202.652344 247.910156 196.496094 233.042969 186.917969 191.09375 C 184.820312 181.902344 180.855469 165.984375 178.109375 155.714844 C 175.359375 145.445312 172.402344 133.0625 171.539062 128.195312 C 169.050781 114.230469 169.671875 86.640625 172.628906 79.625 C 175.03125 73.933594 174.882812 72.65625 171.15625 66.617188 C 165.542969 57.535156 165.949219 52.789062 172.835938 46.996094 C 182.457031 38.898438 187.824219 37.410156 266.273438 21.101562 C 288.988281 16.382812 303.789062 14.457031 341.945312 11.265625 C 361.945312 9.589844 385.824219 7.375 395.015625 6.339844 C 434.988281 1.847656 488.53125 0.0429688 545.367188 1.28125 C 577.796875 1.984375 606.984375 2.933594 610.230469 3.382812 C 613.472656 3.835938 630.71875 4.6875 648.558594 5.28125 C 683.359375 6.433594 720.125 9.347656 736.023438 12.207031 C 741.425781 13.179688 750.714844 14.523438 756.660156 15.195312 C 766.558594 16.316406 794.261719 21.097656 837.242188 29.109375 C 846.433594 30.820312 862.351562 34.304688 872.621094 36.851562 C 882.890625 39.394531 897.484375 42.925781 905.050781 44.695312 C 912.621094 46.464844 924.117188 49.195312 930.605469 50.765625 C 937.089844 52.339844 949.03125 54.996094 957.136719 56.671875 C 973.398438 60.03125 981.9375 64.453125 989.488281 73.425781 C 995.984375 81.144531 995.796875 84.804688 988.773438 87.453125 L 983.066406 89.609375 L 983.679688 109.394531 C 984.269531 128.378906 983.933594 130.253906 975.453125 155.714844 C 970.589844 170.308594 966.34375 183.574219 966.011719 185.199219 C 965.683594 186.820312 962.667969 194.140625 959.3125 201.464844 C 955.953125 208.789062 953.210938 215.59375 953.210938 216.585938 C 953.210938 220.359375 931.191406 255.578125 920.328125 269.175781 C 899.660156 295.050781 871.289062 327.554688 860.386719 337.84375 C 854.269531 343.621094 842.527344 351.5625 833.125 356.285156 C 824.039062 360.851562 811.945312 367.5625 806.25 371.199219 C 800.554688 374.839844 795.480469 377.816406 794.980469 377.816406 C 794.476562 377.816406 789.847656 380.363281 784.699219 383.472656 C 779.546875 386.585938 767.984375 391.539062 759.007812 394.480469 C 748.742188 397.847656 737.226562 403.589844 727.976562 409.953125 C 705.628906 425.332031 697.453125 430 686.445312 433.652344 C 680.90625 435.492188 675.316406 438.277344 674.019531 439.835938 C 672.722656 441.402344 670.664062 442.710938 669.445312 442.75 C 664.65625 442.914062 652.671875 456.164062 644.917969 469.875 C 640.433594 477.808594 636.765625 485.34375 636.765625 486.621094 C 636.765625 487.898438 632.890625 496.886719 628.152344 506.59375 C 623.414062 516.304688 618.425781 527.785156 617.066406 532.109375 C 615.707031 536.433594 613.902344 542.183594 613.054688 544.882812 C 610.90625 551.730469 608.820312 564.066406 608.234375 573.386719 C 607.964844 577.707031 607.636719 582.457031 607.511719 583.941406 C 607.335938 586 604.515625 586.433594 595.53125 585.78125 C 589.066406 585.316406 583.132812 584.285156 582.34375 583.496094 C 577.410156 578.5625 586.492188 524.96875 594.382812 512.453125 C 595.746094 510.292969 597.996094 504.984375 599.378906 500.660156 C 600.765625 496.335938 602.515625 491.914062 603.273438 490.835938 C 604.027344 489.753906 606.199219 484.652344 608.105469 479.496094 C 611.601562 470.035156 623.777344 450.664062 627.742188 448.253906 C 628.921875 447.535156 632.542969 444.648438 635.785156 441.835938 C 642.308594 436.179688 666.042969 424.230469 674.808594 422.1875 C 677.890625 421.46875 684.96875 417.570312 690.53125 413.523438 C 708.828125 400.214844 720.816406 393.378906 736.351562 387.398438 C 753.910156 380.636719 770.972656 371.886719 785.152344 362.371094 C 790.5625 358.742188 801.785156 352.351562 810.085938 348.167969 C 827.234375 339.53125 841.019531 326.9375 857.230469 305.09375 C 863.246094 296.988281 874.0625 283.71875 881.261719 275.613281 C 888.464844 267.503906 896.390625 257.773438 898.875 253.992188 C 901.359375 250.207031 905.714844 243.574219 908.554688 239.25 C 915.289062 228.996094 929.988281 197.476562 935.59375 181.269531 C 938.023438 174.242188 942.535156 161.417969 945.617188 152.769531 C 951.394531 136.566406 952.476562 130.394531 954.1875 103.824219 C 954.738281 95.285156 956.085938 87.214844 957.183594 85.894531 C 959.839844 82.691406 957.660156 77.515625 952.488281 74.734375 C 950.183594 73.496094 941.222656 70.976562 932.574219 69.140625 C 923.925781 67.304688 903.582031 62.625 887.367188 58.738281 C 839.546875 47.28125 817.804688 42.515625 796.957031 38.929688 C 786.144531 37.066406 771.109375 34.328125 763.542969 32.839844 C 743.433594 28.882812 687.914062 22.753906 649.542969 20.257812 C 597.554688 16.871094 464.765625 15.363281 436.285156 17.835938 C 322.679688 27.703125 293.925781 31.242188 255.460938 40.085938 C 218.367188 48.613281 204.359375 52.957031 204.359375 55.933594 C 204.359375 60.898438 211.953125 69.6875 219.054688 72.9375 C 223.402344 74.925781 234.039062 78.085938 242.683594 79.953125 C 251.332031 81.824219 271.234375 86.414062 286.910156 90.148438 C 330.230469 100.480469 329.996094 100.429688 347.839844 103.691406 C 357.027344 105.371094 368.082031 107.5625 372.40625 108.566406 C 388.898438 112.378906 454.421875 120.265625 487.378906 122.402344 C 506.289062 123.628906 522.457031 125.058594 523.308594 125.585938 C 525.472656 126.921875 615.390625 126.703125 627.675781 125.332031 C 633.214844 124.714844 659.605469 122.875 686.3125 121.246094 C 758.480469 116.84375 779.894531 113.589844 840.195312 97.859375 C 851.007812 95.039062 871.644531 91.410156 886.054688 89.796875 C 911.511719 86.941406 919.464844 84.5625 929.402344 76.816406 C 940.015625 68.542969 943.523438 76.65625 933.617188 86.5625 C 926.882812 93.292969 907.960938 99.570312 888.351562 101.578125 C 881.324219 102.296875 867.171875 105.152344 856.902344 107.921875 C 770.53125 131.21875 770.179688 131.269531 649.542969 140.230469 C 556.257812 147.15625 430.359375 139.433594 342.925781 121.425781 C 335.359375 119.867188 320.167969 116.855469 309.167969 114.730469 C 298.167969 112.609375 286.230469 109.890625 282.636719 108.691406 C 274.511719 105.980469 229.734375 95.4375 219.101562 93.730469 C 210.171875 92.296875 194.476562 87.089844 191.683594 84.632812 C 187.683594 81.121094 186.671875 83.476562 186.671875 96.28125 C 186.671875 110.117188 194.292969 151.066406 199.621094 165.855469 C 201.308594 170.546875 203.007812 175.886719 203.394531 177.71875 C 205.09375 185.800781 218.527344 225.324219 223.074219 235.597656 C 225.824219 241.820312 230.257812 249.769531 232.925781 253.265625 C 235.59375 256.761719 237.777344 260.566406 237.777344 261.722656 C 237.777344 262.875 238.519531 263.816406 239.425781 263.816406 C 240.332031 263.816406 242.007812 265.808594 243.148438 268.242188 C 244.292969 270.671875 253.070312 283.277344 262.664062 296.25 C 272.253906 309.222656 281.53125 322.046875 283.28125 324.75 C 285.03125 327.453125 288.421875 331.875 290.820312 334.578125 C 293.214844 337.28125 296.191406 340.851562 297.433594 342.511719 C 298.675781 344.175781 310.746094 352.925781 324.257812 361.957031 C 337.769531 370.988281 352.027344 380.886719 355.941406 383.957031 C 359.851562 387.023438 370.023438 392.679688 378.542969 396.527344 C 387.0625 400.371094 401.550781 407.394531 410.738281 412.136719 C 431.617188 422.910156 444.191406 427.726562 467.097656 433.730469 C 477.015625 436.332031 487.628906 440.046875 490.683594 441.984375 C 501.308594 448.730469 518.558594 464.664062 524.046875 472.808594 C 527.085938 477.316406 533.238281 485.179688 537.722656 490.28125 C 551.9375 506.46875 555.15625 516.460938 557.203125 550.78125 C 557.75 559.96875 558.703125 571.605469 559.316406 576.640625 C 560.316406 584.820312 559.980469 585.9375 556.148438 587.152344 C 550.328125 589 553.820312 592.257812 563.457031 593.96875 C 568.507812 594.867188 572.835938 594.339844 576.824219 592.34375 C 591.136719 585.171875 624.449219 591.832031 632.011719 603.378906 L 635.304688 608.398438 L 638.496094 604.355469 C 645.371094 595.636719 682.289062 576.332031 709.496094 567.234375 C 721.507812 563.21875 759.109375 560.523438 771.40625 562.796875 C 784.308594 565.183594 795.621094 575.546875 792.234375 581.875 C 791.03125 584.121094 787.933594 587.109375 785.347656 588.515625 C 782.761719 589.921875 773.261719 595.21875 764.234375 600.289062 C 746.449219 610.277344 717.945312 621.539062 710.460938 621.539062 C 700.167969 621.539062 704.460938 617.289062 724.113281 608.019531 C 744.398438 598.449219 767.921875 580.234375 765.359375 576.082031 C 764.773438 575.136719 756.609375 574.390625 747.214844 574.414062 C 729.179688 574.46875 721.394531 576.5625 689.03125 590.0625 C 671.183594 597.507812 658.816406 605.351562 651.8125 613.679688 C 647.632812 618.644531 647.253906 620.167969 649.171875 624.234375 C 651.386719 628.929688 651.832031 629 687.824219 630.324219 C 727.078125 631.765625 736.402344 631.808594 786.484375 630.789062 L 819.246094 630.121094 L 842.40625 618.457031 C 867.164062 605.988281 876.015625 598.789062 882.710938 585.667969 C 889.429688 572.492188 890.113281 567.875 887.203125 555.277344 C 881.550781 530.800781 877.402344 525.800781 855.925781 517.554688 C 834.019531 509.148438 820.832031 507.300781 792.046875 508.609375 C 740.425781 510.957031 723.4375 516.03125 694.757812 537.660156 C 681.382812 547.746094 647.421875 580.1875 639.152344 590.773438 C 635.992188 594.820312 628.230469 594.984375 624.984375 591.070312 C 621.058594 586.34375 625.777344 577.972656 641.449219 561.871094 C 672.253906 530.214844 697.882812 512.324219 723.257812 504.746094 C 738.660156 500.148438 780.316406 495.632812 809.425781 495.40625 C 830.371094 495.242188 837.371094 496.019531 853.667969 500.328125 C 890.726562 510.117188 906.015625 519.859375 911.734375 537.3125 C 925.082031 578.035156 911.359375 602.402344 860.667969 628 C 831.085938 642.9375 817.847656 646.21875 794.640625 644.359375 C 785.652344 643.636719 773.960938 644.355469 762.460938 646.328125 C 747.386719 648.917969 741.421875 649.058594 726.453125 647.160156 C 716.589844 645.910156 696.574219 644.152344 681.980469 643.253906 C 667.386719 642.359375 654.121094 641.304688 652.496094 640.914062 C 649.980469 640.308594 649.46875 645.097656 648.988281 673.621094 C 648.34375 712.246094 649.9375 719.488281 665.984375 750.933594 C 676.078125 770.714844 686.648438 782.949219 703.109375 793.910156 C 708.785156 797.6875 713.429688 801.472656 713.429688 802.324219 C 713.429688 809.917969 754.320312 821.445312 797.207031 825.945312 C 813.449219 827.648438 864.28125 843.226562 880.351562 851.425781 C 884.742188 853.664062 896.082031 857.3125 905.546875 859.523438 C 929.917969 865.230469 979.789062 882.273438 988.304688 887.804688 C 992.25 890.371094 998.574219 895.246094 1002.359375 898.644531 C 1006.140625 902.039062 1013.21875 907.597656 1018.082031 911 C 1022.949219 914.398438 1028.640625 918.765625 1030.738281 920.699219 C 1032.832031 922.636719 1035.074219 924.21875 1035.722656 924.21875 C 1038.664062 924.21875 1051.652344 944.550781 1053.554688 952.136719 C 1058.378906 971.339844 1059.480469 979.035156 1059.539062 993.933594 C 1059.585938 1006.105469 1058.898438 1010.109375 1056.441406 1011.90625 C 1051.375 1015.609375 1046.089844 1012.882812 1038.621094 1002.703125 C 1030.011719 990.976562 1012.074219 974.597656 1010.15625 976.710938 C 1009.375 977.566406 1006.890625 983.722656 1004.625 990.390625 C 996.847656 1013.304688 990.417969 1024.203125 983.285156 1026.558594 C 978.550781 1028.121094 974.972656 1028.089844 969.984375 1026.445312 C 963.40625 1024.273438 963.191406 1023.898438 964.074219 1015.972656 C 967.230469 987.597656 966.066406 979.777344 957.054688 968.730469 C 956.042969 967.492188 952.011719 962.5 948.09375 957.632812 C 929.46875 934.5 906.9375 913.90625 894.847656 908.960938 C 892.902344 908.164062 885.558594 904.261719 878.535156 900.28125 C 869.753906 895.3125 856.199219 890.550781 835.183594 885.050781 C 809.277344 878.269531 801.621094 877.046875 785.007812 877.046875 C 752.933594 877.046875 718.265625 872.050781 705.570312 865.597656 C 685.90625 855.601562 664.367188 841.429688 655.914062 832.929688 C 648.109375 825.078125 634.175781 803.558594 623.078125 782.210938 C 620.40625 777.078125 617.648438 772.875 616.945312 772.875 C 614.171875 772.875 612.058594 804.480469 613.460938 824.960938 C 614.277344 836.851562 614.488281 858.964844 613.929688 874.097656 C 612.980469 899.925781 613.289062 903.1875 618.988281 927.167969 C 622.328125 941.222656 625.527344 954.929688 626.101562 957.632812 C 626.675781 960.335938 628.382812 966.761719 629.898438 971.910156 C 631.410156 977.0625 632.636719 981.484375 632.621094 981.738281 C 632.574219 982.390625 634.8125 989.082031 637.214844 995.507812 C 641.3125 1006.472656 657.648438 1016.503906 681.628906 1022.78125 C 689.828125 1024.929688 705.867188 1030.519531 717.269531 1035.199219 C 728.671875 1039.878906 748.847656 1046.941406 762.105469 1050.886719 C 775.367188 1054.835938 792.613281 1060.730469 800.433594 1063.988281 C 808.253906 1067.246094 822.613281 1072.816406 832.339844 1076.371094 C 854.109375 1084.320312 872.058594 1093.742188 886.394531 1104.75 C 890.175781 1107.65625 896.609375 1112.226562 900.683594 1114.910156 C 910.933594 1121.65625 909.859375 1126.273438 896.511719 1132.777344 C 883.582031 1139.082031 867.035156 1141.976562 836.273438 1143.328125 C 786.761719 1145.496094 768.460938 1146.9375 768.460938 1148.664062 C 768.460938 1149.648438 765.144531 1151.886719 761.09375 1153.640625 C 753.875 1156.761719 748.804688 1157.371094 692.792969 1161.886719 C 677.660156 1163.105469 651.566406 1165.5625 634.8125 1167.34375 C 600.910156 1170.949219 563.875 1171.519531 489.363281 1169.597656 Z M 614.996094 1157.078125 C 628.363281 1155.425781 640.019531 1153.625 640.902344 1153.082031 C 641.785156 1152.535156 653.011719 1151.675781 665.855469 1151.167969 C 678.699219 1150.660156 699.242188 1148.921875 711.507812 1147.304688 C 723.773438 1145.6875 737.230469 1144.363281 741.417969 1144.363281 C 750.730469 1144.363281 749.566406 1141.382812 739.519531 1139.5 C 735.476562 1138.738281 730.433594 1137.191406 728.316406 1136.058594 C 724.558594 1134.050781 724.578125 1133.910156 728.988281 1130.335938 C 732.539062 1127.460938 736.8125 1126.675781 748.886719 1126.675781 C 757.34375 1126.675781 766.367188 1127.472656 768.933594 1128.449219 C 773.402344 1130.148438 855.101562 1126.226562 870.632812 1123.566406 C 877.175781 1122.445312 877.308594 1122.261719 873.582031 1119.539062 C 871.433594 1117.972656 867.679688 1114.957031 865.238281 1112.835938 C 862.796875 1110.71875 860.34375 1108.984375 859.785156 1108.984375 C 859.226562 1108.984375 853.261719 1105.550781 846.53125 1101.351562 C 839.800781 1097.152344 830.757812 1092.605469 826.433594 1091.246094 C 822.109375 1089.886719 807.515625 1084.621094 794.003906 1079.539062 C 780.492188 1074.457031 760.148438 1067.414062 748.796875 1063.882812 C 737.445312 1060.355469 717.546875 1053.523438 704.574219 1048.707031 C 691.601562 1043.886719 673.90625 1037.960938 665.246094 1035.535156 C 629.1875 1025.433594 610.285156 1008.171875 607.9375 983.191406 C 607.480469 978.328125 606.667969 973.074219 606.128906 971.519531 C 605.59375 969.960938 602.4375 955.367188 599.117188 939.089844 C 594.507812 916.476562 593.132812 904.761719 593.308594 889.460938 C 593.433594 878.445312 592.753906 868.949219 591.796875 868.359375 C 590.839844 867.765625 589.984375 863.953125 589.898438 859.886719 C 589.808594 855.816406 588.878906 845.894531 587.832031 837.835938 C 585.816406 822.300781 586.175781 820.058594 590.695312 820.058594 C 593 820.058594 593.582031 815.238281 593.832031 794.015625 C 594 779.691406 594.324219 765.761719 594.546875 763.058594 C 594.769531 760.355469 595.535156 742.667969 596.246094 723.746094 C 598.554688 662.410156 599.1875 656.976562 604.65625 651.507812 C 607.3125 648.851562 609.210938 646.453125 608.875 646.179688 C 608.542969 645.90625 605.058594 645.191406 601.136719 644.585938 C 595.007812 643.640625 593.710938 644.136719 591.898438 648.117188 C 589.839844 652.636719 571.167969 668.714844 567.976562 668.714844 C 567.089844 668.714844 566.445312 679.992188 566.542969 693.773438 C 566.644531 707.558594 566.070312 726.351562 565.277344 735.542969 C 564.480469 744.730469 563.480469 756.671875 563.058594 762.078125 C 560.476562 795.035156 559.589844 804.472656 558.148438 814.164062 C 557.214844 820.414062 557.292969 825.761719 558.324219 826.839844 C 559.308594 827.867188 560.105469 846.441406 560.097656 868.113281 C 560.078125 934.503906 552.46875 977.15625 534.183594 1013.414062 C 520.652344 1040.242188 511.058594 1046.015625 468.246094 1053.125 C 434.566406 1058.714844 424.992188 1061.527344 404.835938 1071.738281 C 390.667969 1078.914062 383.378906 1081.574219 348.820312 1092.15625 C 328.242188 1098.460938 284.621094 1115.066406 272.164062 1121.339844 C 266.757812 1124.0625 259.894531 1128.867188 256.910156 1132.019531 L 251.480469 1137.746094 L 260.917969 1142.011719 C 271.511719 1146.800781 297.839844 1150.167969 325.230469 1150.238281 C 334.960938 1150.261719 348.148438 1151.140625 354.539062 1152.1875 C 360.929688 1153.230469 381.269531 1154.648438 399.746094 1155.328125 C 418.21875 1156.011719 442.621094 1157.230469 453.96875 1158.039062 C 493.804688 1160.871094 588.949219 1160.304688 614.996094 1157.078125 Z M 998.117188 973.363281 C 999.039062 971.742188 1003.03125 970.140625 1006.988281 969.804688 C 1015.203125 969.105469 1021.691406 972.886719 1036.25 986.859375 C 1041.386719 991.785156 1045.585938 994.828125 1045.585938 993.621094 C 1045.585938 988.101562 1030.644531 948.042969 1025.640625 940.15625 C 1020.703125 932.371094 1004.027344 916.453125 1000.660156 916.3125 C 999.964844 916.28125 994.976562 912.25 989.570312 907.347656 C 984.164062 902.445312 977.089844 896.394531 973.847656 893.902344 C 966.144531 887.988281 930.601562 874.332031 902.105469 866.34375 C 889.675781 862.859375 874.195312 857.570312 867.710938 854.589844 C 843.671875 843.542969 814.035156 836.488281 785.160156 834.941406 C 759.054688 833.539062 746.675781 831.546875 726.195312 825.449219 C 709.125 820.363281 705.457031 818.144531 684.726562 800.347656 C 665.265625 783.644531 658.566406 775.644531 650.636719 759.660156 C 634.3125 726.765625 632.382812 714.710938 635.671875 666.253906 C 637.210938 643.542969 637.167969 643.160156 633.070312 643.160156 C 629.902344 643.160156 628.902344 641.945312 628.902344 638.082031 C 628.902344 628.1875 624.011719 634.636719 620.457031 649.21875 C 615.632812 669.015625 613.882812 703.203125 617.070312 715.324219 C 625.410156 747.011719 635.621094 771.878906 647.410156 789.1875 C 650.207031 793.289062 652.488281 797.003906 652.488281 797.441406 C 652.488281 800.042969 667.101562 821.808594 673.082031 828.121094 C 679.6875 835.09375 696.371094 847.570312 699.082031 847.570312 C 699.738281 847.570312 703.230469 849.828125 706.847656 852.585938 C 710.460938 855.34375 716.320312 858.8125 719.863281 860.292969 C 728.320312 863.828125 759.269531 867.199219 784.589844 867.34375 C 808.445312 867.484375 813.808594 868.355469 849.925781 877.96875 C 888.128906 888.140625 925.8125 908.277344 944.503906 928.503906 C 962.644531 948.136719 981.117188 974.453125 981.851562 981.71875 C 982.042969 983.609375 982.3125 988.421875 982.449219 992.410156 L 982.691406 999.667969 L 989.566406 987.988281 C 993.347656 981.566406 997.195312 974.984375 998.117188 973.363281 Z M 428.421875 661.832031 C 440.851562 659.285156 455.890625 656.589844 461.835938 655.839844 C 467.78125 655.089844 480.605469 652.042969 490.335938 649.070312 C 500.066406 646.097656 515.65625 642.539062 524.988281 641.164062 L 541.949219 638.667969 L 540.167969 632.21875 C 539.191406 628.675781 538.632812 624.597656 538.929688 623.164062 C 539.316406 621.316406 536.03125 620.234375 527.679688 619.453125 C 510.9375 617.886719 496.15625 612.929688 470.996094 600.449219 C 446.699219 588.394531 434.9375 578.679688 415.160156 554.320312 C 408.40625 545.996094 398.773438 535.828125 393.761719 531.71875 C 388.746094 527.609375 382.421875 522.253906 379.707031 519.820312 C 375.394531 515.953125 373.121094 515.492188 361.792969 516.183594 C 354.660156 516.617188 345.910156 517.058594 342.347656 517.167969 C 332.003906 517.488281 317.730469 532.082031 313.769531 546.394531 C 310.410156 558.511719 309.042969 586.308594 311.445312 593.53125 C 313.4375 599.511719 308.644531 599.441406 302.972656 593.40625 C 293.507812 583.328125 292.3125 545.640625 301.011719 531.53125 C 312.605469 512.726562 319.164062 509.609375 353.734375 506.476562 C 383.144531 503.8125 385.855469 504.304688 401.375 515.128906 C 411.453125 522.152344 431.835938 541.957031 437.210938 549.941406 C 439.339844 553.105469 447.296875 561.929688 454.898438 569.550781 C 466.28125 580.960938 472.445312 585.203125 489.875 593.625 C 501.511719 599.25 512.242188 603.851562 513.714844 603.851562 C 515.1875 603.851562 519.566406 605.175781 523.449219 606.800781 C 527.332031 608.421875 533.847656 609.726562 537.9375 609.703125 L 545.371094 609.660156 L 540.457031 605.773438 C 537.753906 603.632812 530.679688 599.542969 524.734375 596.6875 C 506.480469 587.914062 497.808594 579.371094 484.449219 557.011719 C 475.25 541.617188 466.082031 529.644531 456.769531 520.867188 C 450.714844 515.160156 441.980469 504.6875 437.367188 497.589844 C 430.457031 486.964844 426.933594 483.648438 417.378906 478.753906 C 391.351562 465.433594 354.667969 462.3125 336.046875 471.839844 C 319.441406 480.332031 299.867188 494.753906 294.257812 502.628906 C 286.453125 513.582031 277.480469 532.578125 275.691406 541.9375 C 273.523438 553.261719 274.242188 577.824219 277.035156 588.125 C 281.734375 605.4375 292.9375 625.222656 303.410156 634.707031 C 314.160156 644.4375 342.15625 658.824219 362.242188 664.9375 C 377.117188 669.464844 395.300781 668.609375 428.425781 661.832031 Z M 603.175781 630.746094 C 608.925781 618.871094 608.558594 607.816406 602.261719 603.234375 C 599.558594 601.265625 594.960938 599.945312 592.003906 600.285156 C 587.34375 600.820312 586.714844 601.675781 587.199219 606.800781 C 587.503906 610.042969 588.089844 617.558594 588.496094 623.507812 C 589.035156 631.414062 590.074219 634.488281 592.359375 634.953125 C 594.082031 635.300781 595.488281 636.40625 595.488281 637.410156 C 595.488281 641.90625 599.425781 638.496094 603.175781 630.746094 Z M 394.683594 368.121094 C 386.875 366.578125 377.316406 361.136719 377.316406 358.230469 C 377.316406 355.351562 385.644531 350.300781 390.390625 350.300781 C 392.773438 350.300781 396.167969 351.746094 397.933594 353.511719 C 400.519531 356.09375 402.078125 356.292969 405.9375 354.535156 C 408.574219 353.332031 410.828125 351.667969 410.945312 350.835938 C 412.414062 340.503906 411.742188 336.394531 407.773438 331.417969 C 403.941406 326.605469 402.898438 326.207031 400.152344 328.488281 C 398.402344 329.9375 396.972656 332.816406 396.972656 334.878906 C 396.972656 340.945312 391.269531 341.558594 385.792969 336.082031 C 381.722656 332.011719 381.222656 330.433594 382.972656 327.167969 C 386.878906 319.871094 407.492188 316.222656 419.347656 320.734375 C 431.992188 325.539062 441.207031 343.78125 437.265625 356.199219 C 434.648438 364.441406 410.40625 371.230469 394.6875 368.121094 Z M 572.230469 354.109375 C 565.84375 351.550781 567.792969 347.863281 577.289062 344.523438 C 583.953125 342.175781 585.871094 342.132812 588.445312 344.273438 C 593.019531 348.070312 592.242188 352.105469 586.515625 354.28125 C 580.503906 356.566406 578.289062 356.542969 572.230469 354.109375 Z M 668.703125 326.65625 C 665.507812 325.371094 664.28125 323.257812 664.28125 319.035156 C 664.28125 315.820312 665.082031 312.695312 666.0625 312.089844 C 667.042969 311.484375 667.394531 309.277344 666.847656 307.183594 C 664.425781 297.921875 690.535156 301.285156 695.679688 310.898438 C 701.914062 322.546875 684.210938 332.886719 668.703125 326.652344 Z M 747.070312 321.007812 C 742.535156 318.132812 746.617188 314.921875 754.808594 314.921875 C 760.121094 314.921875 762.554688 315.785156 762.554688 317.660156 C 762.554688 322.316406 752.550781 324.480469 747.070312 321.007812 Z M 466.117188 308.914062 C 458.792969 305.976562 461.027344 298.386719 469.453125 297.582031 L 476.085938 296.949219 L 474.894531 288.246094 L 473.703125 279.546875 L 481.285156 279.546875 C 489.578125 279.546875 492.261719 281.671875 494.320312 289.875 C 496.558594 298.800781 493.847656 305.058594 486.394531 308.175781 C 478.765625 311.363281 472.765625 311.582031 466.117188 308.914062 Z M 693.761719 261.839844 C 682.140625 260.351562 672.921875 258.191406 652.089844 252.066406 C 648.089844 250.890625 639.6875 247.644531 633.417969 244.847656 C 612.898438 235.699219 570.699219 222.738281 548.90625 218.890625 C 529.472656 215.457031 525.324219 215.34375 503.042969 217.613281 C 477.605469 220.203125 446.472656 227.449219 430.679688 234.449219 C 418.898438 239.671875 390.855469 247.414062 368.839844 251.519531 C 339.113281 257.0625 304.832031 250.832031 272 233.925781 C 252.203125 223.730469 240.019531 208.847656 248.726562 205.507812 C 250.769531 204.722656 253.800781 206.71875 257.640625 211.375 C 261.101562 215.574219 268.808594 220.9375 276.65625 224.613281 C 283.914062 228.011719 291.410156 231.601562 293.316406 232.59375 C 299.84375 235.996094 324.503906 240.234375 337.777344 240.234375 C 356.292969 240.234375 370.246094 237.410156 400.902344 227.46875 C 485.160156 200.140625 536.730469 196.363281 597.453125 213.0625 C 605.5625 215.292969 617.199219 218.238281 623.3125 219.609375 C 629.425781 220.976562 641.363281 224.402344 649.84375 227.214844 C 681.3125 237.660156 693.921875 240.140625 715.855469 240.1875 C 733.636719 240.226562 738.902344 239.476562 749.269531 235.4375 C 765.582031 229.074219 784.535156 226.476562 814.640625 226.476562 C 842.863281 226.476562 854.671875 228.765625 860.957031 235.457031 C 864.515625 239.242188 864.886719 240.664062 862.929688 243.023438 C 858.84375 247.945312 849.207031 249.667969 818.574219 250.949219 C 792.753906 252.027344 787.503906 252.835938 776.316406 257.449219 C 764.683594 262.246094 760.984375 262.753906 735.039062 263.097656 C 719.363281 263.304688 700.789062 262.738281 693.761719 261.839844 Z M 693.761719 261.839844 " fill-opacity="1" fill-rule="nonzero"/></svg>